<?xml version="1.0" encoding="utf-8"?>
<!-- Generator: Adobe Illustrator 18.0.0, SVG Export Plug-In . SVG Version: 6.00 Build 0)  -->
<!DOCTYPE svg PUBLIC "-//W3C//DTD SVG 1.1//EN" "http://www.w3.org/Graphics/SVG/1.1/DTD/svg11.dtd">
<svg version="1.1" id="图层_1" xmlns="http://www.w3.org/2000/svg" xmlns:xlink="http://www.w3.org/1999/xlink" x="0px" y="0px"
	 viewBox="0 0 72 72" enable-background="new 0 0 72 72" xml:space="preserve">
<g>
	<path fill="#504F4F" d="M68.1,18.6c-2.1,0-3.9,1.7-3.9,3.9c0,1.3,0.7,2.5,1.6,3.2L51.6,37.3l-15-26.5c1.8-0.3,3.2-1.9,3.2-3.8
		c0-2.1-1.7-3.9-3.9-3.9c-2.1,0-3.9,1.7-3.9,3.9c0,1.9,1.3,3.4,3.1,3.8L20.4,37.3L6.1,25.6c1-0.7,1.6-1.8,1.6-3.2
		c0-2.1-1.7-3.9-3.9-3.9c-2.1,0-3.9,1.7-3.9,3.9c0,2.1,1.7,3.9,3.9,3.9c0.1,0,0.2,0,0.4,0l9.1,42.6h45.3l9.1-42.6c0.1,0,0.2,0,0.4,0
		c2.1,0,3.9-1.7,3.9-3.9C72,20.3,70.3,18.6,68.1,18.6L68.1,18.6z M36,20.1l11.6,20.6L36,50.1l-11.6-9.5L36,20.1L36,20.1z M17.5,63.7
		L17,61.1H55l-0.6,2.6H17.5L17.5,63.7z M55.6,58.6H16.4l-4.6-21.6L36,56.7l24.2-19.8L55.6,58.6L55.6,58.6z M55.6,58.6"/>
</g>
</svg>
