<?xml version="1.0" encoding="utf-8"?>
<!-- Generator: Adobe Illustrator 18.0.0, SVG Export Plug-In . SVG Version: 6.00 Build 0)  -->
<!DOCTYPE svg PUBLIC "-//W3C//DTD SVG 1.1//EN" "http://www.w3.org/Graphics/SVG/1.1/DTD/svg11.dtd">
<svg version="1.1" id="图层_1" xmlns="http://www.w3.org/2000/svg" xmlns:xlink="http://www.w3.org/1999/xlink" x="0px" y="0px"
	 viewBox="0 0 72 72" enable-background="new 0 0 72 72" xml:space="preserve">
<path style="fill-rule:evenodd;clip-rule:evenodd;" d="M0.5,15.2C0.5,9.5,4.8,1,14.7,1c5.7,0,9.9,3.6,9.9,3.6L2.6,23
	C2.6,23,0.5,19.4,0.5,15.2z M35.7,43.9H21.8V47h17.3V21.2H36v22.5h-0.3V43.9z M69.4,23l-22-18.5c0,0,4.3-3.6,9.9-3.6
	c9.9,0,14.2,8.5,14.2,14.2C71.5,19.4,69.4,23,69.4,23z M56.7,62.8C63,57.1,67,48.9,67,39.7C67,22.6,53.2,8.7,36.1,8.7
	S5.1,22.6,5.1,39.7c0,9.1,3.9,17.3,10.2,23l-5,5l2.2,2.2l5.2-5.2c5.1,3.8,11.5,6,18.3,6c6.8,0,13.1-2.2,18.2-5.9l5.1,5.1l2.2-2.2
	L56.7,62.8z"/>
</svg>
