<?xml version="1.0" encoding="utf-8"?>
<!-- Generator: Adobe Illustrator 18.0.0, SVG Export Plug-In . SVG Version: 6.00 Build 0)  -->
<!DOCTYPE svg PUBLIC "-//W3C//DTD SVG 1.0//EN" "http://www.w3.org/TR/2001/REC-SVG-20010904/DTD/svg10.dtd">
<svg version="1.0" id="图层_1" xmlns="http://www.w3.org/2000/svg" xmlns:xlink="http://www.w3.org/1999/xlink" x="0px" y="0px"
	 viewBox="0 0 72 72" enable-background="new 0 0 72 72" xml:space="preserve">
<path d="M56.5,62.8c-0.8,0.7-1.5,1.3-2.4,1.9l0,0L56.5,62.8L56.5,62.8z M15.1,62.6c0.8,0.7,1.6,1.4,2.4,2l0.1-0.1l-2.2-2.2
	L15.1,62.6z M35.6,43.9H21.6V47h17.3V21.2h-3.1v22.5h-0.3V43.9z M35.9,67.5C20.5,67.5,8,55,8,39.7s12.5-27.8,27.8-27.8
	s27.8,12.5,27.8,27.8S51.3,67.5,35.9,67.5z M14.5,4.1C7.8,4.1,3.4,9.5,3.4,15.2c0,0.9,0.1,1.8,0.3,2.7L19.1,5
	C17.6,4.4,16.1,4.1,14.5,4.1z M0.3,15.2C0.3,9.5,4.6,1,14.5,1c5.7,0,9.9,3.6,9.9,3.6L2.4,23C2.4,23,0.3,19.4,0.3,15.2z M69.2,23
	l-22-18.5c0,0,4.3-3.6,9.9-3.6C67,1,71.3,9.5,71.3,15.2C71.3,19.4,69.2,23,69.2,23z M56.5,62.8c6.3-5.7,10.3-13.9,10.3-23.1
	C66.8,22.6,53,8.7,35.9,8.7S4.9,22.6,4.9,39.7c0,9.1,3.9,17.3,10.2,23l-5,5l2.2,2.2l5.2-5.2c5.1,3.8,11.5,6,18.3,6
	c6.8,0,13.1-2.2,18.2-5.9l5.1,5.1l2.2-2.2L56.5,62.8z M68.2,15.2c0-5.7-4.4-11.1-11.1-11.1c-1.6,0-3.1,0.3-4.6,0.9l15.3,12.9
	C68.1,17,68.2,16.1,68.2,15.2z"/>
</svg>
