<?xml version="1.0" encoding="utf-8"?>
<!-- Generator: Adobe Illustrator 18.0.0, SVG Export Plug-In . SVG Version: 6.00 Build 0)  -->
<!DOCTYPE svg PUBLIC "-//W3C//DTD SVG 1.0//EN" "http://www.w3.org/TR/2001/REC-SVG-20010904/DTD/svg10.dtd">
<svg version="1.0" id="图层_1" xmlns="http://www.w3.org/2000/svg" xmlns:xlink="http://www.w3.org/1999/xlink" x="0px" y="0px"
	 viewBox="0 0 72 72" enable-background="new 0 0 72 72" xml:space="preserve">
<g>
	<path d="M14.7,1C4.8,1,0.5,9.5,0.5,15.2c0,4.2,2.1,7.8,2.1,7.8l22-18.5C24.6,4.5,20.4,1,14.7,1z"/>
	<path d="M67,39.7C67,22.6,53.2,8.7,36.1,8.7S5.1,22.6,5.1,39.7c0,9.1,3.9,17.3,10.2,23l-5,5l2.2,2.2l5.2-5.2c5.1,3.8,11.5,6,18.3,6
		c6.8,0,13.1-2.2,18.2-5.9l5.1,5.1l2.2-2.2l-5-4.8C63,57.1,67,48.8,67,39.7z M40.4,47.7H21.8v-3.8h13.9v-0.2H36V21.1h4.4V47.7z"/>
	<path d="M57.3,1c-5.7,0-9.9,3.6-9.9,3.6l22,18.5c0,0,2.1-3.6,2.1-7.8C71.5,9.5,67.2,1,57.3,1z"/>
</g>
</svg>
