<?xml version="1.0" encoding="utf-8"?>
<!-- Generator: Adobe Illustrator 18.0.0, SVG Export Plug-In . SVG Version: 6.00 Build 0)  -->
<!DOCTYPE svg PUBLIC "-//W3C//DTD SVG 1.0//EN" "http://www.w3.org/TR/2001/REC-SVG-20010904/DTD/svg10.dtd">
<svg version="1.0" id="图层_1" xmlns="http://www.w3.org/2000/svg" xmlns:xlink="http://www.w3.org/1999/xlink" x="0px" y="0px" viewBox="0 0 72 72" style="enable-background:new 0 0 72 72;" xml:space="preserve">
<g>
	<polygon style="fill-rule:evenodd;clip-rule:evenodd;" points="50.3,46 46,49.9 64.2,62.2 68.2,58.5 	"/>
	<path style="fill-rule:evenodd;clip-rule:evenodd;" d="M28.4,20c0.1-0.1,0.1-0.2,0.1-0.3L19.6,0.3c-0.1-0.2-0.3-0.2-0.4-0.1
		l-3.8,3.2l8.9,20L28.4,20z"/>
	<path style="fill-rule:evenodd;clip-rule:evenodd;" d="M40.8,54.6L18.9,28l3.5-3.1L13.5,4.8L3.8,13c0,0,1.8,8.4,4.9,17
		c3.1,8.6,11.4,21.1,19.6,27.8c10.1,8.7,24.7,14,24.7,14l9.3-8.1L44.2,51.4L40.8,54.6z"/>
</g>
</svg>
