<?xml version="1.0" encoding="utf-8"?>
<!-- Generator: Adobe Illustrator 18.0.0, SVG Export Plug-In . SVG Version: 6.00 Build 0)  -->
<!DOCTYPE svg PUBLIC "-//W3C//DTD SVG 1.0//EN" "http://www.w3.org/TR/2001/REC-SVG-20010904/DTD/svg10.dtd">
<svg version="1.0" id="图层_1" xmlns="http://www.w3.org/2000/svg" xmlns:xlink="http://www.w3.org/1999/xlink" x="0px" y="0px"
	 viewBox="0 0 72 72" enable-background="new 0 0 72 72" xml:space="preserve">
<g id="Page-1_15_">
	<g id="icons_contact">
		<path id="Combined-Shape_13_" fill="#514F4F" d="M45.9,50.4l2.6-2.5l2.2-1.3c0.1-0.1,0.4-0.1,0.6-0.1l18.7,3.4
			c0.2,0,0.3,0.2,0.3,0.3v2.6v13.2c0,2.1-1.7,3.8-3.9,3.8c-3.4,0-6.8-0.3-10-0.7C24.5,64.4,0.1,37.9,0.1,5.9c0-2.1,1.8-3.8,3.9-3.8
			h10.7c-0.5,12.4,5.5,23.5,5.5,23.5l1.8-1.7C16.6,13,17,2.1,17,2.1s-2.2,0-2.3,0h2.9h2.7c0.2,0,0.3,0.1,0.3,0.3
			c0,0,0.3,4.3,1.2,9.1c0.9,4.7,2.3,9.1,2.3,9.1c0.1,0.2,0,0.4-0.1,0.5l-1.3,2.1l-8.6,8.3c5.6,10.6,14.6,19.4,25.6,24.8L45.9,50.4
			c11.8,5.9,24.3,5.4,24.3,5.4v-2.3c-12.1,0.1-22.4-4.9-22.4-4.9S46.2,50.1,45.9,50.4z M43.4,18.8c-0.6,0-1.2,0.5-1.2,1.2
			s0.5,1.2,1.2,1.2c4.2,0,7.7,3.3,7.7,7.4c0,0.6,0.5,1.2,1.2,1.2c0.6,0,1.2-0.5,1.2-1.2C53.4,23.1,48.9,18.8,43.4,18.8z M60.7,20.7
			c-3.2-6.1-9.6-10.1-16.8-10.1c-0.6,0-1.2,0.5-1.2,1.2c0,0.6,0.5,1.2,1.2,1.2c6.3,0,12,3.5,14.8,8.8c1.1,2.2,1.7,4.6,1.7,7.1
			c0,0.6,0.5,1.2,1.2,1.2s1.2-0.5,1.2-1.2C62.7,26,62,23.2,60.7,20.7z M66,12.7C60.8,6.3,52.8,2.4,44.2,2.4c-0.6,0-1.2,0.5-1.2,1.2
			s0.5,1.2,1.2,1.2c7.9,0,15.2,3.5,20,9.4c3.5,4.3,5.4,9.6,5.4,15.1c0,0.6,0.5,1.2,1.2,1.2c0.6,0,1.2-0.5,1.2-1.2
			C71.9,23.2,69.8,17.4,66,12.7z"/>
	</g>
</g>
</svg>
