<?xml version="1.0" encoding="utf-8"?>
<!-- Generator: Adobe Illustrator 18.0.0, SVG Export Plug-In . SVG Version: 6.00 Build 0)  -->
<!DOCTYPE svg PUBLIC "-//W3C//DTD SVG 1.0//EN" "http://www.w3.org/TR/2001/REC-SVG-20010904/DTD/svg10.dtd">
<svg version="1.0" id="图层_1" xmlns="http://www.w3.org/2000/svg" xmlns:xlink="http://www.w3.org/1999/xlink" x="0px" y="0px"
	 viewBox="0 0 72 72" enable-background="new 0 0 72 72" xml:space="preserve">
<g>
	<path fill="#514F4F" d="M36,14.3c1.6,0,3-1.4,3-3.1V3.1c0-1.7-1.3-3.1-3-3.1c-1.6,0-3,1.4-3,3.1v8.2C33,13,34.4,14.3,36,14.3z"/>
	<path fill="#514F4F" d="M52.7,14.3c1.6,0,3-1.4,3-3.1V3.1c0-1.7-1.3-3.1-3-3.1c-1.6,0-3,1.4-3,3.1v8.2C49.8,13,51.1,14.3,52.7,14.3
		z"/>
	<path fill="#514F4F" d="M19.1,14.3c1.6,0,3-1.4,3-3.1V3.1c0-1.7-1.3-3.1-3-3.1c-1.6,0-3,1.4-3,3.1v8.2C16.2,13,17.5,14.3,19.1,14.3
		z"/>
	<path fill="#514F4F" d="M64.9,6.5c-3.8-0.1-6.4,0-6.4,0s1.1,10.6-5.7,11c-1.6,0-6.5-0.2-7-11.1c-1.6-0.1-3.4,0-3.4,0
		s1.4,9.7-6.4,11c-1.1,0-6.6,1-6.4-10.9c-2.7,0-3.4,0-3.4,0s1.4,10.8-7.1,11c-1.1,0-6.3,0.5-5.8-11c-3.4,0-6,0-6,0S4,5.7,4,9.8v58.7
		c0,0-0.4,3.5,3.3,3.5h57.5c0,0,3.2,0.3,3.2-3.6V9.8C68,9.8,68.5,6.1,64.9,6.5z M59.9,57.3v0.6c0,1.6-1.3,2.9-2.8,2.9H14.8
		c-1.6,0-2.8-1.3-2.8-2.9v-0.6c0-1.6,1.3-2.9,2.8-2.9h42.3C58.6,54.4,59.9,55.7,59.9,57.3L59.9,57.3z M59.9,42.9v0.6
		c0,1.6-1.3,2.9-2.8,2.9H14.8c-1.6,0-2.8-1.3-2.8-2.9v-0.6c0-1.6,1.3-2.9,2.8-2.9h42.3C58.6,40,59.9,41.3,59.9,42.9L59.9,42.9z
		 M60.1,29.1c0,1.6-1.3,2.9-2.8,2.9H15c-1.6,0-2.8-1.3-2.8-2.9v-0.6c0-1.6,1.3-2.9,2.8-2.9h42.3c1.6,0,2.8,1.3,2.8,2.9V29.1z"/>
</g>
</svg>
