<?xml version="1.0" encoding="utf-8"?>
<!-- Generator: Adobe Illustrator 18.0.0, SVG Export Plug-In . SVG Version: 6.00 Build 0)  -->
<!DOCTYPE svg PUBLIC "-//W3C//DTD SVG 1.0//EN" "http://www.w3.org/TR/2001/REC-SVG-20010904/DTD/svg10.dtd">
<svg version="1.0" id="图层_1" xmlns="http://www.w3.org/2000/svg" xmlns:xlink="http://www.w3.org/1999/xlink" x="0px" y="0px"
	 viewBox="0 0 72 72" enable-background="new 0 0 72 72" xml:space="preserve">
<g id="Page-1_3_">
	<g id="icons_creatcv2">
		<path id="Combined-Shape_2_" fill="#514F4F" d="M13,8.5c-1.6,0-2.5,0-2.5,0c-3.8,0-6.8,0-6.8,0S0,7.7,0,11.4v51.8
			c0,0-0.4,3.1,3.7,3.1h64.6c0,0,3.6,0.3,3.6-3.1V11.4c0,0,0.6-3.2-3.5-2.9c-0.7,0-2.5,0-5.1,0c-0.6-1.5-2.2-2.6-3.9-2.6
			c-1.8,0-3.3,1.1-3.9,2.6c-4,0-8.7,0-13.4,0c-0.6-1.5-2.2-2.6-3.9-2.6c-1.8,0-3.3,1.1-3.9,2.6c-4.8,0-9.5,0-13.3,0
			c-0.6-1.6-2.2-2.7-3.9-2.7C15.2,5.8,13.6,6.9,13,8.5z M20.4,12.7l14.4,0c0.8,1,2,1.7,3.4,1.7c1.4,0,2.6-0.7,3.4-1.7l14.4,0
			c0.8,1,2,1.7,3.4,1.7c1.4,0,2.6-0.7,3.4-1.7l4.9,0V62H4.3V12.7l9.3,0c0.8,1,2,1.7,3.4,1.7C18.4,14.4,19.6,13.7,20.4,12.7z
			 M12.7,30.1c0-1.5,1.2-2.6,2.6-2.6h39.9c1.5,0,2.6,1.2,2.6,2.6c0,1.5-1.2,2.6-2.6,2.6H15.4C13.9,32.8,12.7,31.6,12.7,30.1z
			 M12.7,42.7c0-1.5,1.2-2.6,2.6-2.6h39.9c1.5,0,2.6,1.2,2.6,2.6c0,1.5-1.2,2.6-2.6,2.6H15.4C13.9,45.4,12.7,44.2,12.7,42.7z"/>
	</g>
</g>
</svg>
