<?xml version="1.0" encoding="utf-8"?>
<!-- Generator: Adobe Illustrator 18.0.0, SVG Export Plug-In . SVG Version: 6.00 Build 0)  -->
<!DOCTYPE svg PUBLIC "-//W3C//DTD SVG 1.0//EN" "http://www.w3.org/TR/2001/REC-SVG-20010904/DTD/svg10.dtd">
<svg version="1.0" id="图层_1" xmlns="http://www.w3.org/2000/svg" xmlns:xlink="http://www.w3.org/1999/xlink" x="0px" y="0px"
	 viewBox="0 0 72 72" enable-background="new 0 0 72 72" xml:space="preserve">
<g>
	<path fill="#514F4F" d="M65.8,16.5c0.3-0.3,0.7-0.6,1.1-1c0.4-0.4,0.9-0.8,1.4-1.4c0.5-0.5,0.8-1.1,1-1.6c0.2-0.6,0.3-1.1,0.3-1.7
		c0-0.1,0-0.2,0-0.4c0.1-1-0.2-2-0.8-3c-0.4-0.7-0.9-1.4-1.6-2c-1.2-1.1-2.5-1.7-3.9-2c-0.3,0-0.6-0.1-0.9-0.1c-0.1,0-0.1,0-0.2,0
		c-0.6,0-1.2,0.1-1.8,0.3c-0.6,0.2-1.3,0.5-1.9,1c-0.5,0.4-1.1,0.9-1.8,1.6C56.2,6.9,55.5,7.5,55,8l9.8,9.5
		C65.1,17.2,65.4,16.9,65.8,16.5z"/>
	<path fill="#514F4F" d="M32.9,30c-1.1,1.1-4.3,4.2-5.1,5c-0.8,0.8-1.2,1.3-1.5,1.5c-0.5,0.5-0.9,0.9-1.1,1.3
		c-0.3,0.4-0.5,0.8-0.7,1.3c-0.2,0.3-0.4,0.9-0.7,1.7c-0.3,0.8-0.6,1.7-0.9,2.7c-0.3,1-0.6,1.9-0.8,2.8c-0.3,0.9-0.4,1.6-0.5,2.1
		c-0.1,0.9-0.1,1.5,0.3,1.9c0.3,0.4,0.9,0.5,1.9,0.4c0.5-0.1,1.1-0.2,2.1-0.5c0.9-0.2,1.9-0.5,2.9-0.9c1-0.3,2-0.7,2.9-1
		c0.9-0.3,1.6-0.6,2.1-0.9c0.5-0.2,1-0.5,1.4-0.8c0.5-0.3,0.9-0.7,1.2-1c0.1-0.1,0.6-0.5,1.3-1.2c0.7-0.7,1.6-1.6,2.8-2.8
		c1.1-1.1,4.6-4.5,6-5.8l4.2-4.2l10.9-10.9l-9.8-9.5L40.9,22.1L32.9,30z"/>
	<path fill="#514F4F" d="M62.8,25.4v38.4c0,0-53.6,0-53.6,0c0,0,0-55.6,0-55.6H46V0H9.2C4.7,0,1,3.7,1,8.2v55.6
		C1,68.3,4.7,72,9.2,72h53.6c4.5,0,8.2-3.7,8.2-8.2V25.4H62.8z"/>
</g>
</svg>
