<?xml version="1.0" encoding="utf-8"?>
<!-- Generator: Adobe Illustrator 18.0.0, SVG Export Plug-In . SVG Version: 6.00 Build 0)  -->
<!DOCTYPE svg PUBLIC "-//W3C//DTD SVG 1.0//EN" "http://www.w3.org/TR/2001/REC-SVG-20010904/DTD/svg10.dtd">
<svg version="1.0" id="图层_1" xmlns="http://www.w3.org/2000/svg" xmlns:xlink="http://www.w3.org/1999/xlink" x="0px" y="0px"
	 viewBox="0 0 72 72" enable-background="new 0 0 72 72" xml:space="preserve">
<g id="Page-1_5_">
	<g id="icons_creditcard">
		<path id="Combined-Shape_4_" fill="#514F4F" d="M3.9,13.8c0-1.1,0.9-2,1.9-2h60.4c1.1,0,1.9,0.9,1.9,2V59c0,1.1-0.9,2-1.9,2H5.8
			c-1.1,0-1.9-0.9-1.9-2V13.8z M0,13.8V59c0,3.2,2.6,5.8,5.8,5.8h60.4c3.2,0,5.8-2.6,5.8-5.8V13.8c0-3.2-2.6-5.8-5.8-5.8H5.8
			C2.6,8,0,10.6,0,13.8z M3.9,29.8h64.5v-4.6H3.9V29.8z M39.1,39.4h21.7v7.9H39.1V39.4z"/>
	</g>
</g>
</svg>
