<?xml version="1.0" encoding="utf-8"?>
<!-- Generator: Adobe Illustrator 18.0.0, SVG Export Plug-In . SVG Version: 6.00 Build 0)  -->
<!DOCTYPE svg PUBLIC "-//W3C//DTD SVG 1.1//EN" "http://www.w3.org/Graphics/SVG/1.1/DTD/svg11.dtd">
<svg version="1.1" id="图层_1" xmlns="http://www.w3.org/2000/svg" xmlns:xlink="http://www.w3.org/1999/xlink" x="0px" y="0px"
	 viewBox="0 0 72 72" enable-background="new 0 0 72 72" xml:space="preserve">
<g>
	<path fill-rule="evenodd" clip-rule="evenodd" fill="#504F4F" d="M10.3,10.2v17.1H6.9v3.4H3.4v3.4H0v3.4h3.4v3.4h3.4v3.4h3.4v17.1
		H72V10.2H10.3z M68.6,58.2H13.7V41.1h-3.4v-3.4H6.9v-3.4h3.4v-3.4h3.4V13.7h54.9V58.2z"/>
	<polygon fill-rule="evenodd" clip-rule="evenodd" fill="#504F4F" points="27.4,51.4 30.9,51.4 30.9,20.5 27.4,20.5 27.4,34.2 
		24,34.2 24,37.7 27.4,37.7 	"/>
	<path fill-rule="evenodd" clip-rule="evenodd" fill="#504F4F" d="M44.6,51.4h13.7v-3.4H48v-6.9h6.9v-3.4H48v-3.4h6.9V20.5H34.3
		v13.7h10.3v10.3h-6.9v-6.9h-3.4v10.3h10.3V51.4z M37.7,30.8v-6.9h13.7v6.9H37.7z"/>
</g>
</svg>
