<?xml version="1.0" encoding="utf-8"?>
<!-- Generator: Adobe Illustrator 18.0.0, SVG Export Plug-In . SVG Version: 6.00 Build 0)  -->
<!DOCTYPE svg PUBLIC "-//W3C//DTD SVG 1.1//EN" "http://www.w3.org/Graphics/SVG/1.1/DTD/svg11.dtd">
<svg version="1.1" id="图层_1" xmlns="http://www.w3.org/2000/svg" xmlns:xlink="http://www.w3.org/1999/xlink" x="0px" y="0px"
	 viewBox="0 0 72 72" enable-background="new 0 0 72 72" xml:space="preserve">
<path fill="#504F4F" d="M41.8,10.9"/>
<g>
	<path fill="#504F4F" d="M41.2,53.6V25.3c0-3.3,5.1-3.3,5.1,0v28.3C46.3,56.9,41.2,56.9,41.2,53.6L41.2,53.6L41.2,53.6z M25.7,53.6
		V25.3c0-3.3,5.2-3.3,5.2,0v28.3C30.9,56.9,25.7,56.9,25.7,53.6L25.7,53.6L25.7,53.6z M69.5,12.5H56.6V7.3c0-4.3-3.5-7.7-7.6-7.7
		H23.1c-4.3,0-7.7,3.5-7.7,7.7v5.1H2.5c-3.3,0-3.3,5.1,0,5.1h67C72.8,17.6,72.8,12.5,69.5,12.5L69.5,12.5L69.5,12.5z M20.5,7.3
		c0-1.4,1.2-2.6,2.6-2.6H49c1.4,0,2.5,1,2.5,2.6v5.1H20.5V7.3L20.5,7.3z M54,71.6H18c-4.3,0-7.7-3.5-7.7-7.7V25.3
		c0-1.5,1.2-2.6,2.6-2.6c1.4,0,2.6,1,2.6,2.6v38.6c0,1.4,1.2,2.6,2.6,2.6H54c1.4,0,2.6-1.2,2.6-2.6V25.4c0-3.4,5.1-3.4,5.1,0v38.5
		C61.8,68.1,58.3,71.6,54,71.6L54,71.6z M54,71.6"/>
</g>
</svg>
