<?xml version="1.0" encoding="utf-8"?>
<!-- Generator: Adobe Illustrator 18.0.0, SVG Export Plug-In . SVG Version: 6.00 Build 0)  -->
<!DOCTYPE svg PUBLIC "-//W3C//DTD SVG 1.1//EN" "http://www.w3.org/Graphics/SVG/1.1/DTD/svg11.dtd">
<svg version="1.1" id="图层_1" xmlns="http://www.w3.org/2000/svg" xmlns:xlink="http://www.w3.org/1999/xlink" x="0px" y="0px"
	 viewBox="0 0 72 72" enable-background="new 0 0 72 72" xml:space="preserve">
<g>
	<path fill="#504F4F" d="M72,23.7c0-2.9-1.1-5.7-3.2-7.8L56.2,3.3C54,1.1,51.2,0,48.3,0v0l0,0c-2.8,0-5.7,1.1-7.8,3.2
		C27.3,16.4,14.1,29.7,0.9,42.9l0,0.1h0l0,0l0,0l0,0v0h0l0,0v0l0,0v0h0l0,0l0,0.1v0v0l0,0v0l0,0v0v0l-0.1,0v0l0,0l0,0h0l0,0l0,0
		l0,0.1l0,0v0l0,0v0l0,0v0v0v0l0,0v0l0,0.1v0v0.1v0l0,0v0v0l0,0v0v0v0.1v0.1v0V69c0,1.7,1.3,3,3,3h24.2h0h0.1l0.1,0h0.1h0.1h0.1l0,0
		l0.1,0l0.1,0h0.1h0.1l0.1-0.1h0.1l0.1,0l0,0l0.1,0l0.1,0l0.1,0l0.1,0l0.1,0l0,0l0.1,0l0,0l0,0l0.1,0l0,0l0.1,0l0-0.1l0-0.1
		c13.2-13.2,26.4-26.4,39.6-39.6C70.9,29.3,72,26.5,72,23.7L72,23.7L72,23.7L72,23.7z M35.5,16.8L35.5,16.8l3.6,3.6L10.8,48.6
		L7.3,45L35.5,16.8L35.5,16.8L35.5,16.8z M6,66L6,66V52.2L19.7,66H6L6,66L6,66z M13.4,51.1L13.4,51.1l28.2-28.2l7.5,7.5L20.8,58.6
		L13.4,51.1L13.4,51.1L13.4,51.1z M27,64.8L27,64.8l-3.6-3.6l28.3-28.3l3.6,3.6L27,64.8L27,64.8L27,64.8z M66,23.7L66,23.7L66,23.7
		c0,1.3-0.5,2.6-1.5,3.6l-5,5L39.7,12.6l0.5-0.5l1.8-1.8l2.7-2.7c1-1,2.3-1.5,3.6-1.5v0c1.3,0,2.6,0.5,3.6,1.5l12.6,12.6
		C65.5,21.1,66,22.4,66,23.7L66,23.7L66,23.7L66,23.7z M66,23.7"/>
</g>
</svg>
