<?xml version="1.0" encoding="utf-8"?>
<!-- Generator: Adobe Illustrator 18.0.0, SVG Export Plug-In . SVG Version: 6.00 Build 0)  -->
<!DOCTYPE svg PUBLIC "-//W3C//DTD SVG 1.0//EN" "http://www.w3.org/TR/2001/REC-SVG-20010904/DTD/svg10.dtd">
<svg version="1.0" id="图层_1" xmlns="http://www.w3.org/2000/svg" xmlns:xlink="http://www.w3.org/1999/xlink" x="0px" y="0px"
	 viewBox="0 0 72 72" enable-background="new 0 0 72 72" xml:space="preserve">
<g id="Page-1_16_">
	<g id="icons_finish">
		<path id="Combined-Shape_14_" fill="#514F4F" d="M36,72c19.9,0,36-16.1,36-36S55.9,0,36,0S0,16.1,0,36S16.1,72,36,72z M36,66.6
			C19.1,66.6,5.3,52.9,5.3,36S19.1,5.3,36,5.3S66.7,19,66.7,36S52.9,66.6,36,66.6z M23.1,38.3c-1.1-1.5-3.2-1.7-4.7-0.6
			s-1.7,3.2-0.6,4.7L31,59.4l25.5-37.1c1-1.5,0.7-3.6-0.9-4.6c-1.5-1-3.6-0.7-4.6,0.9L30.7,48.1L23.1,38.3z"/>
	</g>
</g>
</svg>
