<?xml version="1.0" encoding="utf-8"?>
<!-- Generator: Adobe Illustrator 18.0.0, SVG Export Plug-In . SVG Version: 6.00 Build 0)  -->
<!DOCTYPE svg PUBLIC "-//W3C//DTD SVG 1.1//EN" "http://www.w3.org/Graphics/SVG/1.1/DTD/svg11.dtd">
<svg version="1.1" id="图层_1" xmlns="http://www.w3.org/2000/svg" xmlns:xlink="http://www.w3.org/1999/xlink" x="0px" y="0px"
	 viewBox="0 0 72 72" enable-background="new 0 0 72 72" xml:space="preserve">
<path fill="#504F4F" d="M41.8,10.9"/>
<g>
	<path fill="#504F4F" d="M41.1,66.4v-5.1c14.2,0,25.7-11.5,25.7-25.7c0-14.2-11.5-25.7-25.7-25.7c-14.2,0-25.7,11.5-25.7,25.7h-5.1
		c0-17,13.8-30.8,30.9-30.8c17,0,30.9,13.8,30.9,30.8C72,52.6,58.2,66.4,41.1,66.4L41.1,66.4L41.1,66.4z M41.1,66.4
		c-1.4,0-2.6-1.1-2.6-2.6c0-1.4,1.2-2.6,2.6-2.6c1.4,0,2.6,1.2,2.6,2.6C43.7,65.2,42.6,66.4,41.1,66.4L41.1,66.4L41.1,66.4z
		 M12.9,51L0,35.6h25.7L12.9,51L12.9,51z M12.9,51"/>
</g>
</svg>
