<?xml version="1.0" encoding="utf-8"?>
<!-- Generator: Adobe Illustrator 18.0.0, SVG Export Plug-In . SVG Version: 6.00 Build 0)  -->
<!DOCTYPE svg PUBLIC "-//W3C//DTD SVG 1.0//EN" "http://www.w3.org/TR/2001/REC-SVG-20010904/DTD/svg10.dtd">
<svg version="1.0" id="图层_1" xmlns="http://www.w3.org/2000/svg" xmlns:xlink="http://www.w3.org/1999/xlink" x="0px" y="0px"
	 viewBox="0 0 72 72" enable-background="new 0 0 72 72" xml:space="preserve">
<path fill="#514F4F" d="M69.1,30L43.3,3.1C41.3,1.1,38.8,0,36,0c-2.8,0-5.3,1.1-7.3,3.1L26,5.9c-0.4-0.4-1-0.6-1.6-0.6h-14
	c-1.3,0-2.3,1-2.3,2.3v16.9L2.9,30c-2.9,3-2.5,5.4-2,6.6c0.5,1.2,1.9,3.1,6.2,3.1h1.4v29.9c0,1.3,1,2.3,2.3,2.3h50.6
	c1.3,0,2.3-1,2.3-2.3V39.8H65c4.2,0,5.7-1.9,6.2-3.1C71.7,35.5,72.1,33.1,69.1,30z M12.7,9.9h9.4V10l-9.4,9.8V9.9z M44,67.4h-6.9
	V51.1H44V67.4z M59,67.4H48.6V48.8c0-1.3-1-2.3-2.3-2.3H34.9c-1.3,0-2.3,1-2.3,2.3v18.6H13V39.8h46V67.4z M65,35.2H7
	c-1.1,0-1.7-0.2-1.9-0.3c0.1-0.2,0.3-0.8,1.1-1.6L32,6.3c2.1-2.2,5.8-2.2,7.9,0l25.9,26.9c0.8,0.8,1,1.4,1.1,1.6
	C66.7,35,66.1,35.2,65,35.2z"/>
</svg>
