<?xml version="1.0" encoding="utf-8"?>
<!-- Generator: Adobe Illustrator 18.0.0, SVG Export Plug-In . SVG Version: 6.00 Build 0)  -->
<!DOCTYPE svg PUBLIC "-//W3C//DTD SVG 1.1//EN" "http://www.w3.org/Graphics/SVG/1.1/DTD/svg11.dtd">
<svg version="1.1" id="图层_1" xmlns="http://www.w3.org/2000/svg" xmlns:xlink="http://www.w3.org/1999/xlink" x="0px" y="0px"
	 viewBox="0 0 72 72" enable-background="new 0 0 72 72" xml:space="preserve">
<path fill-rule="evenodd" clip-rule="evenodd" fill="#504F4F" d="M36,0C16.1,0,0,16.1,0,36c0,19.9,16.1,36,36,36s36-16.1,36-36
	C72,16.1,55.9,0,36,0z M36,59.3c-12.9,0-23.3-10.4-23.3-23.3c0-12.9,10.4-23.3,23.3-23.3c12.9,0,23.3,10.4,23.3,23.3
	C59.3,48.9,48.9,59.3,36,59.3z"/>
<path fill="#504F4F" d="M33.6,22.3v4.3h5v-4.3H33.6z M33.6,29.8c0.2,1.4,0.3,2.5,0.3,4.4v10.6c0,1.7-0.1,2.9-0.3,4.4h4.9
	c-0.2-1.4-0.2-2.6-0.2-4.4V34.3c0-2.1,0.1-3.2,0.2-4.4H33.6z"/>
</svg>
