<?xml version="1.0" encoding="utf-8"?>
<!-- Generator: Adobe Illustrator 18.0.0, SVG Export Plug-In . SVG Version: 6.00 Build 0)  -->
<!DOCTYPE svg PUBLIC "-//W3C//DTD SVG 1.0//EN" "http://www.w3.org/TR/2001/REC-SVG-20010904/DTD/svg10.dtd">
<svg version="1.0" id="图层_1" xmlns="http://www.w3.org/2000/svg" xmlns:xlink="http://www.w3.org/1999/xlink" x="0px" y="0px"
	 viewBox="0 0 72 72" enable-background="new 0 0 72 72" xml:space="preserve">
<g id="Page-1_7_">
	<g id="icons_insurance">
		<path id="Combined-Shape_6_" fill="#514F4F" d="M32.9,1.2L1.7,27.9l-0.9,0.8V72h70.5V28.7L39.1,1.2C37.3-0.4,34.7-0.4,32.9,1.2z
			 M66.1,31v35.8H5.9V31L36,5.3L66.1,31z M23,28.5l8.4,15.2h-5.7v2.7H33l0,0v3.7h-7.3v2.7H33v6.6h5v-6.6h7.3v-2.7h-7.3v-3.7l0,0h7.3
			v-2.7h-5.8L48,28.5h-5.7l-6.8,13.3l-6.8-13.3H23z"/>
	</g>
</g>
</svg>
