<?xml version="1.0" encoding="utf-8"?>
<!-- Generator: Adobe Illustrator 18.0.0, SVG Export Plug-In . SVG Version: 6.00 Build 0)  -->
<!DOCTYPE svg PUBLIC "-//W3C//DTD SVG 1.0//EN" "http://www.w3.org/TR/2001/REC-SVG-20010904/DTD/svg10.dtd">
<svg version="1.0" id="图层_1" xmlns="http://www.w3.org/2000/svg" xmlns:xlink="http://www.w3.org/1999/xlink" x="0px" y="0px"
	 viewBox="0 0 72 72" enable-background="new 0 0 72 72" xml:space="preserve">
<path fill="#514F4F" d="M69,9.7H3c-1.7,0-3,1.3-3,3V60c0,1.7,1.3,3,3,3h66c1.7,0,3-1.3,3-3V12.7C72,11.1,70.7,9.7,69,9.7z
	 M67.5,12.7L36.1,44.5L4.5,12.7C13.4,12.7,58.6,12.7,67.5,12.7z M3,57.6c0-8,0-33.8,0-42.2l19.7,19.8L3,57.6z M4.9,60l20-22.7
	l11.4,11.4l11.1-11.2L67.1,60C57.6,60,14.4,60,4.9,60z M69,57.6L49.5,35.3L69,15.4C69,23.8,69,49.6,69,57.6z"/>
</svg>
