<?xml version="1.0" encoding="utf-8"?>
<!-- Generator: Adobe Illustrator 18.0.0, SVG Export Plug-In . SVG Version: 6.00 Build 0)  -->
<!DOCTYPE svg PUBLIC "-//W3C//DTD SVG 1.1//EN" "http://www.w3.org/Graphics/SVG/1.1/DTD/svg11.dtd">
<svg version="1.1" id="图层_1" xmlns="http://www.w3.org/2000/svg" xmlns:xlink="http://www.w3.org/1999/xlink" x="0px" y="0px"
	 viewBox="0 0 72 72" enable-background="new 0 0 72 72" xml:space="preserve">
<g>
	<path fill="#504F4F" d="M52.8,0H19.2c-3.2,0-5.8,2.6-5.8,5.8v11.9v32.8v15.7c0,3.2,2.6,5.8,5.8,5.8h33.5c3.2,0,5.8-2.6,5.8-5.8
		V50.5V17.7V5.8C58.5,2.6,55.9,0,52.8,0L52.8,0z M52.1,6.4v5.5H19.9V6.4H52.1L52.1,6.4z M52.1,49.9H19.9V18.4h32.2L52.1,49.9
		L52.1,49.9z M19.9,65.6v-9.3h32.2v9.3H19.9L19.9,65.6z M39,57.6L39,57.6l-6,0.1c-1.8,0-3.2,1.5-3.2,3.3c0,1.8,1.5,3.2,3.2,3.2h0.1
		l6-0.1c1.8,0,3.2-1.5,3.2-3.3C42.2,59,40.7,57.6,39,57.6L39,57.6z M39,57.6"/>
</g>
</svg>
