<?xml version="1.0" encoding="utf-8"?>
<!-- Generator: Adobe Illustrator 18.0.0, SVG Export Plug-In . SVG Version: 6.00 Build 0)  -->
<!DOCTYPE svg PUBLIC "-//W3C//DTD SVG 1.0//EN" "http://www.w3.org/TR/2001/REC-SVG-20010904/DTD/svg10.dtd">
<svg version="1.0" id="图层_1" xmlns="http://www.w3.org/2000/svg" xmlns:xlink="http://www.w3.org/1999/xlink" x="0px" y="0px"
	 viewBox="0 0 72 72" enable-background="new 0 0 72 72" xml:space="preserve">
<g id="Page-1_10_">
	<g id="icons_nearby">
		<path id="Combined-Shape_9_" fill="#514F4F" d="M48,37c5.2-3.8,8.4-9.9,8.4-16.5c0-11.3-9.1-20.4-20.3-20.4S15.8,9.2,15.8,20.5
			c0,6.6,3.1,12.7,8.3,16.5l2.8-3.9c-4-2.9-6.4-7.6-6.4-12.6c0-8.6,7-15.6,15.5-15.6s15.5,7,15.5,15.6c0,5.1-2.4,9.7-6.4,12.6L48,37
			z M45.7,32.6l-9.3,16.5c-0.4,0.7-0.3,0.7-0.7,0l-9-16.5l-4.2,2.3l9.1,16.5c2.3,3.9,6.8,4,9,0.1l9.3-16.6L45.7,32.6z M36.1,32.9
			c6.8,0,12.4-5.6,12.4-12.4S42.9,8.1,36.1,8.1s-12.4,5.6-12.4,12.4S29.3,32.9,36.1,32.9z M36.1,28.1c-4.2,0-7.6-3.4-7.6-7.6
			s3.4-7.6,7.6-7.6s7.6,3.4,7.6,7.6S40.3,28.1,36.1,28.1z M19.3,10.4h-12c-4,0-7.2,3.2-7.2,7.2v46.9c0,4,3.2,7.2,7.2,7.2h57.5
			c4,0,7.2-3.2,7.2-7.2V17.6c0-4-3.2-7.2-7.2-7.2h-12c-1.3,0-2.4,1.1-2.4,2.4s1.1,2.4,2.4,2.4h12c1.3,0,2.4,1.1,2.4,2.4v46.9
			c0,1.3-1.1,2.4-2.4,2.4H7.3c-1.3,0-2.4-1.1-2.4-2.4V17.6c0-1.4,1.1-2.4,2.4-2.4h12c1.3,0,2.4-1.1,2.4-2.4S20.6,10.4,19.3,10.4z"/>
	</g>
</g>
</svg>
