<?xml version="1.0" encoding="utf-8"?>
<!-- Generator: Adobe Illustrator 18.0.0, SVG Export Plug-In . SVG Version: 6.00 Build 0)  -->
<!DOCTYPE svg PUBLIC "-//W3C//DTD SVG 1.0//EN" "http://www.w3.org/TR/2001/REC-SVG-20010904/DTD/svg10.dtd">
<svg version="1.0" id="图层_1" xmlns="http://www.w3.org/2000/svg" xmlns:xlink="http://www.w3.org/1999/xlink" x="0px" y="0px"
	 viewBox="0 0 72 72" enable-background="new 0 0 72 72" xml:space="preserve">
<path style="fill-rule:evenodd;clip-rule:evenodd;fill:#231815;" d="M65.9,12.8C60.7,6.3,52.7,2.5,44.1,2.5C43.5,2.5,43,3,43,3.7
	s0.5,1.2,1.2,1.2c7.9,0,15.2,3.5,20,9.4c3.5,4.3,5.4,9.6,5.4,15.1c0,0.6,0.5,1.2,1.2,1.2c0.6,0,1.2-0.5,1.2-1.2
	C71.8,23.3,69.7,17.5,65.9,12.8z M60.6,20.8c-3.2-6.1-9.7-10.1-16.9-10.1c-0.6,0-1.2,0.5-1.2,1.2c0,0.6,0.5,1.2,1.2,1.2
	c6.3,0,12,3.5,14.8,8.8c1.1,2.2,1.7,4.6,1.7,7.2c0,0.6,0.5,1.2,1.2,1.2c0.6,0,1.2-0.5,1.2-1.2C62.6,26.1,61.9,23.3,60.6,20.8z
	 M43.3,18.9c-0.6,0-1.2,0.5-1.2,1.2c0,0.6,0.5,1.2,1.2,1.2c4.3,0,7.7,3.3,7.7,7.4c0,0.6,0.5,1.2,1.2,1.2c0.6,0,1.2-0.5,1.2-1.2
	C53.3,23.2,48.9,18.9,43.3,18.9z M15.7,2.2h1.9h2.3c0.4,0,0.7,0.3,0.8,0.7c0,0,0.2,3.9,1.2,8.6c0.9,4.7,2.2,8.7,2.2,8.7
	c0.1,0.4,0,0.9-0.2,1.2l-1.1,1.7L21,24.9C17.4,17.8,15.7,10.3,15.7,2.2z M70.1,54.8V53v-2.2c0-0.4-0.3-0.7-0.7-0.8l-18-3.3
	c-0.4-0.1-1,0-1.3,0.2L48.3,48l-1.6,1.5c0.1,0,0.1,0,0.1,0C54.3,53,61.7,54.8,70.1,54.8C70.1,54.8,70.1,54.8,70.1,54.8z M70.1,57.1
	v9.1c0,2.1-1.7,3.8-3.9,3.8c-3.4,0-6.8-0.3-10.1-0.7C24.4,64.5,0,38,0,5.9c0-2.1,1.8-3.8,3.9-3.8h9.4c0,8.4,2.2,17,5.9,24.4l-5.1,5
	c5.6,10.7,14.6,19.4,25.7,24.8l5.1-4.9c0.2,0.1,0.2,0.1,0.4,0.2C52.9,55.2,61.4,57.1,70.1,57.1C70.1,57.1,70.1,57.1,70.1,57.1z"/>
</svg>
