<?xml version="1.0" encoding="utf-8"?>
<!-- Generator: Adobe Illustrator 18.0.0, SVG Export Plug-In . SVG Version: 6.00 Build 0)  -->
<!DOCTYPE svg PUBLIC "-//W3C//DTD SVG 1.0//EN" "http://www.w3.org/TR/2001/REC-SVG-20010904/DTD/svg10.dtd">
<svg version="1.0" id="图层_1" xmlns="http://www.w3.org/2000/svg" xmlns:xlink="http://www.w3.org/1999/xlink" x="0px" y="0px"
	 viewBox="0 0 72 72" enable-background="new 0 0 72 72" xml:space="preserve">
<g id="Page-1_14_">
	<g id="icons_search">
		<path id="Combined-Shape_12_" fill="#514F4F" d="M64.9,67.3c1.7,1.5,4.4,1.4,5.9-0.4s1.4-4.4-0.4-5.9L58.3,50.4
			c-1.7-1.5-4.4-1.4-5.9,0.4c-1.5,1.7-1.4,4.4,0.4,5.9L64.9,67.3z M56.1,34.2C56.1,18.7,43.5,6.1,28,6.1S-0.2,18.7-0.2,34.2
			S12.4,62.3,28,62.3S56.1,49.7,56.1,34.2z M4.9,34.2c0-12.7,10.3-23.1,23.1-23.1S51,21.5,51,34.2S40.7,57.3,28,57.3
			S4.9,47,4.9,34.2z"/>
	</g>
</g>
</svg>
