<?xml version="1.0" encoding="utf-8"?>
<!-- Generator: Adobe Illustrator 18.0.0, SVG Export Plug-In . SVG Version: 6.00 Build 0)  -->
<!DOCTYPE svg PUBLIC "-//W3C//DTD SVG 1.1//EN" "http://www.w3.org/Graphics/SVG/1.1/DTD/svg11.dtd">
<svg version="1.1" id="图层_1" xmlns="http://www.w3.org/2000/svg" xmlns:xlink="http://www.w3.org/1999/xlink" x="0px" y="0px"
	 viewBox="0 0 72 72" enable-background="new 0 0 72 72" xml:space="preserve">
<path fill="#504F4F" d="M70.7,23.4L56.4,37.5c-1.4,1.4-3.7,1.4-5.1,0c-1.4-1.4-1.4-3.7,0-5.1l8.2-8.1H44.8c-9.9,0-18,7.9-18,17.7
	v7.1h-7.2v-7.1c0-13.7,11.3-24.8,25.2-24.8h14.7l-8.2-8.1c-1.4-1.4-1.4-3.7,0-5.1c1.4-1.4,3.7-1.4,5.1,0l14.4,14.1
	c0.7,0.7,1.1,1.6,1.1,2.5C71.8,21.8,71.5,22.7,70.7,23.4L70.7,23.4z M7,59.8h57.6V42.1h7.2v17.7c0,3.9-3.2,7.1-7.2,7.1H7
	c-4,0-7.2-3.2-7.2-7.1V12.2C-0.2,8.3,3,5.1,7,5.1h21.6v7.1H7V59.8L7,59.8z M7,59.8"/>
</svg>
