<?xml version="1.0" encoding="utf-8"?>
<!-- Generator: Adobe Illustrator 18.0.0, SVG Export Plug-In . SVG Version: 6.00 Build 0)  -->
<!DOCTYPE svg PUBLIC "-//W3C//DTD SVG 1.0//EN" "http://www.w3.org/TR/2001/REC-SVG-20010904/DTD/svg10.dtd">
<svg version="1.0" id="图层_1" xmlns="http://www.w3.org/2000/svg" xmlns:xlink="http://www.w3.org/1999/xlink" x="0px" y="0px"
	 viewBox="0 0 72 72" enable-background="new 0 0 72 72" xml:space="preserve">
<g id="Page-1_12_">
	<g id="icons_sixrooms">
		<path id="Combined-Shape_10_" fill="#514F4F" d="M24.9,5l18.3,4.8c2.5,0.7,4.6,3.3,4.6,5.9v45h9.4c1.3,0,2.3-1,2.3-2.3V7.4
			c0-1.3-1-2.3-2.3-2.3H24.9z M47.8,65.3v3.4c0,2.6-2,4.2-4.6,3.5L8,63V2.8V0.3h49.1c3.9,0,7,3.1,7,7v50.9c0,3.9-3.1,7-7,7H47.8z
			 M12.7,59.4l30.4,8V15.7c0-0.5-0.6-1.2-1.1-1.4L12.7,6.7V59.4z M33.8,32.1c0-1.3,1-2.3,2.3-2.3c1.3,0,2.3,1,2.3,2.3v7.8
			c0,1.3-1,2.3-2.3,2.3c-1.3,0-2.3-1-2.3-2.3V32.1z"/>
	</g>
</g>
</svg>
