<?xml version="1.0" encoding="utf-8"?>
<!-- Generator: Adobe Illustrator 18.0.0, SVG Export Plug-In . SVG Version: 6.00 Build 0)  -->
<!DOCTYPE svg PUBLIC "-//W3C//DTD SVG 1.0//EN" "http://www.w3.org/TR/2001/REC-SVG-20010904/DTD/svg10.dtd">
<svg version="1.0" id="图层_1" xmlns="http://www.w3.org/2000/svg" xmlns:xlink="http://www.w3.org/1999/xlink" x="0px" y="0px"
	 viewBox="0 0 72 72" enable-background="new 0 0 72 72" xml:space="preserve">
<g id="Page-1_13_">
	<g id="icons_startbusiness">
		<path id="Combined-Shape_11_" fill="#514F4F" d="M67.9,61.7c0,0,0-49.3,0-49.3c0,0-63.8,0-63.8,0c0,0,0,49.3,0,49.3
			C4.1,61.7,67.9,61.7,67.9,61.7z M0,12.3c0-2.3,1.9-4.1,4.1-4.1h63.8c2.3,0,4.1,1.9,4.1,4.1v49.3c0,2.3-1.9,4.1-4.1,4.1H4.1
			c-2.3,0-4.1-1.9-4.1-4.1V12.3z M36,57.2c-0.9,0-10.1-7.9-10.1-9.1c0-1.2,7.5-22.4,7.5-22.4s-4.2-5.4-4.9-6.3
			c-0.7-0.9-0.6-2.6,1.4-2.6h12.2c2,0,2.2,1.7,1.4,2.6c-0.7,0.9-4.9,6.3-4.9,6.3s7.5,21.2,7.5,22.4C46.1,49.3,36.9,57.2,36,57.2z"/>
	</g>
</g>
</svg>
