<?xml version="1.0" encoding="utf-8"?>
<!-- Generator: Adobe Illustrator 18.0.0, SVG Export Plug-In . SVG Version: 6.00 Build 0)  -->
<!DOCTYPE svg PUBLIC "-//W3C//DTD SVG 1.1//EN" "http://www.w3.org/Graphics/SVG/1.1/DTD/svg11.dtd">
<svg version="1.1" id="图层_1" xmlns="http://www.w3.org/2000/svg" xmlns:xlink="http://www.w3.org/1999/xlink" x="0px" y="0px"
	 viewBox="0 0 72 72" enable-background="new 0 0 72 72" xml:space="preserve">
<g>
	<path fill="#504F4F" d="M17.2,43C19,35,26.6,29,35.8,29C45,29,52.6,35,54.4,43H62c-1.9-11.9-12.8-21.1-26.2-21.1
		c-13.3,0-24.3,9.2-26.2,21.1H17.2L17.2,43z M35.8,14.9c2.1,0,3.8-1.6,3.8-3.5V4.3c0-1.9-1.7-3.5-3.8-3.5c-2.1,0-3.8,1.6-3.8,3.5
		v7.1C32,13.3,33.7,14.9,35.8,14.9L35.8,14.9z M70.7,14.2c-1.5-1.4-3.9-1.4-5.4,0l-5.4,5c-1.5,1.4-1.5,3.6,0,5
		c1.5,1.4,3.9,1.4,5.4,0l5.4-5C72.2,17.8,72.2,15.6,70.7,14.2L70.7,14.2z M11.6,19.2l-5.4-5c-1.5-1.4-3.9-1.4-5.4,0
		c-1.5,1.4-1.5,3.6,0,5l5.4,5c1.5,1.4,3.9,1.4,5.4,0C13.1,22.8,13.1,20.5,11.6,19.2L11.6,19.2z M58.6,50.1H13
		c-2.1,0-3.8,1.6-3.8,3.5c0,1.9,1.7,3.5,3.8,3.5h45.5c2.1,0,3.8-1.6,3.8-3.5C62.4,51.7,60.7,50.1,58.6,50.1L58.6,50.1z M51,64.2
		H20.6c-2.1,0-3.8,1.6-3.8,3.5c0,1.9,1.7,3.5,3.8,3.5H51c2.1,0,3.8-1.6,3.8-3.5C54.8,65.8,53.1,64.2,51,64.2L51,64.2z M51,64.2"/>
</g>
</svg>
