<?xml version="1.0" encoding="utf-8"?>
<!-- Generator: Adobe Illustrator 18.0.0, SVG Export Plug-In . SVG Version: 6.00 Build 0)  -->
<!DOCTYPE svg PUBLIC "-//W3C//DTD SVG 1.1//EN" "http://www.w3.org/Graphics/SVG/1.1/DTD/svg11.dtd">
<svg version="1.1" id="图层_1" xmlns="http://www.w3.org/2000/svg" xmlns:xlink="http://www.w3.org/1999/xlink" x="0px" y="0px"
	 viewBox="0 0 72 72" enable-background="new 0 0 72 72" xml:space="preserve">
<g>
	<path fill="#504F4F" d="M37.44 26.266c1.906 0 3.186-1.28 3.186-3.186 0-1.92-1.266-3.173-3.186-3.173s-3.826 1.240-3.826 3.173c0 1.906 1.92 3.186 3.826 3.186zM19.586 19.893c-1.906 0-3.84 1.240-3.84 3.173 0 1.906 1.933 3.186 3.84 3.186 1.893 0 3.173-1.28 3.173-3.186-0-1.92-1.266-3.173-3.173-3.173zM75.600 46.68c0-10.079-9.36-18.68-20.840-19.573 0.013-0.12 0.013-0.253-0-0.373-2.293-10.733-13.853-18.826-26.866-18.826-14.706 0-26.666 10.253-26.666 22.853 0 6.760 3.44 12.853 9.986 17.653l-2.280 6.853c-0.133 0.44-0.013 0.933 0.333 1.240 0.213 0.173 0.48 0.279 0.76 0.279 0.173 0 0.346-0.04 0.52-0.12l8.56-4.28 1.053 0.213c2.626 0.533 4.906 1 7.706 1 0.813 0 1.653-0.026 2.480-0.106 0.32-0.026 0.613-0.186 0.799-0.426 3.08 7.72 11.586 13.293 21.599 13.293 2.56 0 5.16-0.613 7.48-1.2l6.600 3.6c0.173 0.093 0.360 0.133 0.546 0.133 0.253 0 0.52-0.08 0.720-0.253 0.360-0.293 0.506-0.786 0.373-1.226l-1.68-5.600c5.640-4.453 8.746-9.799 8.746-15.120zM30.16 51.173c-0.746 0.053-1.52 0.093-2.280 0.093-2.56 0-4.733-0.44-7.239-0.96l-1.453-0.293c-0.24-0.053-0.506-0.013-0.733 0.093l-6.413 3.199 1.666-5c0.16-0.48-0.013-1.013-0.426-1.32-6.439-4.479-9.706-9.96-9.706-16.253 0-11.32 10.92-20.533 24.346-20.533 11.866 0 22.373 7.213 24.546 16.813-12.44 0.16-22.506 8.906-22.506 19.653 0 1.559 0.226 3.066 0.626 4.533-0.12-0.026-0.24-0.053-0.373-0.04zM64.800 60.453c-0.386 0.279-0.546 0.786-0.413 1.253l1.093 3.653-4.506-2.466c-0.16-0.093-0.360-0.133-0.546-0.133-0.093 0-0.186 0-0.279 0.026-2.413 0.6-4.92 1.240-7.359 1.240-11.32 0-20.533-7.773-20.533-17.346 0-9.56 9.213-17.346 20.533-17.346 11.106 0 20.493 7.933 20.493 17.346 0 4.759-3 9.653-8.466 13.76zM45.733 38.386c-1.266 0-2.546 1.28-2.546 2.546 0 1.28 1.266 2.546 2.546 2.546 1.906 0 3.173-1.266 3.173-2.546 0-1.266-1.266-2.546-3.173-2.546zM59.76 38.386c-1.253 0-2.533 1.28-2.533 2.546 0 1.28 1.266 2.546 2.533 2.546 1.906 0 3.199-1.266 3.199-2.546 0-1.266-1.28-2.546-3.199-2.546z"></path>
</g>
</svg>
