<?xml version="1.0" encoding="utf-8"?>
<!-- Generator: Adobe Illustrator 18.0.0, SVG Export Plug-In . SVG Version: 6.00 Build 0)  -->
<!DOCTYPE svg PUBLIC "-//W3C//DTD SVG 1.1//EN" "http://www.w3.org/Graphics/SVG/1.1/DTD/svg11.dtd">
<svg version="1.1" id="图层_1" xmlns="http://www.w3.org/2000/svg" xmlns:xlink="http://www.w3.org/1999/xlink" x="0px" y="0px"
	 viewBox="0 0 72 72" enable-background="new 0 0 72 72" xml:space="preserve">
<g>
	<path fill="#504F4F" d="M60.511333 55.885661c4.409170-3.293926 6.916454-8.024287 6.916454-13.120736 0-8.784308-7.571786-16.061382-17.346071-17.171229C48.802280 15.535131 39.040874 7.961618 27.328655 7.961618c-12.623337 0-22.893294 8.896624-22.893294 19.831913 0 5.896258 2.939135 11.366493 8.100339 15.143500-0.281760 1.235906-1.272457 3.836079-2.385038 6.194352-0.397242 0.841613-0.183115 1.845045 0.522797 2.451377 0.385442 0.331263 0.865788 0.499557 1.348221 0.499557 0.400912 0 0.803191-0.116489 1.153665-0.352129 3.030369-2.038665 6.828889-4.347220 8.075085-4.810298 1.971679 0.468258 4.014302 0.705769 6.078222 0.705769 0.333134 0 0.667059-0.007482 1.000409-0.019930 2.418280 7.200877 10.088496 12.477708 19.152334 12.477708 1.763596 0 3.509060-0.199304 5.195597-0.592446 1.120640 0.450414 4.279586 2.376980 6.791835 4.066538 0.350402 0.235640 0.753041 0.352129 1.153953 0.352129 0.482360 0 0.962779-0.168293 1.348221-0.499557 0.705913-0.606620 0.919680-1.610124 0.522437-2.451665C61.602761 59.071157 60.793454 56.978024 60.511333 55.885661zM27.328655 43.489042c-1.861881 0-3.699947-0.227869-5.463183-0.677636-0.612017-0.156062-1.457947-0.371124-5.551036 2.019958 0.618420-2.051257 0.740234-3.821473-0.688429-4.778784-4.482920-3.003963-7.054097-7.472205-7.054097-12.258904 0-8.654436 8.414119-15.695438 18.756746-15.695438 9.383230 0 17.219796 5.715013 18.557657 13.403864-10.255422 0.707928-18.351301 8.179702-18.351301 17.262895 0 0.241828 0.007267 0.482217 0.018635 0.721670C27.478601 43.487315 27.403556 43.489042 27.328655 43.489042zM57.365554 53.045818c-1.205830 0.807580-1.276846 2.159184-0.896799 3.740959-2.194512-1.232380-3.189885-1.499391-3.784777-1.499391-0.244058 0-0.420770 0.044753-0.585035 0.086845-1.489606 0.380046-3.043464 0.572587-4.617541 0.572587-8.717753 0-15.809912-5.913238-15.809912-13.181966 0-7.268511 7.092159-13.181822 15.809912-13.181822s15.809912 5.913238 15.809912 13.181822C63.291240 46.775054 61.131121 50.522417 57.365554 53.045818zM17.324198 22.679743a2.809476 2.544679 0 1 0 5.749909 0 2.809476 2.544679 0 1 0-5.749909 0ZM32.264940 22.679743a2.809476 2.544679 0 1 0 5.749909 0 2.809476 2.544679 0 1 0-5.749909 0ZM39.808090 37.291452a2.254640 2.042156 0 1 0 4.614375 0 2.254640 2.042156 0 1 0-4.614375 0ZM51.291864 37.291452a2.254640 2.042156 0 1 0 4.614375 0 2.254640 2.042156 0 1 0-4.614375 0Z"></path>
</g>
</svg>
