<?xml version="1.0" encoding="utf-8"?>
<!-- Generator: Adobe Illustrator 18.0.0, SVG Export Plug-In . SVG Version: 6.00 Build 0)  -->
<!DOCTYPE svg PUBLIC "-//W3C//DTD SVG 1.1//EN" "http://www.w3.org/Graphics/SVG/1.1/DTD/svg11.dtd">
<svg version="1.1" id="图层_1" xmlns="http://www.w3.org/2000/svg" xmlns:xlink="http://www.w3.org/1999/xlink" x="0px" y="0px"
	 viewBox="0 0 72 72" enable-background="new 0 0 72 72" xml:space="preserve">
<path d="M18.329880 17.663639c-2.19996 0-4.574280 1.5084-4.574280 3.945479 0 2.443559 2.374439 3.956160 4.574280 3.956160 2.3256 0 3.949799-1.62684 3.949799-3.957240C22.27716 19.285680 20.65284 17.663639 18.329880 17.663639z" p-id="1106"></path>
<path d="M39.05892 21.609120c0-2.322959-1.627799-3.945479-3.958560-3.945479-2.195760 0-4.565640 1.5084-4.565640 3.946559 0.002640 2.442960 2.37204 3.955080 4.565640 3.955080C37.431120 25.565279 39.05892 23.938439 39.05892 21.609120z" p-id="1107"></path>
<path d="M42.892439 35.03664c-1.726079 0-3.357840 1.635240-3.357840 3.364799 0 1.724880 1.63188 3.355680 3.357840 3.355680 2.441039 0 3.951959-1.741919 3.951959-3.355680C46.844280 36.783120 45.33336 35.03664 42.892439 35.03664z" p-id="1108"></path>
<path d="M71.902560 43.7868c0-4.832879-2.148719-9.49896-6.05052-13.13856-3.654120-3.408719-8.46936-5.57208-13.631999-6.139679-2.413200-10.362000-13.567559-18.135720-26.10684-18.135720-14.345040 0-26.01576 10.06416-26.01576 22.434600 0 6.463200 3.184320 12.308520 9.219720 16.943520l-1.92564 5.788560c-0.25884 0.789359-0.022080 1.6506 0.607080 2.197560 0.373559 0.32148 0.850440 0.498479 1.342560 0.498479 0.3132 0 0.629159-0.07416 0.91872-0.21708l7.74756-3.877079 0.685920 0.13896c2.520000 0.517919 4.696439 0.965399 7.41996 0.965399 0.78696 0 1.598999-0.03492 2.413200-0.103680 0.071159-0.005999 0.141359-0.015479 0.210360-0.028560 3.42864 7.28964 11.625359 12.117479 20.76408 12.117479 2.323319 0 4.595520-0.494279 6.90516-1.066800l5.871839 3.209880c0.303359 0.165479 0.643559 0.252840 0.98388 0.252840 0.469439 0 0.927959-0.162480 1.290360-0.456960 0.651960-0.528719 0.915719-1.387319 0.672960-2.183880l-1.397640-4.647360C69.0408 54.044879 71.902560 48.897480 71.902560 43.7868zM27.4086 47.105400c-0.430320 0.022919-0.86292 0.03456-1.292999 0.03456-2.331239 0-4.316520-0.40968-6.619080-0.885000l-1.361280-0.27504c-0.449519-0.096240-0.93744-0.029039-1.331040 0.173759l-3.952920 1.978799 0.83412-2.506080c0.288000-0.867479-0.021479-1.803240-0.772680-2.330400-5.780039-4.028520-8.71092-8.903280-8.71092-14.488680 0-10.107480 9.829560-18.330479 21.911639-18.330479 10.200720 0 19.339079 5.912519 21.819960 13.92948-5.425560 0.324239-10.482960 2.3238-14.3514 5.696159-4.204319 3.665280-6.519720 8.525039-6.519720 13.684199C27.062159 44.867640 27.178439 45.97956 27.4086 47.105400zM60.22656 55.949040c-0.681719 0.51444-0.975000 1.40976-0.72972 2.228999l0.35856 1.192080-2.181119-1.193160c-0.301919-0.166919-0.643559-0.255000-0.9882-0.255000-0.175080 0-0.346800 0.022440-0.510240 0.066360-2.209800 0.558239-4.494720 1.134840-6.672599 1.134840-10.110000 0-18.335039-6.880919-18.335039-15.338640 0-8.456520 8.225040-15.336359 18.335039-15.336359 9.91728 0 18.295680 7.023119 18.295680 15.336359C67.7988 47.957639 65.110080 52.277520 60.22656 55.949040z" p-id="1109"></path>
<path d="M56.065800 35.03664c-1.716960 0-3.340200 1.635240-3.340200 3.364799 0 1.724880 1.62324 3.355680 3.340200 3.355680 2.187480 0 3.967079-1.505399 3.967079-3.355680C60.032759 36.783120 58.516079 35.03664 56.065800 35.03664z" p-id="1110"></path>
</svg>