<?xml version="1.0" encoding="utf-8"?>
<!-- Generator: Adobe Illustrator 18.0.0, SVG Export Plug-In . SVG Version: 6.00 Build 0)  -->
<!DOCTYPE svg PUBLIC "-//W3C//DTD SVG 1.0//EN" "http://www.w3.org/TR/2001/REC-SVG-20010904/DTD/svg10.dtd">
<svg version="1.0" id="图层_1" xmlns="http://www.w3.org/2000/svg" xmlns:xlink="http://www.w3.org/1999/xlink" x="0px" y="0px"
	 viewBox="0 0 72 72" enable-background="new 0 0 72 72" xml:space="preserve">
<g id="Page-1_12_">
	<path style="fill-rule:evenodd;clip-rule:evenodd;" d="M57.7,41.5c-1.8,0-3.2-1.4-3.2-3.2S56,35,57.7,35c1.8,0,3.2,1.4,3.2,3.2
		S59.5,41.5,57.7,41.5z"/>
	<path style="fill-rule:evenodd;clip-rule:evenodd;" d="M41.7,41.5c-1.8,0-3.2-1.4-3.2-3.2S40,35,41.7,35c1.8,0,3.2,1.4,3.2,3.2
		S43.5,41.5,41.7,41.5z"/>
	<g>
		<path d="M50,27.7c11.6,0,21,8,21,17.9c0,5.2-2.7,10.1-7.3,13.5l-0.5,0.4l0.1,0.6c0.4,1.6,0.6,3,0.8,4c-1.2-0.6-2.8-1.4-4.4-2.3
			l-0.4-0.2l-0.4,0.2c-2.8,1.1-5.8,1.7-8.9,1.7c-11.6,0-21-8-21-17.9C29,35.8,38.4,27.7,50,27.7 M50,26.7c-12.1,0-22,8.4-22,18.9
			c0,10.4,9.8,18.9,22,18.9c3.3,0,6.4-0.6,9.2-1.8c2.9,1.6,6.1,3.2,6.2,3.2c0,0,0,0,0,0c0.1,0-0.5-3-1.2-6c4.7-3.5,7.7-8.6,7.7-14.4
			C71.9,35.2,62.1,26.7,50,26.7L50,26.7z"/>
	</g>
	<path style="fill-rule:evenodd;clip-rule:evenodd;" d="M16.1,24.4c-1.8,0-3.2-1.4-3.2-3.2c0-1.8,1.4-3.2,3.2-3.2
		c1.8,0,3.2,1.4,3.2,3.2C19.3,23,17.9,24.4,16.1,24.4z"/>
	<path style="fill-rule:evenodd;clip-rule:evenodd;" d="M35.8,18c1.8,0,3.2,1.4,3.2,3.2c0,1.8-1.4,3.2-3.2,3.2s-3.2-1.4-3.2-3.2
		C32.6,19.4,34,18,35.8,18z"/>
	<g>
		<path d="M25.7,7c11.8,0,21.9,7.4,24.2,17.3c-0.3,0-0.7,0-1.1,0c-6.3,0-12.2,2.3-16.7,6.4c-4.5,4.1-7,9.7-7,15.5
			c0,1.3,0.1,2.6,0.4,3.8c-3.1,0-6.2-0.6-9.1-1.6L16,48.4l-0.4,0.2c-2,1.2-4.7,2.7-6.5,3.7c0.3-1.5,0.7-3.8,1.2-6.2l0.1-0.6
			l-0.5-0.4C4.3,41,1.1,35,1.1,28.6C1.1,16.7,12.1,7,25.7,7 M25.7,6C11.5,6,0.1,16.1,0.1,28.6c0,7,3.6,13.2,9.2,17.3
			c-0.7,3.6-1.6,8.2-1.5,8.2c0,0,0,0,0,0c0.2-0.1,5.2-2.8,8.3-4.6c3,1.1,6.2,1.6,9.6,1.6c0.4,0,0.7,0,1.1,0
			c-0.4-1.6-0.6-3.1-0.6-4.8c0-11.6,10.1-20.9,22.7-20.9c0.8,0,1.5,0,2.3,0.1C49.4,14.5,38.7,6,25.7,6L25.7,6z"/>
	</g>
</g>
</svg>
