<?xml version="1.0" encoding="utf-8"?>
<!-- Generator: Adobe Illustrator 18.0.0, SVG Export Plug-In . SVG Version: 6.00 Build 0)  -->
<!DOCTYPE svg PUBLIC "-//W3C//DTD SVG 1.0//EN" "http://www.w3.org/TR/2001/REC-SVG-20010904/DTD/svg10.dtd">
<svg version="1.0" id="图层_1" xmlns="http://www.w3.org/2000/svg" xmlns:xlink="http://www.w3.org/1999/xlink" x="0px" y="0px"
	 viewBox="0 0 72 72" enable-background="new 0 0 72 72" xml:space="preserve">
<path style="fill-rule:evenodd;clip-rule:evenodd;" d="M57.7,41.5c-1.8,0-3.2-1.4-3.2-3.2S56,35,57.7,35s3.2,1.4,3.2,3.2
	S59.5,41.5,57.7,41.5z M41.7,41.5c-1.8,0-3.2-1.4-3.2-3.2S40,35,41.7,35c1.8,0,3.2,1.4,3.2,3.2S43.5,41.5,41.7,41.5z M71.9,45.6
	c0-10.4-9.8-18.9-22-18.9c-12.1,0-22,8.4-22,18.9c0,10.4,9.8,18.9,22,18.9c3.3,0,6.4-0.6,9.2-1.8c2.9,1.6,6.1,3.2,6.2,3.2
	c0.1,0.1-0.5-2.9-1.2-6C68.9,56.5,71.9,51.3,71.9,45.6z M16.1,24.4c-1.8,0-3.2-1.4-3.2-3.2c0-1.8,1.4-3.2,3.2-3.2
	c1.8,0,3.2,1.4,3.2,3.2C19.3,23,17.9,24.4,16.1,24.4z M35.8,18c1.8,0,3.2,1.4,3.2,3.2c0,1.8-1.4,3.2-3.2,3.2s-3.2-1.4-3.2-3.2
	C32.6,19.4,34,18,35.8,18z M48.8,25.4c0.8,0,1.5,0,2.3,0.1C49.4,14.5,38.7,6,25.7,6C11.5,6,0.1,16.1,0.1,28.6c0,7,3.6,13.2,9.2,17.3
	c-0.7,3.6-1.6,8.4-1.5,8.2c0.2-0.1,5.2-2.8,8.3-4.6c3,1.1,6.2,1.6,9.6,1.6c0.4,0,0.7,0,1.1,0c-0.4-1.6-0.6-3.1-0.6-4.8
	C26.2,34.7,36.3,25.4,48.8,25.4z"/>
</svg>
