<?xml version="1.0" encoding="utf-8"?>
<!-- Generator: Adobe Illustrator 18.0.0, SVG Export Plug-In . SVG Version: 6.00 Build 0)  -->
<!DOCTYPE svg PUBLIC "-//W3C//DTD SVG 1.1//EN" "http://www.w3.org/TR/2001/REC-SVG-20010904/DTD/svg10.dtd">
<svg version="1.1" id="图层_1" xmlns="http://www.w3.org/2000/svg" xmlns:xlink="http://www.w3.org/1999/xlink" x="0px" y="0px"
	 viewBox="-261 384.9 72 72" style="enable-background:new -261 384.9 72 72;" xml:space="preserve">
<g id="Group-8" transform="translate(11.000000, 0.000000)">
	<path id="Shape" class="st0" d="M-216.9,453.7h-37.3c-2,0-3.7-1.7-3.7-3.7v-58c0-2,1.7-3.7,3.7-3.7h37.3c2,0,3.7,1.7,3.7,3.7
		v58C-213.3,452-214.9,453.7-216.9,453.7z M-216.9,456.6c3.7,0,6.6-3,6.6-6.6v-58c0-3.6-3-6.6-6.6-6.6h-37.3
		c-3.7,0-6.6,3-6.6,6.6v58c0,3.6,3,6.6,6.6,6.6H-216.9z"/>
	<path id="Shape_1_" class="st0" d="M-238.6,445.3c0,1.7,1.4,3,3,3s3-1.4,3-3s-1.4-3-3-3S-238.6,443.6-238.6,445.3z"/>
	<path id="Shape_2_" class="st0" d="M-213,437.7h-45.1c-1.5,0-2.6-0.6-2.6-1.3s1.2-1.3,2.6-1.3h45.1c1.5,0,2.6,0.6,2.6,1.3
		S-211.6,437.7-213,437.7z"/>
	<path id="百姓" class="st0" d="M-238.8,413.5h-7.2c0.3-1,0.5-2.1,0.7-3.2h8.8v-1.5h-18.5v1.5h8.2c-0.1,1.1-0.4,2.2-0.7,3.2
		h-5.2v13.2h1.5v-0.9h11v0.9h1.5V413.5z M-251.3,424.5v-4.1h11v4.1H-251.3z M-251.3,419v-4h11v4H-251.3z M-232.1,407.9
		c-0.2,1.4-0.3,2.7-0.6,4h-1.9v1.4h1.7c-0.4,2.1-0.8,4-1.3,5.8c1,0.9,1.9,1.7,2.8,2.5c-0.8,1.6-1.9,2.9-3.2,4l1,1.2
		c1.3-1.2,2.4-2.6,3.2-4.2c0.7,0.8,1.4,1.5,2,2.1l1-1.1c-0.6-0.7-1.3-1.5-2.3-2.4c1-2.4,1.6-5.2,1.8-8.5v-0.9h-3.2
		c0.2-1.2,0.4-2.5,0.6-3.9L-232.1,407.9z M-230.8,420.3c-0.5-0.5-1.1-1-1.8-1.6c0.4-1.4,0.8-3.2,1.2-5.3h2.1
		C-229.5,416-230,418.3-230.8,420.3z M-225.2,413.5h3v4.9h-4.1v1.5h4.1v5h-5v1.4h11.3v-1.4h-4.8v-5h4v-1.5h-4v-4.9h4.1V412h-4.1
		v-4h-1.5v4h-2.8c0.1-0.8,0.1-1.6,0.1-2.5h-1.3c-0.1,3.2-0.6,5.6-1.7,7.1l1.1,0.9C-226.1,416.6-225.5,415.2-225.2,413.5z"/>
</g>
</svg>
