<?xml version="1.0" encoding="utf-8"?>
<!-- Generator: Adobe Illustrator 18.0.0, SVG Export Plug-In . SVG Version: 6.00 Build 0)  -->
<!DOCTYPE svg PUBLIC "-//W3C//DTD SVG 1.1//EN" "http://www.w3.org/Graphics/SVG/1.1/DTD/svg11.dtd">
<svg version="1.1" id="图层_1" xmlns="http://www.w3.org/2000/svg" xmlns:xlink="http://www.w3.org/1999/xlink" x="0px" y="0px"
	 viewBox="0 0 72 72" enable-background="new 0 0 72 72" xml:space="preserve">
<g>
	<path fill="#504F4F" d="M31.6,55.3L1.8,25.4c-2.4-2.4-2.4-6.3,0-8.7l0,0c2.4-2.4,6.3-2.4,8.7,0l0,0L36,42.2l25.5-25.5
		c2.4-2.4,6.3-2.4,8.7,0l0,0c2.4,2.4,2.4,6.3,0,8.7l0,0L40.4,55.3c-1.1,1.1-2.7,1.8-4.4,1.8l0,0C34.4,57.1,32.8,56.4,31.6,55.3
		L31.6,55.3L31.6,55.3z M31.6,55.3"/>
</g>
</svg>
