<?xml version="1.0" encoding="utf-8"?>
<!-- Generator: Adobe Illustrator 18.0.0, SVG Export Plug-In . SVG Version: 6.00 Build 0)  -->
<!DOCTYPE svg PUBLIC "-//W3C//DTD SVG 1.1//EN" "http://www.w3.org/Graphics/SVG/1.1/DTD/svg11.dtd">
<svg version="1.1" id="图层_1" xmlns="http://www.w3.org/2000/svg" xmlns:xlink="http://www.w3.org/1999/xlink" x="0px" y="0px"
	 viewBox="0 0 72 72" enable-background="new 0 0 72 72" xml:space="preserve">
<path fill="#504F4F" d="M41.8,10.9"/>
<g>
	<path fill="#514F4F" d="M36,44.7c-3.5,2.3-6.9,4.6-10.3,6.9c-1.1,1-3.3-0.1-2.9-1.6c1.2-3.8,2.6-7.7,4-11.4
		c-3.5-3.1-7.5-5.7-11.1-8.8c-0.4-1.1,0.5-2,1.6-2c4.3-0.1,8.7,0,13-0.1c1.3-3.5,2.6-7,3.9-10.5c0.2-0.9,1.1-1.1,1.9-1.4
		C36,12.3,36,8.7,36,5.1c0-1.7,0.4-3.4-0.5-5c-7,7.6-18.6,10.4-28.5,8c-2.4-0.5-3.7,2.4-3.3,4.3C4.6,23,6,33.5,8.5,43.8
		c1.5,5.8,3.4,11.8,7.4,16.5c2.6,3.2,6.4,5.1,10,6.9c3.2,1.6,6.3,3.6,9.8,4.7h0.6C35.6,62.9,36.3,53.8,36,44.7z"/>
	<path fill="#514F4F" d="M65.1,8.1c-5.2,1.1-10.8,1.4-15.9-0.4C44.3,6.2,40.2,3.2,36.4,0h-0.9l0,0.1c0.9,1.5,0.5,3.3,0.5,5
		c0,3.6,0,7.2,0.1,10.8c0.6,0.4,1.4,0.8,1.6,1.6c1.3,3.4,2.6,6.9,3.9,10.3c4.3,0.1,8.7-0.1,13,0.1c1.4-0.1,2.3,1.9,1,2.6
		c-3.4,2.7-6.9,5.3-10.4,8c1.1,3.9,2.8,7.7,3.9,11.6c0.4,1.5-1.6,2.5-2.7,1.6c-3.5-2.3-6.9-4.6-10.4-7c0.3,9.1-0.3,18.2,0.3,27.3
		h0.3c4.1-1.5,7.9-3.8,11.8-5.8c3.7-1.8,7.1-4.3,9.4-7.8c4.2-6.4,5.9-13.9,7.4-21.3c1.6-8.4,2.7-16.8,3.4-25.3
		C68.6,10,67.2,7.6,65.1,8.1z"/>
</g>
</svg>
