<?xml version="1.0" encoding="utf-8"?>
<!-- Generator: Adobe Illustrator 18.0.0, SVG Export Plug-In . SVG Version: 6.00 Build 0)  -->
<!DOCTYPE svg PUBLIC "-//W3C//DTD SVG 1.1//EN" "http://www.w3.org/Graphics/SVG/1.1/DTD/svg11.dtd">
<svg version="1.1" id="图层_1" xmlns="http://www.w3.org/2000/svg" xmlns:xlink="http://www.w3.org/1999/xlink" x="0px" y="0px"
	 viewBox="0 0 72 72" enable-background="new 0 0 72 72" xml:space="preserve">
<path fill="#504F4F" d="M41.8,10.9"/>
<path fill="#514F4F" d="M71.3,34.4c0,0-22.5-22.5-22.5-22.5L37.6,0.7C37.2,0.2,36.6,0,36,0c-0.6,0-1.2,0.2-1.6,0.7l-9.7,10.6V6.8
	c0-1.2-1-2.2-2.2-2.2h-9c-1.2,0-2.2,1-2.2,2.2v18L0.7,36c-0.9,0.9-0.8,2.3,0,3.1c0.9,0.9,2.2,1,3,0.1l3-3.3v31.5
	c0,2.5,2,4.5,4.5,4.5h49.5c2.5,0,4.5-2,4.5-4.5V34.6l3,3c0.9,0.9,2.2,0.8,3.1-0.1C72.2,36.7,72.2,35.3,71.3,34.4z M15.8,9h4.5v6.7
	l-4.5,4.5V9z M40.5,67.5h-9v-18h9V67.5z M60.7,65.3L60.7,65.3c0,1.2-1,2.2-2.2,2.2H45V47.3c0-1.2-1-2.2-2.2-2.2H29.3
	C28,45,27,46,27,47.3v20.2H13.5c-1.2,0-2.2-1-2.2-2.2V31.5L36,5.4l24.7,24.7V65.3z"/>
</svg>
