<?xml version="1.0" encoding="utf-8"?>
<!-- Generator: Adobe Illustrator 18.0.0, SVG Export Plug-In . SVG Version: 6.00 Build 0)  -->
<!DOCTYPE svg PUBLIC "-//W3C//DTD SVG 1.0//EN" "http://www.w3.org/TR/2001/REC-SVG-20010904/DTD/svg10.dtd">
<svg version="1.0" id="图层_1" xmlns="http://www.w3.org/2000/svg" xmlns:xlink="http://www.w3.org/1999/xlink" x="0px" y="0px"
	 viewBox="0 0 72 72" enable-background="new 0 0 72 72" xml:space="preserve">
<path fill="#514F4F" d="M61.8,26.2C61.8,12,50.2,0.4,36,0.4C21.8,0.4,10.2,12,10.2,26.2c0,13.3,10.1,24.2,23,25.6v6.6h-9.5
	c-1.4,0-2.5,1.1-2.5,2.5c0,1.4,1.1,2.5,2.5,2.5h9.5V70c0,1.3,1.1,2.4,2.5,2.4c1.4,0,2.5-1.1,2.5-2.4v-6.6h10.5
	c1.4,0,2.5-1.1,2.5-2.5c0-1.4-1.1-2.5-2.5-2.5H38.2v-6.6C51.4,50.7,61.8,39.6,61.8,26.2z M35.7,46.4c-11.3,0-20.5-9.2-20.5-20.5
	S24.4,5.4,35.7,5.4s20.5,9.2,20.5,20.5S47.1,46.4,35.7,46.4z"/>
</svg>
