<?xml version="1.0" encoding="utf-8"?>
<!-- Generator: Adobe Illustrator 18.0.0, SVG Export Plug-In . SVG Version: 6.00 Build 0)  -->
<!DOCTYPE svg PUBLIC "-//W3C//DTD SVG 1.1//EN" "http://www.w3.org/Graphics/SVG/1.1/DTD/svg11.dtd">
<svg version="1.1" id="图层_1" xmlns="http://www.w3.org/2000/svg" xmlns:xlink="http://www.w3.org/1999/xlink" x="0px" y="0px"
	 viewBox="0 0 72 72" enable-background="new 0 0 72 72" xml:space="preserve">
<g>
	<path fill="#504F4F" d="M65.2,9.3c-4.2-4.2-9.7-6.5-15.7-6.5c-5.9,0-11.5,2.3-15.7,6.5L18.4,24.8c-1,1-1,2.6,0,3.6
		c0.5,0.5,1.1,0.8,1.8,0.8c0.7,0,1.3-0.3,1.8-0.8L37.5,13c3.2-3.2,7.5-5,12-5c4.6,0,8.8,1.8,12,5c6.6,6.6,6.6,17.4,0,24.1L35.7,63
		L9.8,37.1c-6.6-6.6-6.6-17.4,0-24.1c3.2-3.2,7.5-5,12-5c0.8,0,1.6,0.1,2.5,0.2c0.1,0,0.2,0,0.4,0c1.3,0,2.4-0.9,2.5-2.2
		c0.2-1.4-0.8-2.7-2.2-2.9c-1-0.1-2.1-0.2-3.1-0.2c-2.3,0-4.6,0.4-6.8,1.1C11.7,5,8.7,6.8,6.2,9.3C-2.4,18-2.4,32,6.2,40.7
		l27.7,27.7c0.5,0.5,1.1,0.8,1.8,0.8c0.7,0,1.3-0.3,1.8-0.8l27.7-27.7C73.9,32,73.9,18,65.2,9.3L65.2,9.3z M65.2,9.3"/>
</g>
</svg>
