<?xml version="1.0" encoding="utf-8"?>
<!-- Generator: Adobe Illustrator 18.0.0, SVG Export Plug-In . SVG Version: 6.00 Build 0)  -->
<!DOCTYPE svg PUBLIC "-//W3C//DTD SVG 1.1//EN" "http://www.w3.org/Graphics/SVG/1.1/DTD/svg11.dtd">
<svg version="1.1" id="图层_1" xmlns="http://www.w3.org/2000/svg" xmlns:xlink="http://www.w3.org/1999/xlink" x="0px" y="0px"
	 viewBox="0 0 72 72" enable-background="new 0 0 72 72" xml:space="preserve">
<path fill="#504F4F" d="M41.8,10.9"/>
<g>
	<path fill="#514F4F" d="M65.3,31.5C65.1,16.9,59.5,6.5,55,2.1c-1-1.1-1.8-1.6-3.1-1.6c-1.9,0-3.4,1.5-3.4,3.4l0,3.5v60.8
		c0,1.9,1.9,3.7,3.7,3.7h2.8c1.9,0,3.7-1.9,3.7-3.7V45.8c0,0,6.5-0.2,6.5-6.5L65.3,31.5L65.3,31.5z"/>
	<path fill="#514F4F" d="M40.2,2.3C40,0.9,39.1,0,37.8,0c-1.3,0-2.2,0.8-2.3,2.3v1.4L34,30.6v0c0,1.9-2.5,3.1-5.9,3.5l-1-31.3h0
		C26.8,1.2,25.5,0,23.9,0s-3,1.2-3.2,2.8h0l-1,31.3c-3.5-0.5-5.9-1.6-5.9-3.5v0l-0.5-26V2.8c0-1.7-1.3-2.8-2.8-2.8S7.7,1.1,7.6,2.8
		v1.9l-0.9,26h0c0,4.4,5.2,8.3,12.6,9.4l-0.5,28.2c0,1.9,2,3.4,3.8,3.4h2.5c1.9,0,3.9-1.5,3.9-3.4L28.5,40c7.4-1.1,12.6-5,12.6-9.4
		h0L40.2,3.7V2.3z"/>
</g>
</svg>
