<?xml version="1.0" encoding="utf-8"?>
<!-- Generator: Adobe Illustrator 19.0.0, SVG Export Plug-In . SVG Version: 6.00 Build 0)  -->
<svg version="1.1" id="图层_1" xmlns="http://www.w3.org/2000/svg" xmlns:xlink="http://www.w3.org/1999/xlink" x="0px" y="0px"
	 viewBox="-466 270 27 21" style="enable-background:new -466 270 27 21;" xml:space="preserve">
<style type="text/css">
	.st0{fill:#999999;}
</style>
<g id="XMLID_8_">
	<path id="XMLID_6_" class="st0" d="M-439,273.6c0-2-1.6-3.6-3.6-3.6h-19.8c-2,0-3.6,1.6-3.6,3.6v13.8c0,2,1.6,3.6,3.6,3.6h19.8
		c2,0,3.6-1.6,3.6-3.6V273.6z M-440,287.1c0,1.6-1.3,2.9-2.9,2.9h-19.2c-1.6,0-2.9-1.3-2.9-2.9v-13.2c0-1.6,1.3-2.9,2.9-2.9h19.1
		c1.7,0,3,1.3,3,2.9V287.1z"/>
	<g id="XMLID_1_">
		<path id="XMLID_7_" class="st0" d="M-451.6,284.6c-0.4-1.6-1.5-3-2.9-3.7c0.5-0.7,0.7-1.5,0.7-2.4c0-2.2-1.2-4.1-4.2-4.1v1.1
			c2,0,3.1,1.3,3.1,3c0,0.7-0.2,1.4-0.6,1.9c-0.3,0.3-0.8,0.6-1.2,0.8c-0.4,0.1-0.3,0.2-1.3,0.2v1.1c1,0,2-0.3,2.6-0.9
			c1.2,0.6,2.2,1.6,2.6,2.9c-1.3,1.1-3.1,1.7-4.9,1.7c-0.1,0-0.4,0-0.4,0v1.1c0,0,0.3,0,0.4,0c2.2,0,4.3-0.8,5.8-2.2l0.3-0.2V284.6z
			"/>
		<path id="XMLID_2_" class="st0" d="M-463.9,284.6c0.4-1.6,1.5-3,2.9-3.7c-0.5-0.7-0.9-1.5-0.9-2.4c0-2.3,1.9-4.1,3.9-4.1v1.1
			c-1,0-2.9,1.3-2.9,3c0,0.7,0.3,1.4,0.8,1.9c0.3,0.3,0.6,0.6,1,0.8c0.4,0.1,1.1,0.2,1.1,0.2v1.1c-1,0-1.7-0.3-2.4-0.9
			c-1.2,0.6-2,1.6-2.5,2.9c1.3,1.1,2.9,1.7,4.7,1.7c0.1,0,0.2,0,0.2,0v1.1c0,0-0.1,0-0.2,0c-2.2,0-4.2-0.8-5.7-2.2l-0.1-0.2
			L-463.9,284.6z"/>
	</g>
	<polygon id="XMLID_10_" class="st0" points="-447.2,286.4 -447.9,289.6 -446.8,289.1 -446,290 -446,286.1 	"/>
	<polygon id="XMLID_9_" class="st0" points="-444.8,286.4 -444.2,289.6 -445.3,289.1 -446,290 -446,286.1 	"/>
	<path id="XMLID_16_" class="st0" d="M-446.1,279.3c-2.1,0-3.9,1.7-3.9,3.9c0,2.1,1.7,3.9,3.9,3.9c2.1,0,3.9-1.7,3.9-3.9
		C-442.2,281-443.9,279.3-446.1,279.3z M-446,285.8c-1.5,0-2.7-1.2-2.7-2.7s1.2-2.7,2.7-2.7s2.7,1.2,2.7,2.7S-444.5,285.8-446,285.8
		z"/>
	<path id="XMLID_3_" class="st0" d="M-442.3,276.2h-7.5c-0.4,0-0.7-0.3-0.7-0.7l0,0c0-0.4,0.3-0.7,0.7-0.7h7.5
		c0.4,0,0.7,0.3,0.7,0.7l0,0C-441.7,275.9-442,276.2-442.3,276.2z"/>
	<path id="XMLID_11_" class="st0" d="M-442.3,278.3h-7.5c-0.4,0-0.7-0.3-0.7-0.7l0,0c0-0.4,0.3-0.7,0.7-0.7h7.5
		c0.4,0,0.7,0.3,0.7,0.7l0,0C-441.7,278-442,278.3-442.3,278.3z"/>
</g>
</svg>
