<?xml version="1.0" encoding="utf-8"?>
<!-- Generator: Adobe Illustrator 18.0.0, SVG Export Plug-In . SVG Version: 6.00 Build 0)  -->
<!DOCTYPE svg PUBLIC "-//W3C//DTD SVG 1.1//EN" "http://www.w3.org/Graphics/SVG/1.1/DTD/svg11.dtd">
<svg version="1.1" id="图层_1" xmlns="http://www.w3.org/2000/svg" xmlns:xlink="http://www.w3.org/1999/xlink" x="0px" y="0px"
	 viewBox="364 364 72 72" enable-background="new 364 364 72 72" xml:space="preserve">
<g id="XMLID_8_">
	<path id="XMLID_6_" fill="#999999" d="M436,381.8c0-5.3-4.3-9.6-9.6-9.6h-52.8c-5.3,0-9.6,4.3-9.6,9.6v36.8c0,5.3,4.3,9.6,9.6,9.6
		h52.8c5.3,0,9.6-4.3,9.6-9.6V381.8z M433.3,417.8c0,4.3-3.5,7.7-7.7,7.7h-51.2c-4.3,0-7.7-3.5-7.7-7.7v-35.2c0-4.3,3.5-7.7,7.7-7.7
		h50.9c4.5,0,8,3.5,8,7.7L433.3,417.8L433.3,417.8z"/>
	<g id="XMLID_1_">
		<path id="XMLID_7_" fill="#999999" d="M402.4,411.1c-1.1-4.3-4-8-7.7-9.9c1.3-1.9,1.9-4,1.9-6.4c0-5.9-3.2-10.9-11.2-10.9v2.9
			c5.3,0,8.3,3.5,8.3,8c0,1.9-0.5,3.7-1.6,5.1c-0.8,0.8-2.1,1.6-3.2,2.1c-1.1,0.3-0.8,0.5-3.5,0.5v2.9c2.7,0,5.3-0.8,6.9-2.4
			c3.2,1.6,5.9,4.3,6.9,7.7c-3.5,2.9-8.3,4.5-13.1,4.5c-0.3,0-1.1,0-1.1,0v2.9c0,0,0.8,0,1.1,0c5.9,0,11.5-2.1,15.5-5.9l0.8-0.5
			L402.4,411.1L402.4,411.1z"/>
		<path id="XMLID_2_" fill="#999999" d="M369.6,411.1c1.1-4.3,4-8,7.7-9.9c-1.3-1.9-2.4-4-2.4-6.4c0-6.1,5.1-10.9,10.4-10.9v2.9
			c-2.7,0-7.7,3.5-7.7,8c0,1.9,0.8,3.7,2.1,5.1c0.8,0.8,1.6,1.6,2.7,2.1c1.1,0.3,2.9,0.5,2.9,0.5v2.9c-2.7,0-4.5-0.8-6.4-2.4
			c-3.2,1.6-5.3,4.3-6.7,7.7c3.5,2.9,7.7,4.5,12.5,4.5c0.3,0,0.5,0,0.5,0v2.9c0,0-0.3,0-0.5,0c-5.9,0-11.2-2.1-15.2-5.9l-0.3-0.5
			L369.6,411.1z"/>
	</g>
	<polygon id="XMLID_10_" fill="#999999" points="414.1,415.9 412.3,424.5 415.2,423.1 417.3,425.5 417.3,415.1 	"/>
	<polygon id="XMLID_9_" fill="#999999" points="420.5,415.9 422.1,424.5 419.2,423.1 417.3,425.5 417.3,415.1 	"/>
	<path id="XMLID_16_" fill="#999999" d="M417.1,397c-5.6,0-10.4,4.5-10.4,10.4c0,5.6,4.5,10.4,10.4,10.4c5.6,0,10.4-4.5,10.4-10.4
		S422.9,397,417.1,397z M417.3,414.3c-4,0-7.2-3.2-7.2-7.2s3.2-7.2,7.2-7.2s7.2,3.2,7.2,7.2S421.3,414.3,417.3,414.3z"/>
	<path id="XMLID_3_" fill="#999999" d="M427.2,388.7h-20c-1.1,0-1.9-0.8-1.9-1.9l0,0c0-1.1,0.8-1.9,1.9-1.9h20
		c1.1,0,1.9,0.8,1.9,1.9l0,0C428.8,387.9,428,388.7,427.2,388.7z"/>
	<path id="XMLID_11_" fill="#999999" d="M427.2,394.3h-20c-1.1,0-1.9-0.8-1.9-1.9l0,0c0-1.1,0.8-1.9,1.9-1.9h20
		c1.1,0,1.9,0.8,1.9,1.9l0,0C428.8,393.5,428,394.3,427.2,394.3z"/>
</g>
</svg>
