<?xml version="1.0" encoding="utf-8"?>
<!-- Generator: Adobe Illustrator 18.0.0, SVG Export Plug-In . SVG Version: 6.00 Build 0)  -->
<!DOCTYPE svg PUBLIC "-//W3C//DTD SVG 1.1//EN" "http://www.w3.org/Graphics/SVG/1.1/DTD/svg11.dtd">
<svg version="1.1" id="图层_1" xmlns="http://www.w3.org/2000/svg" xmlns:xlink="http://www.w3.org/1999/xlink" x="0px" y="0px"
	 viewBox="0 0 72 72" enable-background="new 0 0 72 72" xml:space="preserve">
<path fill="#504F4F" d="M41.8,10.9"/>
<g>
	<path fill="#504F4F" d="M58.7,51.5c3.4-4.6,5.2-9.9,5.2-15.5c0-5.6-1.8-10.9-5.2-15.5c-1-1.4-3-1.7-4.4-0.7c-1.5,1-1.8,2.9-0.7,4.3
		c2.6,3.5,4,7.6,4,11.9c0,4.3-1.4,8.4-4,11.9c-1,1.4-0.7,3.3,0.7,4.3c0.6,0.4,1.2,0.6,1.9,0.6C57.1,52.9,58.1,52.4,58.7,51.5
		L58.7,51.5z M15.6,36c0-4.3,1.4-8.4,3.9-11.9c1-1.4,0.7-3.3-0.7-4.3c-1.5-1-3.4-0.7-4.4,0.7C11,25.1,9.3,30.4,9.3,36
		c0,5.6,1.8,11,5.2,15.5c0.6,0.9,1.6,1.3,2.5,1.3c0.7,0,1.3-0.2,1.9-0.6c1.5-1,1.8-2.9,0.7-4.3C17,44.4,15.6,40.3,15.6,36L15.6,36z
		 M61.6,8.8c-1.2-1.3-3.1-1.4-4.5-0.3c-1.3,1.2-1.5,3.1-0.3,4.4c5.7,6.4,9,14.6,9,23.1c0,8.5-3.2,16.7-9,23.1
		c-1.2,1.3-1,3.2,0.3,4.4c0.6,0.5,1.4,0.8,2,0.8c0.9,0,1.8-0.4,2.3-1.1C68.3,55.6,72,45.9,72,36C72.1,26.1,68.4,16.3,61.6,8.8
		L61.6,8.8z M6.3,36c0-8.5,3.2-16.7,9-23.1c1.2-1.3,1-3.2-0.3-4.4c-1.3-1.2-3.3-1-4.5,0.3C3.7,16.4,0,26.1,0,36
		c0,9.9,3.7,19.7,10.5,27.2c0.6,0.7,1.5,1.1,2.3,1.1c0.8,0,1.5-0.3,2-0.8c1.3-1.2,1.5-3.1,0.3-4.4C9.5,52.7,6.3,44.5,6.3,36L6.3,36z
		 M36,22.9c-7.7,0-14,6.1-14,13.6c0,3.9,1.7,7.6,4.7,10.1c1.3,1.2,3.3,1.1,4.5-0.2c1.2-1.3,1.1-3.2-0.3-4.4
		c-1.7-1.5-2.5-3.4-2.5-5.6c0-4.1,3.4-7.5,7.7-7.5c4.2,0,7.7,3.4,7.7,7.5c0,4.1-3.4,7.5-7.7,7.5h-0.6c-1.4,0-2.5,0.8-3,2
		c-0.4,1-1,1.9-1.8,2.7c-1.3,1.3-1.2,3.2,0.1,4.4c0.6,0.6,1.4,0.9,2.2,0.9c0.8,0,1.7-0.3,2.2-1c0.9-0.9,1.7-1.9,2.2-3
		c7-0.7,12.6-6.5,12.6-13.6C50.1,29.1,43.7,22.9,36,22.9L36,22.9z M36,22.9"/>
</g>
</svg>
