<?xml version="1.0" encoding="utf-8"?>
<!-- Generator: Adobe Illustrator 18.0.0, SVG Export Plug-In . SVG Version: 6.00 Build 0)  -->
<!DOCTYPE svg PUBLIC "-//W3C//DTD SVG 1.1//EN" "http://www.w3.org/Graphics/SVG/1.1/DTD/svg11.dtd">
<svg version="1.1" id="图层_1" xmlns="http://www.w3.org/2000/svg" xmlns:xlink="http://www.w3.org/1999/xlink" x="0px" y="0px"
	 viewBox="0 0 72 72" enable-background="new 0 0 72 72" xml:space="preserve">
<path fill="#504F4F" d="M62,49.7L72,33h-7.8c-1.5-16.2-15.3-29-32-29C14.4,4,0,18.3,0,36c0,17.7,14.4,32,32.2,32
	c9.4,0,17.9-4.1,23.8-10.5l-3.2-3.4c-5.1,5.6-12.3,9.3-20.5,9.3C16.9,63.4,4.6,51.1,4.6,36c0-15.2,12.3-27.4,27.6-27.4
	c14.2,0,25.7,10.7,27.3,24.4h-7.3L62,49.7L62,49.7z M62,49.7"/>
<path fill="#504F4F" d="M16,45c-0.5-1,0-2.1,1-2.6l14.8-4.8V17.1c0-1.1,0.9-2,2-2c1.1,0,2,0.9,2,2v21.5c0,0.1,0,0.1,0,0.2
	c0,0.8-0.4,1.5-1.1,1.9L18.7,46C17.7,46.4,16.5,46,16,45L16,45L16,45z"/>
</svg>
