<?xml version="1.0" encoding="utf-8"?>
<!-- Generator: Adobe Illustrator 18.0.0, SVG Export Plug-In . SVG Version: 6.00 Build 0)  -->
<!DOCTYPE svg PUBLIC "-//W3C//DTD SVG 1.1//EN" "http://www.w3.org/Graphics/SVG/1.1/DTD/svg11.dtd">
<svg version="1.1" id="图层_1" xmlns="http://www.w3.org/2000/svg" xmlns:xlink="http://www.w3.org/1999/xlink" x="0px" y="0px"
	 viewBox="0 0 72 72" enable-background="new 0 0 72 72" xml:space="preserve">
<path fill="#504F4F" d="M58.4,32.4c-2.9,0-5.2,2.3-5.2,5.2c0,2.9,2.3,5.2,5.2,5.2c2.9,0,5.2-2.3,5.2-5.2
	C63.6,34.7,61.3,32.4,58.4,32.4L58.4,32.4z M58.4,41.3c-2.1,0-3.7-1.7-3.7-3.7c0-2,1.7-3.7,3.7-3.7c2.1,0,3.7,1.7,3.7,3.7
	C62.1,39.6,60.4,41.3,58.4,41.3L58.4,41.3z M58.3,29.6c-0.1-0.4-3.3-10-4.2-12.1c-0.1-0.2-0.2-0.4-0.3-0.6c-0.8-1.9-1.5-3.5-3.8-3.6
	c-0.4,0-1.6,0-3.7,0c-2.8,0-6.7,0-10.6,0c-3.8,0-7.5,0-10.1,0c-2.6,0-3.2,0-3.3,0l-0.1,0c-1.1,0-2.5,1.6-3.4,3.9
	c-1,2.5-3.9,12.1-4,12.5l-0.3,1.1h44.3L58.3,29.6L58.3,29.6z M16.8,29c0.8-2.6,2.8-9.3,3.6-11.2c0.8-1.9,1.6-2.7,1.9-2.8
	c0.3,0,1,0,3.4,0c2.6,0,6.3,0,10.1,0c3.9,0,7.8,0,10.6,0c2.1,0,3.3,0,3.7,0c1.1,0,1.5,0.7,2.2,2.6c0.1,0.2,0.2,0.4,0.3,0.6
	c0.7,1.7,2.9,8.2,3.8,10.9H16.8L16.8,29z M14.1,32.4c-2.9,0-5.2,2.3-5.2,5.2c0,2.9,2.3,5.2,5.2,5.2c2.9,0,5.2-2.3,5.2-5.2
	C19.3,34.7,17,32.4,14.1,32.4L14.1,32.4z M14.1,41.3c-2.1,0-3.7-1.7-3.7-3.7c0-2,1.7-3.7,3.7-3.7c2.1,0,3.7,1.7,3.7,3.7
	C17.8,39.6,16.2,41.3,14.1,41.3L14.1,41.3z M65.6,23.5c-1.4-3.5-4.2-10.6-4.9-12.1c-2.2-4.6-7.3-5.3-11.5-5.3H22.4
	C22,6.1,21.7,6,21.1,6v0c-2.3,0-7.2,0.8-9.9,7.9C9.5,18.2,7.9,22.1,7,24.1c-2.9,1.5-6.4,4.5-6.8,9.4l0,0.2l0,0.2L0,52L0,56h4.1h0.3
	v1.1c0,4.9,4,8.9,9,8.9c5,0,9-4,9-8.9V56h26v1.1c0,4.9,4,8.9,9,8.9c5,0,9-4,9-8.9V56h1.5H72v-3.8V33.3C72,30.6,70.6,25.6,65.6,23.5
	L65.6,23.5z M68,51.9h-5.8v5.1c0,2.7-2.2,4.9-4.9,4.9c-2.7,0-4.9-2.2-4.9-4.9v-5.1H18.2v5.1c0,2.7-2.2,4.9-4.9,4.9s-4.9-2.2-4.9-4.9
	v-5.1H4.1l0.1-18.2c0.4-5.1,5.9-6.6,5.9-6.6s2.3-5.3,4.8-11.8c1.8-4.6,4.5-5.3,6.1-5.3c0.6,0,1.1,0.1,1.1,0.1h27.3
	c4.9,0,6.9,1.1,7.8,3c0.9,1.9,5.6,13.7,5.6,13.7c5.5,1,5.4,6.5,5.4,6.5V51.9L68,51.9z M68,51.9"/>
</svg>
