<?xml version="1.0" encoding="utf-8"?>
<!-- Generator: Adobe Illustrator 18.0.0, SVG Export Plug-In . SVG Version: 6.00 Build 0)  -->
<!DOCTYPE svg PUBLIC "-//W3C//DTD SVG 1.1//EN" "http://www.w3.org/Graphics/SVG/1.1/DTD/svg11.dtd">
<svg version="1.1" id="图层_1" xmlns="http://www.w3.org/2000/svg" xmlns:xlink="http://www.w3.org/1999/xlink" x="0px" y="0px"
	 viewBox="0 0 72 72" enable-background="new 0 0 72 72" xml:space="preserve">
<path fill="#504F4F" d="M70.6,33.3l-9-17.2C59.3,10,53.5,5.7,46.8,5.7H25c-7.2,0-13.3,5-15.3,11.8L1.4,33.3c-1.5,2.8-1.8,6-0.9,9.1
	c0.9,3,2.9,5.5,5.6,7.1c1.1,0.6,2.3,1,3.5,1.2c1.9,6.9,8.1,11.9,15.3,11.9h21.8c7.3,0,13.4-5,15.3-11.9c1.3-0.2,2.6-0.6,3.8-1.3
	c2.7-1.5,4.7-4,5.6-7.1C72.4,39.3,72.1,36.1,70.6,33.3L70.6,33.3z M7.8,46c-1.8-1-3.2-2.7-3.8-4.8c-0.6-2.1-0.4-4.2,0.6-6.1L9,26.9
	v19.2c0,0.1,0,0.3,0,0.4C8.6,46.4,8.2,46.2,7.8,46L7.8,46z M59,46.1c0,6.9-5.5,12.6-12.2,12.6H25c-6.7,0-12.2-5.6-12.2-12.6v-24
	c0-6.9,5.5-12.6,12.2-12.6h21.8c6.7,0,12.2,5.6,12.2,12.6V46.1L59,46.1z M67.9,41.2C67.3,43.3,66,45,64.2,46
	c-0.5,0.2-0.9,0.4-1.4,0.6c0-0.2,0-0.3,0-0.5V26.4l4.6,8.7C68.3,37,68.5,39.2,67.9,41.2L67.9,41.2z M20.1,25.1
	c-2.1,0-3.8,1.7-3.8,3.9c0,2.1,1.7,3.9,3.8,3.9c2.1,0,3.8-1.7,3.8-3.9C23.9,26.8,22.2,25.1,20.1,25.1L20.1,25.1z M51.6,25.1
	c-2.1,0-3.8,1.7-3.8,3.9c0,2.1,1.7,3.9,3.8,3.9c2.1,0,3.8-1.7,3.8-3.9C55.4,26.8,53.7,25.1,51.6,25.1L51.6,25.1z M44.3,49.2
	c-3.4,0-6.2-2.9-6.2-6.4c0-0.2,0-0.5-0.1-0.7c1.3-0.8,2.1-2.1,2.1-3.8c0-2.4-1.9-4.4-4.2-4.4c-2.3,0-4.2,2-4.2,4.4
	c0,1.6,0.9,3,2.1,3.8c-0.1,0.2-0.1,0.4-0.1,0.7c0,3.5-2.8,6.4-6.2,6.4c-1,0-1.9,0.9-1.9,1.9c0,1.1,0.8,1.9,1.9,1.9
	c3.6,0,6.7-1.9,8.5-4.9c1.8,2.9,4.9,4.9,8.5,4.9c1,0,1.9-0.9,1.9-1.9C46.2,50,45.4,49.2,44.3,49.2L44.3,49.2z M44.3,49.2"/>
<path fill="#504F4F" d="M16,23.8c0-0.1,0.6-0.5,0.7-0.6c1.4-1.5,2.4-1.3,3-1.3c1,0,2.2,0.3,2.9,1.2c0.3,0.4,0.8,0.6,1.3,0.3
	c0.4-0.3,0.6-0.9,0.3-1.4c-0.8-1.8-2.2-2.3-4.2-2.4c-2.1-0.1-3.5,0.6-4.8,2.4 M15.3,22.1c0,0-0.1,0.1-0.1,0.1
	c-0.3,0.4-0.3,1.1,0.1,1.4c0.1,0.1,0.2,0.2,0.4,0.2c0.3,0.1,0.7,0,0.9-0.3"/>
<path fill="#504F4F" d="M47.4,23.8c0-0.1,0.6-0.5,0.7-0.6c1.4-1.5,2.4-1.3,3-1.3c1,0,2.2,0.3,2.9,1.2c0.3,0.4,0.8,0.6,1.3,0.3
	c0.4-0.3,0.6-0.9,0.3-1.4c-0.8-1.8-2.2-2.3-4.2-2.4c-2.1-0.1-3.5,0.6-4.8,2.4 M46.6,22.1c0,0-0.1,0.1-0.1,0.1
	c-0.3,0.4-0.3,1.1,0.1,1.4c0.1,0.1,0.2,0.2,0.4,0.2c0.3,0.1,0.7,0,0.9-0.3"/>
</svg>
