<?xml version="1.0" encoding="utf-8"?>
<!-- Generator: Adobe Illustrator 18.0.0, SVG Export Plug-In . SVG Version: 6.00 Build 0)  -->
<!DOCTYPE svg PUBLIC "-//W3C//DTD SVG 1.1//EN" "http://www.w3.org/Graphics/SVG/1.1/DTD/svg11.dtd">
<svg version="1.1" id="图层_1" xmlns="http://www.w3.org/2000/svg" xmlns:xlink="http://www.w3.org/1999/xlink" x="0px" y="0px"
	 viewBox="0 0 72 72" enable-background="new 0 0 72 72" xml:space="preserve">
<path fill="#504F4F" d="M63.8,40.3c0-1.2-0.1-2.3-0.2-3.4c0-1.7-1-16.7-21.8-36.4c-0.6-0.5-1.4-0.7-2.1-0.4c-0.7,0.3-1.1,1-1.1,1.7
	v10.8c-0.8-0.1-1.7-0.1-2.5-0.1c-0.8,0-1.7,0-2.5,0.1V1.9c0-0.8-0.5-1.4-1.1-1.7c-0.7-0.3-1.5-0.2-2.1,0.4
	C9.4,20.2,8.5,35.2,8.5,36.9c-0.1,1.1-0.2,2.3-0.2,3.4L5.4,70c0,0.5,0.1,1,0.5,1.4C6.3,71.8,6.8,72,7.3,72h57.4c0.5,0,1-0.2,1.4-0.6
	c0.4-0.4,0.5-0.9,0.5-1.4L63.8,40.3z M42.3,6.4c3.7,3.8,6.7,7.4,9,10.7c-2.7-1.8-5.7-3.1-9-3.9V6.4z M29.7,6.4v6.9
	c-3.3,0.8-6.3,2.1-9,3.9C23,13.9,25.9,10.3,29.7,6.4z M9.4,68.2L12,40.5c0,0,0-0.1,0-0.1c0-13.2,10.7-24,23.9-24
	c13.2,0,23.9,10.8,23.9,24c0,0,0,0.1,0,0.1l2.7,27.7H9.4z M44.5,38H27.6c-1,0-1.9,0.9-1.9,1.9c0,4.2,3.6,7.7,8.3,8.5
	c-0.3,1.5-1.2,3.8-3.5,5.3c-0.9,0.6-1.1,1.8-0.6,2.6c0.4,0.6,1,0.9,1.6,0.9c0.4,0,0.7-0.1,1-0.3c1.6-1,2.7-2.3,3.5-3.5
	c0.8,1.3,1.9,2.5,3.5,3.5c0.3,0.2,0.7,0.3,1,0.3c0.6,0,1.2-0.3,1.6-0.9c0.6-0.9,0.3-2.1-0.6-2.6c-2.3-1.5-3.2-3.8-3.5-5.3
	c4.7-0.8,8.2-4.3,8.2-8.5C46.4,38.9,45.5,38,44.5,38z M36.1,44.7c-2.7,0-5-1.2-6-2.9h12C41.1,43.5,38.7,44.7,36.1,44.7z M49,33.5
	c0-1.5,1.2-2.7,2.7-2.7c1.5,0,2.7,1.2,2.7,2.7s-1.2,2.7-2.7,2.7C50.2,36.2,49,35,49,33.5L49,33.5z M18.3,33.5c0-1.5,1.2-2.7,2.7-2.7
	c1.5,0,2.7,1.2,2.7,2.7l0,0c0,1.5-1.2,2.7-2.7,2.7C19.5,36.2,18.3,35,18.3,33.5z"/>
</svg>
