<?xml version="1.0" encoding="utf-8"?>
<!-- Generator: Adobe Illustrator 19.0.1, SVG Export Plug-In . SVG Version: 6.00 Build 0)  -->
<!DOCTYPE svg PUBLIC "-//W3C//DTD SVG 1.1//EN" "http://www.w3.org/Graphics/SVG/1.1/DTD/svg11.dtd">
<svg version="1.1" id="图层_1" xmlns="http://www.w3.org/2000/svg" xmlns:xlink="http://www.w3.org/1999/xlink" x="0px" y="0px"
	 viewBox="0 0 72 72" enable-background="new 0 0 72 72" xml:space="preserve">
<path fill="#504F4F" d="M61.6-0.4H47.7c-5.1,0-9.3,4.2-9.3,9.3v9.3c0,5.1,4.2,9.3,9.3,9.3h13.9c5.1,0,9.3-4.2,9.3-9.3l0-9.3
	C70.9,3.8,66.8-0.4,61.6-0.4z M66.3,18.2c0,2.6-2.1,4.6-4.6,4.6H47.7c-2.6,0-4.6-2.1-4.6-4.6V8.9c0-2.6,2.1-4.6,4.6-4.6h13.9
	c2.6,0,4.6,2.1,4.6,4.6L66.3,18.2L66.3,18.2z M61.6,32.2H47.7c-5.1,0-9.3,4.2-9.3,9.3v20.9c0,5.1,4.2,9.3,9.3,9.3h13.9
	c5.1,0,9.3-4.2,9.3-9.3l0-20.9C70.9,36.3,66.8,32.2,61.6,32.2z M66.3,62.3c0,2.6-2.1,4.6-4.6,4.6H47.7c-2.6,0-4.6-2.1-4.6-4.6V41.4
	c0-2.6,2.1-4.6,4.6-4.6h13.9c2.6,0,4.6,2.1,4.6,4.6L66.3,62.3L66.3,62.3z M24.5-0.4H10.5c-5.1,0-9.3,4.2-9.3,9.3v20.9
	c0,5.1,4.2,9.3,9.3,9.3h13.9c5.1,0,9.3-4.2,9.3-9.3V8.9C33.8,3.8,29.6-0.4,24.5-0.4z M29.1,29.8c0,2.6-2.1,4.6-4.6,4.6H10.5
	c-2.6,0-4.6-2.1-4.6-4.6V8.9c0-2.6,2.1-4.6,4.6-4.6h13.9c2.6,0,4.6,2.1,4.6,4.6L29.1,29.8L29.1,29.8z M24.5,43.8H10.5
	c-5.1,0-9.3,4.2-9.3,9.3v9.3c0,5.1,4.2,9.3,9.3,9.3h13.9c5.1,0,9.3-4.2,9.3-9.3v-9.3C33.8,47.9,29.6,43.8,24.5,43.8z M29.1,62.3
	c0,2.6-2.1,4.6-4.6,4.6H10.5c-2.6,0-4.6-2.1-4.6-4.6v-9.3c0-2.6,2.1-4.6,4.6-4.6h13.9c2.6,0,4.6,2.1,4.6,4.6L29.1,62.3L29.1,62.3z"
	/>
</svg>
