<?xml version="1.0" encoding="utf-8"?>
<!-- Generator: Adobe Illustrator 18.0.0, SVG Export Plug-In . SVG Version: 6.00 Build 0)  -->
<!DOCTYPE svg PUBLIC "-//W3C//DTD SVG 1.1//EN" "http://www.w3.org/Graphics/SVG/1.1/DTD/svg11.dtd">
<svg version="1.1" id="图层_1" xmlns="http://www.w3.org/2000/svg" xmlns:xlink="http://www.w3.org/1999/xlink" x="0px" y="0px"
	 viewBox="0 0 72 72" enable-background="new 0 0 72 72" xml:space="preserve">
<path fill="#504F4F" d="M41.8,10.9"/>
<path fill="#504F4F" d="M32.6,2.1L1.8,32.4C0,34.1-0.8,36.2,1,38c1.8,1.7,3.9,1,5.7-0.8l25.9-25.5v56.1c0,2.3,1,4.1,3.3,4.1
	c2.3,0,3.6-1.8,3.6-4.1V11.8l25.9,25.4c1.8,1.7,3.8,2.5,5.6,0.8c1.8-1.7,1.1-3.9-0.7-5.6L39.4,2.1c0,0-1.8-2.1-3.2-2.1
	C34.5,0,32.6,2.1,32.6,2.1L32.6,2.1z"/>
</svg>
