<?xml version="1.0" encoding="utf-8"?>
<!-- Generator: Adobe Illustrator 18.0.0, SVG Export Plug-In . SVG Version: 6.00 Build 0)  -->
<!DOCTYPE svg PUBLIC "-//W3C//DTD SVG 1.1//EN" "http://www.w3.org/Graphics/SVG/1.1/DTD/svg11.dtd">
<svg version="1.1" id="图层_1" xmlns="http://www.w3.org/2000/svg" xmlns:xlink="http://www.w3.org/1999/xlink" x="0px" y="0px"
	 viewBox="0 0 72 72" enable-background="new 0 0 72 72" xml:space="preserve">
<g id="_x31_200">
	<g id="首页_web" transform="translate(-603.000000, -1201.000000)">
		<g id="首页改版_web_1" transform="translate(177.000000, 49.000000)">
			<g id="main" transform="translate(0.000000, 187.000000)">
				<g id="二手市集" transform="translate(0.000000, 674.000000)">
					<g id="bt" transform="translate(404.000000, 282.000000)">
						<path id="Shape_1_" fill="#514F4F" d="M81.6,81H35.1c-5.2,0-9.4-4.2-9.4-9.4V34.1c0-5.2,3.9-9.4,8.8-9.4h6v5.6h-6
							c-1.7,0-3.2,1.8-3.2,3.9v37.4c0,2.1,1.7,3.9,3.9,3.9h46.5c2.1,0,3.9-1.7,3.9-3.9V34.1c0-2.1-1.5-3.9-3.2-3.9h-6v-5.6h6
							c4.8,0,8.8,4.2,8.8,9.4v37.4C91.1,76.8,86.8,81,81.6,81L81.6,81z M74.2,41.7c-1-1.1-2.7-1.2-3.8-0.2L61,50.1V11.7
							c0-1.5-1.2-2.7-2.7-2.7c-1.5,0-2.7,1.2-2.7,2.7V50l-8.9-8.4c-1.1-1-2.7-1-3.8,0.1c-1,1.1-1,2.7,0.1,3.8l13.4,12.7c0,0,0,0,0,0
							c0.1,0.1,0.2,0.2,0.4,0.3c0,0,0,0,0,0c0.1,0.1,0.2,0.1,0.3,0.2c0,0,0,0,0,0c0.1,0,0.2,0.1,0.4,0.1c0.1,0,0.1,0,0.2,0
							c0.2,0,0.3,0.1,0.5,0.1c0.2,0,0.3,0,0.5,0c0.1,0,0.1,0,0.2,0c0.1,0,0.2-0.1,0.3-0.1c0.1,0,0.1-0.1,0.2-0.1
							c0.1,0,0.2-0.1,0.3-0.1c0.1,0,0.1-0.1,0.2-0.1c0.1,0,0.1-0.1,0.2-0.1L74,45.4C75.1,44.4,75.1,42.8,74.2,41.7L74.2,41.7z"/>
					</g>
				</g>
			</g>
		</g>
	</g>
</g>
</svg>
