<?xml version="1.0" encoding="utf-8"?>
<!-- Generator: Adobe Illustrator 18.0.0, SVG Export Plug-In . SVG Version: 6.00 Build 0)  -->
<!DOCTYPE svg PUBLIC "-//W3C//DTD SVG 1.1//EN" "http://www.w3.org/Graphics/SVG/1.1/DTD/svg11.dtd">
<svg version="1.1" id="图层_1" xmlns="http://www.w3.org/2000/svg" xmlns:xlink="http://www.w3.org/1999/xlink" x="0px" y="0px"
	 viewBox="0 0 72 72" enable-background="new 0 0 72 72" xml:space="preserve">
<g>
	<path fill="#504F4F" d="M67.9,14.4H13.1c-0.7,0-1.3,0.3-1.8,0.8c-0.4,0.5-0.6,1.2-0.4,1.9l4.9,21.7c0,0,0,0,0,0
		c0,0.2,0.1,0.5,0.2,0.7l2.7,12c0.2,1,1.1,1.8,2.2,1.8h39.2c1.1,0,2-0.7,2.2-1.8l7.7-34.3c0.2-0.7,0-1.4-0.4-1.9
		C69.2,14.7,68.6,14.4,67.9,14.4z M32.6,48.8l-1-8.4h7v8.4H32.6z M31.2,37.4l-0.9-7.2h8.2v7.2H31.2z M18.5,30.2h8.9l0.9,7.2h-8.1
		L18.5,30.2z M30,27.2l-1-8.3h9.6v8.3H30z M26,18.9l1,8.3h-9.2l-1.9-8.3H26z M20.8,40.4h7.8l1,8.4h-6.9L20.8,40.4z M58.3,48.8H41.6
		v-8.4h10.2c0.8,0,1.5-0.7,1.5-1.5c0-0.8-0.7-1.5-1.5-1.5H41.6v-7.2h13.2c0.8,0,1.5-0.7,1.5-1.5c0-0.8-0.7-1.5-1.5-1.5H41.6v-8.3
		h23.5L58.3,48.8z"/>
	<path fill="#504F4F" d="M29.2,56.8c-4.1,0-7.5,3.4-7.5,7.5c0,4.1,3.4,7.5,7.5,7.5c4.1,0,7.5-3.4,7.5-7.5
		C36.7,60.2,33.4,56.8,29.2,56.8z M29.2,67.3c-1.7,0-3-1.3-3-3c0-1.7,1.3-3,3-3c1.7,0,3,1.3,3,3C32.2,66,30.9,67.3,29.2,67.3z"/>
	<path fill="#504F4F" d="M51.8,56.8c-4.1,0-7.5,3.4-7.5,7.5c0,4.1,3.4,7.5,7.5,7.5c4.1,0,7.5-3.4,7.5-7.5
		C59.3,60.2,55.9,56.8,51.8,56.8z M51.8,67.3c-1.7,0-3-1.3-3-3c0-1.7,1.3-3,3-3c1.7,0,3,1.3,3,3C54.8,66,53.4,67.3,51.8,67.3z"/>
	<path fill="#504F4F" d="M69.8,7H13.4l-1.1-5c0-0.1,0-0.1-0.1-0.2c0-0.1,0-0.2-0.1-0.2c0-0.1-0.1-0.1-0.1-0.2c0-0.1-0.1-0.1-0.1-0.2
		c0-0.1-0.1-0.1-0.1-0.2c0-0.1-0.1-0.1-0.1-0.2c0,0-0.1-0.1-0.2-0.1c-0.1-0.1-0.1-0.1-0.2-0.1c0,0-0.1-0.1-0.1-0.1
		c-0.1,0-0.2-0.1-0.2-0.1c-0.1,0-0.1,0-0.2,0c-0.1,0-0.2-0.1-0.3-0.1c-0.1,0-0.1,0-0.2,0c-0.1,0-0.1,0-0.2,0H2.3
		c-1.2,0-2.2,1-2.2,2.2c0,1.2,1,2.2,2.2,2.2h5.9l1.1,5c0,0.1,0.1,0.3,0.1,0.4c0,0,0,0,0,0c0.1,0.1,0.1,0.2,0.2,0.3
		c0,0,0,0.1,0.1,0.1c0.1,0.1,0.1,0.2,0.2,0.2c0,0,0.1,0.1,0.1,0.1c0.1,0.1,0.1,0.1,0.2,0.2c0,0,0.1,0.1,0.1,0.1
		c0.1,0,0.1,0.1,0.2,0.1c0,0,0.1,0,0.1,0.1c0.1,0,0.2,0.1,0.3,0.1c0,0,0.1,0,0.1,0c0.1,0,0.3,0,0.4,0c0,0,0,0,0,0h58.2
		c1.2,0,2.2-1,2.2-2.2S71.1,7,69.8,7z"/>
</g>
</svg>
