<?xml version="1.0" encoding="utf-8"?>
<!-- Generator: Adobe Illustrator 18.0.0, SVG Export Plug-In . SVG Version: 6.00 Build 0)  -->
<!DOCTYPE svg PUBLIC "-//W3C//DTD SVG 1.1//EN" "http://www.w3.org/Graphics/SVG/1.1/DTD/svg11.dtd">
<svg version="1.1" id="图层_1" xmlns="http://www.w3.org/2000/svg" xmlns:xlink="http://www.w3.org/1999/xlink" x="0px" y="0px"
	 viewBox="0 0 72 72" enable-background="new 0 0 72 72" xml:space="preserve">
<g>
	<path fill="#504F4F" d="M10.3,20.4h7.1v7.5c0,1.1,0.9,1.9,1.9,1.9c1.1,0,1.9-0.9,1.9-1.9v-7.5h7c1.1,0,1.9-0.9,1.9-1.9
		c0-1.1-0.9-1.9-1.9-1.9h-7V9.9c0-1.1-0.9-1.9-1.9-1.9c-1.1,0-1.9,0.9-1.9,1.9v6.6h-7.1c-1.1,0-1.9,0.9-1.9,1.9
		C8.4,19.5,9.2,20.4,10.3,20.4L10.3,20.4L10.3,20.4z M68.5,0l-0.1,0H3.8L3.6,0c-2,0.2-3.5,1.8-3.5,3.8v64.4c0,2.1,1.7,3.8,3.8,3.8
		h64.4c2.1,0,3.8-1.7,3.8-3.8V3.8C72,1.9,70.5,0.2,68.5,0L68.5,0L68.5,0z M67.3,33.4H38.5V4.8h28.8V33.4L67.3,33.4L67.3,33.4z
		 M33.7,4.8v28.6H4.9V4.8H33.7L33.7,4.8L33.7,4.8z M4.9,38.1h28.8v29.1H4.9V38.1L4.9,38.1L4.9,38.1z M38.5,67.2V38.1h28.8v29.1H38.5
		L38.5,67.2L38.5,67.2z M43.8,20.4h18c1.1,0,1.9-0.9,1.9-1.9c0-1.1-0.9-1.9-1.9-1.9h-18c-1.1,0-1.9,0.9-1.9,1.9
		C41.9,19.5,42.7,20.4,43.8,20.4L43.8,20.4L43.8,20.4z M27.2,57.8l-5.3-5.3l5-5c0.8-0.8,0.8-2,0-2.8c-0.8-0.8-2-0.8-2.8,0l-5,5
		l-4.7-4.7c-0.8-0.8-2-0.8-2.8,0c-0.8,0.8-0.8,2,0,2.8l4.7,4.7l-5,5c-0.8,0.8-0.8,2,0,2.8c0.8,0.8,2,0.8,2.8,0l5-5l5.3,5.3
		c0.8,0.8,2,0.8,2.8,0C27.9,59.8,27.9,58.6,27.2,57.8L27.2,57.8L27.2,57.8z M61.8,45.4h-18c-1.1,0-1.9,0.9-1.9,1.9
		c0,1.1,0.9,1.9,1.9,1.9h18c1.1,0,1.9-0.9,1.9-1.9C63.8,46.3,62.9,45.4,61.8,45.4L61.8,45.4L61.8,45.4z M61.8,56h-18
		c-1.1,0-1.9,0.9-1.9,1.9c0,1.1,0.9,1.9,1.9,1.9h18c1.1,0,1.9-0.9,1.9-1.9C63.8,56.9,62.9,56,61.8,56L61.8,56L61.8,56z M61.8,56"/>
</g>
</svg>
