<?xml version="1.0" encoding="utf-8"?>
<!-- Generator: Adobe Illustrator 18.0.0, SVG Export Plug-In . SVG Version: 6.00 Build 0)  -->
<!DOCTYPE svg PUBLIC "-//W3C//DTD SVG 1.1//EN" "http://www.w3.org/Graphics/SVG/1.1/DTD/svg11.dtd">
<svg version="1.1" id="图层_1" xmlns="http://www.w3.org/2000/svg" xmlns:xlink="http://www.w3.org/1999/xlink" x="0px" y="0px"
	 viewBox="0 0 72 72" enable-background="new 0 0 72 72" xml:space="preserve">
<g>
	<path fill="#504F4F" d="M65.2,27.6l-26-26.3C38.4,0.5,37.2,0,36,0c-1.2,0-2.4,0.5-3.2,1.3L21,13.2V9.7c0-1.2-1-2.3-2.3-2.3
		c-1.2,0-2.3,1-2.3,2.3v8c0,0,0,0.1,0,0.1l-9.7,9.8c-0.8,0.8-1.3,2-1.3,3.2v36.7c0,2.5,2,4.5,4.5,4.5h52c2.5,0,4.5-2,4.5-4.5V30.8
		C66.5,29.6,66.1,28.4,65.2,27.6z M54.3,67.5H40.2V40.6h14.1V67.5z M57.3,67.5V39.1c0-0.8-0.7-1.5-1.5-1.5H38.7
		c-0.8,0-1.5,0.7-1.5,1.5v28.4H10V32.3h36.3c0.8,0,1.5-0.7,1.5-1.5s-0.7-1.5-1.5-1.5H11.5L36,4.5l24.5,24.8h-5.6
		c-0.8,0-1.5,0.7-1.5,1.5s0.7,1.5,1.5,1.5H62v35.2H57.3z"/>
	<path fill="#504F4F" d="M31,37.6H15.8c-0.8,0-1.5,0.7-1.5,1.5v16.2c0,0.8,0.7,1.5,1.5,1.5H31c0.8,0,1.5-0.7,1.5-1.5V39.1
		C32.5,38.2,31.8,37.6,31,37.6z M29.5,53.8H17.3V40.6h12.2V53.8z"/>
	<path fill="#504F4F" d="M44.2,56.8c0.8,0,1.5-0.7,1.5-1.5v-3.7c0-0.8-0.7-1.5-1.5-1.5c-0.8,0-1.5,0.7-1.5,1.5v3.7
		C42.7,56.1,43.4,56.8,44.2,56.8z"/>
</g>
</svg>
