<?xml version="1.0" encoding="utf-8"?>
<!-- Generator: Adobe Illustrator 18.0.0, SVG Export Plug-In . SVG Version: 6.00 Build 0)  -->
<!DOCTYPE svg PUBLIC "-//W3C//DTD SVG 1.0//EN" "http://www.w3.org/TR/2001/REC-SVG-20010904/DTD/svg10.dtd">
<svg version="1.0" id="图层_1" xmlns="http://www.w3.org/2000/svg" xmlns:xlink="http://www.w3.org/1999/xlink" x="0px" y="0px"
	 viewBox="0 0 72 72" enable-background="new 0 0 72 72" xml:space="preserve">
<path fill="#514F4F" d="M0.5,13v5c1.7,15.1,10.1,29.8,21.2,35.4l0.3,0.1v1.4c0,4.4,3.2,8.1,7.3,8.1h13.4c4.1,0,7.3-3.7,7.3-8.1v-1.3
	c12.5-6.1,20.9-19.9,21.4-35.5l0.1-3.1l0-2H0.5z M48.7,49.3h-2.6v4.9c0,2.3-1.6,4.1-3.4,4.1H29.3c-1.8,0-3.4-1.8-3.4-4.1v-4.8
	l-2.7-0.3c-7.3-3.7-13.3-12-16.5-21.6H66C63.3,37.2,57,45.1,48.7,49.3z M67.6,17.9c-0.1,1.7-0.2,3.4-0.5,5.1H5.4
	c-0.4-2-0.8-4.1-0.9-6.2h63.1L67.6,17.9z"/>
</svg>
