<?xml version="1.0" encoding="utf-8"?>
<!-- Generator: Adobe Illustrator 18.0.0, SVG Export Plug-In . SVG Version: 6.00 Build 0)  -->
<!DOCTYPE svg PUBLIC "-//W3C//DTD SVG 1.1//EN" "http://www.w3.org/Graphics/SVG/1.1/DTD/svg11.dtd">
<svg version="1.1" id="图层_1" xmlns="http://www.w3.org/2000/svg" xmlns:xlink="http://www.w3.org/1999/xlink" x="0px" y="0px"
	 viewBox="0 0 72 72" enable-background="new 0 0 72 72" xml:space="preserve">
<g id="wap_2_">
	<g id="微招聘首页_主菜单_wap_1_" transform="translate(-29.000000, -131.000000)">
		<g id="menu_1_">
			<path id="Shape2" fill="#514F4F" d="M96,166.7c0,0,0.4,0.9,0.5,2.3v25.6c0,0-0.1,5.9-6.9,6H64.8l0,0H40.4c-6.8-0.1-6.9-6-6.9-6
				V169c0.1-1.4,0.5-2.3,0.5-2.3c-5.3-1.5-5-6-5-6v-8.4c0.2-6.1,6.5-6.4,6.5-6.4l3.2,0.1c0,0-4.9-6.6,1-10.8
				c11.6-7.1,25.3,9.4,25.3,9.5c0,0,13.7-16.5,25.3-9.5c5.9,4.2,1,10.8,1,10.8l3.2-0.1c0,0,6.3,0.3,6.5,6.4v8.4
				C101,160.7,101.3,165.2,96,166.7L96,166.7z M67.2,196.6h22.3c2.3,0.1,2.6-1.9,2.6-1.9v-24.9c0.2-2.5-1.9-2.8-1.9-2.8H67.2V196.6
				L67.2,196.6z M38,194.7c0,0,0.2,1.9,2.6,1.9h22.3V167H39.9c0,0-2.1,0.3-1.9,2.8V194.7L38,194.7z M44,137.8
				c-4.2,1.4-2.2,4.4-2.2,4.4s0.1,1.3,2.7,3.7h15.9C60.3,145.9,51.8,136.2,44,137.8L44,137.8z M35.5,150.2c0,0-1.8,0.2-2,2.1v8.8
				c0,0,0.5,1.9,2.2,1.8h27.2l0-12.7H35.5L35.5,150.2z M86,137.8c-7.7-1.5-16.3,8.2-16.3,8.2h15.9c2.6-2.4,2.7-3.7,2.7-3.7
				S90.2,139.2,86,137.8L86,137.8z M96.5,152.3c-0.3-1.9-2-2.1-2-2.1H67.1l0,12.7h27.2c1.7,0.2,2.2-1.8,2.2-1.8V152.3L96.5,152.3z"
				/>
		</g>
	</g>
</g>
</svg>
