<?xml version="1.0" encoding="utf-8"?>
<!-- Generator: Adobe Illustrator 18.0.0, SVG Export Plug-In . SVG Version: 6.00 Build 0)  -->
<!DOCTYPE svg PUBLIC "-//W3C//DTD SVG 1.1//EN" "http://www.w3.org/Graphics/SVG/1.1/DTD/svg11.dtd">
<svg version="1.1" id="图层_1" xmlns="http://www.w3.org/2000/svg" xmlns:xlink="http://www.w3.org/1999/xlink" x="0px" y="0px"
	 viewBox="0 0 72 72" enable-background="new 0 0 72 72" xml:space="preserve">
<g>
	<path fill="#504F4F" d="M71.6,22.5L58.7,3.4c-0.5-0.7-1.2-1.1-2.1-1.1H15.4c-0.8,0-1.6,0.4-2.1,1.1L0.4,22.5
		c-0.6,0.9-0.6,2.1,0.1,2.9L34,69.1c0.5,0.6,1.2,1,2,1c0.8,0,1.5-0.4,2-1l33.5-43.7C72.1,24.6,72.2,23.4,71.6,22.5L71.6,22.5z
		 M46,25.4L36,61.9L26,25.4H46L46,25.4z M26.8,22.4L36,7.7l9.2,14.8H26.8L26.8,22.4z M39.3,7.3h14.5l-6.1,13.4L39.3,7.3L39.3,7.3z
		 M24.3,20.7L18.2,7.3h14.5L24.3,20.7L24.3,20.7z M31.8,58l-25-32.6h16.1L31.8,58L31.8,58z M49.1,25.4h16.1L40.2,58L49.1,25.4
		L49.1,25.4z M65.4,22.4H50.3L56.4,9L65.4,22.4L65.4,22.4z M15.6,9l6.1,13.5H6.6L15.6,9L15.6,9z M15.6,9"/>
</g>
</svg>
