<?xml version="1.0" encoding="utf-8"?>
<!-- Generator: Adobe Illustrator 18.0.0, SVG Export Plug-In . SVG Version: 6.00 Build 0)  -->
<!DOCTYPE svg PUBLIC "-//W3C//DTD SVG 1.1//EN" "http://www.w3.org/Graphics/SVG/1.1/DTD/svg11.dtd">
<svg version="1.1" id="图层_1" xmlns="http://www.w3.org/2000/svg" xmlns:xlink="http://www.w3.org/1999/xlink" x="0px" y="0px"
	 viewBox="0 0 72 72" enable-background="new 0 0 72 72" xml:space="preserve">
<path fill="#504F4F" d="M41.8,10.9"/>
<g>
	<path fill="#514F4F" d="M36,64c-4.2,0-8.3-8.6-11.9-13.6V66h23.7V50.4C44.3,55.3,40.2,64,36,64z"/>
	<path fill="#514F4F" d="M5.6,71.9C5.6,71.9,5.6,72,5.6,71.9L20.3,72v-6V49.5C13.3,54.8,5.6,63.2,5.6,71.9z"/>
	<path fill="#514F4F" d="M51.7,49.5V66v6h14.6c0,0,0-0.1,0-0.1C66.4,63.2,58.7,54.8,51.7,49.5z"/>
	<path fill="#514F4F" d="M60.9,31.4c0-3.6-2-6.6-4.8-7.7c0.1-0.8,0.2-1.7,0.2-2.5c0-7.2-4.4-13.5-10.8-16.7v9.4c0,1.2-1,2.2-2.2,2.2
		s-2.2-1-2.2-2.2V0.7C39.6,0.2,37.8,0,36,0c-1.8,0-3.5,0.2-5.2,0.7v13.2c0,1.2-1,2.2-2.2,2.2c-1.2,0-2.2-1-2.2-2.2V4.4
		C20,7.6,15.6,13.9,15.6,21.2c0,0.9,0.1,1.7,0.2,2.5c-2.8,1.2-4.8,4.2-4.8,7.7c0,5,3.9,8.9,8.4,8.2c3.7,6.9,10.1,11.3,16.6,11.3
		s12.8-4.4,16.6-11.3C57,40.3,60.9,36.4,60.9,31.4z M23.5,22.5c3.9-0.8,8.1-1.3,12.5-1.3c4.5,0,8.7,0.5,12.6,1.3
		c0.3,0.7,0.6,1.4,1,2C46.2,23.7,41.4,23,36,23c-5.4,0-10.3,0.7-13.5,1.5C22.8,23.9,23.1,23.2,23.5,22.5z M36,46.8
		c-4.9,0-10.2-2.9-14.6-12.4c-0.9,0.4-2.2,1.2-3,1.2c-4.3,0-4.4-8.2-0.1-8.4l0.5,0c1.4,0.7,4.8,1.2,9.3,1.5c0,0.1,0,0.2,0,0.2
		c0,1.8,0.9,3.3,2.1,3.3c1.1,0,2-1.5,2-3.3c0,0,0,0,0-0.1c1.2,0,2.5,0.1,3.8,0.1c1.3,0,2.6,0,3.8-0.1c0,0,0,0,0,0.1
		c0,1.8,0.9,3.3,2,3.3s2.1-1.5,2.1-3.3c0-0.1,0-0.2,0-0.2c4.5-0.3,7.9-0.8,9.3-1.5c0.2,0,0.5,0,0.5,0c4.3,0.2,4.2,8.4-0.1,8.4
		c-0.9,0-2.1-0.8-3-1.2C46.2,43.9,40.9,46.8,36,46.8z"/>
</g>
</svg>
