<?xml version="1.0" encoding="utf-8"?>
<!-- Generator: Adobe Illustrator 18.0.0, SVG Export Plug-In . SVG Version: 6.00 Build 0)  -->
<!DOCTYPE svg PUBLIC "-//W3C//DTD SVG 1.1//EN" "http://www.w3.org/Graphics/SVG/1.1/DTD/svg11.dtd">
<svg version="1.1" id="图层_1" xmlns="http://www.w3.org/2000/svg" xmlns:xlink="http://www.w3.org/1999/xlink" x="0px" y="0px"
	 viewBox="0 0 72 72" enable-background="new 0 0 72 72" xml:space="preserve">
<path fill="#504F4F" d="M20.3,58c1.1,0.5,1.7,1.5,2.5,2.3c0.9,0.9,2,1.6,3.1,2.2c4.3,2.5,9.6,3.9,14.6,2.9c4.4-0.8,8.7-3.1,11.8-6.3
	c3.7-3.7,4.8-10.3,4.5-15.1c-0.3-5.4-2.5-12.1-5.8-14.2c-3.3,7.7-10.7,11.2-18.4,13.3c-2,0.5-4,0.9-6,1.1c-0.4,0-0.8,0.1-1.2,0.1
	c6.2-5.4,11.4-13.8,11.8-22.2c0.2-4.4,0.6-10-7.3-14.1c-0.3,9.3-3.9,16.7-9.3,22.2c-3.9,4-5.8,9.8-5.3,15.3c0.1,1.7,0.7,3.4,0.9,5.1
	c0.1,0.9,0.3,2.1-0.3,2.9c-0.7,1.1-2.6,1.6-3.8,1.1c-0.5-0.2-1.2-0.7-1.3-1.3C9,45.8,8.5,35.7,14.9,29.1c6.7-7,9.9-17.4,10.3-29.1
	c3.8,0.5,14.1,8.6,16.4,15c2.1,5.9-0.3,17.9-3.4,20.8c7.5-4.3,9.4-11,10.5-15.7c7.8,5.3,14.2,15.9,13.7,26.5
	c-0.1,2.5-0.2,4.6-0.9,7.4c-0.7,2.7-2.8,6.8-4.7,9c-2.2,2.5-4.5,4.7-7.6,6.2c-4.3,2.1-9.1,3-13.8,2.8c-1.3,0-2.6-0.2-3.8-0.4
	c-6.8-1.1-9.9-3.6-10.8-4.1c-1.4-0.9-2.9-2.6-4-3.8C14.3,60.8,16.5,56.3,20.3,58z"/>
</svg>
