<?xml version="1.0" encoding="UTF-8" standalone="no"?>
<svg width="19px" height="21px" viewBox="0 0 19 21" version="1.1" xmlns="http://www.w3.org/2000/svg" xmlns:xlink="http://www.w3.org/1999/xlink">
    <!-- Generator: Sketch 39.1 (31720) - http://www.bohemiancoding.com/sketch -->
    <title>Shape</title>
    <desc>Created with Sketch.</desc>
    <defs></defs>
    <g id="1200" stroke="none" stroke-width="1" fill="none" fill-rule="evenodd">
        <g id="首页_web" transform="translate(-603.000000, -1201.000000)" fill="#0FB7AA">
            <g id="首页改版_web_1" transform="translate(177.000000, 49.000000)">
                <g id="main" transform="translate(0.000000, 187.000000)">
                    <g id="二手市集" transform="translate(0.000000, 674.000000)">
                        <g id="bt" transform="translate(404.000000, 282.000000)">
                            <path d="M38.3586634,29.7041666 L25.3260588,29.7041666 C23.8697584,29.7041666 22.6847223,28.5193167 22.6847223,27.06283 L22.6847223,16.5799614 C22.6847223,15.123661 23.7859773,13.9386249 25.1398788,13.9386249 L26.8154994,13.9386249 L26.8154994,15.4975105 L25.1398788,15.4975105 C24.654135,15.4975105 24.2437941,15.9931219 24.2437941,16.5797753 L24.2437941,27.06283 C24.2437941,27.6595371 24.7293517,28.1450947 25.3260588,28.1450947 L38.3586634,28.1450947 C38.9553705,28.1450947 39.4409281,27.6595371 39.4409281,27.06283 L39.4409281,16.5799614 C39.4409281,15.9933081 39.0305873,15.4976967 38.5448435,15.4976967 L36.8692229,15.4976967 L36.8692229,13.938811 L38.5448435,13.938811 C39.8985587,13.938811 41,15.123661 41,16.5801476 L41,27.0632024 C41,28.5193167 39.8149639,29.7041666 38.3586634,29.7041666 L38.3586634,29.7041666 Z M36.2663718,18.6919881 C35.988405,18.3888869 35.5171833,18.3685933 35.2142683,18.6467463 L32.5870814,21.0570335 L32.5870814,10.2824207 C32.5870814,9.871149 32.2536329,9.5377005 31.8423611,9.5377005 C31.4310894,9.5377005 31.0976409,9.871149 31.0976409,10.2824207 L31.0976409,21.0194251 L28.6026418,18.6549383 C28.3041952,18.3719446 27.8326011,18.384791 27.5499797,18.6832376 C27.266986,18.9818705 27.2798325,19.4530922 27.5782791,19.7358997 L31.3301798,23.2913804 C31.3337172,23.2947317 31.3378132,23.2967797 31.3413506,23.3001309 C31.3722565,23.3284303 31.4052104,23.3548678 31.4409569,23.377768 C31.4426325,23.3788851 31.444122,23.3803745 31.4457976,23.3813054 C31.4765173,23.4006681 31.5089127,23.4177967 31.5426113,23.4326911 C31.5468934,23.4345529 31.5513617,23.4351114 31.5554577,23.436787 C31.587853,23.4503782 31.6209931,23.4598734 31.6546917,23.4686238 C31.6690275,23.4723474 31.6828048,23.4779329 31.6971407,23.4807255 C31.744989,23.4902207 31.7933958,23.4956199 31.8419888,23.4956199 C31.8894647,23.4956199 31.9367544,23.4905931 31.9834856,23.4816564 C32.0000556,23.4784914 32.0160671,23.4721613 32.032451,23.4678791 C32.0620536,23.4600596 32.09147,23.4524262 32.1199556,23.4410692 C32.1387598,23.433622 32.1562607,23.4231959 32.1743202,23.4140731 C32.1994545,23.4014128 32.2244026,23.389125 32.2482336,23.373672 C32.2655484,23.362315 32.2815599,23.3487239 32.2981299,23.3358775 C32.313769,23.3235896 32.3308976,23.3135359 32.345792,23.2999447 L36.2209439,19.744464 C36.5240451,19.466311 36.5445249,18.9950892 36.2663718,18.6919881 L36.2663718,18.6919881 Z" id="Shape"></path>
                        </g>
                    </g>
                </g>
            </g>
        </g>
    </g>
</svg>