<?xml version="1.0" encoding="UTF-8" standalone="no"?>
<svg width="12px" height="12px" viewBox="0 0 12 12" version="1.1" xmlns="http://www.w3.org/2000/svg" xmlns:xlink="http://www.w3.org/1999/xlink">
    <!-- Generator: Sketch 39.1 (31720) - http://www.bohemiancoding.com/sketch -->
    <title>iconfont-renwu</title>
    <desc>Created with Sketch.</desc>
    <defs></defs>
    <g id="赚积分" stroke="none" stroke-width="1" fill="none" fill-rule="evenodd">
        <g id="赚积分-" transform="translate(-15.000000, -170.000000)" fill="#000000">
            <g id="iconfont-renwu" transform="translate(15.000000, 170.000000)">
                <path d="M6.00021727,0.0161448468 C2.69092479,0.0161448468 0.00844011142,2.69886351 0.00844011142,6.00762117 C0.00844011142,9.22201671 2.53958774,11.8450864 5.71769916,11.9925794 C9.30748747,12.1591755 12.1505014,9.31776602 11.9855097,5.72791086 C11.8393872,2.54899721 9.21549861,0.0161448468 6.00021727,0.0161448468 L6.00021727,0.0161448468 Z M5.99755989,10.9723788 C3.25545961,10.9723788 1.03241783,8.74950418 1.03241783,6.00733705 C1.03241783,3.26545404 3.25545961,1.04251253 5.99755989,1.04251253 C8.73984401,1.04251253 10.9628858,3.26545404 10.9628858,6.00733705 C10.9628858,8.74945404 8.73984401,10.9723788 5.99755989,10.9723788 L5.99755989,10.9723788 Z" id="Fill-1"></path>
                <path d="M5.87511978,6.50628969 L5.80512535,6.50628969 C5.54916435,6.50628969 5.34167131,6.29879666 5.34167131,6.04283565 L5.34167131,3.00355989 C5.34167131,2.74759889 5.54916435,2.54010585 5.80512535,2.54010585 L5.87511978,2.54010585 C6.13108078,2.54010585 6.33857382,2.74758217 6.33857382,3.00355989 L6.33857382,6.04283565 C6.33857382,6.29879666 6.13108078,6.50628969 5.87511978,6.50628969" id="Fill-2"></path>
                <path d="M5.34167131,6.04283565 L5.34167131,5.97284123 C5.34167131,5.71688022 5.54916435,5.50938719 5.80512535,5.50938719 L8.84441783,5.50938719 C9.10037883,5.50938719 9.30787187,5.71688022 9.30787187,5.97284123 L9.30787187,6.04283565 C9.30787187,6.29879666 9.10037883,6.50628969 8.84441783,6.50628969 L5.80512535,6.50628969 C5.54916435,6.50628969 5.34167131,6.29879666 5.34167131,6.04283565" id="Fill-3"></path>
            </g>
        </g>
    </g>
</svg>