<?xml version="1.0" encoding="UTF-8" standalone="no"?>
<svg viewBox="0 0 12 12" version="1.1" xmlns="http://www.w3.org/2000/svg" xmlns:xlink="http://www.w3.org/1999/xlink">
    <!-- Generator: Sketch 39 (31667) - http://www.bohemiancoding.com/sketch -->
    <title>Group 8</title>
    <desc>Created with Sketch.</desc>
    <defs></defs>
    <g id="赚积分" stroke="none" stroke-width="1" fill="none" fill-rule="evenodd">
        <g id="Group-8">
            <path d="M6,0 C4.39734054,0 2.89059955,0.623865734 1.757358,1.75671608 C0.624099663,2.88953287 0,4.39570909 0,5.99776783 C0,7.16492308 0.33573983,8.29646434 0.970903779,9.27005874 C1.09680831,9.46306573 1.35541714,9.51747692 1.54851329,9.39163636 C1.74157586,9.26577902 1.79604103,9.00726713 1.67011971,8.81426014 C1.12362116,7.97657622 0.834757643,7.00264615 0.834757643,5.99776783 C0.834757643,3.15071329 3.1518947,0.834427972 6.00003358,0.834427972 C8.84817246,0.834427972 11.1653095,3.1506965 11.1653095,5.99776783 C11.1653095,8.84483916 8.84815567,11.1611077 6,11.1611077 C5.05688286,11.1611077 4.13419855,10.9047441 3.33171035,10.4197762 C3.1344504,10.3005315 2.87785632,10.3637371 2.75858364,10.5609399 C2.63932775,10.7581427 2.70254025,11.0146406 2.89981699,11.133835 C3.8325918,11.6975664 4.90461879,11.9955524 5.99998321,11.9955524 C7.60264267,11.9955524 9.10940045,11.3716867 10.242642,10.2388364 C11.3759003,9.10601958 12,7.59982657 12,5.99778462 C12,4.39572587 11.3759171,2.88953287 10.2426588,1.75671608 C9.10941724,0.623865734 7.60265946,0 6,0 Z" id="Fill-1" fill="#00D0C0"></path>
            <path d="M3,6.4 L4.65875702,8.05875702 C4.73676336,8.13676336 4.86422043,8.13577957 4.94052629,8.05947371 L8.5,4.5" id="Path-28" stroke="#00D0C0" stroke-linecap="round"></path>
        </g>
    </g>
</svg>