<?xml version="1.0" encoding="UTF-8" standalone="no"?>
<svg width="12px" height="12px" viewBox="0 0 12 12" version="1.1" xmlns="http://www.w3.org/2000/svg" xmlns:xlink="http://www.w3.org/1999/xlink">
    <!-- Generator: Sketch 39.1 (31720) - http://www.bohemiancoding.com/sketch -->
    <title>iconfont-wancheng</title>
    <desc>Created with Sketch.</desc>
    <defs></defs>
    <g id="赚积分" stroke="none" stroke-width="1" fill="none" fill-rule="evenodd">
        <g id="赚积分-" transform="translate(-102.000000, -170.000000)" fill="#000000">
            <g id="iconfont-wancheng" transform="translate(102.000000, 170.000000)">
                <path d="M10.2325307,1.75916643 C9.10129609,0.626316084 7.5972067,0.00245034965 5.99738547,0.00245034965 C4.39756425,0.00245034965 2.89349162,0.626316084 1.76225698,1.75916643 C0.631005587,2.89198322 0.00801117318,4.39815944 0.00801117318,6.00021818 C0.00801117318,7.16737343 0.343156425,8.29891469 0.977195531,9.27250909 C1.10287709,9.46551608 1.36102793,9.51992727 1.55378212,9.39408671 C1.74650279,9.26822937 1.80087151,9.00971748 1.67517318,8.81671049 C1.12964246,7.97902657 0.841290503,7.0050965 0.841290503,6.00021818 C0.841290503,3.15316364 3.15432402,0.836878322 5.99741899,0.836878322 C8.84051397,0.836878322 11.1535475,3.15314685 11.1535475,6.00021818 C11.1535475,8.84728951 8.84049721,11.163558 5.99738547,11.163558 C5.05593855,11.163558 4.13488827,10.9071944 3.33382123,10.4222266 C3.13691061,10.3029818 2.88077095,10.3661874 2.7617095,10.5633902 C2.6426648,10.760593 2.70576536,11.0170909 2.90269274,11.1362853 C3.83381564,11.7000168 4.90394413,11.9980028 5.99736872,11.9980028 C7.59718994,11.9980028 9.10127933,11.3741371 10.232514,10.2412867 C11.3637654,9.10846993 11.9867598,7.60227692 11.9867598,6.00023497 C11.9867598,4.39817622 11.3637821,2.89198322 10.2325307,1.75916643" id="Fill-1"></path>
                <path d="M5.02349162,8.70263497 C5.1585419,8.70263497 5.29360894,8.65102657 5.39664804,8.54784336 L9.37153073,4.5674014 C9.57760894,4.36103497 9.57760894,4.02642797 9.37153073,3.82004476 C9.16543575,3.61366154 8.83127933,3.61366154 8.62518436,3.82004476 L5.02349162,7.42679161 L3.4092067,5.81026573 C3.20312849,5.60383217 2.86895531,5.60383217 2.66287709,5.81026573 C2.45678212,6.01664895 2.45678212,6.35125594 2.66287709,6.55762238 L4.65030168,8.54784336 C4.75335754,8.65102657 4.88842458,8.70263497 5.02349162,8.70263497" id="Fill-2"></path>
            </g>
        </g>
    </g>
</svg>