<?xml version="1.0" encoding="utf-8"?>
<!-- Generator: Adobe Illustrator 18.0.0, SVG Export Plug-In . SVG Version: 6.00 Build 0)  -->
<!DOCTYPE svg PUBLIC "-//W3C//DTD SVG 1.1//EN" "http://www.w3.org/Graphics/SVG/1.1/DTD/svg11.dtd">
<svg version="1.1" id="图层_1" xmlns="http://www.w3.org/2000/svg" xmlns:xlink="http://www.w3.org/1999/xlink" x="0px" y="0px"
	 viewBox="0 0 72 72" enable-background="new 0 0 72 72" xml:space="preserve">
<g>
	<path fill="#504F4F" d="M36,5.2C53,5.2,66.8,19,66.8,36S53,66.8,36,66.8S5.2,53,5.2,36S19,5.2,36,5.2 M36,0.2
		C16.3,0.2,0.2,16.3,0.2,36s16,35.8,35.8,35.8s35.8-16,35.8-35.8S55.7,0.2,36,0.2z"/>
</g>
<g>
	<path fill="#504F4F" d="M31.2,20.2v24.3h20.5c1.4,0,2.5-1.1,2.5-2.5c0-1.4-1.1-2.5-2.5-2.5l-15.5,0V20.2c0-1.4-1.1-2.5-2.5-2.5
		C32.3,17.7,31.2,18.8,31.2,20.2L31.2,20.2z"/>
</g>
</svg>
