<?xml version="1.0" encoding="utf-8"?>
<!-- Generator: Adobe Illustrator 18.0.0, SVG Export Plug-In . SVG Version: 6.00 Build 0)  -->
<!DOCTYPE svg PUBLIC "-//W3C//DTD SVG 1.1//EN" "http://www.w3.org/Graphics/SVG/1.1/DTD/svg11.dtd">
<svg version="1.1" id="图层_1" xmlns="http://www.w3.org/2000/svg" xmlns:xlink="http://www.w3.org/1999/xlink" x="0px" y="0px"
	 viewBox="0 0 72 72" enable-background="new 0 0 72 72" xml:space="preserve">
<path fill-rule="evenodd" clip-rule="evenodd" fill="#504F4F" d="M36,0c-9.6,0-18.7,3.7-25.5,10.5C3.7,17.4,0,26.4,0,36
	c0,7,2,13.8,5.8,19.6c0.8,1.2,2.3,1.5,3.5,0.7c1.2-0.8,1.5-2.3,0.7-3.5C6.7,47.9,5,42,5,36C5,18.9,18.9,5,36,5s31,13.9,31,31
	S53.1,67,36,67c-5.7,0-11.2-1.5-16-4.4c-1.2-0.7-2.7-0.3-3.4,0.8c-0.7,1.2-0.3,2.7,0.8,3.4C23,70.2,29.4,72,36,72
	c9.6,0,18.7-3.7,25.5-10.5C68.3,54.6,72,45.6,72,36c0-9.6-3.7-18.6-10.5-25.4C54.7,3.8,45.6,0,36,0z"/>
<g>
	<path fill="#504F4F" d="M14.5,38.4L29,52.6L54.5,27c1-1,1-2.6,0-3.5c-1-1-2.6-1-3.5,0L28.9,45.6L18,34.9c-1-1-2.6-0.9-3.5,0
		C13.5,35.9,13.5,37.5,14.5,38.4L14.5,38.4z"/>
</g>
</svg>
