<?xml version="1.0" encoding="utf-8"?>
<!-- Generator: Adobe Illustrator 18.0.0, SVG Export Plug-In . SVG Version: 6.00 Build 0)  -->
<!DOCTYPE svg PUBLIC "-//W3C//DTD SVG 1.1//EN" "http://www.w3.org/Graphics/SVG/1.1/DTD/svg11.dtd">
<svg version="1.1" id="图层_1" xmlns="http://www.w3.org/2000/svg" xmlns:xlink="http://www.w3.org/1999/xlink" x="0px" y="0px"
	 viewBox="0 0 72 72" enable-background="new 0 0 72 72" xml:space="preserve">
<g>
	<path fill="#504F4F" d="M66,7H6c-3.3,0-6,2.7-6,6v46c0,3.3,2.7,6,6,6h60c3.3,0,6-2.7,6-6V13C72,9.7,69.3,7,66,7z M68.4,55.7
		c0,3-2.4,5.4-5.4,5.4H9c-3,0-5.4-2.4-5.4-5.4V16.3c0-3,2.4-5.4,5.4-5.4h54c3,0,5.4,2.4,5.4,5.4V55.7z"/>
	<path fill="#504F4F" d="M32.3,39.6c1-2,1.6-4.3,1.6-6.8c0-7-4.7-12.7-10.6-12.7c-5.8,0-10.6,5.7-10.6,12.7c0,2.5,0.6,4.9,1.7,6.8
		c-1.1,1.2-3.8,4.5-3.8,6.9c0,2.9,2.4,5.3,5.3,5.3h14.8c2.9,0,5.3-2.4,5.3-5.3C36.1,43.8,34.8,41.7,32.3,39.6z M23.4,24.4
		c3.5,0,6.4,3.8,6.4,8.5c0,4.6-2.8,8.4-6.2,8.5c-0.3,0-0.6,0-0.9-0.1c-3.2-0.5-5.6-4.1-5.6-8.4C17,28.1,19.8,24.4,23.4,24.4z
		 M30.8,47.6H15.9c-0.6,0-1.1-0.5-1.1-1.1s1.1-4.3,4.2-3.2c0,0,2,2.1,4.3,2.1c2.9,0,6.3-2.1,6.3-2.1c0.6,0,2.1,2.6,2.1,3.2
		S31.3,47.6,30.8,47.6z"/>
	<path fill="#504F4F" d="M57.2,24.4H42.4c-1.2,0-2.1,0.9-2.1,2.1c0,1.2,0.9,2.1,2.1,2.1h14.8c1.2,0,2.1-0.9,2.1-2.1
		C59.4,25.3,58.4,24.4,57.2,24.4z"/>
	<path fill="#504F4F" d="M57.2,34.9H42.4c-1.2,0-2.1,0.9-2.1,2.1s0.9,2.1,2.1,2.1h14.8c1.2,0,2.1-0.9,2.1-2.1S58.4,34.9,57.2,34.9z"
		/>
	<path fill="#504F4F" d="M48.8,45.5h-6.4c-1.2,0-2.1,0.9-2.1,2.1c0,1.2,0.9,2.1,2.1,2.1h6.4c1.2,0,2.1-0.9,2.1-2.1
		C50.9,46.5,49.9,45.5,48.8,45.5z"/>
</g>
</svg>
