<?xml version="1.0" encoding="utf-8"?>
<!-- Generator: Adobe Illustrator 18.0.0, SVG Export Plug-In . SVG Version: 6.00 Build 0)  -->
<!DOCTYPE svg PUBLIC "-//W3C//DTD SVG 1.1//EN" "http://www.w3.org/Graphics/SVG/1.1/DTD/svg11.dtd">
<svg version="1.1" id="图层_1" xmlns="http://www.w3.org/2000/svg" xmlns:xlink="http://www.w3.org/1999/xlink" x="0px" y="0px"
	 viewBox="0 0 72 72" enable-background="new 0 0 72 72" xml:space="preserve">
<g>
	<path fill-rule="evenodd" clip-rule="evenodd" fill="#504F4F" d="M66,7H6c-3.3,0-6,2.7-6,6v46c0,3.3,2.7,6,6,6h60c3.3,0,6-2.7,6-6
		V13C72,9.7,69.3,7,66,7z M70,27h-1.6v28.7c0,3-2.4,5.4-5.4,5.4H9c-3,0-5.4-2.4-5.4-5.4V27H2v-4h1.6v-6.7c0-3,2.4-5.4,5.4-5.4h54
		c3,0,5.4,2.4,5.4,5.4V23H70V27z"/>
	<rect x="1.6" y="23" fill-rule="evenodd" clip-rule="evenodd" fill="#504F4F" width="68.8" height="4"/>
	<path fill-rule="evenodd" clip-rule="evenodd" fill="#504F4F" d="M18,41h36c1.1,0,2-0.9,2-2s-0.9-2-2-2H18c-1.1,0-2,0.9-2,2
		S16.9,41,18,41z"/>
	<path fill-rule="evenodd" clip-rule="evenodd" fill="#504F4F" d="M18,53h36c1.1,0,2-0.9,2-2s-0.9-2-2-2H18c-1.1,0-2,0.9-2,2
		S16.9,53,18,53z"/>
	<circle fill-rule="evenodd" clip-rule="evenodd" fill="#504F4F" cx="12" cy="17" r="2"/>
	<circle fill-rule="evenodd" clip-rule="evenodd" fill="#504F4F" cx="22" cy="17" r="2"/>
</g>
</svg>
