<?xml version="1.0" encoding="utf-8"?>
<!-- Generator: Adobe Illustrator 18.0.0, SVG Export Plug-In . SVG Version: 6.00 Build 0)  -->
<!DOCTYPE svg PUBLIC "-//W3C//DTD SVG 1.1//EN" "http://www.w3.org/Graphics/SVG/1.1/DTD/svg11.dtd">
<svg version="1.1" id="图层_1" xmlns="http://www.w3.org/2000/svg" xmlns:xlink="http://www.w3.org/1999/xlink" x="0px" y="0px"
	 viewBox="0 0 72 72" enable-background="new 0 0 72 72" xml:space="preserve">
<g id="wap_1_">
	<g id="微招聘首页_主菜单_wap" transform="translate(-28.000000, -32.000000)">
		<g id="menu">
			<path id="Shape1" fill="#514F4F" d="M99.5,71.1L98.6,72c-0.7,0.7-1.9,0.7-2.6,0l-6.7-6.7v31.5c0,2.7-2.2,4.8-4.8,4.8h-41
				c-2.7,0-4.8-2.2-4.8-4.8V65.3L32,72c-0.7,0.7-1.9,0.7-2.6,0l-0.9-0.9c-0.7-0.7-0.7-1.9,0-2.6l33.7-33.7c0.5-0.5,1.2-0.6,1.8-0.4
				c0.6-0.2,1.3,0,1.8,0.4l33.7,33.7C100.2,69.3,100.2,70.4,99.5,71.1L99.5,71.1L99.5,71.1z M64,40L43.5,60.7v33.8
				c0,1.3,1.1,2.4,2.4,2.4h36.2c1.3,0,2.4-1.1,2.4-2.4V60.7L64,40L64,40L64,40z M64,73.9c-4,0-7.2-3.2-7.2-7.2c0-4,3.2-7.2,7.2-7.2
				c4,0,7.2,3.2,7.2,7.2C71.2,70.7,68,73.9,64,73.9L64,73.9L64,73.9z M64,64.3c-1.3,0-2.4,1.1-2.4,2.4c0,1.3,1.1,2.4,2.4,2.4
				c1.3,0,2.4-1.1,2.4-2.4C66.4,65.4,65.3,64.3,64,64.3L64,64.3L64,64.3z"/>
		</g>
	</g>
</g>
</svg>
