<?xml version="1.0" encoding="utf-8"?>
<!-- Generator: Adobe Illustrator 18.0.0, SVG Export Plug-In . SVG Version: 6.00 Build 0)  -->
<!DOCTYPE svg PUBLIC "-//W3C//DTD SVG 1.1//EN" "http://www.w3.org/Graphics/SVG/1.1/DTD/svg11.dtd">
<svg version="1.1" id="图层_1" xmlns="http://www.w3.org/2000/svg" xmlns:xlink="http://www.w3.org/1999/xlink" x="0px" y="0px"
	 viewBox="0 0 72 72" enable-background="new 0 0 72 72" xml:space="preserve">
<g>
	<path fill="#504F4F" d="M62.4,27.5c-0.2-0.4-0.9-1.4-2.5-1.6c-0.1,0-0.1,0-0.2,0L43,25.9l4.3-21.5c0-0.1,0-0.1,0-0.2
		c0.2-1.3-0.1-2.4-0.8-3.2c-0.6-0.6-1.4-1-2.3-1c-1,0-2,0.5-2.2,0.6c-0.2,0.1-0.4,0.3-0.6,0.5L9,39.4c0,0.1-0.1,0.1-0.1,0.2
		c-0.5,0.7-0.8,1.9-0.2,3C9,43.1,9.7,44,11.5,44c0.1,0,0.2,0,0.3,0l14.9,0l-8.3,24.1c0,0.1-0.1,0.3-0.1,0.4c0,0.3-0.1,1.5,0.7,2.5
		c0.6,0.6,1.4,1,2.3,1c0.6,0,1.2-0.1,1.8-0.4c0.3-0.1,0.6-0.3,0.8-0.5l38-40.2c0.1-0.1,0.2-0.2,0.2-0.3
		C62.3,30.3,63.1,28.9,62.4,27.5L62.4,27.5z M24.2,64.6l7-20.1c0.5-1.4,0.5-2.5,0-3.4c-0.4-0.7-1.1-1.1-1.8-1.3c-0.1,0-0.2,0-0.3,0
		h0l-14.6,0L42.4,6.5l-3.8,19.1c-0.3,1.6,0.3,2.6,0.8,3.2c1,1.2,2.6,1.3,3,1.3l14.2,0.1L24.2,64.6L24.2,64.6z M24.2,64.6"/>
</g>
</svg>
