<?xml version="1.0" encoding="utf-8"?>
<!-- Generator: Adobe Illustrator 18.0.0, SVG Export Plug-In . SVG Version: 6.00 Build 0)  -->
<!DOCTYPE svg PUBLIC "-//W3C//DTD SVG 1.1//EN" "http://www.w3.org/Graphics/SVG/1.1/DTD/svg11.dtd">
<svg version="1.1" id="图层_1" xmlns="http://www.w3.org/2000/svg" xmlns:xlink="http://www.w3.org/1999/xlink" x="0px" y="0px"
	 viewBox="0 0 72 72" enable-background="new 0 0 72 72" xml:space="preserve">
<g>
	<path fill="#504F4F" d="M66.9,39.1c0-14.2-9.5-26.2-22.6-30V4.5c0-2.5-2-4.5-4.5-4.5h-8.3c-2.5,0-4.5,2-4.5,4.5v4.6
		c-13,3.8-22.6,15.8-22.6,30c0,11.6,6.3,21.7,15.7,27.1l-1.6,2.3c-0.7,1-0.5,2.4,0.6,3.1c0.4,0.3,0.8,0.4,1.3,0.4
		c0.7,0,1.4-0.3,1.9-1l2-2.9c3.5,1.4,7.4,2.2,11.4,2.2s7.9-0.8,11.4-2.2l2,2.9c0.4,0.6,1.1,1,1.9,1c0.4,0,0.9-0.1,1.3-0.4
		c1-0.7,1.3-2.1,0.6-3.1l-1.6-2.3C60.6,60.8,66.9,50.7,66.9,39.1z M31.6,4.5h8.3v3.7c-1.4-0.2-2.7-0.3-4.1-0.3S32.9,8,31.6,8.2V4.5z
		 M35.7,65.8C21,65.8,9,53.9,9,39.1c0-14.7,12-26.7,26.7-26.7s26.7,12,26.7,26.7C62.4,53.9,50.5,65.8,35.7,65.8z"/>
	<path fill="#504F4F" d="M57.4,30.7c-0.3-0.8-1.2-1.2-1.9-0.9c-0.8,0.3-1.2,1.2-0.9,1.9c0.9,2.3,1.4,4.8,1.4,7.3
		c0,11.2-9.1,20.3-20.3,20.3c-11.2,0-20.3-9.1-20.3-20.3c0-11.2,9.1-20.3,20.3-20.3c0.8,0,1.5-0.7,1.5-1.5c0-0.8-0.7-1.5-1.5-1.5
		c-12.8,0-23.3,10.4-23.3,23.3c0,12.8,10.4,23.3,23.3,23.3S59,51.9,59,39.1C59,36.2,58.5,33.4,57.4,30.7z"/>
	<path fill="#504F4F" d="M41.5,19.7c4,1.2,7.5,3.6,10.1,6.8c0.3,0.4,0.7,0.6,1.2,0.6c0.3,0,0.7-0.1,0.9-0.3c0.6-0.5,0.8-1.5,0.2-2.1
		c-3-3.8-7-6.5-11.6-7.9c-0.8-0.2-1.6,0.2-1.9,1C40.3,18.6,40.7,19.5,41.5,19.7z"/>
	<circle fill="#504F4F" cx="35.7" cy="39.1" r="2.6"/>
	<path fill="#504F4F" d="M37.2,32.6v-9.1c0-0.8-0.7-1.5-1.5-1.5s-1.5,0.7-1.5,1.5v9.1c0,0.8,0.7,1.5,1.5,1.5S37.2,33.5,37.2,32.6z"
		/>
	<path fill="#504F4F" d="M51.4,37.6h-9.1c-0.8,0-1.5,0.7-1.5,1.5c0,0.8,0.7,1.5,1.5,1.5h9.1c0.8,0,1.5-0.7,1.5-1.5
		C52.9,38.3,52.2,37.6,51.4,37.6z"/>
</g>
</svg>
