<?xml version="1.0" encoding="utf-8"?>
<!-- Generator: Adobe Illustrator 18.0.0, SVG Export Plug-In . SVG Version: 6.00 Build 0)  -->
<!DOCTYPE svg PUBLIC "-//W3C//DTD SVG 1.1//EN" "http://www.w3.org/Graphics/SVG/1.1/DTD/svg11.dtd">
<svg version="1.1" id="图层_1" xmlns="http://www.w3.org/2000/svg" xmlns:xlink="http://www.w3.org/1999/xlink" x="0px" y="0px"
	 viewBox="0 0 72 72" enable-background="new 0 0 72 72" xml:space="preserve">
<path fill="#504F4F" d="M41.8,10.9"/>
<g>
	<path fill="#514F4F" d="M12,44.8c-6,0-10.8,4.8-10.8,10.8c0,6,4.8,10.8,10.8,10.8c6,0,10.8-4.8,10.8-10.8
		C22.8,49.6,17.9,44.8,12,44.8z M12,60.5c-2.7,0-4.9-2.2-4.9-4.9s2.2-4.9,4.9-4.9c2.7,0,4.9,2.2,4.9,4.9S14.7,60.5,12,60.5z"/>
	<path fill="#514F4F" d="M68.2,58.8H62L47.8,21.8c-0.7-2.1-2.3-3.9-4.5-4.6L11.4,6.1c-0.9-0.3-1.9-0.5-2.8-0.5
		C7.3,5.6,6,5.9,4.8,6.5c-2.1,1-3.6,2.7-4.4,4.9c-0.7,2.2-0.6,4.5,0.4,6.6c1,2.1,2.7,3.6,4.9,4.4l15,5.2c0.5,0.2,0.8,0.7,0.7,1.3
		l-1.3,5c-1.5-0.2-3.2-0.2-4.9-0.2H7.4c-1.9,0-3.6,0.9-4.9,2.5c-1.2,1.5-1.9,3.5-1.9,5.6v8.6c0.7-1.5,1.8-2.9,3-4
		c2.2-2,5.2-3.2,8.4-3.2c7,0,12.6,5.6,12.6,12.6c0,1.3-0.2,2.6-0.6,3.8c-0.3,1.1-0.8,2.1-1.4,3h16.5c1.6,0,3.4-0.1,4.9-0.7
		c1.3-0.6,2.9-1.9,2.9-4.9c0-5.8-3-11.6-8.2-15.9c-2.5-2-6.2-4.3-11.5-5.8l0.1,0l-1.2-0.2l1.2-4.6l0,0c0.8-3.6-1.1-7.2-4.6-8.3
		l-15-5.2c-0.6-0.2-1.2-0.7-1.5-1.3c-0.3-0.6-0.3-1.3-0.1-2c0.2-0.6,0.7-1.2,1.3-1.5c0.4-0.2,0.7-0.3,1.1-0.3c0.3,0,0.6,0,0.8,0.1
		l31.9,11.1c0.3,0.1,0.6,0.4,0.7,0.7l0,0.1l13.5,35.2h-5.7c-2.1,0-3.8,1.7-3.8,3.8c0,2.1,1.7,3.8,3.8,3.8h18.4
		c2.1,0,3.8-1.7,3.8-3.8C72,60.5,70.3,58.8,68.2,58.8z"/>
</g>
</svg>
