<?xml version="1.0" encoding="utf-8"?>
<!-- Generator: Adobe Illustrator 18.0.0, SVG Export Plug-In . SVG Version: 6.00 Build 0)  -->
<!DOCTYPE svg PUBLIC "-//W3C//DTD SVG 1.1//EN" "http://www.w3.org/Graphics/SVG/1.1/DTD/svg11.dtd">
<svg version="1.1" id="图层_1" xmlns="http://www.w3.org/2000/svg" xmlns:xlink="http://www.w3.org/1999/xlink" x="0px" y="0px"
	 viewBox="0 0 72 72" enable-background="new 0 0 72 72" xml:space="preserve">
<g>
	<path fill="#504F4F" d="M65.4,20.1c-4.3-4.3-9.9-6.6-15.9-6.6H25.8V8.9c0-1.4-1-2-2.2-1.2l-10.9,7c-1.2,0.8-1.2,2,0,2.8l10.8,6.7
		c1.2,0.8,2.2,0.2,2.2-1.2v-4.5h23.7c9.6,0,17.5,7.8,17.5,17.5c0,1.6-0.2,3.2-0.6,4.7c-0.4,1.4,0.4,2.8,1.8,3.1
		c0.2,0.1,0.5,0.1,0.7,0.1c1.1,0,2.1-0.7,2.4-1.9c0.5-2,0.8-4,0.8-6C72,30,69.7,24.3,65.4,20.1L65.4,20.1z M61.2,54.4l-10.8-6.7
		c-1.2-0.8-2.2-0.2-2.2,1.2v4.5H22.6c-9.6,0-17.5-7.8-17.5-17.5c0-3.4,1-6.6,2.8-9.5c0.8-1.2,0.4-2.8-0.8-3.5
		c-1.2-0.8-2.8-0.4-3.5,0.8C1.2,27.4,0,31.6,0,36c0,6,2.3,11.7,6.6,15.9c4.3,4.3,9.9,6.6,15.9,6.6h25.6v4.5c0,1.4,1,2,2.2,1.2
		l10.9-7C62.4,56.5,62.4,55.2,61.2,54.4L61.2,54.4z M61.2,54.4"/>
</g>
</svg>
