<?xml version="1.0" encoding="utf-8"?>
<!-- Generator: Adobe Illustrator 18.0.0, SVG Export Plug-In . SVG Version: 6.00 Build 0)  -->
<!DOCTYPE svg PUBLIC "-//W3C//DTD SVG 1.1//EN" "http://www.w3.org/Graphics/SVG/1.1/DTD/svg11.dtd">
<svg version="1.1" id="图层_1" xmlns="http://www.w3.org/2000/svg" xmlns:xlink="http://www.w3.org/1999/xlink" x="0px" y="0px"
	 viewBox="0 0 72 72" enable-background="new 0 0 72 72" xml:space="preserve">
<path fill="#504F4F" d="M41.8,10.9"/>
<g>
	<ellipse fill="#514F4F" cx="35.5" cy="48" rx="6" ry="6"/>
	<path fill="#514F4F" d="M65.5,12.1c-10.2-5.9-30-6-30-6s-19.8,0.1-30,6c-4,2.3-5.9,5.9-6,9c-0.1,4.7,4.1,8.5,12,5.9
		c7.5-2.5,4.5-7.2,9-9c7.7-3.1,15-3,15-3s7.4-0.1,15,3c4.5,1.8,1.5,6.5,9,9c8,2.6,12.1-1.2,12-6C71.4,17.9,69.5,14.4,65.5,12.1z"/>
	<path fill="#514F4F" d="M47.5,24h-6v3h-12v-3h-6v3L5.5,48v12c0,3.3,2.7,6,6,6h48c3.3,0,6-2.7,6-6V48L47.5,27V24z M35.5,59.9
		c-6.6,0-12-5.4-12-12c0-6.6,5.4-12,12-12c6.6,0,12,5.4,12,12C47.5,54.5,42.2,59.9,35.5,59.9z"/>
</g>
</svg>
