<?xml version="1.0" encoding="utf-8"?>
<!-- Generator: Adobe Illustrator 18.0.0, SVG Export Plug-In . SVG Version: 6.00 Build 0)  -->
<!DOCTYPE svg PUBLIC "-//W3C//DTD SVG 1.1//EN" "http://www.w3.org/Graphics/SVG/1.1/DTD/svg11.dtd">
<svg version="1.1" id="图层_1" xmlns="http://www.w3.org/2000/svg" xmlns:xlink="http://www.w3.org/1999/xlink" x="0px" y="0px"
	 viewBox="0 0 72 72" enable-background="new 0 0 72 72" xml:space="preserve">
<path fill="#504F4F" d="M36.1,24.5L36.1,24.5L36.1,24.5L36.1,24.5L36.1,24.5z M57.1,15.5H48c0,0,4.9,3.2,5.9,9H57h0.1
	c3.3,0,5.9,2.6,5.9,5.9v6c0,3.3-2.6,6.1-5.9,6.1h-21c-3.3,0-6.1-2.8-6.1-6.1v-5.9h-9v5.9c0,2.2,0.5,4.2,1.3,6.1
	c2.4,5.3,7.7,9,13.8,9h21c8.3,0,14.9-6.8,14.9-15.1v-6C72,22.1,65.4,15.5,57.1,15.5L57.1,15.5z M49.8,24.5c-2.3-5.3-7.5-9-13.7-9
	h-21C6.8,15.5,0,22.1,0,30.4v6c0,8.3,6.8,15.1,15.1,15.1H24c0,0-4.8-3.2-6-9h-2.9c-3.3,0-6.1-2.8-6.1-6.1v-6c0-3.3,2.8-5.9,6.1-5.9
	H36h0.1c3.3,0,5.9,2.6,5.9,5.9v6v0.1h9v-0.1v-6C51,28.3,50.6,26.3,49.8,24.5L49.8,24.5z M49.8,24.5"/>
</svg>
