<?xml version="1.0" encoding="utf-8"?>
<!-- Generator: Adobe Illustrator 18.0.0, SVG Export Plug-In . SVG Version: 6.00 Build 0)  -->
<!DOCTYPE svg PUBLIC "-//W3C//DTD SVG 1.1//EN" "http://www.w3.org/Graphics/SVG/1.1/DTD/svg11.dtd">
<svg version="1.1" id="图层_1" xmlns="http://www.w3.org/2000/svg" xmlns:xlink="http://www.w3.org/1999/xlink" x="0px" y="0px"
	 viewBox="0 0 72 72" enable-background="new 0 0 72 72" xml:space="preserve">
<g>
	<path fill="#504F4F" d="M68.7,39H23.3c-1.7,0-3-1.3-3-3c0-1.7,1.3-3,3-3h45.4c1.7,0,3,1.3,3,3C71.7,37.7,70.4,39,68.7,39L68.7,39
		L68.7,39z M68.7,14.9H23.3c-1.7,0-3-1.3-3-3c0-1.7,1.3-3,3-3h45.4c1.7,0,3,1.3,3,3C71.7,13.6,70.4,14.9,68.7,14.9L68.7,14.9
		L68.7,14.9z M5.7,66.1c-3.3,0-6-2.7-6-6c0-3.3,2.7-6,6-6c3.3,0,6,2.7,6,6C11.8,63.4,9.1,66.1,5.7,66.1L5.7,66.1L5.7,66.1z M5.7,42
		c-3.3,0-6-2.7-6-6c0-3.3,2.7-6,6-6c3.3,0,6,2.7,6,6C11.8,39.3,9.1,42,5.7,42L5.7,42L5.7,42z M5.7,17.9c-3.3,0-6-2.7-6-6s2.7-6,6-6
		c3.3,0,6,2.7,6,6C11.8,15.2,9.1,17.9,5.7,17.9L5.7,17.9L5.7,17.9z M23.3,57.1h45.4c1.7,0,3,1.3,3,3c0,1.7-1.3,3-3,3H23.3
		c-1.7,0-3-1.3-3-3C20.3,58.4,21.6,57.1,23.3,57.1L23.3,57.1L23.3,57.1z M23.3,57.1"/>
</g>
</svg>
