<?xml version="1.0" encoding="utf-8"?>
<!-- Generator: Adobe Illustrator 18.0.0, SVG Export Plug-In . SVG Version: 6.00 Build 0)  -->
<!DOCTYPE svg PUBLIC "-//W3C//DTD SVG 1.0//EN" "http://www.w3.org/TR/2001/REC-SVG-20010904/DTD/svg10.dtd">
<svg version="1.0" id="图层_1" xmlns="http://www.w3.org/2000/svg" xmlns:xlink="http://www.w3.org/1999/xlink" x="0px" y="0px"
	 viewBox="0 0 72 72" enable-background="new 0 0 72 72" xml:space="preserve">
<g>
	<path fill="#514F4F" d="M44.4,23.8l-5.8,11.3c-0.6,1.1-1,2-1.4,2.7c-0.3-0.7-0.7-1.6-1.2-2.5l-6.2-11.5h-5.1l8.5,15.6h-6.8v4.1H35
		v2.3h-8.7v3.8H35v7.1h4.6v-7.1h8.6v-3.8h-8.6v-2.3h8.6v-4.1h-6.8l8.4-15.6H44.4z"/>
	<path fill="#514F4F" d="M67.9,13.1H49.3V5.3H21v7.8H4.1C1.9,13.1,0,15,0,17.3v43.5C0,63.1,1.8,65,4.1,65h63.8
		c2.2,0,4.1-1.9,4.1-4.2V17.3C72,15,70.2,13.1,67.9,13.1z M25.1,9.4h20v3.7h-20V9.4z M4.1,60.8c0,0,0-43.6,0-43.6c0,0,63.8,0,63.8,0
		c0,0,0,43.6,0,43.6C67.9,60.9,4.1,60.9,4.1,60.8z"/>
</g>
</svg>
