<?xml version="1.0" encoding="utf-8"?>
<!-- Generator: Adobe Illustrator 18.0.0, SVG Export Plug-In . SVG Version: 6.00 Build 0)  -->
<!DOCTYPE svg PUBLIC "-//W3C//DTD SVG 1.1//EN" "http://www.w3.org/Graphics/SVG/1.1/DTD/svg11.dtd">
<svg version="1.1" id="图层_1" xmlns="http://www.w3.org/2000/svg" xmlns:xlink="http://www.w3.org/1999/xlink" x="0px" y="0px"
	 viewBox="0 0 72 72" enable-background="new 0 0 72 72" xml:space="preserve">
<path fill="#504F4F" d="M41.8,10.9"/>
<g>
	<path fill="#504F4F" d="M36,72c-0.5,0-1-0.2-1.3-0.7L14.2,44.4l0,0c0-0.1-0.1-0.1-0.1-0.2c-0.1-0.1-0.2-0.2-0.2-0.3l-0.1-0.1
		c-0.1-0.1-0.1-0.2-0.2-0.2c-3.3-4.7-5.1-10.2-5.1-16c0-7.4,2.9-14.3,8.1-19.5C21.7,2.9,28.6,0,36,0c7.4,0,14.3,2.9,19.5,8.1
		c5.2,5.2,8.1,12.1,8.1,19.5c0,5.8-1.8,11.3-5.1,16c0,0.1-0.1,0.2-0.1,0.2l-0.1,0.1c-0.1,0.2-0.3,0.3-0.4,0.5L37.3,71.3
		C37,71.8,36.5,72,36,72L36,72L36,72z M18.7,41L36,63.8L53.3,41c0,0,0,0,0,0c0.1-0.1,0.2-0.3,0.3-0.4c0,0,0,0,0,0c0,0,0-0.1,0.1-0.1
		c2.7-3.8,4.2-8.2,4.2-12.8c0-5.8-2.3-11.3-6.4-15.5C47.3,8,41.8,5.8,36,5.8S24.7,8,20.5,12.2c-4.1,4.1-6.4,9.6-6.4,15.5
		c0,4.6,1.4,9.1,4.2,12.8c0,0,0,0,0,0.1c0,0,0,0,0.1,0.1c0.1,0.1,0.1,0.2,0.2,0.3C18.6,40.9,18.7,41,18.7,41L18.7,41L18.7,41z
		 M36,38.3c-5.9,0-10.8-4.8-10.8-10.8c0-5.9,4.8-10.8,10.8-10.8c5.9,0,10.8,4.8,10.8,10.8C46.8,33.4,41.9,38.3,36,38.3L36,38.3
		L36,38.3z M36,22c-3,0-5.5,2.4-5.5,5.5c0,3,2.4,5.5,5.5,5.5s5.5-2.4,5.5-5.5C41.5,24.4,39,22,36,22L36,22L36,22z M36,22"/>
</g>
</svg>
