<?xml version="1.0" encoding="utf-8"?>
<!-- Generator: Adobe Illustrator 18.0.0, SVG Export Plug-In . SVG Version: 6.00 Build 0)  -->
<!DOCTYPE svg PUBLIC "-//W3C//DTD SVG 1.0//EN" "http://www.w3.org/TR/2001/REC-SVG-20010904/DTD/svg10.dtd">
<svg version="1.0" id="图层_1" xmlns="http://www.w3.org/2000/svg" xmlns:xlink="http://www.w3.org/1999/xlink" x="0px" y="0px"
	 viewBox="0 0 72 72" enable-background="new 0 0 72 72" xml:space="preserve">
<g id="Page-1_8_">
	<g id="icons_mail2">
		<path id="Combined-Shape_7_" fill="#514F4F" d="M25.1,36.7L2.4,62.3c-0.1,0.1-0.3,0.3-0.4,0.3h67.7L46.8,36.5L35.9,47.4L25.1,36.7
			z M26.4,33.7c-0.1-0.2-0.2-0.3-0.3-0.4c-0.1-0.1-0.2-0.1-0.3-0.2L2,9.4h67.7L35.9,43.2L26.4,33.7z M23,34.5L0.2,60.3
			c-0.1,0.1-0.2,0.2-0.2,0.3v-49L23,34.5z M72,11.3v49.4L48.9,34.4L72,11.3z"/>
	</g>
</g>
</svg>
