<?xml version="1.0" encoding="utf-8"?>
<!-- Generator: Adobe Illustrator 18.0.0, SVG Export Plug-In . SVG Version: 6.00 Build 0)  -->
<!DOCTYPE svg PUBLIC "-//W3C//DTD SVG 1.1//EN" "http://www.w3.org/Graphics/SVG/1.1/DTD/svg11.dtd">
<svg version="1.1" id="图层_1" xmlns="http://www.w3.org/2000/svg" xmlns:xlink="http://www.w3.org/1999/xlink" x="0px" y="0px"
	 viewBox="0 0 72 72" enable-background="new 0 0 72 72" xml:space="preserve">
<g>
	<path fill="#504F4F" d="M66,11.6H6c-3.3,0-6,2.7-6,6v36.8c0,3.3,2.7,6,6,6h60c3.3,0,6-2.7,6-6V17.6C72,14.3,69.3,11.6,66,11.6
		L66,11.6L66,11.6z M64.5,15.9L40.6,37.1C38.5,39,37,39.9,36,39.9c-1,0-2.5-0.9-4.6-2.8L7.5,15.9H64.5L64.5,15.9L64.5,15.9z M4.5,53
		V19.8l18.7,16.4L4.5,53L4.5,53L4.5,53z M7.6,56.1l18.7-16.6l3.1,2.7c1.8,1.6,4,2.4,6.6,2.4c2.6,0,4.8-0.8,6.6-2.4l3.1-2.7
		l18.7,16.6H7.6L7.6,56.1L7.6,56.1z M67.5,53L48.8,36.2l18.7-16.4V53L67.5,53L67.5,53z M67.5,53"/>
</g>
</svg>
