<?xml version="1.0" encoding="utf-8"?>
<!-- Generator: Adobe Illustrator 18.0.0, SVG Export Plug-In . SVG Version: 6.00 Build 0)  -->
<!DOCTYPE svg PUBLIC "-//W3C//DTD SVG 1.1//EN" "http://www.w3.org/Graphics/SVG/1.1/DTD/svg11.dtd">
<svg version="1.1" id="图层_1" xmlns="http://www.w3.org/2000/svg" xmlns:xlink="http://www.w3.org/1999/xlink" x="0px" y="0px"
	 viewBox="0 0 72 72" enable-background="new 0 0 72 72" xml:space="preserve">
<path fill="#504F4F" d="M41.8,10.9"/>
<g>
	<path fill="#504F4F" d="M69.8,25.1V63c0,5-4,9-9,9H11.2c-5,0-9-4-9-9V24.7c0-1.1,0.8-2,1.8-2.2L34.2,0.9c0.1-0.1,0-0.2,0.1-0.3
		C34.8,0.1,35.4,0,36.1,0c0.6,0,1.3,0.1,1.7,0.6c0.1,0.1,0.1,0.2,0.1,0.3l30.2,21.6c0.9,0.3,1.6,1.1,1.6,2.1v0
		C69.8,24.8,69.8,24.9,69.8,25.1L69.8,25.1z M6.7,47.2V63c0,2.5,2,4.5,4.5,4.5h49.6c2.5,0,4.5-2,4.5-4.5V40.4h0V26L36.1,5l-29.4,21
		L6.7,47.2C6.7,47.2,6.7,47.2,6.7,47.2L6.7,47.2z M15,32l21.1,16.9L57.2,32c0.9-0.9,2.3-0.9,3.2,0c0.9,0.9,0.9,2.3,0,3.2L47,45.9
		l13.5,13.6c0.7,1,0.5,2.4-0.5,3.1c-1,0.7-2.4,0.5-3.1-0.5L43.5,48.7l-5.8,4.7c0,0,0,0,0,0c-0.4,0.4-1,0.7-1.6,0.7
		c-0.6,0-1.2-0.2-1.6-0.7c0,0,0,0,0,0l-5.8-4.7L15.3,62.1c-0.7,1-2.1,1.2-3.1,0.5c-1-0.7-1.2-2.1-0.5-3.1l13.5-13.6L11.8,35.2
		c-0.9-0.9-0.9-2.3,0-3.2C12.7,31.1,14.1,31.1,15,32L15,32z M15,32"/>
</g>
</svg>
