<?xml version="1.0" encoding="utf-8"?>
<!-- Generator: Adobe Illustrator 18.0.0, SVG Export Plug-In . SVG Version: 6.00 Build 0)  -->
<!DOCTYPE svg PUBLIC "-//W3C//DTD SVG 1.0//EN" "http://www.w3.org/TR/2001/REC-SVG-20010904/DTD/svg10.dtd">
<svg version="1.0" id="图层_1" xmlns="http://www.w3.org/2000/svg" xmlns:xlink="http://www.w3.org/1999/xlink" x="0px" y="0px"
	 viewBox="0 0 72 72" enable-background="new 0 0 72 72" xml:space="preserve">
<g id="Page-1_9_">
	<g id="icons_message">
		<path id="Combined-Shape_8_" fill="#514F4F" d="M21.9,71c-1.2,1.2-2.1,0.8-2.1-0.9V60H3.1c-1.6,0-3-1.3-3-3V7.3c0-1.7,1.3-3,3-3
			h66.1c1.6,0,3,1.3,3,3V57c0,1.7-1.3,3-3,3H32.8l0,0 M22.7,65.9l8.4-8.9h-8.4V65.9z M69.1,57c0,0,0-49.7,0-49.7c0,0-66.1,0-66.1,0
			c0,0,0,49.7,0,49.7c0,0,8.6,0,19.7,0c2.8,0,5.8,0,8.9,0C49.5,57,69.1,57,69.1,57z M15.3,32.1c0,2.1,1.7,3.8,3.8,3.8
			c2.1,0,3.8-1.7,3.8-3.8v-0.3c0-2.1-1.7-3.8-3.8-3.8c-2.1,0-3.8,1.7-3.8,3.8V32.1z M32.3,32.3c0,2.1,1.7,3.8,3.8,3.8
			c2.1,0,3.8-1.7,3.8-3.8v-0.8c0-2.1-1.7-3.8-3.8-3.8c-2.1,0-3.8,1.7-3.8,3.8V32.3z M48.9,32.1c0,2.1,1.7,3.8,3.8,3.8
			c2.1,0,3.8-1.7,3.8-3.8v-0.3c0-2.1-1.7-3.8-3.8-3.8c-2.1,0-3.8,1.7-3.8,3.8V32.1z"/>
	</g>
</g>
</svg>
