<?xml version="1.0" encoding="utf-8"?>
<!-- Generator: Adobe Illustrator 18.0.0, SVG Export Plug-In . SVG Version: 6.00 Build 0)  -->
<!DOCTYPE svg PUBLIC "-//W3C//DTD SVG 1.1//EN" "http://www.w3.org/Graphics/SVG/1.1/DTD/svg11.dtd">
<svg version="1.1" id="图层_1" xmlns="http://www.w3.org/2000/svg" xmlns:xlink="http://www.w3.org/1999/xlink" x="0px" y="0px"
	 viewBox="0 0 72 72" enable-background="new 0 0 72 72" xml:space="preserve">
<path fill="#504F4F" d="M41.8,10.9"/>
<g>
	<path fill="#514F4F" d="M9,27c-5,0-9,4-9,9c0,5,4,9,9,9c5,0,9-4,9-9C18,31,14,27,9,27z"/>
	<path fill="#514F4F" d="M36,27c-5,0-9,4-9,9c0,5,4,9,9,9c5,0,9-4,9-9C45,31,41,27,36,27z"/>
	<path fill="#514F4F" d="M63,27c-5,0-9,4-9,9c0,5,4,9,9,9c5,0,9-4,9-9C72,31,68,27,63,27z"/>
</g>
</svg>
