<?xml version="1.0" encoding="utf-8"?>
<!-- Generator: Adobe Illustrator 18.0.0, SVG Export Plug-In . SVG Version: 6.00 Build 0)  -->
<!DOCTYPE svg PUBLIC "-//W3C//DTD SVG 1.1//EN" "http://www.w3.org/Graphics/SVG/1.1/DTD/svg11.dtd">
<svg version="1.1" id="图层_1" xmlns="http://www.w3.org/2000/svg" xmlns:xlink="http://www.w3.org/1999/xlink" x="0px" y="0px"
	 viewBox="0 0 72 72" enable-background="new 0 0 72 72" xml:space="preserve">
<g>
	<path fill="#504F4F" d="M7,18.5v11.6H4.6v2.3H2.3v2.3H0v2.3h2.3v2.3h2.3v2.3H7v11.6h65V18.5H7z M69.7,51H9.3V39.4H7v-2.3H4.6v-2.3
		H7v-2.3h2.3V20.8h60.4V51z"/>
	<polygon fill="#504F4F" points="50.1,44.1 53.1,31.9 56,44.1 59.1,44.1 62.7,27.8 59.7,27.8 57.5,39.2 54.9,27.8 51.3,27.8 
		48.6,39 46.4,27.8 43.4,27.8 46.9,44.1 	"/>
	<polygon fill="#504F4F" points="19,33.5 24.9,44.1 27.9,44.1 27.9,27.8 25.2,27.8 25.2,38.7 19.1,27.8 16.2,27.8 16.2,44.1 
		19,44.1 	"/>
	<polygon fill="#504F4F" points="42.3,41.3 34,41.3 34,36.9 41.4,36.9 41.4,34.2 34,34.2 34,30.6 42,30.6 42,27.8 31.1,27.8 
		31.1,44.1 42.3,44.1 	"/>
</g>
</svg>
