<?xml version="1.0" encoding="utf-8"?>
<!-- Generator: Adobe Illustrator 18.0.0, SVG Export Plug-In . SVG Version: 6.00 Build 0)  -->
<!DOCTYPE svg PUBLIC "-//W3C//DTD SVG 1.1//EN" "http://www.w3.org/TR/2001/REC-SVG-20010904/DTD/svg10.dtd">
<svg version="1.1" id="图层_1" xmlns="http://www.w3.org/2000/svg" xmlns:xlink="http://www.w3.org/1999/xlink" x="0px" y="0px"
	 viewBox="-159.9 384.9 72 72" style="enable-background:new -159.9 384.9 72 72;" xml:space="preserve">
<path id="Shape_4_" class="st0" d="M-126.6,446.7h7.3v-4.9h25.9c2.8,0,5.1-2.2,5.1-5v-39.5c0-2.8-2.3-5.1-5.1-5.1h-59.1
	c-2.8,0-5.1,2.3-5.1,5.1v39.5c0,2.8,2.3,5,5.1,5h25.9V446.7z M-124,444.1v-4.9h-28.5c-1.4,0-2.5-1.1-2.5-2.4v-39.5
	c0-1.4,1.1-2.5,2.5-2.5h59.1c1.4,0,2.5,1.1,2.5,2.5v39.5c0,1.3-1.1,2.4-2.5,2.4h-28.5v4.9H-124z M-157.5,430.3h69v-2.6h-69
	V430.3z M-124.1,435.5h2.4l-1.3-1.3v2.2l1.3-1.3h-2.4l1.3,1.3v-2.2L-124.1,435.5z M-120.5,433h-4.9v4.8h4.9V433z M-132.4,444
	c-2,0-3.8,1.6-3.8,3.6c0,2,1.6,3.6,3.7,3.6h19.1c2,0,3.7-1.6,3.7-3.6c0-2-1.7-3.6-3.8-3.6H-132.4z M-132.4,446.6h18.9
	c0.6,0,1.2,0.5,1.2,1.1c0,0.6-0.5,1.1-1.1,1.1h-19.1c-0.6,0-1.1-0.5-1.1-1.1C-133.6,447.1-133,446.6-132.4,446.6z"/>
</svg>
