<?xml version="1.0" encoding="utf-8"?>
<!-- Generator: Adobe Illustrator 18.0.0, SVG Export Plug-In . SVG Version: 6.00 Build 0)  -->
<!DOCTYPE svg PUBLIC "-//W3C//DTD SVG 1.1//EN" "http://www.w3.org/Graphics/SVG/1.1/DTD/svg11.dtd">
<svg version="1.1" id="图层_1" xmlns="http://www.w3.org/2000/svg" xmlns:xlink="http://www.w3.org/1999/xlink" x="0px" y="0px"
	 viewBox="0 0 72 72" enable-background="new 0 0 72 72" xml:space="preserve">
<path fill="#504F4F" d="M69.3,23.9L37.8,9.9c-0.6-0.3-1.2-0.4-1.8-0.4c-0.6,0-1.3,0.1-1.8,0.4L2.7,23.9C1,24.7,0,26.3,0,28.1
	c0,1.6,0.9,3.1,2.2,3.9c0.4,0.5,0.9,0.8,1.3,1.1c0.9,0.6,1.1,0.9,1.1,1.4c0,0.5-0.2,0.7-1.1,1.4c-0.9,0.7-2.3,1.7-2.3,3.7
	s1.4,3.1,2.3,3.7c0.6,0.5,0.9,0.7,1,1c-1.4,0.1-2.6,1.2-2.7,2.6L1,53.1c-0.1,0.9,0.2,1.7,0.7,2.4c0.6,0.6,1.4,1,2.3,1h4.3
	c0.9,0,1.7-0.4,2.3-1c0.6-0.6,0.8-1.5,0.7-2.4l-0.8-6.2c-0.2-1.5-1.4-2.6-2.9-2.6c-0.2-1.8-1.4-2.7-2.2-3.4
	c-0.9-0.6-1.1-0.9-1.1-1.4c0-0.5,0.2-0.7,1.1-1.4c0.9-0.7,2.3-1.7,2.3-3.7c0,0,0,0,0-0.1l5.3,2.4c0,0.2,0,0.4,0,0.6v11.8
	c0,8.5,16.4,9.5,23.4,9.5c7,0,23.4-0.9,23.4-9.5v-12c0-0.2,0-0.4,0-0.6l9.6-4.3c1.6-0.7,2.7-2.3,2.7-4.1C72,26.3,71,24.7,69.3,23.9z
	 M4,53.5l0.8-6.2h2.7l0.8,6.2H4z M55.2,44.1c-0.8,1-2.7,2.2-6.1,3.1c-0.6,0.2-1.2,0.3-1.9,0.5c-0.8,0.2-1.3,1-1.1,1.8
	c0.2,0.7,0.8,1.2,1.5,1.2c0.1,0,0.2,0,0.3,0c0.7-0.2,1.4-0.3,2.1-0.5c2.1-0.6,3.9-1.3,5.2-2.2v1.2c0,2.7-8.5,5-18.9,5
	c-10.5,0-18.9-2.2-18.9-5v-1.2c4.1,2.6,11.6,4,19,4c1.7,0,3.4-0.1,5.1-0.2c0.8-0.1,1.4-0.8,1.4-1.6c-0.1-0.8-0.8-1.4-1.6-1.4
	c-1.6,0.1-3.2,0.2-4.8,0.2c-10.5,0-17.7-2.7-19-5v-5.1l16.7,7.5c0.6,0.3,1.2,0.4,1.8,0.4c0.6,0,1.3-0.1,1.8-0.4l17.4-7.8V44.1z
	 M36,42.1L4.5,28.1L36,14l31.5,14.1L36,42.1z"/>
</svg>
