<?xml version="1.0" encoding="utf-8"?>
<!-- Generator: Adobe Illustrator 18.0.0, SVG Export Plug-In . SVG Version: 6.00 Build 0)  -->
<!DOCTYPE svg PUBLIC "-//W3C//DTD SVG 1.1//EN" "http://www.w3.org/Graphics/SVG/1.1/DTD/svg11.dtd">
<svg version="1.1" id="图层_1" xmlns="http://www.w3.org/2000/svg" xmlns:xlink="http://www.w3.org/1999/xlink" x="0px" y="0px"
	 viewBox="0 0 72 72" enable-background="new 0 0 72 72" xml:space="preserve">
<path fill="#504F4F" d="M7.9,28.6h5.4c1.5,2.1,1.3,4.5,0.4,7.3h-2.3c-1.9,0-3.4,1.3-3.4,2.9v23.5c0,1.6,1.6,2.9,3.4,2.9h48.8
	c1.9,0,3.4-1.3,3.4-2.9V38.8c0-1.6-1.6-2.9-3.4-2.9h-2.6c-0.7-2.4-0.9-4.8,0.3-7.3h6.2c3.5,0,6.4,2.9,6.4,6.5v30.4
	c0,3.6-2.9,6.5-6.4,6.5H7.9c-3.5,0-6.4-2.9-6.4-6.5V35.1C1.5,31.6,4.4,28.6,7.9,28.6L7.9,28.6L7.9,28.6z M14.4,56.2v3.3h42.7v-3.3
	H14.4L14.4,56.2L14.4,56.2z M14.4,49.8v3.3h42.7v-3.3H14.4L14.4,49.8L14.4,49.8z M39.3,11.7l10.4,9.8c0.8,0.8,2.1,0.7,2.8-0.1l1.8-2
	c0.8-0.8,0.7-2.1-0.1-2.9l-17-16c-0.5-0.4-1.1-0.6-1.7-0.5c-0.6-0.1-1.2,0.1-1.7,0.5l-17,16c-0.8,0.8-0.8,2.1-0.1,2.9l1.8,2
	c0.8,0.8,2,0.8,2.8,0.1L32.7,11v31.6c0,1.1,0.9,2,2,2h2.7c1.1,0,2-0.9,2-2V11.7L39.3,11.7z M39.3,11.7"/>
</svg>
