<?xml version="1.0" encoding="utf-8"?>
<!-- Generator: Adobe Illustrator 18.0.0, SVG Export Plug-In . SVG Version: 6.00 Build 0)  -->
<!DOCTYPE svg PUBLIC "-//W3C//DTD SVG 1.1//EN" "http://www.w3.org/Graphics/SVG/1.1/DTD/svg11.dtd">
<svg version="1.1" id="图层_1" xmlns="http://www.w3.org/2000/svg" xmlns:xlink="http://www.w3.org/1999/xlink" x="0px" y="0px"
	 viewBox="0 0 72 72" enable-background="new 0 0 72 72" xml:space="preserve">
<g>
	<path fill="#504F4F" d="M36,34.6c9.5,0,17.3-7.8,17.3-17.3C53.3,7.8,45.5,0,36,0S18.7,7.8,18.7,17.3C18.7,26.8,26.5,34.6,36,34.6z
		 M36,4.5c7,0,12.8,5.7,12.8,12.8c0,7-5.7,12.8-12.8,12.8s-12.8-5.7-12.8-12.8C23.2,10.3,29,4.5,36,4.5z"/>
	<path fill="#504F4F" d="M65.8,52.5c-4.3-7.5-11.2-13-19.5-15.6c-1.1-0.3-2.2,0.2-2.7,1.2c-1.7,3.6-4.3,6.6-7.6,8.7
		c-3.3-2.2-5.9-5.2-7.6-8.7c-0.5-1-1.6-1.5-2.7-1.2C17.4,39.5,10.5,45,6.2,52.5c-0.4,0.7-0.4,1.6,0,2.3C12.3,65.4,23.8,72,36,72
		s23.7-6.6,29.8-17.2C66.2,54.1,66.2,53.2,65.8,52.5z M46.7,41.8c1.2,0.5,2.5,1,3.6,1.7c-1.8,3.2-4.4,6.9-7.7,9.9
		c-0.4-0.3-0.8-0.7-1.1-1c-0.8-0.7-1.6-1.5-2.5-2.1C42.2,48,44.8,45.2,46.7,41.8z M33,50.2c-0.9,0.7-1.7,1.4-2.5,2.1
		c-0.4,0.4-0.8,0.7-1.1,1c-3.3-2.9-5.9-6.7-7.7-9.9c1.2-0.6,2.4-1.2,3.6-1.7C27.2,45.2,29.8,48,33,50.2z M37.5,67.4v-10
		c0-0.8-0.7-1.5-1.5-1.5c-0.8,0-1.5,0.7-1.5,1.5v10c-9.6-0.5-18.5-5.6-23.7-13.8c2.2-3.4,5-6.3,8.3-8.6c2.1,3.7,5.3,8.2,9.3,11.4
		c0.5,0.4,1.3,0.4,1.9,0c0.7-0.6,1.5-1.2,2.3-1.9c1.1-1,2.3-2.1,3.5-2.8c1.2,0.7,2.3,1.8,3.5,2.8c0.8,0.7,1.5,1.4,2.3,1.9
		c0.3,0.2,0.6,0.3,0.9,0.3c0.3,0,0.7-0.1,0.9-0.3c4.1-3.3,7.2-7.7,9.3-11.4c3.3,2.3,6.1,5.2,8.3,8.6C56,61.8,47.1,66.9,37.5,67.4z"
		/>
</g>
</svg>
