<?xml version="1.0" encoding="utf-8"?>
<!-- Generator: Adobe Illustrator 18.0.0, SVG Export Plug-In . SVG Version: 6.00 Build 0)  -->
<!DOCTYPE svg PUBLIC "-//W3C//DTD SVG 1.0//EN" "http://www.w3.org/TR/2001/REC-SVG-20010904/DTD/svg10.dtd">
<svg version="1.0" id="图层_1" xmlns="http://www.w3.org/2000/svg" xmlns:xlink="http://www.w3.org/1999/xlink" x="0px" y="0px"
	 viewBox="0 0 72 72" enable-background="new 0 0 72 72" xml:space="preserve">
<g>
	<path fill="#514F4F" d="M37.4,37.6c9.9,0,17.9-8,17.9-17.9s-8-17.9-17.9-17.9s-17.9,8-17.9,17.9S27.5,37.6,37.4,37.6z M37.4,6.6
		c7.2,0,13.1,5.9,13.1,13.1c0,7.2-5.9,13.1-13.1,13.1c-7.2,0-13.1-5.9-13.1-13.1C24.3,12.5,30.2,6.6,37.4,6.6z"/>
	<path fill="#514F4F" d="M67.8,64c-0.6-3.6-1.7-7.1-3.3-10.5C59.6,43.9,50.8,38,37.4,38c-13.3,0-22.6,5.8-28.2,15.4
		c-2,3.3-3.3,6.9-4.3,10.4c-0.5,2.1-0.8,3.8-0.9,4.8l-0.2,2.6h64.5v-2.4C68.2,67.8,68.1,66.1,67.8,64z M9.2,66.4
		C9.3,66,9.4,65.5,9.6,65c0.8-3.1,2-6.3,3.7-9.2c4.7-8,12.2-12.8,23.3-13l-4.4,13.1l5.2,10.3l5.2-10.3l-4.4-13.1
		c11,0.2,18,5,21.9,12.9c1.4,2.9,2.4,6,2.9,9.1c0.1,0.6,0.2,1.1,0.2,1.6H9.2z"/>
</g>
</svg>
