<?xml version="1.0" encoding="utf-8"?>
<!-- Generator: Adobe Illustrator 18.0.0, SVG Export Plug-In . SVG Version: 6.00 Build 0)  -->
<!DOCTYPE svg PUBLIC "-//W3C//DTD SVG 1.1//EN" "http://www.w3.org/Graphics/SVG/1.1/DTD/svg11.dtd">
<svg version="1.1" id="图层_1" xmlns="http://www.w3.org/2000/svg" xmlns:xlink="http://www.w3.org/1999/xlink" x="0px" y="0px"
	 viewBox="0 0 72 72" enable-background="new 0 0 72 72" xml:space="preserve">
<g>
	<path fill="#504F4F" d="M70.3,61.8L53.1,44.5c-0.2-0.2-0.4-0.4-0.6-0.5c2.9-4.5,4.6-9.8,4.6-15.5C57.1,12.8,44.3,0,28.6,0
		C12.8,0,0.1,12.8,0.1,28.5C0.1,44.2,12.8,57,28.6,57c5.7,0,11.1-1.7,15.5-4.6c0.2,0.2,0.3,0.4,0.5,0.6l17.2,17.2
		c1.2,1.2,2.7,1.8,4.2,1.8c1.5,0,3.1-0.6,4.2-1.8C72.6,67.9,72.6,64.1,70.3,61.8 M28.6,48C17.8,48,9.1,39.2,9.1,28.5
		C9.1,17.7,17.8,9,28.6,9c10.7,0,19.5,8.7,19.5,19.5C48.1,39.2,39.3,48,28.6,48"/>
</g>
</svg>
