<?xml version="1.0" encoding="utf-8"?>
<!-- Generator: Adobe Illustrator 18.0.0, SVG Export Plug-In . SVG Version: 6.00 Build 0)  -->
<!DOCTYPE svg PUBLIC "-//W3C//DTD SVG 1.1//EN" "http://www.w3.org/Graphics/SVG/1.1/DTD/svg11.dtd">
<svg version="1.1" id="图层_1" xmlns="http://www.w3.org/2000/svg" xmlns:xlink="http://www.w3.org/1999/xlink" x="0px" y="0px"
	 viewBox="0 0 72 72" enable-background="new 0 0 72 72" xml:space="preserve">
<g>
	<path fill="#504F4F" d="M68.4,36.3c-0.1-17-13.4-30.9-30.1-32v-2C38.2,1,37.2,0,36,0c-1.2,0-2.2,1-2.2,2.2v2
		c-7.7,0.5-14.8,3.7-20.4,9.1c-6.1,5.9-9.5,13.9-9.7,22.4c0,1.2,0.9,2.2,2.1,2.3C7,38.1,8,37.2,8.1,36c0.2-2.7,2.5-4.8,5.3-4.8
		c2.9,0,5.3,2.4,5.3,5.3c0,1.2,1,2.2,2.2,2.2c1.2,0,2.2-1,2.2-2.2c0-2.9,2.4-5.3,5.3-5.3s5.3,2.4,5.3,5.3c0,1.2,1,2.2,2.2,2.2
		c1.2,0,2.2-1,2.2-2.2c0-2.9,2.4-5.3,5.3-5.3c2.9,0,5.3,2.4,5.3,5.3c0,0,0,0.1,0,0.1c0,1.2,1,2.2,2.2,2.2h0c1.2,0,2.2-1,2.2-2.2
		c0,0,0-0.1,0-0.1c0-2.9,2.4-5.3,5.3-5.3c2.9,0,5.3,2.3,5.3,5.2c0,0,0,0.1,0,0.1c0,1.2,1,2.2,2.2,2.2h0c0,0,0,0,0,0
		c1.2,0,2.2-1,2.2-2.2C68.4,36.4,68.4,36.3,68.4,36.3z M13.4,26.7c-1.3,0-2.6,0.3-3.7,0.7c2.9-8.3,9.6-14.8,18-17.5
		c-3.7,4.2-6.4,11.2-7.4,19.5C18.5,27.7,16,26.7,13.4,26.7z M43.5,26.7c-2.3,0-4.4,0.8-6,2.1V15.9c0-0.8-0.7-1.5-1.5-1.5
		c-0.8,0-1.5,0.7-1.5,1.5v12.9c-1.7-1.3-3.8-2.1-6.1-2.1c-1.8,0-3.5,0.5-5,1.4c1.6-10.5,6-18.3,11.3-19.4c0.4,0,0.8,0,1.2,0
		c0.4,0,0.8,0,1.2,0c5.3,1.1,9.7,9,11.3,19.4C47.1,27.2,45.3,26.7,43.5,26.7z M58.6,26.7c-2.6,0-5.1,1.1-6.8,2.8
		c-1-8.3-3.7-15.3-7.3-19.5c8.4,2.7,15.1,9.2,17.9,17.5C61.2,26.9,59.9,26.7,58.6,26.7z"/>
	<path fill="#504F4F" d="M45.7,62.6c-1.2,0-2.2,1-2.2,2.2c0,1.4-1.2,2.6-2.6,2.6c-1.4,0-2.6-1.2-2.6-2.6V44.6c0-1.2-1-2.2-2.2-2.2
		c-1.2,0-2.2,1-2.2,2.2v20.3c0,3.9,3.2,7.1,7.1,7.1s7.1-3.2,7.1-7.1C47.9,63.7,46.9,62.6,45.7,62.6z"/>
</g>
</svg>
