<?xml version="1.0" encoding="utf-8"?>
<!-- Generator: Adobe Illustrator 18.0.0, SVG Export Plug-In . SVG Version: 6.00 Build 0)  -->
<!DOCTYPE svg PUBLIC "-//W3C//DTD SVG 1.1//EN" "http://www.w3.org/Graphics/SVG/1.1/DTD/svg11.dtd">
<svg version="1.1" id="图层_1" xmlns="http://www.w3.org/2000/svg" xmlns:xlink="http://www.w3.org/1999/xlink" x="0px" y="0px"
	 viewBox="0 0 72 72" enable-background="new 0 0 72 72" xml:space="preserve">
<path fill="#504F4F" d="M41.8,10.9"/>
<g>
	<path fill="#514F4F" d="M33.4,51.6L33,52.1c2.1,1.5,4.1,3.5,4.9,5.1c0.7,1.3,0.9,1.4,1.7,1.4c0.6,0,1.2-1.1,1.2-2
		c0-0.4-0.1-0.8-0.3-1.1C39.1,53.8,37.9,53.2,33.4,51.6z"/>
	<path fill="#514F4F" d="M46.3,57.1h4.6c0-2.2,0.3-4.7,1.1-7.5c0.7-2.8,1.8-5.5,3.2-8c1.4-2.5,2.8-4.4,4.1-5.7v-3.5H42.9v4.5h10.9
		c-2.3,2.8-4.1,6.1-5.4,9.7C47.1,50.1,46.4,53.6,46.3,57.1z"/>
	<path fill="#514F4F" d="M51.5,15c1.7,0,3.1-1.4,3.1-3.1V5.7c0-1.7-1.4-3.1-3.1-3.1c-1.7,0-3.1,1.4-3.1,3.1v6.2
		C48.4,13.6,49.8,15,51.5,15z"/>
	<path fill="#514F4F" d="M63.8,22.9L63.8,22.9c0-1.4-1.2-2.6-2.6-2.6H11c-1.4,0-2.6,1.2-2.6,2.6v0c0,1.4,1.2,2.6,2.6,2.6h50.2
		C62.6,25.4,63.8,24.3,63.8,22.9z"/>
	<path fill="#514F4F" d="M20.6,15c1.7,0,3.1-1.4,3.1-3.1V5.7c0-1.7-1.4-3.1-3.1-3.1c-1.7,0-3.1,1.4-3.1,3.1v6.2
		C17.6,13.6,18.9,15,20.6,15z"/>
	<path fill="#514F4F" d="M22.6,35.9c0.8,0,1.4,0.2,1.9,0.7c0.5,0.5,0.8,1.2,0.9,2.1l4.7-0.5c-0.3-2-1.1-3.6-2.4-4.6
		c-1.2-1.1-2.8-1.6-4.7-1.6c-2.7,0-4.9,1-6.6,3c-1.7,2-2.5,5.3-2.5,9.9c0,4.5,0.8,7.7,2.4,9.7c1.6,2,3.7,2.9,6.2,2.9
		c2.4,0,4.3-0.8,5.8-2.3c1.5-1.5,2.3-3.6,2.3-6.2c0-2.4-0.7-4.4-2.1-5.9c-1.4-1.5-3.2-2.3-5.2-2.3c-1.8,0-3.3,0.7-4.5,2.1
		c0.2-2.9,0.6-4.8,1.3-5.7C20.7,36.3,21.6,35.9,22.6,35.9z M20,45.4c0.6-0.7,1.4-1.1,2.3-1.1c1,0,1.8,0.4,2.4,1.1c0.6,0.8,1,2,1,3.6
		c0,1.6-0.3,2.7-0.9,3.4c-0.6,0.7-1.3,1-2.2,1c-0.9,0-1.7-0.4-2.5-1.3c-0.7-0.8-1.1-2.1-1.1-3.6C19.1,47.2,19.4,46.1,20,45.4z"/>
	<path fill="#514F4F" d="M66.9,8.8h-6.7c-2.6,0-2.6,2.6-2.6,2.6s-0.4,2.6,2.6,2.6h4.1c0,0,2.5-0.3,2.5,2.2v45.5
		c0,2.8-2.4,2.5-2.4,2.5H7.8c0,0-2.4,0.4-2.4-2.3V16.1c0-2.4,2.2-2.2,2.2-2.2h4.5c2.8,0,2.5-2.6,2.5-2.6s0.2-2.6-2.4-2.6h-7
		c0,0-5.1-0.7-5.1,5.1v50.2c0,5.5,5.2,5.2,5.2,5.2h61.7c0,0,5.1,0.5,5.1-5.1V13.9C72,8.8,66.9,8.8,66.9,8.8z"/>
	<path fill="#514F4F" d="M29.5,13.9h13.3c1.4,0,2.6-1.2,2.6-2.6s-1.2-2.6-2.6-2.6H29.5c-1.4,0-2.6,1.2-2.6,2.6S28,13.9,29.5,13.9z"
		/>
</g>
</svg>
