<?xml version="1.0" encoding="utf-8"?>
<!-- Generator: Adobe Illustrator 18.0.0, SVG Export Plug-In . SVG Version: 6.00 Build 0)  -->
<!DOCTYPE svg PUBLIC "-//W3C//DTD SVG 1.1//EN" "http://www.w3.org/Graphics/SVG/1.1/DTD/svg11.dtd">
<svg version="1.1" id="图层_1" xmlns="http://www.w3.org/2000/svg" xmlns:xlink="http://www.w3.org/1999/xlink" x="0px" y="0px"
	 viewBox="0 0 72 72" enable-background="new 0 0 72 72" xml:space="preserve">
<path fill="#504F4F" d="M41.8,10.9"/>
<g>
	<path fill="#514F4F" d="M60.6,9.9C54.3,3.3,45.1,0,36,0c-9.1,0-18.3,3.3-24.6,9.9C5.1,16.5,1.2,25.6,1.2,35.6
		c0,10,3.9,19.1,10.2,25.7c3.3,3.5,7.3,6.2,11.8,8.1C27.2,71.1,31.6,72,36,72c4.4,0,8.8-0.9,12.9-2.6c4.4-1.8,8.4-4.6,11.8-8.1
		c6.3-6.6,10.2-15.7,10.2-25.7C70.8,25.6,66.9,16.5,60.6,9.9z M16.3,56.2c-3.9-4.1-6.7-9.4-7.7-15.3c-0.4-1.6,0.3-2.1,1.4-2.1
		c2.3-0.1,4.7,0,6.9,0.4c7.9,1.6,10.8,5.5,12.2,14.7c0.5,3.3,0.8,7.2,1.1,10.1C24.9,62.9,20.1,60.1,16.3,56.2z M36,47.6
		c-1.9,0-3.8-0.5-5.5-1.5c-0.9-0.5-1.7-1.2-2.4-1.9c-2-2.1-3.3-5-3.3-8.3c0-3,1.1-5.7,2.8-7.7c-2,0.1-11.9,0.3-16.5,0.4
		c-1.4,0.1-1.9-0.6-1.5-2.1c1.4-4.3,3.7-8.2,6.7-11.4C21.4,9.9,28.7,7.2,36,7.2c7.3,0,14.6,2.6,19.7,7.9c3,3.2,5.4,7,6.7,11.4
		c0.4,1.5-0.1,2.1-1.5,2.1c-4.6-0.2-14.4-0.3-16.5-0.4c1.7,2.1,2.8,4.8,2.8,7.7c0,3.2-1.3,6.2-3.3,8.3c-0.7,0.8-1.5,1.4-2.4,1.9
		C39.8,47.1,37.9,47.6,36,47.6z M55.7,56.2c-3.7,3.9-8.5,6.7-13.9,7.9c0.3-2.8,0.6-6.7,1.1-10.1c1.4-9.2,4.2-13.2,12.2-14.7
		c2.2-0.4,4.6-0.4,6.9-0.4c1.2,0,1.8,0.5,1.4,2.1C62.3,46.9,59.6,52.2,55.7,56.2z"/>
	<path fill="#514F4F" d="M42.3,29.4C39,26,33,26,29.7,29.4c-1.6,1.7-2.6,4-2.6,6.6c0,2.6,1,4.9,2.6,6.6c0.6,0.6,1.3,1.2,2.1,1.6
		c2.6,1.4,5.8,1.4,8.4,0c0.8-0.4,1.5-1,2.1-1.6c1.6-1.7,2.6-4,2.6-6.6C44.9,33.3,43.9,31,42.3,29.4z"/>
</g>
</svg>
