<?xml version="1.0" encoding="utf-8"?>
<!-- Generator: Adobe Illustrator 18.0.0, SVG Export Plug-In . SVG Version: 6.00 Build 0)  -->
<!DOCTYPE svg PUBLIC "-//W3C//DTD SVG 1.1//EN" "http://www.w3.org/Graphics/SVG/1.1/DTD/svg11.dtd">
<svg version="1.1" id="图层_1" xmlns="http://www.w3.org/2000/svg" xmlns:xlink="http://www.w3.org/1999/xlink" x="0px" y="0px"
	 viewBox="0 0 72 72" enable-background="new 0 0 72 72" xml:space="preserve">
<path fill="#504F4F" d="M41.8,10.9"/>
<g>
	<path fill="#504F4F" d="M25.4,62.8"/>
</g>
<path fill="#504F4F" d="M8,36.8c0-3.9,3-7,6.7-7s6.7,3.2,6.7,7c0,3.9-3,7-6.7,7S8,40.7,8,36.8z M30.8,15c0,0-0.8-0.9-2.7-0.9
	c-2.1,0-3.7,1.8-3.7,3.9c0,2.4,1.8,3.4,2.6,3.7c4.7,3.2,7.8,8.7,7.8,15.1c0,6.3-3.1,11.9-7.8,15.1c-0.9,0.3-2.6,1.1-2.6,3.7
	c0,2.2,1.7,3.9,3.7,3.9c1.9,0,2.7-0.9,2.7-0.9C37.6,54,42.2,46,42.2,36.8S37.6,19.5,30.8,15z M46.7,0.5c0,0-1.2-0.5-3-0.5
	c-2.5,0-4.5,2.1-4.5,4.7c0,1.8,3.5,4,4.8,4.7c6.3,6.6,10.1,15.8,10.1,25.9c0,11.1-4.7,21-12.1,27.7c-1.7,0.7-2.8,2.4-2.8,4.4
	c0,2.6,2,4.7,4.5,4.7c2,0,3.2-0.6,3.2-0.6C56.8,63,63.1,50.3,63.1,36C63.1,21.6,56.7,8.8,46.7,0.5z"/>
</svg>
