<?xml version="1.0" encoding="utf-8"?>
<!-- Generator: Adobe Illustrator 18.0.0, SVG Export Plug-In . SVG Version: 6.00 Build 0)  -->
<!DOCTYPE svg PUBLIC "-//W3C//DTD SVG 1.1//EN" "http://www.w3.org/Graphics/SVG/1.1/DTD/svg11.dtd">
<svg version="1.1" id="图层_1" xmlns="http://www.w3.org/2000/svg" xmlns:xlink="http://www.w3.org/1999/xlink" x="0px" y="0px"
	 viewBox="0 0 72 72" enable-background="new 0 0 72 72" xml:space="preserve">
<g>
	<path fill="#504F4F" d="M43.6,72C33,72,20.2,62.1,11.9,47.3C1.1,28.2,1.3,8.3,12.4,1.9c2.4-1.4,5.2-2,8.2-1.9C20.8,0,21,0,21.3,0
		c0,0,0.1,0,0.1,0c4.9,0,9.4,6.1,10.4,14.3c0.7,5.3-0.3,10.1-2.7,12.9c-1.2,1.5-2.8,2.2-4.6,2.3c0,0-0.2,0.1-0.3,0.1
		c-0.1,0.1-0.2,0.5-0.1,1.3c1,2.5,2.2,5,3.6,7.4c1.5,2.6,3.1,5.1,4.9,7.4c0,0,0,0,0.1,0.1c0.3,0.3,0.5,0.3,0.6,0.3
		c0.3,0,0.8-0.2,1-0.4c1.2-1.6,3.1-2.5,5.5-2.5c3.2,0,7.1,1.6,10.5,4.3c6.4,5,9,11.8,6.7,16c-0.2,0.4-0.2,0.4-0.4,0.8
		c-1.5,2.4-3.4,4.4-5.7,5.8C48.8,71.4,46.3,72,43.6,72L43.6,72L43.6,72L43.6,72z M39.9,47.3c-0.8,0-1.8,0.2-2.3,0.9
		c-0.1,0.2-0.2,0.3-0.4,0.5c-0.2,0.2-1.8,1.5-3.8,1.5c-1.3,0-2.5-0.5-3.4-1.5c-0.1-0.1-0.2-0.2-0.3-0.3c-2-2.5-3.8-5.3-5.4-8.1
		c-1.5-2.6-2.8-5.3-3.9-8.1c0-0.1-0.1-0.2-0.1-0.3c-0.4-2-0.1-3.6,0.8-4.8c1.3-1.6,3.2-1.6,3.3-1.6c0.2,0,0.8,0,1.6-0.9
		c1.6-1.8,2.2-5.6,1.7-9.7C27,8.7,23.8,4,21.4,4c-0.1,0-0.2,0-0.3,0c-0.2,0-0.3,0-0.5,0c-2.3-0.1-4.4,0.3-6.2,1.3
		c-8.8,5.1-8.4,23.3,1,39.9C22.9,58.7,34.5,68,43.6,68c2,0,3.8-0.5,5.4-1.3c1.7-1,3.3-2.7,4.4-4.5c0.1-0.2,0.2-0.3,0.4-0.7
		c1.1-2-1-6.9-5.8-10.7C45.2,48.6,42.2,47.3,39.9,47.3L39.9,47.3L39.9,47.3z M46.3,33.7c-0.1,0-0.2,0-0.4,0
		c-1.1-0.2-1.8-1.3-1.6-2.4c0.1-0.8,0-1.6-0.5-2.3c-0.5-0.7-1.1-1.1-1.9-1.3c-1.1-0.2-1.8-1.3-1.6-2.4c0.2-1.1,1.3-1.8,2.4-1.6
		c1.9,0.3,3.5,1.4,4.6,3c1.1,1.6,1.5,3.5,1.1,5.3C48.2,33,47.3,33.7,46.3,33.7L46.3,33.7L46.3,33.7z M53.2,33.5c-0.1,0-0.2,0-0.4,0
		c-1.1-0.2-1.8-1.3-1.6-2.4c0.8-4.6-2.2-8.9-6.7-9.8c-1.1-0.2-1.8-1.3-1.6-2.4c0.2-1.1,1.3-1.8,2.4-1.6c6.8,1.2,11.3,7.8,10,14.5
		C55.1,32.8,54.2,33.5,53.2,33.5L53.2,33.5L53.2,33.5z M61.1,35.7c-0.1,0-0.2,0-0.4,0c-1.1-0.2-1.8-1.3-1.6-2.4
		c0.8-4.6-0.2-9.2-2.8-13c-2.6-3.8-6.6-6.4-11.1-7.2c-1.1-0.2-1.8-1.3-1.6-2.4c0.2-1.1,1.3-1.8,2.4-1.6c5.6,1,10.5,4.2,13.8,8.9
		c3.3,4.7,4.5,10.4,3.4,16C63,35.1,62.1,35.7,61.1,35.7L61.1,35.7L61.1,35.7z M61.1,35.7"/>
</g>
</svg>
