<?xml version="1.0" encoding="utf-8"?>
<!-- Generator: Adobe Illustrator 18.0.0, SVG Export Plug-In . SVG Version: 6.00 Build 0)  -->
<!DOCTYPE svg PUBLIC "-//W3C//DTD SVG 1.1//EN" "http://www.w3.org/Graphics/SVG/1.1/DTD/svg11.dtd">
<svg version="1.1" id="图层_1" xmlns="http://www.w3.org/2000/svg" xmlns:xlink="http://www.w3.org/1999/xlink" x="0px" y="0px"
	 viewBox="0 0 72 72" enable-background="new 0 0 72 72" xml:space="preserve">
<path fill="#504F4F" d="M41.8,10.9"/>
<g>
	<path fill="#504F4F" d="M35.7,72c-19.9,0-36-16.2-36-36c0-19.9,16.1-36,36-36c19.8,0,36,16.1,36,36C71.7,55.8,55.6,72,35.7,72
		 M35.7,6.2C19.3,6.2,5.9,19.6,5.9,36c0,16.4,13.4,29.8,29.8,29.8c16.4,0,29.8-13.4,29.8-29.8C65.6,19.6,52.2,6.2,35.7,6.2
		 M51.5,39.1H35.7c-1.7,0-3.1-1.4-3.1-3.1V16.9c0-1.7,1.4-3.1,3.1-3.1c1.7,0,3.1,1.4,3.1,3.1v16.1h12.7c1.7,0,3.1,1.4,3.1,3.1
		C54.6,37.7,53.2,39.1,51.5,39.1"/>
</g>
</svg>
