<?xml version="1.0" encoding="utf-8"?>
<!-- Generator: Adobe Illustrator 18.0.0, SVG Export Plug-In . SVG Version: 6.00 Build 0)  -->
<!DOCTYPE svg PUBLIC "-//W3C//DTD SVG 1.1//EN" "http://www.w3.org/Graphics/SVG/1.1/DTD/svg11.dtd">
<svg version="1.1" id="图层_1" xmlns="http://www.w3.org/2000/svg" xmlns:xlink="http://www.w3.org/1999/xlink" x="0px" y="0px"
	 viewBox="0 0 72 72" enable-background="new 0 0 72 72" xml:space="preserve">
<path fill="#504F4F" d="M41.8,10.9"/>
<path fill="#504F4F" d="M36,72C16.2,72,0,55.8,0,36C0,16.2,16.2,0,36,0c19.8,0,36,16.1,36,36C72,55.8,55.8,72,36,72L36,72z M36,5.6
	C19.2,5.6,5.5,19.2,5.5,36S19.2,66.4,36,66.4c16.8,0,30.5-13.6,30.5-30.4S52.8,5.6,36,5.6L36,5.6z M36,60.9c-1.5,0-2.8-1.2-2.8-2.8
	V30.5c0-1.5,1.2-2.8,2.8-2.8c1.5,0,2.8,1.2,2.8,2.8v27.7C38.8,59.7,37.5,60.9,36,60.9L36,60.9z M47.1,38.8H24.9
	c-1.5,0-2.8-1.2-2.8-2.8c0-1.5,1.2-2.8,2.8-2.8h22.2c1.5,0,2.8,1.2,2.8,2.8C49.8,37.5,48.6,38.8,47.1,38.8L47.1,38.8z M36,33.2
	c-0.7,0-1.4-0.3-2-0.8c-1.1-1.1-1.1-2.8,0-3.9l11.1-11.1c1.1-1.1,2.8-1.1,3.9,0c1.1,1.1,1.1,2.8,0,3.9L38,32.4
	C37.4,33,36.7,33.2,36,33.2L36,33.2z M36,33.2c-0.7,0-1.4-0.3-2-0.8L23,21.3c-1.1-1.1-1.1-2.8,0-3.9c1.1-1.1,2.8-1.1,3.9,0L38,28.5
	c1.1,1.1,1.1,2.8,0,3.9C37.4,33,36.7,33.2,36,33.2L36,33.2z M47.1,49.8H24.9c-1.5,0-2.8-1.2-2.8-2.8c0-1.5,1.2-2.8,2.8-2.8h22.2
	c1.5,0,2.8,1.2,2.8,2.8C49.8,48.6,48.6,49.8,47.1,49.8L47.1,49.8z M47.1,49.8"/>
</svg>
