<?xml version="1.0" encoding="utf-8"?>
<!-- Generator: Adobe Illustrator 18.0.0, SVG Export Plug-In . SVG Version: 6.00 Build 0)  -->
<!DOCTYPE svg PUBLIC "-//W3C//DTD SVG 1.1//EN" "http://www.w3.org/Graphics/SVG/1.1/DTD/svg11.dtd">
<svg version="1.1" id="图层_1" xmlns="http://www.w3.org/2000/svg" xmlns:xlink="http://www.w3.org/1999/xlink" x="0px" y="0px"
	 viewBox="0 0 72 72" enable-background="new 0 0 72 72" xml:space="preserve">
<g>
	<path fill="#504F4F" d="M54,4.4c-0.9,0-1.4,0.8-1.6,1.6c-0.4,1.7,0.7,2.6,1.6,2.6c8.1,0.6,13.2,5.6,13.7,13.7
		c0.1,0.9,1.6,1.8,2.6,1.6c0.9-0.2,1.6-0.7,1.6-1.6C72,12.5,63.9,4.4,54,4.4L54,4.4z M54,15.8c-0.9,0-1.6,0.7-1.6,1.6
		c0,0.9,0.1,2.3,1.6,2.6c1.8,0.4,2,0.8,2.3,2.3c0.2,0.9,1,1.8,2.6,1.6c0.9-0.1,1.6-0.7,1.6-1.6C60.6,18.8,57.6,15.8,54,15.8L54,15.8
		z M50.2,35.8c1.1-3.1,1-5.7-0.3-7.6c-0.9-1.3-2.8-3-6.8-3c-2.4,0-5.3,0.6-8.4,1.8c0.8-4.1-0.3-6.4-1.5-7.6c-1.2-1.2-2.9-1.9-5-1.9
		c-5.1,0-12.2,4-18.3,10.3C3.5,34.4,0,41.4,0,47.4c0,12,14.4,19.1,28.4,19.1c18,0,30.5-10.7,30.5-20.3
		C58.9,41.5,55.7,37.6,50.2,35.8L50.2,35.8z M28.4,62.3c-15.7,0-24.1-7.1-24.1-14.9c0-5.2,2.2-10.3,8.1-16.3
		c5.4-5.6,10.8-9.3,15-9.3c1.2,0,2,0.3,2.6,0.9c1,1.1,1.8,2.5,0.3,5.1c-1.2,2.1-0.1,2.8,0.3,3.3c0.2,0.3,1.4,0.9,2.8,0.9
		c0.6,0,1.2-0.2,1.6-0.4c0,0,0,0,0,0c3.1-1.3,5.9-2,8.2-2c1.4,0,2.2,0.3,3.1,1.5c0.9,1.4,0.2,2.4-0.2,4c-0.5,2.5,0.3,3,0.8,3.6
		c0.7,0.7,1.6,1,2.2,1.3c2,0.6,5.6,1.6,5.6,6.4C54.7,53.4,45.3,62.3,28.4,62.3L28.4,62.3z M28.4,63.3"/>
</g>
</svg>
