<?xml version="1.0" encoding="utf-8"?>
<!-- Generator: Adobe Illustrator 18.0.0, SVG Export Plug-In . SVG Version: 6.00 Build 0)  -->
<!DOCTYPE svg PUBLIC "-//W3C//DTD SVG 1.1//EN" "http://www.w3.org/Graphics/SVG/1.1/DTD/svg11.dtd">
<svg version="1.1" id="图层_1" xmlns="http://www.w3.org/2000/svg" xmlns:xlink="http://www.w3.org/1999/xlink" x="0px" y="0px"
	 viewBox="0 0 72 72" enable-background="new 0 0 72 72" xml:space="preserve">
<g>
	<path fill="#504F4F" d="M58.3,42.1c1.6,0,2.6,1,2.6,2.6c0,1.6-1,2.6-2.6,2.6c-1.6,0-2.6-1-2.6-2.6C55.7,43.1,56.7,42.1,58.3,42.1
		L58.3,42.1z M45.9,44.7c0,1.6-1,2.6-2.6,2.6c-1.6,0-3.1-1-3.1-2.6c0-1.6,1-2.6,2.6-2.6C44.3,42.1,45.9,43.1,45.9,44.7L45.9,44.7z
		 M43.2,19c2.2,0,4,1.8,4,3.6c0,2.2-1.8,3.6-4,3.6c-2.2,0-3.6-1.8-3.6-3.6C39.7,20.8,41.5,19,43.2,19L43.2,19z M22.2,19
		c2.2,0,3.6,1.8,3.6,3.6c0,2.2-1.8,3.6-3.6,3.6c-2.2,0-3.6-1.8-3.6-3.6C18.6,20.8,20,19,22.2,19L22.2,19z M30.3,46.3
		C30.3,36,39.2,28,49.9,28c3.1,0,6.3,0.9,8.9,2.2C58,17.2,45.2,7.5,31.6,7.4C18.2,7.3,5.8,18.1,5.8,32c0,5.8,2.1,11.1,6.1,15.1
		L7.2,57.4l10.8-4c4,1.3,7.4,3.2,14.1,3.2h1.3C31.6,53.4,30.3,49.9,30.3,46.3L30.3,46.3z M36.1,59.7c-1.3,0-2.7,0.4-4,0.4
		c-4.5,0-8.9-0.9-13.4-2.7L0.3,63.7l7.2-15.7c-4-4.9-5.8-10.3-5.8-16.1c0-15.7,13.4-28.2,30.4-28.2c17,0,30.4,12.5,30.4,28.2l0,0
		c4.5,3.6,7.6,8.5,7.6,14.3c0,3.6-1.3,7.2-3.1,10.3l5.4,11.6l-13.9-4.9c-2.7,1.3-5.4,1.8-8,1.8C44.6,64.6,39.7,62.8,36.1,59.7
		L36.1,59.7z M50.4,32c-9.1,0-16.1,6.5-16.1,14.8c0,8.3,7.8,14.4,16.7,14.7c5.2,0.2,6.9-1.6,8.1-2.2l6.5,3.1l-3.1-5.6
		c2.2-2.6,3.8-4.5,3.9-10C66.5,38.1,59.6,32,50.4,32L50.4,32z M49.9,31.1"/>
</g>
</svg>
