<?xml version="1.0" encoding="utf-8"?>
<!-- Generator: Adobe Illustrator 18.0.0, SVG Export Plug-In . SVG Version: 6.00 Build 0)  -->
<!DOCTYPE svg PUBLIC "-//W3C//DTD SVG 1.1//EN" "http://www.w3.org/Graphics/SVG/1.1/DTD/svg11.dtd">
<svg version="1.1" id="图层_1" xmlns="http://www.w3.org/2000/svg" xmlns:xlink="http://www.w3.org/1999/xlink" x="0px" y="0px"
	 viewBox="0 0 72 72" enable-background="new 0 0 72 72" xml:space="preserve">
<g id="wap">
	<g id="查看我发布的信息_x2B_微招聘入口_x5F_wap" transform="translate(-324.000000, -1087.000000)">
		<g id="entrance" transform="translate(324.000000, 1087.000000)">
			<path id="Shape" fill="#514F4F" d="M54,0H18C8.1,0,0,8.1,0,18v36c0,9.9,8.1,18,18,18h36c9.9,0,18-8.1,18-18V18
				C72,8.1,63.9,0,54,0L54,0z M67.5,33.8h-9v4.5h9V54c0,7.7-5.8,13.5-13.5,13.5H38.2v-9h-4.5v9H18c-7.6,0-13.5-5.8-13.5-13.5V38.2h9
				v-4.5h-9V18c0-7.6,5.9-13.5,13.5-13.5h15.8v9h4.5v-9H54c7.7,0,13.5,5.9,13.5,13.5V33.8L67.5,33.8z M18,58.5h4.5
				C22.5,50.8,28.3,45,36,45s13.5,5.8,13.5,13.5H54c0-7.2-4.1-13.1-9.9-16.2c3.2-2.3,5.4-6.3,5.4-10.8C49.5,23.8,43.7,18,36,18
				s-13.5,5.8-13.5,13.5c0,4.5,2.2,8.5,5.4,10.8C22,45.4,18,51.3,18,58.5L18,58.5z M27,31.5c0-5,4-9,9-9s9,4,9,9s-4,9-9,9
				S27,36.5,27,31.5L27,31.5z"/>
		</g>
	</g>
</g>
</svg>
