<?xml version="1.0" encoding="utf-8"?>
<!-- Generator: Adobe Illustrator 18.0.0, SVG Export Plug-In . SVG Version: 6.00 Build 0)  -->
<!DOCTYPE svg PUBLIC "-//W3C//DTD SVG 1.1//EN" "http://www.w3.org/Graphics/SVG/1.1/DTD/svg11.dtd">
<svg version="1.1" id="图层_1" xmlns="http://www.w3.org/2000/svg" xmlns:xlink="http://www.w3.org/1999/xlink" x="0px" y="0px"
	 viewBox="0 0 72 72" enable-background="new 0 0 72 72" xml:space="preserve">
<path fill="#504F4F" d="M41.8,10.9"/>
<g>
	<path fill="#514F4F" d="M22.9,50.2c-2.8-1.6-6.3-1.6-9.1,0c-2.8,1.6-4.5,4.6-4.5,7.8s1.7,6.2,4.5,7.8c2.8,1.6,6.3,1.6,9.1,0
		s4.5-4.6,4.5-7.8S25.7,51.8,22.9,50.2z"/>
	<ellipse fill="#514F4F" cx="57.2" cy="57.5" rx="9.1" ry="9"/>
	<path fill="#514F4F" d="M64.9,26.7v-19c0,0,0-2.7-5.2-2.7H26.5c0,0-4-0.2-4,3.1v5.4L10,13.6L0,34.9v14.2L2,52h3.4
		c0,0,2-7.6,13.1-7.8c11.1-0.2,12.9,8.2,12.9,8.2h13.1c0,0,2.8-8.2,13.2-8.3s12.5,7.8,12.5,7.8L72,50V26.7H64.9z M22.2,31.4h-12
		l4.1-11.8h7.9V31.4z"/>
</g>
</svg>
