<?xml version="1.0" encoding="utf-8"?>
<!-- Generator: Adobe Illustrator 18.0.0, SVG Export Plug-In . SVG Version: 6.00 Build 0)  -->
<!DOCTYPE svg PUBLIC "-//W3C//DTD SVG 1.1//EN" "http://www.w3.org/Graphics/SVG/1.1/DTD/svg11.dtd">
<svg version="1.1" id="图层_1" xmlns="http://www.w3.org/2000/svg" xmlns:xlink="http://www.w3.org/1999/xlink" x="0px" y="0px"
	 viewBox="0 0 72 72" enable-background="new 0 0 72 72" xml:space="preserve">
<path fill="#504F4F" d="M41.8,10.9"/>
<g>
	<polygon fill="#514F4F" points="47.9,66.8 42.5,66.8 42.5,56.2 29.1,56.2 29.1,66.9 24.1,66.9 24.1,51.9 19,51.9 19,72 34.2,72 
		34.2,61.3 37.4,61.3 37.4,72 53,72 53,51.9 47.9,51.9 	"/>
	<path fill="#514F4F" d="M42.7,25.7c2.4,0,4,1.2,4.9,2.1l1.8,1.9l1.8-1.9c0.9-1,2.5-2.1,4.9-2.1c1.1,0,2.1,0.3,2.9,0.8l4.8,3.4
		l-0.8-5.8c-0.7-5-3.3-9.6-7.6-13.2C50.9,7,45,4.6,38.5,4.1V0h-5.1v4.1C27,4.6,21,7,16.5,10.9c-4.1,3.5-6.7,7.9-7.5,12.8l-0.9,5.2
		l4.6-2.6c0.7-0.4,1.7-0.6,3-0.6c2.9,0,4.3,1.1,4.9,1.7l1.9,2.1l1.9-2.1c0.6-0.6,2-1.7,4.8-1.7c2.9,0,4.3,1.1,4.9,1.8L9.9,50.9
		l3.5,3.7l22.9-22.1l22.2,22.3l3.6-3.6L38.4,27.3C39.4,26.5,40.8,25.7,42.7,25.7z M29.2,20.6c-3.1,0-5.3,0.9-6.7,1.8
		c-1.5-1-3.7-1.8-6.7-1.8c-0.2,0-0.3,0-0.5,0c1-2.1,2.5-4.1,4.5-5.8c4.2-3.6,10-5.6,16.2-5.6c6.2,0,12,2,16.2,5.6
		c2,1.7,3.5,3.7,4.5,5.8c-2.6-0.1-5.1,0.6-7.3,2.1c-2-1.4-4.3-2.1-6.7-2.1c-2.3,0-4.6,0.7-6.5,2C34.7,21.5,32.5,20.6,29.2,20.6z"/>
	<polygon fill="#514F4F" points="56.3,39.4 56.3,30.4 47.2,30.2 47.1,35.4 51.2,35.4 51.2,39.4 	"/>
</g>
</svg>
