<?xml version="1.0" encoding="utf-8"?>
<!-- Generator: Adobe Illustrator 18.0.0, SVG Export Plug-In . SVG Version: 6.00 Build 0)  -->
<!DOCTYPE svg PUBLIC "-//W3C//DTD SVG 1.1//EN" "http://www.w3.org/Graphics/SVG/1.1/DTD/svg11.dtd">
<svg version="1.1" id="图层_1" xmlns="http://www.w3.org/2000/svg" xmlns:xlink="http://www.w3.org/1999/xlink" x="0px" y="0px"
	 viewBox="0 0 72 72" enable-background="new 0 0 72 72" xml:space="preserve">
<path fill="#504F4F" d="M41.8,10.9"/>
<g>
	<polygon fill="#514F4F" points="18,40.9 18,63.6 28.8,63.6 28.8,40.9 23.4,36.4 	"/>
	<polygon fill="#514F4F" points="0,63.6 10.8,63.6 10.8,46.2 0,54.7 	"/>
	<polygon fill="#514F4F" points="36,46.7 36,63.6 46.8,63.6 46.8,41.3 38.2,48.5 	"/>
	<polygon fill="#514F4F" points="54,63.6 64.8,63.6 64.8,26.6 54,35.6 	"/>
	<polygon fill="#514F4F" points="51.3,8.4 59.8,16.4 37.8,34.2 23.4,22.2 0,40.5 0,48.5 23.4,30.2 38.2,42.2 64.8,20.9 72,27.5 
		72,8.4 	"/>
</g>
</svg>
