<?xml version="1.0" encoding="utf-8"?>
<!-- Generator: Adobe Illustrator 18.0.0, SVG Export Plug-In . SVG Version: 6.00 Build 0)  -->
<!DOCTYPE svg PUBLIC "-//W3C//DTD SVG 1.1//EN" "http://www.w3.org/Graphics/SVG/1.1/DTD/svg11.dtd">
<svg version="1.1" id="图层_1" xmlns="http://www.w3.org/2000/svg" xmlns:xlink="http://www.w3.org/1999/xlink" x="0px" y="0px"
	 viewBox="0 0 72 72" enable-background="new 0 0 72 72" xml:space="preserve">
<g>
	<path fill="504F4F" d="M72,58.2c0,0.3-0.2,0.5-0.5,0.5H61.3c-0.3,0-0.5-0.2-0.5-0.5V12.5c0-0.3,0.2-0.5,0.5-0.5h10.1
		c0.1,0,0.3,0.1,0.4,0.2c0.1,0.1,0.2,0.2,0.2,0.4V58.2z M31.5,58.2c0,0.1-0.1,0.3-0.2,0.4c-0.1,0.1-0.2,0.2-0.4,0.2H20.8
		c-0.3,0-0.5-0.2-0.5-0.5V30.7c0-0.3,0.2-0.5,0.5-0.5H31c0.1,0,0.3,0.1,0.4,0.2c0.1,0.1,0.2,0.2,0.2,0.4V58.2L31.5,58.2z
		 M52,58.2V25.4c0-7.5-6-13.5-13.5-13.5H0.5c-0.3,0-0.5,0.2-0.5,0.5v45.8c0,0.3,0.2,0.5,0.5,0.5h10.1c0.3,0,0.5-0.2,0.5-0.5V22.3
		c0-0.3,0.2-0.5,0.5-0.5h21.8c4.1,0,7.4,3.3,7.4,7.4v29c0,0.3,0.2,0.5,0.5,0.5h10C51.7,58.8,52,58.5,52,58.2L52,58.2z"/>
</g>
</svg>
