<?xml version="1.0" encoding="utf-8"?>
<!-- Generator: Adobe Illustrator 18.0.0, SVG Export Plug-In . SVG Version: 6.00 Build 0)  -->
<!DOCTYPE svg PUBLIC "-//W3C//DTD SVG 1.1//EN" "http://www.w3.org/Graphics/SVG/1.1/DTD/svg11.dtd">
<svg version="1.1" id="图层_1" xmlns="http://www.w3.org/2000/svg" xmlns:xlink="http://www.w3.org/1999/xlink" x="0px" y="0px"
	 viewBox="0 0 72 72" enable-background="new 0 0 72 72" xml:space="preserve">
<path fill="#504F4F" d="M41.8,10.9"/>
<g>
	<path fill="#514F4F" d="M35.5,31.5c8.5,0,15.5-7.1,15.5-15.7c0-8.7-7-15.8-15.5-15.8C27,0,20,7.1,20,15.8
		C20,24.4,27,31.5,35.5,31.5z"/>
	<path fill="#514F4F" d="M20.6,32.3c-0.1-0.3-0.2-0.4-0.5-0.4c-2,0-4,0-6,0c-1.8,0-3.6,0.5-5.1,1.6c-2.4,1.8-3.5,4.2-3.6,7.1
		c0,7.5,0,15.1,0,22.6c0,0.3,0,0.5,0,0.8c0.1,1.3,0.4,2.6,1.1,3.7c1.7,2.8,4.2,4.3,7.5,4.3c6.3,0,12.6,0,18.8,0h0.4
		c0-0.2-0.1-0.3-0.1-0.4C29,58.5,24.8,45.4,20.6,32.3z"/>
	<path fill="#514F4F" d="M42.9,40.3c-2.4-2-4.7-4-7.1-6c-0.2-0.2-0.3-0.2-0.5,0c-2.3,2-4.6,4-7,5.9C28,40.4,28,40.6,28.1,41
		c2.1,6.5,4.2,12.9,6.2,19.4c0.4,1.2,0.8,2.4,1.2,3.7c0.1-0.1,0.1-0.2,0.1-0.3c2.5-7.7,4.9-15.3,7.4-23
		C43.1,40.6,43.1,40.4,42.9,40.3z"/>
	<path fill="#514F4F" d="M64.6,36.5c-1.5-2.8-3.8-4.3-6.9-4.6c-2.3-0.2-4.6,0-6.8-0.1c-0.3,0-0.3,0.1-0.4,0.3
		c-0.4,1.3-0.8,2.6-1.2,3.8c-3.8,11.8-7.6,23.7-11.4,35.5C37.7,71.9,37.6,72,38,72c6.3,0,12.7,0,19,0c1.5,0,3-0.3,4.3-1.1
		c2.8-1.7,4.2-4.2,4.2-7.5c0-3.8,0-7.6,0-11.3c0-3.8,0-7.5,0-11.3C65.5,39.2,65.3,37.8,64.6,36.5z M59.7,58.6
		c-0.2,0.1-0.5,0.1-0.7,0.1c-2,0-4.1,0-6.1,0c-1.4,0-2.8,0-4.1,0c-0.9,0-1.5-0.7-1.2-1.5c0.1-0.5,0.5-0.8,1-0.9c0.4,0,0.8,0,1.2,0
		c1.4,0,2.8,0,4.2,0v0c1.8,0,3.5,0,5.3,0c0.6,0,1.1,0.4,1.2,1C60.4,57.9,60.2,58.4,59.7,58.6z"/>
</g>
</svg>
