<?xml version="1.0" encoding="utf-8"?>
<!-- Generator: Adobe Illustrator 18.0.0, SVG Export Plug-In . SVG Version: 6.00 Build 0)  -->
<!DOCTYPE svg PUBLIC "-//W3C//DTD SVG 1.1//EN" "http://www.w3.org/Graphics/SVG/1.1/DTD/svg11.dtd">
<svg version="1.1" id="图层_1" xmlns="http://www.w3.org/2000/svg" xmlns:xlink="http://www.w3.org/1999/xlink" x="0px" y="0px"
	 viewBox="0 0 72 72" enable-background="new 0 0 72 72" xml:space="preserve">
<path fill="#504F4F" d="M62,60.7l6.8,6.8l-20.9,3.9l3.8-21l6.7,6.7C69.7,45,69.5,25.9,57.8,14.2C50.6,6.9,40.2,3.8,30.2,5.7l-1-5
	C40.9-1.6,53,2.1,61.4,10.5C75.2,24.3,75.3,46.6,62,60.7L62,60.7z M11.4,17.6c-9,12.1-8.1,29.3,2.8,40.3c6.7,6.7,15.9,9.9,25.3,8.8
	l0.6,5.1c-11,1.3-21.7-2.5-29.5-10.3C-2.4,48.5-3.3,28,7.7,13.9L0.8,7l20.9-3.9l-3.8,21L11.4,17.6L11.4,17.6z M11.4,17.6"/>
</svg>
