<?xml version="1.0" standalone="no"?><!DOCTYPE svg PUBLIC "-//W3C//DTD SVG 1.1//EN" "http://www.w3.org/Graphics/SVG/1.1/DTD/svg11.dtd"><svg width="72" height="72" viewBox="0 0 72 72" version="1.1" xmlns="http://www.w3.org/2000/svg" xmlns:xlink="http://www.w3.org/1999/xlink"><defs><style type="text/css"><![CDATA[
@font-face { font-family: ifont; src: url("//at.alicdn.com/t/font_1442373896_4754455.eot?#iefix") format("embedded-opentype"), url("//at.alicdn.com/t/font_1442373896_4754455.woff") format("woff"), url("//at.alicdn.com/t/font_1442373896_4754455.ttf") format("truetype"), url("//at.alicdn.com/t/font_1442373896_4754455.svg#ifont") format("svg"); }

]]></style></defs><g class="transform-group"><g transform="scale(0.0703125, 0.0703125)"><path d="M692.983 1017.804c-140.355 0-180.996-19.034-228.051-41.075-33.74-15.803-71.573-33.524-165.216-45.644v26.711h-146.772c-24.836 0-48.397-13.981-64.648-38.358-14.265-21.395-22.12-49.243-22.12-78.411v-360.032c0-29.167 7.854-57.014 22.119-78.414 16.251-24.379 39.814-38.362 64.649-38.362h146.772v20.137c97.643-33.055 190.541-80.571 259.018-132.896 40.832-31.2 71.425-62.82 90.934-93.979 19.688-31.447 27.375-61.665 22.852-89.815-2.469-15.359 2.611-32.219 13.586-45.099 9.945-11.672 23.389-18.367 36.88-18.367 30.629 0 75.326 15.756 100.468 60.161 18.857 33.307 23.353 76.515 13.363 128.425-9.452 49.108-32.15 106.63-67.609 171.445h133.795c27.885 0 51.382 12.668 66.159 35.671 11.39 17.733 17.415 41.254 17.413 68.023 0 38.609-12.212 79.113-33.737 104.408 0.453 0.736 0.898 1.487 1.33 2.251 7.968 14.066 12.008 32.186 12.008 53.856 0 30.449-8.211 65.193-21.967 92.939-9.398 18.958-20.767 33.477-33.443 43.035 0.517 4.054 0.774 8.427 0.774 13.151 0 26.943-8.689 62.131-22.134 89.642-13.728 28.098-31.617 47.115-51.804 55.585-5.588 27.44-21.887 51.1-47.262 68.018-26.114 17.409-60.688 26.996-97.352 26.995zM303.927 877.655c103.738 13.139 146.036 32.952 183.711 50.6 42.968 20.127 76.906 36.021 205.347 36.021 44.906 0 93.245-19.79 93.243-63.239v-26.767h26.767c5.445 0 12.531-5.598 19.438-15.359 9.247-13.062 17.213-32.234 21.86-52.603 4.799-21.033 3.992-34.525 2.852-37.767 1.099 3.124 7.067 9.249 15.859 9.249v-53.53c3.875 0 13.618-7.238 23.246-26.659 10.116-20.402 16.396-46.903 16.396-69.163 0-11.788-1.841-21.802-5.055-27.47-1.809-3.193-2.681-3.193-4.588-3.193v-53.53c2.846 0 9.96-5.064 16.931-18.655 8.206-15.993 13.108-37.551 13.108-57.664 0-16.254-3.169-30.138-8.921-39.092-4.985-7.762-11.304-11.073-21.122-11.073h-227.287l24.322-40.534c107.010-178.346 94.073-256.047 76.836-286.489-13.557-23.944-36.668-31.753-50.471-32.861-0.428 0.631-0.8 1.358-0.936 1.889 12.060 76.922-34.344 157.905-134.229 234.231-76.915 58.769-182.175 111.663-291.337 146.659l4.028 436.999zM152.941 417.751c-15.371 0-33.24 27.627-33.24 63.247v360.032c0 35.616 17.867 63.239 33.24 63.239h93.243l-0.031-486.518h-93.212z" fill="#272636"></path></g></g></svg>