<?xml version="1.0" encoding="utf-8"?>
<!-- Generator: Adobe Illustrator 18.0.0, SVG Export Plug-In . SVG Version: 6.00 Build 0)  -->
<!DOCTYPE svg PUBLIC "-//W3C//DTD SVG 1.1//EN" "http://www.w3.org/Graphics/SVG/1.1/DTD/svg11.dtd">
<svg version="1.1" id="图层_1" xmlns="http://www.w3.org/2000/svg" xmlns:xlink="http://www.w3.org/1999/xlink" x="0px" y="0px"
	 viewBox="0 0 72 72" enable-background="new 0 0 72 72" xml:space="preserve">
<g>
	<path fill="#504F4F" d="M71.3,66.8l-23-23c3.3-4.5,5.2-9.9,5.2-15.9C53.5,13,41.5,1,26.6,1C11.8,1-0.3,13-0.3,27.9
		c0,14.9,12,26.9,26.9,26.9c7,0,13.3-2.7,18.1-7l22.8,22.8c0.6,0.6,1.5,0.6,2.1,0l1.7-1.7C71.9,68.3,71.9,67.3,71.3,66.8L71.3,66.8z
		 M26.6,49.2c-11.7,0-21.3-9.5-21.3-21.3c0-11.7,9.5-21.3,21.3-21.3c11.7,0,21.3,9.5,21.3,21.3C47.9,39.6,38.4,49.2,26.6,49.2
		L26.6,49.2z M28.6,9.5L28.6,9.5C18.3,9.4,10,17.8,10,28.1c0,1.4,1.2,2.6,2.6,2.6c1.4,0,2.6-1.2,2.6-2.6h0c0-7.4,6-13.4,13.4-13.4v0
		c1.4,0,2.6-1.2,2.6-2.6C31.2,10.6,30,9.5,28.6,9.5L28.6,9.5z M28.6,9.5"/>
</g>
</svg>
