<?xml version="1.0" encoding="utf-8"?>
<!-- Generator: Adobe Illustrator 18.0.0, SVG Export Plug-In . SVG Version: 6.00 Build 0)  -->
<!DOCTYPE svg PUBLIC "-//W3C//DTD SVG 1.1//EN" "http://www.w3.org/Graphics/SVG/1.1/DTD/svg11.dtd">
<svg version="1.1" id="图层_1" xmlns="http://www.w3.org/2000/svg" xmlns:xlink="http://www.w3.org/1999/xlink" x="0px" y="0px"
	 viewBox="0 0 72 72" enable-background="new 0 0 72 72" xml:space="preserve">
<path fill="#504F4F" d="M41.8,10.9"/>
<path fill-rule="evenodd" clip-rule="evenodd" fill="#504F4F" d="M66.6,36.9C64.9,15.7,49.1,4.8,49.1,4.8C37-3.9,25.8,1.9,25.8,1.9
	c-6.1,3.9-5.8,8.7-5.8,8.7C5.3,19.6,5.4,36.9,5.4,36.9c-1,15.8,7.1,23.7,7.1,23.7c11.2,13.6,27.9,11.3,27.9,11.3
	C70,65.2,66.6,36.9,66.6,36.9z M19.9,16.4c0.4,2.7,2.5,5.4,2.5,5.4C10,29.1,9.7,41.3,9.7,41.3C7.9,25,19.9,16.4,19.9,16.4z
	 M13.6,44.8c0.9-13.4,12.2-19.6,12.2-19.6c15.9,6.5,15.5,20,15.5,20c-0.5,14.2-12.7,13.5-12.7,13.5C12.8,59.2,13.6,44.8,13.6,44.8z
	 M60.3,49.6c0,0-4.3,12-16.6,15.9c-9.8,3.1-17.2-0.8-18.6-1.2c0,0,9.3,2,15.4-3.6c4.5-4.1,7-10.9,5.8-17.9c0,0-0.4-11.4-11.7-18.6
	c0,0-7.4-3.6-9-8.7c0,0-2.3-5.3,2.4-9c0,0,6.5-4.2,15.9,0.7c0,0,6.9,4.1,12.1,12.4C60.4,26.8,64.2,37.8,60.3,49.6z"/>
</svg>
