<?xml version="1.0" encoding="utf-8"?>
<!-- Generator: Adobe Illustrator 18.0.0, SVG Export Plug-In . SVG Version: 6.00 Build 0)  -->
<!DOCTYPE svg PUBLIC "-//W3C//DTD SVG 1.1//EN" "http://www.w3.org/Graphics/SVG/1.1/DTD/svg11.dtd">
<svg version="1.1" id="图层_1" xmlns="http://www.w3.org/2000/svg" xmlns:xlink="http://www.w3.org/1999/xlink" x="0px" y="0px"
	 viewBox="0 0 72 72" enable-background="new 0 0 72 72" xml:space="preserve">
<g>
	<path fill="#504F4F" d="M15.9,58.8h14.8c2.9,0,5.3-2.4,5.3-5.3c0-2.7-1.3-4.9-3.7-7c1-2,1.6-4.3,1.6-6.8c0-7-4.7-12.7-10.6-12.7
		c-5.8,0-10.6,5.7-10.6,12.7c0,2.5,0.6,4.9,1.7,6.8c-1.1,1.2-3.8,4.5-3.8,6.9C10.6,56.4,13,58.8,15.9,58.8L15.9,58.8z M23.4,31.2
		c3.5,0,6.4,3.8,6.4,8.5c0,4.6-2.8,8.4-6.2,8.5c-0.3,0-0.6,0-0.9-0.1C19.4,47.6,17,44,17,39.7C17,35,19.8,31.2,23.4,31.2L23.4,31.2z
		 M19.1,50.3c0,0,2,2.1,4.3,2.1c2.9,0,6.3-2.1,6.3-2.1c0.6,0,2.1,2.6,2.1,3.2c0,0.6-0.5,1.1-1.1,1.1H15.9c-0.6,0-1.1-0.5-1.1-1.1
		C14.9,52.9,16,49.2,19.1,50.3L19.1,50.3z M63.6,12.2H46.6v4.2h16.9c2.3,0,4.2,1.9,4.2,4.2V63c0,2.3-1.9,4.2-4.2,4.2H8.5
		c-2.3,0-4.2-1.9-4.2-4.2V20.7c0-2.3,1.9-4.2,4.2-4.2h16.9v-4.2H8.5c-4.7,0-8.5,3.8-8.5,8.5V63c0,4.7,3.8,8.5,8.5,8.5h55.1
		c4.7,0,8.5-3.8,8.5-8.5V20.7C72.1,16,68.3,12.2,63.6,12.2L63.6,12.2z M57.2,31.2H42.4c-1.2,0-2.1,0.9-2.1,2.1
		c0,1.2,0.9,2.1,2.1,2.1h14.8c1.2,0,2.1-0.9,2.1-2.1C59.4,32.2,58.4,31.2,57.2,31.2L57.2,31.2z M36.1,7.9c-1.2,0-2.1,0.9-2.1,2.1
		c0,1.2,0.9,2.1,2.1,2.1c1.2,0,2.1-0.9,2.1-2.1C38.2,8.9,37.2,7.9,36.1,7.9L36.1,7.9z M23.4,20.7c0,1.2,0.9,2.1,2.1,2.1h21.2
		c1.2,0,2.1-0.9,2.1-2.1c0-1.2-0.9-2.1-2.1-2.1h-2.1v-8.5c0-5.8-2.6-10.6-8.5-10.6c-5.8,0-8.5,4.7-8.5,10.6v8.5h-2.1
		C24.3,18.5,23.4,19.5,23.4,20.7L23.4,20.7z M31.8,10.1c0-3.5,0.7-6.4,4.2-6.4c3.5,0,4.2,2.8,4.2,6.4v8.5h-8.5V10.1L31.8,10.1z
		 M59.4,43.9c0-1.2-0.9-2.1-2.1-2.1H42.4c-1.2,0-2.1,0.9-2.1,2.1c0,1.2,0.9,2.1,2.1,2.1h14.8C58.4,46.1,59.4,45.1,59.4,43.9
		L59.4,43.9z M42.4,52.4c-1.2,0-2.1,0.9-2.1,2.1c0,1.2,0.9,2.1,2.1,2.1h6.4c1.2,0,2.1-0.9,2.1-2.1c0-1.2-0.9-2.1-2.1-2.1H42.4
		L42.4,52.4z M42.4,52.4"/>
</g>
</svg>
