<?xml version="1.0" encoding="utf-8"?>
<!-- Generator: Adobe Illustrator 18.0.0, SVG Export Plug-In . SVG Version: 6.00 Build 0)  -->
<!DOCTYPE svg PUBLIC "-//W3C//DTD SVG 1.1//EN" "http://www.w3.org/Graphics/SVG/1.1/DTD/svg11.dtd">
<svg version="1.1" id="图层_1" xmlns="http://www.w3.org/2000/svg" xmlns:xlink="http://www.w3.org/1999/xlink" x="0px" y="0px"
	 viewBox="0 0 72 72" enable-background="new 0 0 72 72" xml:space="preserve">
<g>
	<path fill="#504F4F" d="M64.5,14h0.9H7.6h0c-4.3,0.4-7.6,4-7.6,8.4v36.4c0,4.7,3.8,8.5,8.5,8.5h55.1c4.7,0,8.5-3.8,8.5-8.5V22.4
		C72.1,18,68.7,14.4,64.5,14z M67.8,58.8c0,2.3-1.9,4.2-4.2,4.2H8.5c-2.3,0-4.2-1.9-4.2-4.2V22.4c0-2.3,1.9-4.2,4.2-4.2h38.1h2.8
		h14.1c2.3,0,4.2,1.9,4.2,4.2V58.8z"/>
	<path fill="#504F4F" d="M58.2,51.6H13.4c-1.2,0-2.1,0.9-2.1,2.1s0.9,2.1,2.1,2.1h44.8c1.2,0,2.1-0.9,2.1-2.1S59.4,51.6,58.2,51.6z"
		/>
	<path fill="#504F4F" d="M58.5,39.8H13.6c-1.2,0-2.1,0.9-2.1,2.1s0.9,2.1,2.1,2.1h44.8c1.2,0,2.1-0.9,2.1-2.1S59.6,39.8,58.5,39.8z"
		/>
	<path fill="#504F4F" d="M24.2,27.2H13.4c-1.2,0-2.1,0.9-2.1,2.1s0.9,2.1,2.1,2.1h10.8c1.2,0,2.1-0.9,2.1-2.1S25.4,27.2,24.2,27.2z"
		/>
	<path fill="#504F4F" d="M58.8,27.2H47.9c-1.2,0-2.1,0.9-2.1,2.1s0.9,2.1,2.1,2.1h10.8c1.2,0,2.1-0.9,2.1-2.1S59.9,27.2,58.8,27.2z"
		/>
	<circle fill="#504F4F" cx="36" cy="29.2" r="5.3"/>
</g>
<polygon fill="#504F4F" points="35.8,3.7 21.8,14 28,14 35.7,8.5 42.5,14 48.4,14 "/>
<circle fill="#504F4F" cx="35.8" cy="6.1" r="3.1"/>
</svg>
