<?xml version="1.0" encoding="UTF-8"?><!DOCTYPE svg PUBLIC "-//W3C//DTD SVG 1.1//EN" "http://www.w3.org/Graphics/SVG/1.1/DTD/svg11.dtd"><svg xmlns="http://www.w3.org/2000/svg"><symbol id="icon-android" viewBox="0 0 72 72"><path opacity=".7" fill-rule="evenodd" clip-rule="evenodd" d="M64.5 24c-2.53 0-4.5 1.968-4.5 4.5v18c0 2.53 1.97 4.5 4.5 4.5s4.5-1.97 4.5-4.5v-18c0-2.532-1.97-4.5-4.5-4.5zm-57-.47c-2.53 0-4.5 1.968-4.5 4.5v17.998c0 2.53 1.97 4.5 4.5 4.5s4.5-1.97 4.5-4.5v-18c0-2.53-1.97-4.5-4.5-4.5zm7.704 29.674c0 3.9 3.033 6.932 6.932 6.932h2.31v7.243c0 2.6 2.023 4.62 4.623 4.62 2.598 0 4.62-2.02 4.62-4.62v-7.244h4.622v7.243c0 2.6 2.02 4.62 4.62 4.62s4.623-2.02 4.623-4.62v-7.244h2.31c3.9 0 6.933-3.033 6.933-6.932V27H15.204v26.204zM44.52 6.556L47.555.924c.144-.29 0-.723-.29-.867-.288-.145-.722 0-.866.29L43.51 6.122C41.2 5.11 38.6 4.678 36 4.678s-5.2.433-7.51 1.445L25.603.346c-.145-.29-.578-.434-.866-.29-.29.146-.434.58-.29.868l3.034 5.632C20.835 9.444 16.215 15.636 15.35 23h41.303c-.867-7.365-5.49-13.556-12.132-16.444zM26.758 19.554c-1.877 0-3.322-1.444-3.322-3.32 0-1.88 1.445-3.323 3.322-3.323 1.878 0 3.322 1.445 3.322 3.323 0 1.876-1.445 3.32-3.323 3.32zm18.486 0c-1.877 0-3.322-1.444-3.322-3.32 0-1.88 1.445-3.323 3.323-3.323s3.32 1.445 3.32 3.323c0 1.876-1.442 3.32-3.32 3.32zm0 0"/></symbol><symbol id="icon-apple" viewBox="0 0 72 72"><path opacity=".7" fill-rule="evenodd" clip-rule="evenodd" d="M55.72 38.25c-.14-9.142 7.455-13.5 7.735-13.642-4.22-6.188-10.827-7.03-13.218-7.173-5.485-.56-10.828 3.234-13.78 3.234-2.813 0-7.172-3.235-11.813-3.094-6.188.14-11.813 3.516-14.906 9-6.327 11.108-1.688 27.42 4.5 36.28 3.094 4.36 6.75 9.28 11.39 9.14 4.64-.14 6.33-2.953 11.812-2.953 5.485 0 7.032 2.953 11.953 2.813 4.92 0 8.016-4.36 10.968-8.858 3.517-5.063 4.923-9.984 4.923-10.126 0-.14-9.562-3.796-9.562-14.623zm-9.14-26.72C49.11 8.437 50.8 4.217 50.38 0c-3.657.14-8.016 2.39-10.546 5.484-2.39 2.67-4.5 7.03-3.938 11.108 4.078.283 8.155-2.11 10.687-5.062zm0 0"/></symbol><symbol id="icon-arrow-bottom" viewBox="0 0 72 72"><path opacity=".7" fill-rule="evenodd" clip-rule="evenodd" d="M36 57l36-36.08L66.374 15 36 45.725 5.624 15 0 20.92 36 57zm0 0"/></symbol><symbol id="icon-arrow-left" viewBox="0 0 72 72"><path opacity=".7" fill-rule="evenodd" clip-rule="evenodd" d="M15 36L51.08 0 57 5.626 26.275 36 57 66.374 51.08 72 15 36zm0 0"/></symbol><symbol id="icon-arrow-right" viewBox="0 0 72 72"><path opacity=".7" fill-rule="evenodd" clip-rule="evenodd" d="M57 36L20.92 0 15 5.626 45.725 36 15 66.374 20.92 72 57 36zm0 0"/></symbol><symbol id="icon-arrow-top" viewBox="0 0 72 72"><path opacity=".7" fill-rule="evenodd" clip-rule="evenodd" d="M36 15l36 36.08L66.375 57 36 26.275 5.625 57 0 51.08 36 15zm0 0"/></symbol><symbol id="icon-arrow-up" viewBox="0 0 72 72"><path opacity=".7" fill-rule="evenodd" clip-rule="evenodd" d="M36 4L4 36h20v32h24V36h20L36 4zm0 0"/></symbol><symbol id="icon-bars" viewBox="0 0 72 72"><path opacity=".7" fill-rule="evenodd" clip-rule="evenodd" d="M51 5h16v62H51V5zM28 21h16v46H28V21zM5 37h16v30H5V37zm1 0"/></symbol><symbol id="icon-blocked" viewBox="0 0 72 72"><path opacity=".7" fill-rule="evenodd" clip-rule="evenodd" d="M60.063 36c0-4.79-1.24-9.118-3.726-12.98L22.803 56.245C26.84 58.873 31.343 60.11 36 60.11c3.26 0 6.364-.62 9.313-1.855 3.105-1.237 5.59-2.937 7.763-5.1 2.173-2.164 3.88-4.79 5.123-7.728 1.242-2.935 1.863-6.18 1.863-9.427zM15.817 49.292L49.35 15.91c-4.036-2.628-8.538-4.02-13.35-4.02-4.347 0-8.384 1.084-12.11 3.247-3.726 2.163-6.676 5.1-8.85 8.808-2.018 3.71-3.105 7.73-3.105 12.055 0 4.79 1.243 9.117 3.882 13.292zM70 36c0 4.637-.777 9.117-2.64 13.292-1.864 4.17-4.193 7.88-7.298 10.816-2.95 3.09-6.676 5.41-10.868 7.265C45.004 69.227 40.657 70 36 70s-9.006-.773-13.196-2.626c-4.192-1.855-7.918-4.174-10.868-7.265-3.105-2.937-5.433-6.647-7.296-10.817C2.775 45.117 2 40.637 2 36c0-4.637.775-8.964 2.64-13.137C6.5 18.536 8.83 14.98 11.934 11.89c2.95-2.936 6.677-5.407 10.868-7.107C26.993 2.928 31.343 2 36 2s9.005.928 13.196 2.783c4.192 1.7 7.92 4.17 10.868 7.108 3.105 3.09 5.434 6.647 7.298 10.973C69.222 27.036 70 31.363 70 36zm0 0"/></symbol><symbol id="icon-bubble" viewBox="0 0 72 72"><path opacity=".7" fill-rule="evenodd" clip-rule="evenodd" d="M36 5c18.176 0 33 12.013 33 26.866 0 14.855-14.824 26.867-33 26.867-1.805 0-3.48-.128-5.156-.388-7.09 7.105-15.598 8.397-23.72 8.655v-1.808c4.384-2.067 8.252-6.072 8.252-10.592 0-.646 0-1.292-.13-1.81C7.77 47.884 3 40.264 3 31.867 3 17.013 17.824 5 36 5zm0 0"/></symbol><symbol id="icon-bullhorn" viewBox="0 0 72 72"><g fill-rule="evenodd" clip-rule="evenodd"><path opacity=".7" d="M29.2 46.883L18.112 43.84l5.602 21.996c.273 1.092 1.366 1.64 2.46 1.23l8.196-3.28c1.094-.41 1.503-1.638.958-2.594l-6.13-14.31zM24.67 19.934c-.683 3.143-.956 6.832-.956 11.066 0 4.235.273 7.923.956 10.93 19.126 3.96 32.377 13.934 32.377 13.934H63.2V6h-6.152S43.796 15.973 24.67 19.934zM18.933 31c0-3.552.273-7.104.683-10.247-3.142.41-11.79.683-11.79.683L4 27.996v6.01l3.826 6.42s8.647.274 11.79.684c-.41-3.143-.683-6.558-.683-10.11zM66.114 22.596H70V38.14h-3.886z"/></g></symbol><symbol id="icon-calendar" viewBox="0 0 72 72"><path opacity=".7" fill-rule="evenodd" clip-rule="evenodd" d="M21.078 17C22.768 17 24 15.91 24 14.576V7.424C24 6.09 22.77 5 21.078 5 19.384 5 18 6.09 18 7.424v7.15C18 15.91 19.384 17 21.078 17zm29.846 0C52.614 17 54 15.91 54 14.576V7.424C54 6.09 52.615 5 50.924 5 49.23 5 48 6.09 48 7.424v7.15C48 15.91 49.23 17 50.924 17zM58 61H14.296c-1.376 0-2.5-1.624-2.5-3V25.916H61V58s-1 3-3 3zm2.624-50H56v3.742c0 2.534-2.5 4.707-5.25 4.707s-4.876-2.174-4.876-4.708V11h-19.75v4.828c0 2.534-2.125 3.62-4.874 3.62-2.75 0-5.25-1.086-5.25-3.62V11h-4.625C7.25 11 4 13.172 4 17.155V59.88C4 63.862 7.25 67 11.375 67h49.25c4 0 7.376-3.137 7.376-7.12V17.154C68 13.172 64.75 11 60.625 11zM25 41h-8v-8h8v8zm15 0h-8v-8h8v8zm15 0h-8v-8h8v8zM25 54h-8v-8h8v8zm15 0h-8v-8h8v8zm15 0h-8v-8h8v8z"/></symbol><symbol id="icon-camera" viewBox="0 0 72 72"><path opacity=".7" fill-rule="evenodd" clip-rule="evenodd" d="M22 41c0 7.673 6.326 14 14 14 7.673 0 14-6.327 14-14s-6.327-14-14-14c-7.674 0-14 6.327-14 14zm44.625-23H51.313c-1.094-4.307-2.188-9-6.562-9h-17.5c-4.375 0-5.47 4.693-6.563 9H5.375C2.915 18 1 20.577 1 23v37.692C1 63.115 2.914 65 5.375 65h61.25C69.085 65 71 63.115 71 60.692V23c0-2.423-1.914-5-4.375-5zM36 60c-10.436 0-19-8.563-19-19s8.564-19 19-19c10.437 0 19 8.563 19 19s-8.563 19-19 19zm32-29H58v-6h10v6zm0-.462"/></symbol><symbol id="icon-cart" viewBox="0 0 72 72"><path opacity=".7" fill-rule="evenodd" clip-rule="evenodd" d="M68.667 11.17c-2.434-.726-5.01.73-5.727 3.2l-.285.63H19.853l-.573-4.556C18.993 8.116 16.99 7 14.7 7H5c-2.577 0-4 1.406-4 4.025C1 13.645 2.423 15 5 15h5.69l4.01 33.857c.285 2.328 2.29 4.075 4.58 4.075h38.937c2.004 0 3.865-1.31 4.438-3.348l9.16-32.594c.716-2.472-.715-5.09-3.148-5.82zM35 34v-5h9v5h-9zm9 4.963V44h-9v-5.037h9zM35 25v-5h9v5h-9zm-14.576-5H30v5h-9.003l-.573-5zm1.145 9H30v5h-7.858l-.573-5zm1.145 9.963H30V44h-6.712l-.573-5.037zM54.78 44H49v-5.037h7.07L54.78 44zm2.578-10H49v-5h9.646l-1.288 5zm2.576-9H49v-5h12.367l-1.433 5zm-15.46 39.572"/><path opacity=".7" fill-rule="evenodd" clip-rule="evenodd" d="M16.86 65c0 3.938 3.063 7 7 7 3.94 0 7-3.062 7-7 0-3.937-3.062-7-7-7-3.937 0-7 3.064-7 7zM44.346 65c0 3.937 3.063 7 7 7 3.938 0 7-3.063 7-7s-3.063-7-7-7c-3.938 0-7 3.064-7 7z"/></symbol><symbol id="icon-cash-bag" viewBox="0 0 72 72"><path opacity=".7" fill-rule="evenodd" clip-rule="evenodd" d="M20.14 7.735c3.654 1.265 8.29 6.046 9.835 7.593 1.686-.843 4.215-1.406 7.025-1.406 2.67 0 5.198.42 6.744 1.266.703-1.547 2.81-6.188 7.446-8.72C54 4.64 48.38 1.406 41.917.28c-.562 0-2.39 4.642-3.09 4.642-.282 0 .842-4.922.42-4.922-1.123 0-2.388 0-3.51.14-2.81.282-5.62 1.126-7.167 2.252-.843.703-1.124.843-1.124 1.967v.42c-.703-1.405-.983-2.67-.28-3.094-.282-.842-8.71 5.485-7.025 6.05zm8.29 10.124c2.81-.704 5.62-1.125 8.57-1.125s5.76.42 8.57 1.124c-.562-1.69-4.215-2.954-8.57-2.954s-8.008 1.265-8.57 2.953zm3.653 21.093c0 1.125 1.124 2.11 3.372 2.67v-5.2c-1.967.42-3.09 1.124-3.372 2.53zm6.462 7.03v5.485c2.107-.28 3.23-1.125 3.23-2.672.002-1.265-1.122-2.11-3.23-2.812zM37 17.578c-18.826 0-34 16.313-34 32.345S18.174 72 37 72c18.827 0 34-6.047 34-22.078S55.827 17.577 37 17.577zm1.545 37.407v1.827s0 1.55-1.405 1.55c-1.545 0-1.686-1.55-1.686-1.55v-1.826c-5.62-.28-9.554-2.813-9.834-6.61 0-1.266.28-2.39 2.107-2.812 1.405-.14 3.09 0 3.372 1.688.28 2.39 1.685 3.796 4.354 4.218V45.42c-.843-.28-1.686-.562-2.53-.702-4.495-.984-6.743-2.953-6.603-6.047.282-3.514 3.373-5.483 9.133-5.905v-1.548s0-1.827 1.405-1.827c1.827 0 1.686 1.827 1.686 1.827v1.69c4.496.42 7.446 2.95 8.008 5.342.14.56.28 1.827-1.686 2.53-1.545.42-3.09-.14-3.372-1.546-.28-1.548-1.265-2.11-2.95-2.532v5.626c.42 0 1.123.14 1.966.422.702.14 1.264.28 1.545.42 3.934 1.266 5.76 3.095 5.76 5.486-.278 3.938-3.37 6.047-9.27 6.328zm0 0"/></symbol><symbol id="icon-cat-chongwu" viewBox="0 0 72 72"><path opacity=".7" fill-rule="evenodd" clip-rule="evenodd" d="M36.36 15.528c-1.99 0-3.716 1.594-3.716 3.72 0 2.125 1.726 3.718 3.717 3.718 2.126 0 3.85-1.593 3.85-3.72 0-2.124-1.724-3.718-3.85-3.718zm32.4 52.205c-.133 2.523-2.788 2.26-2.788 2.26H31.715c-1.727 0-3.32-.665-4.913-1.86l-.797.265c-10.09 3.586-9.826-2.523-9.826-2.523s-6.11 1.46-8.233-.798c-4.382-6.243 2.922-9.297 2.922-9.297s-5.712-.398-5.977-4.783C3.3 41.034 16.71 38.244 16.71 38.244s-4.38 6.774-1.992 12.753c1.46 3.453 4.25 5.313 6.24 6.11-.264-1.595-.13-3.188.134-4.65 1.594-8.5 6.24-10.095 8.896-11.423 2.257-1.196 7.17-3.188 7.17-3.188l.398-1.993s-5.84 1.063-9.16 1.063c-3.19.134-4.516-.132-5.71-2.258-1.064-2.126-3.984-9.033-5.046-13.814-1.062-4.917 1.46-5.182 1.46-5.182s8.498-3.985 13.145-6.11c4.78-2.127 9.56-1.064 9.56-1.064s2.923-2.523 7.038-5.313c3.984-2.79 6.11.265 6.11.265s1.858 1.196 6.107 18.73c4.382 17.402.266 39.85.266 39.85h1.594c4.645 0 5.84 2.658 5.84 5.713zm0 0"/></symbol><symbol id="icon-cat-ershouche" viewBox="0 0 72 72"><path opacity=".7" fill-rule="evenodd" clip-rule="evenodd" d="M58.5 43.423c-2.53 0-4.5 1.974-4.5 4.512 0 2.396 1.97 4.512 4.5 4.512 2.53 0 4.5-2.116 4.5-4.512 0-2.54-1.97-4.512-4.5-4.512zm-3.655-21.008c-3.938-6.908-14.485-6.767-14.485-6.767l-4.358-.283h.14-.14l-4.22.283s-10.546-.142-14.483 6.767C13.5 29.323 13.36 35 13.36 35h45.422s-.14-5.677-3.937-12.585zM9 47.935c0 2.396 1.97 4.512 4.5 4.512 2.392 0 4.5-2.116 4.5-4.512 0-2.538-2.108-4.512-4.5-4.512-2.53 0-4.5 1.973-4.5 4.512zm56.813-9.87c.562 2.678 2.25 13.816 1.827 21.008V62c0 .986-.703 2-1.687 2H55.548c-.845 0-1.688-1.014-1.688-2v-3H18.142v3c0 .986-.703 2-1.688 2H6.048c-.844 0-1.688-1.014-1.688-2v-2.785C3.938 51.6 5.767 40.04 6.048 38.065 3.235 37.924 0 37.924 0 35.104c0-5.36 5.063-5.5 5.063-5.5l2.672.282c0-.846.422-3.666 4.36-10.998 4.92-9.447 18.42-9.307 18.42-9.307l5.626-.14 5.344.14s13.5-.14 18.423 9.306c5.062 9.305 4.078 10.572 4.078 10.572l.14.424 2.813-.282s5.063.14 5.063 5.5c0 2.96-3.233 2.82-6.187 2.96zm0 0"/></symbol><symbol id="icon-cat-fangwu" viewBox="0 0 72 72"><path opacity=".7" fill-rule="evenodd" clip-rule="evenodd" d="M46 67v-.134V67zm-20.014-.134h-.137V67h.136v-.134zm-12.986 0h12.85V48.064c0-.812.683-1.993 1.502-1.993h17.143c.82 0 1.505 1.183 1.505 1.994v18.8h14c1.368 0 3-1.5 3-2.854V41.523L37.337 25.127c-.82-.272-1.778-.136-2.324-.136L10 41.39v22.62c0 1.356 1.77 2.856 3 2.856zm57.71-34.422c.546-.678.272-1.49-.41-2.033L37.747 9.544v-.136C37.475 9.135 36.654 9 35.97 9c-.82 0-1.504.135-1.778.407v.136L24 15.176V11.19c0-1.023-1.235-1.993-1.93-1.993H13c-.684 0-2 .997-2 2.99 0 4.957.216 7.248.216 12.127L1.642 30.41c-.684.543-.822 1.356-.41 2.034l4.24 6.504c.41.543.956.678 1.504.678L35.56 20.79v-.677l.547.27.547-.27v.676L65.24 39.625c.546-.135.956-.273 1.23-.678l4.24-6.504zm0 0"/></symbol><symbol id="icon-cat-fuwu" viewBox="0 0 72 72"><path opacity=".7" fill-rule="evenodd" clip-rule="evenodd" d="M20.847 48.982l-.133.266s.133-.133.133-.266zm30.174-.266l.266.53-.265-.53zm18.876-.17s-2.127-6.462-9.57-6.462c-7.445 0-8.907 7.27-8.907 7.27s-.268-.537-.665-1.48l.266.943c-.132-.404-.398-.81-.664-1.48-1.595-2.425-4.917-6.73-10.9-7.944v22.029c0 4.443-2.525 8.08-7.178 8.483-5.45.538-12.228-.942-12.362-10.77 0 .134.4-3.1 3.324-3.1 2.393 0 3.455 1.348 3.455 3.233 0 4.31 2.393 4.174 3.722 3.904 1.86-.404 2.127-1.884 2.393-4.31V39.392c-8.24 1.347-11.43 8.214-11.962 9.695l.93-2.423c-.93 1.48-1.196 2.692-1.196 2.692s-1.196-7.27-8.64-7.27c-7.576 0-9.835 7-9.835 7S1.042 35.35 5.693 27.272c4.652-8.078 14.622-16.156 25.787-16.156h1.33v-.135c-2.26-.134-5.317-.268 0-.268V9.366C32.81 7.48 34.27 6 36.132 6c1.86 0 3.323 1.48 3.323 3.366v1.346c4.786 0 2.26.135 0 .27v.134h1.063c11.165 0 21.134 8.078 25.786 16.156 4.653 8.08 3.59 21.275 3.59 21.275zm0-.095"/></symbol><symbol id="icon-cat-jianli" viewBox="0 0 72 72"><path opacity=".7" fill-rule="evenodd" clip-rule="evenodd" d="M55 12.21V35c0 .75-.126 1-.875 1H51v-2.164c0-2.375-2.25-4.25-4.5-4.5v-1.5c2.624-1 4.5-3.5 4.5-6.5 0-3.875-3.125-7-7-7s-7 3.125-7 7c0 3 1.874 5.5 4.5 6.5v1.5c-2.25.25-4.5 2.125-4.5 4.5V36h-3.625c-.75 0-1.376-.25-1.376-1V12.21c0-.75.25-1.21 1-1.21h21c.75 0 1 .46 1 1.21zm-36 42.5c0-.75.25-1.71 1-1.71h34c.75 0 1 .25 1 1v3c0 .752-.25 1-1 1H20c-.75 0-1-1.04-1-1.04v-2.25zm0-9c0-.75.25-1.71 1-1.71h34c.75 0 1 .25 1 1v3c0 .752-.25 1-1 1H20c-.75 0-1-1.04-1-1.04v-2.25zM59.623 68C60.875 68 62 67.375 62 66V6.376C62 5 60.875 4 59.623 4H12c-1.25 0-2 1-2 2.376V66c0 1.375.75 2 2 2h47.623zm0 0"/></symbol><symbol id="icon-cat-jiaoyu" viewBox="0 0 72 72"><path opacity=".7" fill-rule="evenodd" clip-rule="evenodd" d="M55.688 28.782l-2.812 8.807-2.954-8.808h-4.78l5.483 14.438-2.25 5.92h4.64l7.454-20.357h-4.782zm-11.813 6.063h-4.64V30.08h-4.22v4.765h-4.64v4.332h4.64v4.765h4.22v-4.765h4.64v-4.332zm-15.61-6.063h-5.343l-2.39 3.897-2.392-3.898h-5.344l5.063 7.073-5.626 8.086h5.344l2.954-4.62 3.094 4.62h5.343l-5.767-8.085 5.063-7.073zm33.75 26.567H9.986c-1.406 0-2.53-1.156-2.53-2.6V19.25c0-1.588 1.124-2.744 2.53-2.744h52.03c1.407 0 2.532 1.155 2.532 2.744V52.75c0 1.443-1.125 2.6-2.53 2.6zm6.33-39.564c0-1.73-1.267-3.032-2.955-3.032H6.61c-1.547 0-2.953 1.3-2.953 3.032V56.07c0 1.73 1.406 3.176 2.953 3.176h58.78c1.688 0 2.954-1.444 2.954-3.177V15.785zm0 47.214H3.656C1.687 63 0 61.268 0 59.246V12.754C0 10.734 1.688 9 3.657 9h64.688C70.313 9 72 10.734 72 12.754v46.492C72 61.268 70.313 63 68.344 63zm0 0"/></symbol><symbol id="icon-cat-quanzhi" viewBox="0 0 72 72"><path opacity=".7" fill-rule="evenodd" clip-rule="evenodd" d="M47 15.756c0-1.052-.938-1.972-2-1.972H27c-1.063 0-2 .92-2 1.972V20h22v-4.244zm2.28 22.873c0-1.315-1.062-2.63-2.39-2.63H25.11c-1.33 0-2.39 1.314-2.39 2.63v2.496L2 34.686v-12.62C2 20.75 3.063 20 4.523 20h13.57L18 11.812C18 9.71 20.062 8 22.188 8h27.094C51.54 8 54 9.71 54 11.812V20h13.477c1.46 0 2.523.686 2.523 2v12.816l-20.72 6.44V38.63zM29 40.206h14c1.063 0 2 .79 2 1.84v4.982c0 1.05-.937 1.97-2 1.97H29c-1.063 0-2-.92-2-1.97v-4.983c0-1.05.938-1.84 2-1.84zM67.477 64H4.523C3.063 64 2 62.948 2 61.634v-21.82l20.72 6.44v4.206c0 1.314 1.06 2.54 2.39 2.54h21.78c1.33 0 2.392-1.226 2.392-2.54v-4.075L70 39.943v21.69C70 62.948 68.938 64 67.477 64zm0 0"/></symbol><symbol id="icon-check-mark-circle" viewBox="0 0 72 72"><path opacity=".7" fill-rule="evenodd" clip-rule="evenodd" d="M58.822 28.858c0-.932-.155-1.553-.776-2.02l-4.037-4.035c-.467-.62-1.243-.933-2.02-.933-.776 0-1.397.312-1.862.933l-18.165 18.01-10.09-9.936c-.467-.622-1.087-.932-1.864-.932-.777 0-1.554.31-2.02.932l-4.036 3.882c-.622.62-.776 1.24-.776 2.016 0 .932.155 1.554.776 2.02l15.99 16.144c.623.466 1.242.776 2.02.776.775 0 1.552-.31 2.017-.776l24.066-24.063c.62-.622.776-1.243.776-2.02zM70 36c0 6.21-1.397 11.953-4.502 17.077-3.104 5.28-7.142 9.315-12.42 12.42C47.954 68.602 42.21 70 36 70c-6.21 0-11.955-1.398-17.078-4.503-5.278-3.104-9.314-7.14-12.42-12.42C3.397 47.953 2 42.21 2 36c0-6.21 1.397-11.954 4.502-17.078 3.105-5.278 7.142-9.315 12.42-12.42C24.045 3.397 29.79 2 36 2 42.21 2 47.954 3.396 53.078 6.5c5.278 3.104 9.315 7.142 12.42 12.42C68.603 24.046 70 29.79 70 36zm0 0"/></symbol><symbol id="icon-check-mark" viewBox="0 0 72 72"><path opacity=".7" fill-rule="evenodd" clip-rule="evenodd" d="M72 20.14c0 1.115-.327 2.226-1.305 3.02L37.14 56.034l-6.352 6.196c-.978.795-1.955 1.27-3.258 1.27-1.14 0-2.28-.475-3.095-1.27L1.305 39.677C.324 38.726 0 37.77 0 36.5c0-1.113.326-2.225 1.304-3.018l6.19-6.195c.975-.793 1.954-1.27 3.256-1.27 1.142 0 2.28.477 3.095 1.27L27.53 40.63l30.623-29.86c.815-.795 1.956-1.27 3.096-1.27 1.302 0 2.28.474 3.257 1.27l6.188 6.193C71.673 17.918 72 18.87 72 20.14zm0 0"/></symbol><symbol id="icon-clock" viewBox="0 0 72 72"><path opacity=".7" fill-rule="evenodd" clip-rule="evenodd" d="M45.98 52.27L31.626 37.776V18.5h8.75v15.722L52.27 45.98l-6.29 6.29zM36 1C16.724 1 1 16.722 1 36s15.723 35 35 35 35-15.722 35-35S55.277 1 36 1zm0 61.25C21.51 62.25 9.75 50.492 9.75 36S21.51 9.75 36 9.75c14.492 0 26.25 11.757 26.25 26.25S50.492 62.25 36 62.25zm0 0"/></symbol><symbol id="icon-cog" viewBox="0 0 72 72"><path opacity=".7" fill-rule="evenodd" clip-rule="evenodd" d="M69 42.188V29.812l-9.41-1.546c-.387-1.16-.902-2.32-1.417-3.48l5.542-7.734-8.766-8.766-7.735 5.542c-1.16-.516-2.32-1.03-3.48-1.418L42.187 3H29.813l-1.547 9.41c-1.16.387-2.32.9-3.48 1.417l-7.734-5.542-8.766 8.766 5.543 7.735c-.517 1.16-1.033 2.32-1.418 3.48L3 29.812v12.376l9.54 1.547c.386 1.16.772 2.32 1.288 3.35L8.285 54.95l8.766 8.765 7.865-5.543c1.03.516 2.19.902 3.35 1.29L29.814 69h12.375l1.546-9.54c1.16-.386 2.32-.772 3.352-1.288l7.863 5.543 8.765-8.765-5.542-7.864c.515-1.03.902-2.19 1.29-3.35L69 42.187zM36 44.25c-4.512 0-8.25-3.738-8.25-8.25 0-4.513 3.738-8.25 8.25-8.25 4.51 0 8.25 3.737 8.25 8.25 0 4.512-3.738 8.25-8.25 8.25zm0 0"/></symbol><symbol id="icon-delete-circle" viewBox="0 0 72 72"><path opacity=".7" fill-rule="evenodd" clip-rule="evenodd" d="M52.92 46.093c0-.778-.31-1.554-.93-2.02L44.073 36l7.918-8.073c.622-.465.932-1.242.932-2.018s-.31-1.4-.93-2.02l-3.883-3.88c-.622-.623-1.242-.933-2.02-.933-.775 0-1.552.31-2.017.932L36 27.926l-8.074-7.918c-.465-.623-1.243-.933-2.018-.933-.777 0-1.397.31-2.018.932l-3.88 3.88c-.623.62-.932 1.242-.932 2.02s.31 1.552.93 2.017L27.927 36l-7.917 8.074c-.623.465-.932 1.24-.932 2.02 0 .774.31 1.395.93 2.017l3.882 3.882c.62.62 1.24.93 2.018.93.775 0 1.553-.31 2.018-.93L36 44.075l8.073 7.917c.465.62 1.242.93 2.018.93.778 0 1.398-.31 2.02-.93l3.88-3.88c.622-.624.93-1.244.93-2.02zM70 36c0 6.21-1.397 11.954-4.503 17.078-3.105 5.278-7.14 9.316-12.42 12.42C47.954 68.603 42.21 70 36 70c-6.21 0-11.954-1.397-17.078-4.502-5.28-3.104-9.315-7.142-12.42-12.42C3.397 47.954 2 42.21 2 36s1.397-11.954 4.502-17.078c3.105-5.277 7.14-9.313 12.42-12.42C24.046 3.4 29.79 2 36 2c6.21 0 11.954 1.398 17.077 4.502 5.28 3.106 9.315 7.142 12.42 12.42C68.603 24.045 70 29.79 70 36zm0 0"/></symbol><symbol id="icon-delete" viewBox="0 0 72 72"><path opacity=".7" fill-rule="evenodd" clip-rule="evenodd" d="M65 54.707c0 1.2-.512 2.397-1.365 3.253l-6.653 6.67c-.854.855-2.047 1.37-3.412 1.37-1.195 0-2.388-.515-3.24-1.37L36 50.26 21.67 64.63c-.853.855-2.046 1.37-3.242 1.37-1.364 0-2.56-.515-3.41-1.37l-6.653-6.67C7.512 57.104 7 55.905 7 54.707c0-1.368.512-2.394 1.365-3.42l14.33-14.37-14.33-14.374C7.512 21.688 7 20.49 7 19.293c0-1.37.512-2.395 1.365-3.422l6.652-6.5C15.87 8.343 17.064 8 18.427 8c1.196 0 2.39.343 3.242 1.37L36 23.74 50.33 9.37C51.18 8.343 52.374 8 53.57 8c1.365 0 2.56.343 3.412 1.37l6.653 6.5C64.488 16.9 65 17.924 65 19.293c0 1.197-.512 2.396-1.365 3.25l-14.33 14.374 14.33 14.37c.853 1.027 1.365 2.052 1.365 3.42zm0 0"/></symbol><symbol id="icon-envelope" viewBox="0 0 72 72"><path opacity=".7" fill-rule="evenodd" clip-rule="evenodd" d="M62 12H10c-3.375 0-6 2.625-6 6v36c0 3.25 2.625 6 6 6h52c3.375 0 6-2.75 6-6V18c0-3.375-2.625-6-6-6zM9.5 56L8 54.5 24.5 38l1.5 1.5L9.5 56zm53 0L46 39.5l1.5-1.5L64 54.5 62.5 56zM38 42.626V44h-4v-1.375L8 18.5l2.5-2.5L36 39.625 61.5 16l2.5 2.5-26 24.125zm0 0"/></symbol><symbol id="icon-eye" viewBox="0 0 72 72"><path opacity=".7" fill-rule="evenodd" clip-rule="evenodd" d="M37 14C21.25 14 7.75 23.14 1 36.5 7.75 49.86 21.25 59 37 59s29.25-9.14 36-22.5C66.25 23.14 52.75 14 37 14zm17.72 11.953c4.217 2.672 7.874 6.328 10.546 10.547-2.672 4.22-6.33 7.875-10.547 10.547C49.374 50.422 43.327 52.25 37 52.25c-6.328 0-12.375-1.828-17.718-5.203-4.22-2.672-7.875-6.328-10.547-10.547 2.672-4.22 6.327-7.875 10.547-10.547.28-.14.563-.42.843-.563C19.42 27.36 19 29.47 19 31.578c0 9.984 8.016 18 18 18 9.985 0 18-8.016 18-18 0-2.11-.422-4.218-1.125-6.188.28.142.562.423.844.563zM37 29.328c0 3.797-2.953 6.75-6.75 6.75s-6.75-2.953-6.75-6.75c0-3.796 2.954-6.75 6.75-6.75S37 25.532 37 29.328zm0 0"/></symbol><symbol id="icon-fire" viewBox="0 0 72 72"><path opacity=".7" fill-rule="evenodd" clip-rule="evenodd" d="M22.942 73c-4.724-9.984-2.16-15.75 1.35-21.094 3.915-5.905 4.86-11.813 4.86-11.813s2.97 4.218 1.754 10.688c5.4-6.328 6.48-16.17 5.67-20.11C48.723 39.533 53.985 58.798 46.967 73c37.255-21.938 9.18-54.844 4.32-58.5 1.618 3.656 2.023 9.985-1.35 12.937C44.405 5.5 30.638 1 30.638 1c1.618 11.39-5.806 23.766-13.095 32.906-.27-4.5-.54-7.594-2.834-11.953-.542 8.297-6.48 14.906-8.1 23.203C4.315 56.266 8.23 64.42 22.942 73zm0 0"/></symbol><symbol id="icon-flag" viewBox="0 0 72 72"><path opacity=".7" fill-rule="evenodd" clip-rule="evenodd" d="M55.2 14.522c5.066 0 9.733-2.784 12.8-4.772v39.374c-3.067 2.12-7.734 4.905-12.8 4.905-5.067 0-9.734-1.458-12.8-3.58-3.067-2.12-7.734-3.58-12.8-3.58-5.068 0-9.534 2.52-12.6 4.64V12.004c3.065-2.12 7.532-4.64 12.6-4.64 5.066 0 9.732 1.46 12.8 3.58 3.066 2.12 7.733 3.58 12.8 3.58zM8 3.122c2.4 0 4 1.855 4 4.24V71H4V7.363C4 4.978 5.6 3.12 8 3.12zm0 0"/></symbol><symbol id="icon-heart" viewBox="0 0 72 72"><path opacity=".7" fill-rule="evenodd" clip-rule="evenodd" d="M69.264 27.036c0 5.566-2.448 10.616-6.187 14.11L42.452 61.864c-2.063 2.07-4.126 4.142-6.188 4.142-2.063 0-4.125-2.07-6.188-4.142L9.45 41.147c-3.737-3.495-6.187-8.545-6.187-14.11 0-10.488 8.508-19.032 18.95-19.032 5.542 0 10.57 2.46 14.05 6.214 3.48-3.755 8.508-6.215 14.05-6.215 10.443 0 18.95 8.544 18.95 19.03zm0 0"/></symbol><symbol id="icon-image" viewBox="0 0 72 72"><path opacity=".7" d="M55 31.88c3.938 0 7-3.038 7-6.94 0-3.905-3.062-6.94-7-6.94s-7 3.035-7 6.94c0 3.902 3.063 6.94 7 6.94zM49.08 35.128l-8.435 6.568-16.863-21.89L10 55h52zM0 8v58h72V8H0zm64.216 50.216H7.784V15.784h56.433v42.432z"/></symbol><symbol id="icon-info" viewBox="0 0 72 72"><path opacity=".7" fill-rule="evenodd" clip-rule="evenodd" d="M36 2C17.273 2 2 17.274 2 36s15.273 34 34 34 34-15.274 34-34S54.727 2 36 2zm-4 14h8v8h-8v-8zm13 41H27v-4h4V36h-4v-5h14v22h4v4zm0 0"/></symbol><symbol id="icon-lightning" viewBox="0 0 72 72"><path opacity=".7" fill-rule="evenodd" clip-rule="evenodd" d="M22 2L10 37h20L13.306 70 68 27H38L50 2H22zm0 0"/></symbol><symbol id="icon-location" viewBox="0 0 72 72"><g fill-rule="evenodd" clip-rule="evenodd"><path opacity=".7" d="M39.277 0C24.58 0 12.555 12.28 12.555 25c0 23.125 26.722 47 26.722 47S66 48.125 66 25C66 12.28 53.975 0 39.277 0zM39 39c-8.266 0-15-6.737-15-15 0-8.265 6.734-15 15-15s15 6.735 15 15c0 8.263-6.734 15-15 15zM39 14c-5.483 0-10 4.515-10 10s4.517 10 10 10c5.484 0 10-4.515 10-10s-4.516-10-10-10z"/></g></symbol><symbol id="icon-loop" viewBox="0 0 72 72"><path opacity=".7" fill-rule="evenodd" clip-rule="evenodd" d="M69 9.76v18.703c0 .73-.146 1.315-.73 1.9-.585.584-1.17.73-1.9.73H47.667c-1.17 0-1.9-.438-2.484-1.606-.438-1.024-.292-2.047.585-2.923l5.844-5.7c-4.09-3.8-9.06-5.698-14.612-5.698-2.922 0-5.7.584-8.33 1.607-2.63 1.17-4.82 2.63-6.72 4.675-2.046 1.9-3.507 4.092-4.676 6.723-1.023 2.632-1.607 5.408-1.607 8.33 0 2.922.583 5.7 1.607 8.33 1.17 2.63 2.63 4.82 4.675 6.72 1.9 2.046 4.09 3.508 6.72 4.677 2.63 1.023 5.408 1.608 8.33 1.608 3.36 0 6.43-.73 9.352-2.192 2.923-1.315 5.552-3.36 7.452-6.138.292-.146.584-.438 1.023-.438.437 0 .73.146 1.02.438l5.7 5.7c.293.29.44.437.44.875 0 .293-.147.585-.293.877-3.07 3.653-6.722 6.576-11.106 8.62C46.352 67.625 41.823 68.5 37 68.5c-4.383 0-8.475-.73-12.42-2.482-3.946-1.755-7.452-3.945-10.228-6.87-2.924-2.774-5.115-6.282-6.868-10.227C5.73 44.976 5 40.884 5 36.5c0-4.383.73-8.475 2.484-12.42s3.944-7.453 6.868-10.228c2.776-2.924 6.282-5.115 10.228-6.87C28.525 5.23 32.617 4.5 37 4.5c4.09 0 8.036.73 11.836 2.19 3.8 1.607 7.307 3.8 10.23 6.576L64.47 7.86c.877-.877 1.754-1.023 2.923-.585C68.56 7.86 69 8.59 69 9.76zm0 0"/></symbol><symbol id="icon-minus-circle" viewBox="0 0 72 72"><path opacity=".7" fill-rule="evenodd" clip-rule="evenodd" d="M55 40v-8c0-.776-1.12-2-1.88-2H18.83c-.76 0-1.83 1.224-1.83 2v8c0 .776 1.07 2 1.83 2h34.29c.76 0 1.88-1.224 1.88-2zm15-4c0 6.21-1.397 11.955-4.502 17.078-3.104 5.278-7.14 9.314-12.42 12.42C47.955 68.603 42.212 70 36.002 70c-6.21 0-11.954-1.397-17.077-4.502-5.278-3.105-9.314-7.142-12.42-12.42C3.397 47.955 2 42.21 2 36c0-6.21 1.397-11.954 4.503-17.077 3.105-5.28 7.142-9.314 12.42-12.42C24.046 3.397 29.79 2 36 2c6.21 0 11.954 1.397 17.078 4.502 5.278 3.106 9.315 7.142 12.42 12.42C68.602 24.047 70 29.79 70 36.003zm0 0"/></symbol><symbol id="icon-minus" viewBox="0 0 72 72"><path opacity=".7" fill-rule="evenodd" clip-rule="evenodd" d="M70 28.568V38c0 3-2 5-4.567 5H6.567C4 43 2 41 2 38v-9.432C2 27.382 4 24 6.567 24h58.865C68 24 70 27.382 70 28.568zm0 0"/></symbol><symbol id="icon-mobile" viewBox="0 0 72 72"><path opacity=".7" fill-rule="evenodd" clip-rule="evenodd" d="M53.108 0H17.63C13.89 0 11 4.165 11 7.833V65c0 3.81 2.89 6.974 6.63 6.974h35.478C56.846 71.974 61 68.81 61 65V7.833C61 4.165 56.846 0 53.108 0zM25 4h20v2H25V4zm11 63c-2.813 0-5-2.187-5-5s2.188-5 5-5c2.813 0 5 2.19 5 5s-2.187 5-5 5zm17-14H18V11.978h35V53zm2.764.496"/></symbol><symbol id="icon-pencil" viewBox="0 0 72 72"><path opacity=".7" fill-rule="evenodd" clip-rule="evenodd" d="M59.346 3.427c5.672 0 10.312 4.64 10.312 10.312 0 2.32-.773 4.51-2.062 6.187L63.47 24.05 49.034 9.615l4.125-4.125c1.676-1.29 3.866-2.063 6.188-2.063zM7.782 50.864L3.657 69.426 22.22 65.3l38.156-38.156L45.94 12.708 7.78 50.864zm42.025-23.977L20.932 55.763l-3.61-3.61L46.198 23.28l3.61 3.607zm0 0"/></symbol><symbol id="icon-phone" viewBox="0 0 72 72"><path opacity=".7" fill-rule="evenodd" clip-rule="evenodd" d="M50.934 42.4c-4.267 4.267-4.267 8.533-8.534 8.533s-8.533-4.267-12.8-8.534c-4.267-4.268-8.534-8.534-8.534-12.8s4.266-4.268 8.533-8.534C33.866 16.8 21.066 4 16.8 4 12.533 4 4 16.8 4 16.8c0 8.533 8.8 25.867 17.067 34.134C29.334 59.2 46.667 68 55.2 68c0 0 12.8-8.533 12.8-12.8 0-4.266-12.8-17.067-17.066-12.8zm0 0"/></symbol><symbol id="icon-pin-to-top" viewBox="0 0 72 72"><path opacity=".7" fill-rule="evenodd" clip-rule="evenodd" d="M72 2H0v12h35.602L13 36h14v34h18V36h14L36.266 14H72V2zm0 0"/></symbol><symbol id="icon-plus-circle" viewBox="0 0 68 68"><title>Shape</title><desc>Created with Sketch.</desc><path opacity=".7" fill-rule="evenodd" clip-rule="evenodd" d="M38.828 53.102c.55-.55.88-1.318.77-2.086l.11-11.308 11.308-.11c.768.11 1.536-.22 2.085-.768.55-.548.77-1.207.77-2.085v-5.49c0-.88-.22-1.537-.768-2.086-.55-.55-1.318-.88-2.086-.77l-11.308-.11-.11-11.307c.11-.768-.22-1.537-.768-2.085-.55-.55-1.207-.77-2.086-.768h-5.49c-.877 0-1.535.22-2.084.77-.55.548-.88 1.316-.77 2.084l-.11 11.307-11.307.112c-.768-.11-1.535.22-2.085.77-.548.547-.768 1.205-.77 2.084v5.49c0 .877.22 1.535.77 2.084.548.548 1.317.88 2.085.77l11.306.11.11 11.307c-.11.767.22 1.536.77 2.085.548.55 1.206.768 2.084.768h5.49c.88 0 1.536-.22 2.084-.768zM68 34c0 6.21-1.397 11.954-4.503 17.078-3.105 5.278-7.14 9.316-12.42 12.42C45.954 66.603 40.21 68 34 68c-6.21 0-11.954-1.397-17.078-4.502-5.28-3.104-9.315-7.142-12.42-12.42C1.397 45.954 0 40.21 0 34c0-6.21 1.397-11.954 4.502-17.078 3.105-5.277 7.14-9.313 12.42-12.42C22.046 1.4 27.79 0 34 0c6.21 0 11.954 1.398 17.077 4.502 5.28 3.106 9.315 7.142 12.42 12.42C66.603 22.045 68 27.79 68 34z"/></symbol><symbol id="icon-plus" viewBox="0 0 69 69"><title>Shape</title><desc>Created with Sketch.</desc><path opacity=".7" fill-rule="evenodd" clip-rule="evenodd" d="M63 34.264c0 1.21-.48 2.42-1.448 3.388-.846.847-2.057 1.327-3.266 1.327l-20.337-.032.028 20.34c0 1.207-.48 2.418-1.327 3.265-.965.967-2.177 1.448-3.386 1.447l-9.44-.013c-1.21-.003-2.424-.49-3.273-1.338-.968-.97-1.332-2.06-1.455-3.392l-.03-20.335-20.337-.032c-1.21 0-2.423-.487-3.27-1.336-.97-.97-1.335-2.06-1.458-3.39l.107-9.32c-.124-1.332.48-2.422 1.446-3.388.847-.847 1.936-1.45 3.268-1.326l20.338.027-.03-20.335c-.123-1.332.48-2.42 1.326-3.267.968-.968 2.057-1.57 3.39-1.447L33.163-5c1.332.123 2.42.487 3.39 1.457.85.848 1.336 2.06 1.337 3.27l.032 20.338 20.336.03c1.332.123 2.42.486 3.39 1.456.85.85 1.337 2.062 1.34 3.273l.012 9.44z"/></symbol><symbol id="icon-post" viewBox="0 0 72 72"><path opacity=".7" fill-rule="evenodd" clip-rule="evenodd" d="M15.787 15C14.23 15 14 16.957 14 18.084v39.13C14 58.47 14.533 59 15.787 59H56c1.13 0 2-1.745 2-3V31c0-6 9-6 9 0v30.604C67 65.116 65.14 68 61 68H10c-3.638 0-5-2.257-5-5.894V13c0-3.638 2.885-7 6.523-7H41c5 0 5 9 0 9H15.787zm18.23 25.014H29L30.63 36l3.387 4.014zm10.016-3.68l-6.396 2.884L34 35.206l1.505-6.898L52.687 11l7.525 7.274-16.18 18.06zM66.33 11.687l-3.636 3.763-7.148-6.9 3.456-3.803c1.756-1.63 3.19-.084 3.19-.084l4.14 4.264c1.504 1.505 0 2.76 0 2.76zm0 .253"/></symbol><symbol id="icon-question" viewBox="0 0 68 68"><title>Shape</title><desc>Created with Sketch.</desc><path opacity=".7" fill-rule="evenodd" clip-rule="evenodd" d="M28 47h8v8h-8v-8zm17.334-30C47.724 17 50 18.86 50 21.25V34l-13.166 8H28v-3.75l14-8.5V25H19.833v-8h25.5zM0 34c0 18.728 15.274 34 34 34 18.727 0 34-15.272 34-34C68 15.273 52.727 0 34 0 15.274 0 0 15.273 0 34z"/></symbol><symbol id="icon-remove" viewBox="0 0 72 72"><path opacity=".7" fill-rule="evenodd" clip-rule="evenodd" d="M14.75 70H57l4.5-46h-51l4.25 46zM45 11V2H27v9H6v12.25L10.5 19h51.25L66 23.25V11H45zm-5 0h-8.25V6H40v5zm0 0"/></symbol><symbol id="icon-renew" viewBox="0 0 72 72"><g opacity=".7"><path d="M54.07 55.424c-5.36 5.504-12.804 6.66-18.105 6.66-13.664 0-24.78-11.117-24.78-24.782S22.3 12.52 35.964 12.52c4.982 0 9.887 1.516 13.938 4.287l-8.22 8.355L70.5 30.84 64.674 2l-8.303 8.444c-5.965-4.507-13-6.884-20.405-6.884-18.605 0-33.742 15.137-33.742 33.742S17.36 71.044 35.965 71.044c12.915 0 21.875-4.112 27.393-12.57l.78-1.197-9.675-2.258-.394.404zM32.387 24.8V36.3H20.625c-1.974 0-3.58 1.605-3.58 3.577s1.606 3.578 3.58 3.578h15.34c1.973 0 3.578-1.605 3.578-3.58V24.8c0-1.973-1.605-3.58-3.578-3.58s-3.578 1.607-3.578 3.58zM64.87 47.044l-5.136-.93c-1.958-.355-3.762.91-4.11 2.655-.257.944-.107 1.957.412 2.78.516.818 1.357 1.386 2.31 1.56l5.026.9c.225.042.447.062.665.062 1.683 0 3.138-1.17 3.444-2.715.56-2.043-.89-3.797-2.61-4.313zM67.362 36.838l-5.05-1.036c-1.98-.36-3.742.903-4.117 2.813-.24.854-.102 1.788.378 2.572.518.845 1.374 1.43 2.328 1.604l5.033 1.033c.228.045.462.068.697.068 1.703 0 3.153-1.178 3.448-2.803.353-1.937-.764-3.718-2.716-4.25z"/></g></symbol><symbol id="icon-safety-warn" viewBox="0 0 72 72"><path opacity=".7" fill-rule="evenodd" clip-rule="evenodd" d="M66.26 13.78c-.562-.562-1.405-.983-2.11-.983-6.33-.14-14.35-7.03-19.694-9.704C41.22 1.406 39.11.28 37.423 0h-.845c-1.688.28-3.798 1.406-7.174 3.093C24.2 5.766 16.18 12.656 9.85 12.797c-.703 0-1.547.422-2.11.984-.563.704-.845 1.548-.704 2.393C8.302 44.157 18.29 61.593 35.594 71.58c.422.28.984.42 1.406.42s.984-.14 1.407-.42c17.304-9.986 27.29-27.423 28.557-55.407.14-.845-.14-1.69-.703-2.392zm-33.523 2.095h8.525c.14 0 .422.28.422.42l-.563 24.89c0 .143-.14.424-.28.424H33.3c-.14 0-.28-.282-.28-.424l-.704-24.89c0-.14.28-.42.42-.42zM40.52 56.07c-.926.963-2.223 1.54-3.52 1.54-1.297 0-2.594-.576-3.52-1.54-.925-.96-1.482-2.114-1.482-3.46s.557-2.69 1.483-3.653c.926-.96 2.223-1.347 3.52-1.347 1.296 0 2.593.385 3.52 1.347.926.962 1.482 2.308 1.482 3.653 0 1.346-.556 2.5-1.482 3.46z"/></symbol><symbol id="icon-safety" viewBox="0 0 72 72"><path opacity=".7" fill-rule="evenodd" clip-rule="evenodd" d="M65.26 13.78c-.562-.56-1.406-.983-2.11-.983-6.33-.14-14.35-7.03-19.694-9.704C40.22 1.407 38.11.283 36.42 0h-.842c-1.69.282-3.8 1.407-7.035 3.093C23.2 5.766 15.18 12.656 8.85 12.797c-.703 0-1.548.422-2.11.984-.563.705-.845 1.55-.705 2.39C7.3 44.157 17.29 61.594 34.592 71.58c.423.28.986.422 1.408.422.42 0 .983-.14 1.407-.422 17.303-9.984 27.29-27.422 28.557-55.407.14-.84-.14-1.686-.703-2.39zM26.013 29.813l8.723 8.86L46.55 23.766l6.19 6.75-18.71 17.297L20.527 36.42l5.486-6.608zm0 0"/></symbol><symbol id="icon-search" viewBox="0 0 72 72"><path opacity=".7" fill-rule="evenodd" clip-rule="evenodd" d="M69.083 60.617L52.537 46.533c-1.777-1.642-3.555-2.324-5.06-2.188 3.966-4.648 6.29-10.53 6.29-17.092C53.767 12.76 42.007 1 27.514 1S1.26 12.76 1.26 27.254c0 14.493 11.76 26.253 26.254 26.253 6.563 0 12.442-2.324 17.092-6.29-.136 1.504.548 3.282 2.188 5.06L60.878 68.82c2.324 2.737 6.29 2.873 8.75.548 2.325-2.462 2.188-6.426-.545-8.75zm-41.57-15.86c-9.707 0-17.5-7.795-17.5-17.503s7.793-17.502 17.5-17.502 17.503 7.794 17.503 17.502-7.794 17.502-17.502 17.502zm0 0"/></symbol><symbol id="icon-share" viewBox="0 0 72 72"><path opacity=".7" fill-rule="evenodd" clip-rule="evenodd" d="M54.89 49.052c3.277 0 6.087 1.095 8.428 3.443 2.34 2.19 3.59 5.165 3.59 8.607 0 3.287-1.25 6.104-3.59 8.452-2.34 2.35-5.15 3.446-8.43 3.446-3.277 0-6.087-1.097-8.428-3.445-2.342-2.348-3.59-5.165-3.59-8.452 0-.313 0-.782.156-1.25v-.94L22.266 46.39c-2.186 1.722-4.684 2.662-7.337 2.662-3.28 0-6.09-1.252-8.43-3.6-2.342-2.35-3.592-5.166-3.592-8.452 0-3.288 1.25-6.105 3.59-8.453 2.343-2.348 5.152-3.6 8.43-3.6 2.81 0 5.307.783 7.336 2.505L43.026 14.93v-.938c-.156-.47-.156-.784-.156-1.097 0-3.287 1.248-6.104 3.59-8.452C48.8 2.095 51.61 1 54.89 1c3.277 0 6.087 1.095 8.428 3.442 2.34 2.192 3.59 5.165 3.59 8.452 0 3.444-1.25 6.26-3.59 8.61-2.34 2.347-5.15 3.442-8.43 3.442-2.81 0-5.15-.783-7.18-2.504L26.792 34.965c0 .312.156 1.095.156 2.035 0 .782-.156 1.564-.156 1.877L47.71 51.4c1.872-1.566 4.37-2.348 7.18-2.348"/></symbol><symbol id="icon-star" viewBox="0 0 72 72"><path opacity=".7" fill-rule="evenodd" clip-rule="evenodd" d="M70 28.495L46.493 25.07 36 4 25.51 25.07 2 28.496l17 16.33L15.017 68 36 57.07 56.985 68 53 44.823l17-16.328zm0 0"/></symbol><symbol id="icon-tag" viewBox="0 0 72 72"><path opacity=".7" d="M40.13 12.58l19.528 19.68c-4.125 4.117-9.725 9.622-15.17 14.974-5.502 5.41-10.712 10.53-13.756 13.59-.256.08-.727.176-1.302.176H11V43.474c0-.755.24-1.55.407-1.877 4.006-4.04 11.728-11.842 18.54-18.73 4.03-4.07 7.74-7.823 10.182-10.287M40.147 3c-1.11 0-2.29.51-3.478 1.704C32.685 8.72 12.732 28.902 5.56 36.13 3.96 37.744 3 40.8 3 43.475V63.45C3 67.024 4.784 69 8.507 69H29.43c2.505 0 5.178-.724 6.66-2.22 6.273-6.32 23.432-23.015 31.387-31.03 2.216-2.232 1.864-5.09-.085-7.054L43.466 4.586C42.494 3.605 41.362 3 40.148 3z"/><circle cx="25" cy="47" r="7" opacity=".7"/></symbol><symbol id="icon-triangle-down" viewBox="0 0 72 72"><path opacity=".7" fill-rule="evenodd" clip-rule="evenodd" d="M0 18l36 36 36-36H0zm0 0"/></symbol><symbol id="icon-user" viewBox="0 0 72 72"><path opacity=".7" fill-rule="evenodd" clip-rule="evenodd" d="M67 58.51c0 3.572-1.08 6.366-3.24 8.54-2.158 2.02-4.934 2.95-8.48 2.95H16.72c-3.547 0-6.323-.93-8.483-2.95C6.08 64.877 5 62.083 5 58.51c0-1.55 0-3.104.155-4.5.155-1.553.308-3.106.617-4.813.307-1.708.616-3.417 1.08-4.813.46-1.553 1.233-2.95 2.004-4.347.77-1.398 1.697-2.64 2.622-3.57 1.08-1.088 2.313-1.864 3.855-2.484 1.388-.467 3.083-.777 4.935-.777.154 0 .77.31 1.85.932.927.62 2.006 1.396 3.24 2.172 1.234.776 2.776 1.397 4.78 2.02s3.856.932 5.86.932c2.006 0 3.857-.312 5.862-.933 2.004-.622 3.546-1.243 4.78-2.02 1.236-.776 2.314-1.552 3.24-2.172 1.08-.622 1.697-.932 1.85-.932 1.852 0 3.55.31 4.937.777 1.542.62 2.776 1.396 3.856 2.484.925.93 1.85 2.172 2.62 3.57.772 1.397 1.543 2.794 2.006 4.347.46 1.396.77 3.105 1.08 4.813.308 1.707.462 3.26.615 4.812.155 1.396.155 2.95.155 4.5zM52.965 18.923c0 4.813-1.696 8.694-4.936 12.11C44.636 34.292 40.626 36 36 36c-4.626 0-8.637-1.708-12.03-4.968-3.24-3.416-4.935-7.297-4.935-12.11 0-4.657 1.696-8.694 4.936-11.955C27.364 3.552 31.375 2 36 2c4.627 0 8.637 1.552 12.03 4.967 3.24 3.26 4.935 7.298 4.935 11.955zm0 0"/></symbol><symbol id="icon-users" viewBox="0 0 72 72"><path opacity=".7" fill-rule="evenodd" clip-rule="evenodd" d="M22.22 37c-4.08.143-7.313 1.706-9.985 4.837H7.313c-2.11 0-3.798-.427-5.204-1.565C.702 39.275 0 37.854 0 35.862c0-8.963 1.547-13.374 4.64-13.374.142 0 .705.142 1.69.71.843.57 2.108 1.14 3.655 1.707 1.406.428 2.953.71 4.36.71 1.687 0 3.374-.282 5.062-.852-.14.996-.14 1.85-.14 2.562 0 3.414.984 6.687 2.953 9.675zm40.218 24.184c0 2.988-.985 5.406-2.813 7.113-1.828 1.85-4.22 2.703-7.172 2.703H19.547c-2.953 0-5.344-.854-7.172-2.703-1.827-1.707-2.813-4.125-2.813-7.113 0-1.423.14-2.703.14-3.983.143-1.28.282-2.56.564-4.124.282-1.423.563-2.846.984-4.126.422-1.28.984-2.418 1.547-3.7.703-1.137 1.547-2.133 2.39-2.986s1.97-1.565 3.235-2.134c1.266-.427 2.672-.71 4.22-.71.14 0 .702.283 1.547.853.842.57 1.686 1.138 2.67 1.85 1.125.568 2.39 1.28 4.078 1.707 1.688.57 3.375.854 5.063.854s3.376-.284 5.064-.854c1.688-.427 2.953-1.14 4.078-1.707.985-.71 1.828-1.28 2.672-1.85s1.406-.854 1.547-.854c1.548 0 2.954.283 4.22.71 1.266.57 2.392 1.28 3.234 2.134.844.854 1.688 1.85 2.392 2.986.563 1.282 1.124 2.42 1.546 3.7.422 1.28.703 2.703.985 4.126.28 1.564.42 2.845.562 4.125-.003 1.28.138 2.56.138 3.984zm-38.39-48.51c0 2.702-.985 4.977-2.814 6.97-1.97 1.85-4.218 2.845-6.89 2.845-2.53 0-4.923-.997-6.75-2.846-1.83-1.993-2.814-4.268-2.814-6.97s.984-4.98 2.813-6.83S11.813 3 14.343 3c2.674 0 4.923.995 6.892 2.844 1.828 1.85 2.812 4.126 2.812 6.83zm26.296 14.653c0 3.982-1.406 7.396-4.218 10.242-2.813 2.845-6.188 4.267-10.126 4.267s-7.312-1.422-10.125-4.268c-2.813-2.847-4.22-6.26-4.22-10.243 0-4.126 1.407-7.54 4.22-10.386 2.813-2.844 6.188-4.267 10.125-4.267s7.313 1.423 10.126 4.268c2.812 2.846 4.218 6.26 4.218 10.387zM72 35.86c0 1.994-.703 3.415-2.11 4.41-1.405 1.14-3.093 1.566-5.202 1.566h-4.92c-2.674-3.13-5.908-4.694-9.986-4.837 1.97-2.99 2.953-6.26 2.953-9.674 0-.712 0-1.566-.14-2.562 1.687.57 3.375.853 5.062.853 1.406 0 2.953-.283 4.36-.71 1.546-.57 2.812-1.138 3.656-1.707.983-.57 1.546-.71 1.687-.71 3.093 0 4.64 4.41 4.64 13.37zm-4.78-23.187c0 2.703-.985 4.978-2.813 6.97-1.83 1.85-4.22 2.846-6.75 2.846-2.673 0-4.923-.997-6.89-2.846-1.83-1.993-2.814-4.268-2.814-6.97s.984-4.98 2.813-6.83C52.734 3.994 54.984 3 57.656 3c2.53 0 4.922.995 6.75 2.844 1.828 1.85 2.813 4.126 2.813 6.83zm0 0"/></symbol><symbol id="icon-vcard" viewBox="0 0 68 54"><title>Shape</title><desc>Created with Sketch.</desc><path opacity=".7" fill-rule="evenodd" clip-rule="evenodd" d="M6.774 0c-1.727 0-3.32 1.22-4.78 2.548C.663 3.876 0 5.47 0 7.328v40.907C0 50.61 1.89 54 4.722 54h58.556C65.138 54 68 49.962 68 48.235V7.33c0-1.86-.665-3.454-1.993-4.782C64.68 1.22 63.085 0 61.227 0H6.773zM30 39H9.833v-4H30v4zm0-11H9.833v-4H30v4zm0-11H10v-4h20v4zm31 19.85V43H37c0-4.1-.375-6.15 0-6.15 5.25-1.196 8.625-3.077 8.625-5.638 0-1.025-.94-2.563-2.626-4.955-1.688-2.392-2.626-4.954-2.626-7.69C40.374 12.078 43.188 9 49 9c5.812 0 8.625 3.076 8.625 9.567 0 2.735-.94 5.297-2.627 7.69-1.874 2.39-2.624 3.93-2.624 4.954 0 1.195.563 2.22 1.876 3.076 1.313 1.026 2.812 1.538 4.124 1.878l2.25.684H61z"/></symbol><symbol id="icon-view-item" viewBox="0 0 72 72"><path opacity=".7" fill-rule="evenodd" clip-rule="evenodd" d="M6 8h26v24H6V8zm0 32h26v24H6V40zM36 8h30v8H36V8zm0 16h30v8H36v-8zm0 16h30v8H36v-8zm0 16h30v8H36v-8zm0 .73"/></symbol><symbol id="icon-view-pic" viewBox="0 0 72 72"><path opacity=".7" fill-rule="evenodd" clip-rule="evenodd" d="M6 6h26v25H6V6zm34 0h26v25H40V6zm0 34h26v26H40V40zM6 40h26v26H6V40zm0 0"/></symbol><symbol id="icon-view-title" viewBox="0 0 72 72"><path opacity=".7" fill-rule="evenodd" clip-rule="evenodd" d="M7 58.444h60V67H7v-8.556zm0-17.11h60v8.556H7v-8.556zm0-17.226h60v8.554H7v-8.554zm0-17.11h60v8.556H7V7zm0 0"/></symbol><symbol id="icon-weibo" viewBox="0 0 72 72"><path opacity=".7" fill-rule="evenodd" clip-rule="evenodd" d="M27.19 53.73c.564-.982.703-1.827.423-2.81-.282-.986-.845-1.55-1.828-1.97-.844-.422-1.83-.422-2.954 0-.983.28-1.826.844-2.388 1.827-.563.845-.703 1.828-.563 2.672.28.983.842 1.687 1.827 2.108.843.422 1.827.422 2.952 0 1.125-.28 1.97-.983 2.53-1.827zm3.797-4.92c.14-.28.28-.702.14-.984-.14-.42-.42-.702-.702-.843-.422-.14-.843 0-1.125.14-.42.142-.703.282-.983.703-.423.845-.282 1.407.563 1.828.42.142.843.142 1.124 0 .42-.14.702-.422.983-.843zm6.89 4.36c-1.124 2.67-3.233 4.78-6.327 6.046-2.953 1.265-6.047 1.406-9 .42-2.81-.842-4.78-2.53-5.904-5.06-1.125-2.53-.984-4.923.28-7.594 1.267-2.39 3.234-4.358 6.048-5.484 2.812-1.265 5.623-1.547 8.437-.843 3.094.843 5.202 2.39 6.468 4.78 1.265 2.532 1.265 5.062 0 7.734zm12.655-6.47c-.28-2.53-1.547-4.78-3.656-6.75-2.11-2.107-4.92-3.514-8.295-4.498-3.515-.844-7.17-1.125-11.108-.844-5.905.703-10.967 2.53-14.763 5.765-3.94 3.094-5.767 6.75-5.345 10.547.14 2.67 1.406 4.92 3.516 6.89 2.11 1.968 4.922 3.374 8.438 4.358 3.374.984 7.03 1.266 10.967.844 6.046-.563 10.968-2.53 14.905-5.624 3.936-3.235 5.623-6.75 5.342-10.688zm12.373.142c0 1.828-.563 3.796-1.546 5.624-.985 1.97-2.392 3.797-4.36 5.483-1.97 1.827-4.218 3.374-6.75 4.78-2.67 1.406-5.623 2.53-9.14 3.375-3.515.702-7.03 1.125-10.826 1.125-3.796 0-7.453-.423-11.107-1.266-3.516-.984-6.75-2.11-9.562-3.797-2.953-1.546-5.203-3.516-6.89-6.047C.896 53.73.052 51.06.052 48.106c0-3.094.984-6.328 2.813-9.843 1.827-3.515 4.5-6.89 7.874-10.405 4.5-4.5 9.14-7.593 13.78-9.42 4.64-1.828 7.873-1.69 9.842.28 1.828 1.688 2.108 4.5.843 8.437-.14.28-.14.563 0 .703 0 .28.142.28.423.28.14.142.28.142.563 0 .14 0 .28 0 .564-.14h.14c3.797-1.687 7.03-2.39 9.983-2.39 2.813 0 4.922.843 6.047 2.39 1.266 1.688 1.266 4.077 0 7.172 0 .42-.14.703-.14.842 0 .142 0 .282.14.423.28.142.42.28.563.422.14 0 .28.14.703.14 1.405.564 2.812 1.126 4.077 1.97 1.266.702 2.25 1.828 3.234 3.233.843 1.406 1.405 2.954 1.405 4.642zm-3.092-25.03c1.125 1.266 1.968 2.673 2.25 4.36.28 1.687.28 3.233-.282 4.78-.14.563-.56.984-1.123 1.266-.563.28-1.266.422-1.828.14-.564-.14-1.126-.562-1.407-1.124-.28-.563-.28-1.125-.14-1.828.562-1.688.28-3.094-.985-4.358-1.125-1.406-2.53-1.828-4.22-1.406-.7.14-1.264 0-1.826-.422-.563-.28-.984-.845-.984-1.406-.14-.703 0-1.266.28-1.828s.845-.844 1.548-.983c1.546-.423 3.094-.282 4.78.14 1.546.56 2.812 1.405 3.937 2.67zm7.31-6.608c2.39 2.673 3.798 5.625 4.5 9 .704 3.374.563 6.608-.562 9.7-.14.704-.702 1.268-1.265 1.548-.703.423-1.406.423-2.11.28-.702-.28-1.264-.702-1.687-1.405-.28-.703-.422-1.405-.14-2.108.702-2.25.843-4.5.42-6.892-.562-2.39-1.546-4.5-3.233-6.326-1.687-1.83-3.655-3.234-5.905-3.938-2.39-.703-4.64-.703-7.03-.282-.703.14-1.406 0-2.11-.42-.562-.423-.982-.985-1.124-1.69-.14-.702 0-1.404.422-2.107.423-.562.985-.984 1.688-1.125 3.234-.703 6.608-.563 9.843.422s6.044 2.81 8.294 5.342zm0 0"/></symbol><symbol id="icon-windows" viewBox="0 0 72 72"><path opacity=".7" fill-rule="evenodd" clip-rule="evenodd" d="M1 33.667v-22.75l28-3.79v26.54H1zm32.666-27.27L71 1v32.667H33.666V6.397zM71 38.332V71l-37.334-5.25V38.333H71zM29 65.167l-28-3.79V38.332h28v26.834zm0 0"/></symbol></svg>