<?xml version="1.0" encoding="utf-8"?>
<!-- Generator: Adobe Illustrator 16.0.2, SVG Export Plug-In . SVG Version: 6.00 Build 0)  -->
<!DOCTYPE svg PUBLIC "-//W3C//DTD SVG 1.1//EN" "http://www.w3.org/Graphics/SVG/1.1/DTD/svg11.dtd">
<svg version="1.1" id="图层_1" xmlns="http://www.w3.org/2000/svg" xmlns:xlink="http://www.w3.org/1999/xlink" x="0px" y="0px"
	 width="90px" height="90px" viewBox="0 0 90 90" enable-background="new 0 0 90 90" xml:space="preserve">
<path opacity="0.7" fill-rule="evenodd" clip-rule="evenodd" d="M69.809,31.664c-2.6,0-4.622,2.021-4.622,4.621v18.486
	c0,2.6,2.022,4.623,4.622,4.623s4.622-2.023,4.622-4.623V36.285C74.431,33.686,72.409,31.664,69.809,31.664L69.809,31.664
	L69.809,31.664z M14.352,31.664c-2.6,0-4.622,2.021-4.622,4.621v18.486c0,2.6,2.022,4.623,4.622,4.623s4.622-2.023,4.622-4.623
	V36.285C18.974,33.686,16.951,31.664,14.352,31.664L14.352,31.664L14.352,31.664z M21.284,61.704c0,3.899,3.033,6.932,6.932,6.932
	h2.311v9.243c0,2.6,2.022,4.621,4.622,4.621c2.599,0,4.621-2.021,4.621-4.621v-9.243h4.622v9.243c0,2.6,2.021,4.621,4.621,4.621
	c2.599,0,4.622-2.021,4.622-4.621v-9.243h2.31c3.899,0,6.933-3.033,6.933-6.932V36.285H21.284V61.704L21.284,61.704z M50.602,15.056
	l3.033-5.632c0.144-0.289,0-0.723-0.289-0.867c-0.289-0.145-0.723,0-0.867,0.289l-2.888,5.777c-2.311-1.012-4.911-1.445-7.51-1.445
	s-5.199,0.433-7.509,1.445l-2.889-5.777c-0.145-0.289-0.578-0.434-0.866-0.289c-0.289,0.145-0.434,0.578-0.289,0.867l3.033,5.632
	c-6.644,2.889-11.265,9.243-12.131,16.608h41.304C61.866,24.299,57.244,17.944,50.602,15.056L50.602,15.056L50.602,15.056z
	 M32.837,28.054c-1.877,0-3.322-1.444-3.322-3.321c0-1.878,1.445-3.322,3.322-3.322c1.878,0,3.322,1.444,3.322,3.322
	C36.159,26.609,34.715,28.054,32.837,28.054L32.837,28.054L32.837,28.054z M51.323,28.054c-1.877,0-3.322-1.444-3.322-3.321
	c0-1.878,1.444-3.322,3.322-3.322c1.878,0,3.321,1.444,3.321,3.322C54.645,26.609,53.201,28.054,51.323,28.054L51.323,28.054
	L51.323,28.054z M51.323,28.054"/>
</svg>
