<?xml version="1.0" encoding="utf-8"?>
<!-- Generator: Adobe Illustrator 16.0.2, SVG Export Plug-In . SVG Version: 6.00 Build 0)  -->
<!DOCTYPE svg PUBLIC "-//W3C//DTD SVG 1.1//EN" "http://www.w3.org/Graphics/SVG/1.1/DTD/svg11.dtd">
<svg version="1.1" id="图层_1" xmlns="http://www.w3.org/2000/svg" xmlns:xlink="http://www.w3.org/1999/xlink" x="0px" y="0px"
	 width="72px" height="72px" viewBox="0 0 72 72" enable-background="new 0 0 72 72" xml:space="preserve">
<path opacity="0.7" fill-rule="evenodd" clip-rule="evenodd" d="M64.5,24c-2.531,0-4.5,1.968-4.5,4.5v18C60,49.03,61.969,51,64.5,51
	s4.5-1.97,4.5-4.501v-18C69,25.968,67.031,24,64.5,24L64.5,24L64.5,24z M7.5,23.529c-2.531,0-4.5,1.969-4.5,4.5v17.999
	c0,2.531,1.969,4.501,4.5,4.501s4.5-1.97,4.5-4.501V28.029C12,25.498,10.031,23.529,7.5,23.529L7.5,23.529L7.5,23.529z
	 M15.204,53.204c0,3.899,3.033,6.932,6.932,6.932h2.311v7.243c0,2.6,2.022,4.621,4.622,4.621c2.599,0,4.621-2.021,4.621-4.621
	v-7.243h4.622v7.243c0,2.6,2.021,4.621,4.621,4.621c2.599,0,4.622-2.021,4.622-4.621v-7.243h2.31c3.899,0,6.933-3.033,6.933-6.932
	V27H15.204V53.204L15.204,53.204z M44.521,6.556l3.033-5.632c0.144-0.289,0-0.723-0.289-0.867c-0.289-0.145-0.723,0-0.867,0.289
	L43.51,6.123C41.199,5.111,38.6,4.678,36,4.678s-5.199,0.433-7.509,1.445l-2.889-5.777c-0.145-0.289-0.578-0.434-0.866-0.289
	c-0.289,0.145-0.434,0.578-0.289,0.867l3.033,5.632C20.835,9.444,16.215,15.635,15.349,23h41.304
	C55.786,15.635,51.164,9.444,44.521,6.556L44.521,6.556L44.521,6.556z M26.757,19.554c-1.877,0-3.322-1.444-3.322-3.321
	c0-1.878,1.445-3.322,3.322-3.322c1.878,0,3.322,1.444,3.322,3.322C30.079,18.109,28.635,19.554,26.757,19.554L26.757,19.554
	L26.757,19.554z M45.243,19.554c-1.877,0-3.322-1.444-3.322-3.321c0-1.878,1.444-3.322,3.322-3.322c1.878,0,3.321,1.444,3.321,3.322
	C48.564,18.109,47.121,19.554,45.243,19.554L45.243,19.554L45.243,19.554z M45.243,19.554"/>
</svg>
