<?xml version="1.0" encoding="utf-8"?>
<!-- Generator: Adobe Illustrator 16.0.2, SVG Export Plug-In . SVG Version: 6.00 Build 0)  -->
<!DOCTYPE svg PUBLIC "-//W3C//DTD SVG 1.1//EN" "http://www.w3.org/Graphics/SVG/1.1/DTD/svg11.dtd">
<svg version="1.1" id="图层_1" xmlns="http://www.w3.org/2000/svg" xmlns:xlink="http://www.w3.org/1999/xlink" x="0px" y="0px"
	 width="90px" height="90px" viewBox="0 0 90 90" enable-background="new 0 0 90 90" xml:space="preserve">
<path opacity="0.7" fill-rule="evenodd" clip-rule="evenodd" d="M62.503,48.749c-0.141-9.14,7.454-13.499,7.734-13.64
	c-4.219-6.188-10.827-7.031-13.218-7.173c-5.485-0.561-10.828,3.234-13.78,3.234c-2.813,0-7.172-3.234-11.813-3.093
	c-6.188,0.141-11.813,3.516-14.906,9c-6.327,11.108-1.688,27.42,4.5,36.279c3.094,4.36,6.75,9.28,11.39,9.14
	c4.641-0.14,6.329-2.953,11.812-2.953c5.485,0,7.032,2.953,11.953,2.813c4.921,0,8.016-4.361,10.968-8.859
	c3.516-5.062,4.922-9.984,4.922-10.126C72.065,63.232,62.503,59.576,62.503,48.749L62.503,48.749L62.503,48.749z M53.363,22.03
	c2.53-3.093,4.218-7.313,3.797-11.53c-3.657,0.141-8.016,2.39-10.546,5.484c-2.391,2.671-4.5,7.031-3.938,11.108
	C46.754,27.375,50.832,24.983,53.363,22.03L53.363,22.03L53.363,22.03z M53.363,22.03"/>
</svg>
