<?xml version="1.0" encoding="utf-8"?>
<!-- Generator: Adobe Illustrator 16.0.2, SVG Export Plug-In . SVG Version: 6.00 Build 0)  -->
<!DOCTYPE svg PUBLIC "-//W3C//DTD SVG 1.1//EN" "http://www.w3.org/Graphics/SVG/1.1/DTD/svg11.dtd">
<svg version="1.1" id="图层_1" xmlns="http://www.w3.org/2000/svg" xmlns:xlink="http://www.w3.org/1999/xlink" x="0px" y="0px"
	 width="90px" height="90px" viewBox="0 0 90 90" enable-background="new 0 0 90 90" xml:space="preserve">
<path opacity="0.7" fill-rule="evenodd" clip-rule="evenodd" d="M70.563,43.344c0-4.813-1.241-9.16-3.726-13.041L33.303,63.682
	c4.036,2.64,8.539,3.881,13.196,3.881c3.26,0,6.365-0.62,9.314-1.862c3.105-1.242,5.59-2.95,7.763-5.123
	c2.173-2.174,3.88-4.813,5.123-7.763C69.942,49.865,70.563,46.604,70.563,43.344L70.563,43.344L70.563,43.344z M26.317,56.697
	l33.533-33.535c-4.037-2.64-8.539-4.037-13.351-4.037c-4.347,0-8.384,1.088-12.11,3.261c-3.726,2.173-6.676,5.123-8.849,8.849
	c-2.019,3.726-3.106,7.763-3.106,12.11C22.435,48.156,23.678,52.503,26.317,56.697L26.317,56.697L26.317,56.697z M80.5,43.344
	c0,4.658-0.777,9.159-2.64,13.353c-1.864,4.19-4.193,7.917-7.298,10.866c-2.949,3.105-6.676,5.434-10.868,7.298
	c-4.191,1.862-8.538,2.639-13.196,2.639s-9.006-0.776-13.196-2.639c-4.192-1.864-7.918-4.192-10.868-7.298
	c-3.105-2.949-5.433-6.676-7.296-10.866c-1.863-4.194-2.639-8.695-2.639-13.353c0-4.659,0.775-9.005,2.639-13.197
	c1.863-4.346,4.192-7.917,7.296-11.022c2.95-2.95,6.677-5.433,10.868-7.141c4.19-1.863,8.539-2.795,13.196-2.795
	s9.005,0.932,13.196,2.795c4.192,1.708,7.919,4.19,10.868,7.141c3.105,3.104,5.434,6.676,7.298,11.022
	C79.723,34.339,80.5,38.686,80.5,43.344L80.5,43.344L80.5,43.344z M80.5,43.344"/>
</svg>
