<?xml version="1.0" encoding="utf-8"?>
<!-- Generator: Adobe Illustrator 16.0.2, SVG Export Plug-In . SVG Version: 6.00 Build 0)  -->
<!DOCTYPE svg PUBLIC "-//W3C//DTD SVG 1.1//EN" "http://www.w3.org/Graphics/SVG/1.1/DTD/svg11.dtd">
<svg version="1.1" id="图层_1" xmlns="http://www.w3.org/2000/svg" xmlns:xlink="http://www.w3.org/1999/xlink" x="0px" y="0px"
	 width="72px" height="72px" viewBox="0 0 72 72" enable-background="new 0 0 72 72" xml:space="preserve">
<path opacity="0.7" fill-rule="evenodd" clip-rule="evenodd" d="M60.063,36c0-4.791-1.241-9.118-3.726-12.981L22.803,56.246
	c4.036,2.627,8.539,3.863,13.196,3.863c3.26,0,6.365-0.618,9.314-1.854c3.105-1.237,5.59-2.937,7.763-5.1
	c2.173-2.164,3.88-4.791,5.123-7.728C59.442,42.492,60.063,39.246,60.063,36L60.063,36L60.063,36z M15.817,49.292L49.351,15.91
	c-4.037-2.628-8.539-4.019-13.351-4.019c-4.347,0-8.384,1.083-12.11,3.246c-3.726,2.163-6.676,5.1-8.849,8.808
	c-2.019,3.709-3.106,7.729-3.106,12.055C11.935,40.791,13.178,45.117,15.817,49.292L15.817,49.292L15.817,49.292z M70,36
	c0,4.637-0.777,9.117-2.64,13.292c-1.864,4.171-4.193,7.881-7.298,10.816c-2.949,3.091-6.676,5.409-10.868,7.265
	C45.004,69.227,40.657,70,36,70s-9.006-0.773-13.196-2.626c-4.192-1.855-7.918-4.174-10.868-7.265
	c-3.105-2.936-5.433-6.646-7.296-10.816C2.775,45.117,2,40.637,2,36c0-4.637,0.775-8.964,2.639-13.137
	c1.863-4.327,4.192-7.882,7.296-10.972c2.95-2.937,6.677-5.408,10.868-7.108C26.994,2.928,31.342,2,36,2s9.005,0.928,13.196,2.783
	c4.192,1.7,7.919,4.171,10.868,7.108c3.105,3.09,5.434,6.646,7.298,10.972C69.223,27.036,70,31.363,70,36L70,36L70,36z M70,36"/>
</svg>
