<?xml version="1.0" encoding="utf-8"?>
<!-- Generator: Adobe Illustrator 16.0.2, SVG Export Plug-In . SVG Version: 6.00 Build 0)  -->
<!DOCTYPE svg PUBLIC "-//W3C//DTD SVG 1.1//EN" "http://www.w3.org/Graphics/SVG/1.1/DTD/svg11.dtd">
<svg version="1.1" id="图层_1" xmlns="http://www.w3.org/2000/svg" xmlns:xlink="http://www.w3.org/1999/xlink" x="0px" y="0px"
	 width="72px" height="72px" viewBox="0 0 72 72" enable-background="new 0 0 72 72" xml:space="preserve">
<path opacity="0.7" fill-rule="evenodd" clip-rule="evenodd" d="M36,5c18.176,0,33,12.013,33,26.866
	c0,14.855-14.824,26.867-33,26.867c-1.805,0-3.48-0.128-5.156-0.388C23.753,65.45,15.246,66.742,7.125,67v-1.808
	c4.383-2.067,8.251-6.072,8.251-10.592c0-0.646,0-1.292-0.13-1.809C7.77,47.883,3,40.263,3,31.866C3,17.013,17.824,5,36,5L36,5L36,5
	z M36,5"/>
</svg>
