<?xml version="1.0" encoding="utf-8"?>
<!-- Generator: Adobe Illustrator 16.0.2, SVG Export Plug-In . SVG Version: 6.00 Build 0)  -->
<!DOCTYPE svg PUBLIC "-//W3C//DTD SVG 1.1//EN" "http://www.w3.org/Graphics/SVG/1.1/DTD/svg11.dtd">
<svg version="1.1" id="图层_1" xmlns="http://www.w3.org/2000/svg" xmlns:xlink="http://www.w3.org/1999/xlink" x="0px" y="0px"
	 width="72px" height="72px" viewBox="0 0 72 72" enable-background="new 0 0 72 72" xml:space="preserve">
<g>
	<path opacity="0.7" fill-rule="evenodd" clip-rule="evenodd" d="M29.199,46.883l-11.086-3.042l5.602,21.995
		c0.273,1.092,1.366,1.64,2.459,1.23l8.197-3.28c1.093-0.409,1.502-1.638,0.957-2.594L29.199,46.883z"/>
	<path opacity="0.7" fill-rule="evenodd" clip-rule="evenodd" d="M24.67,19.934c-0.683,3.143-0.956,6.832-0.956,11.066
		c0,4.235,0.273,7.923,0.956,10.929c19.126,3.962,32.377,13.935,32.377,13.935H63.2V6h-6.152C57.048,6,43.796,15.973,24.67,19.934z"
		/>
	<path opacity="0.7" fill-rule="evenodd" clip-rule="evenodd" d="M18.933,31c0-3.552,0.273-7.104,0.683-10.247
		c-3.142,0.411-11.79,0.683-11.79,0.683L4,27.995v6.011l3.826,6.42c0,0,8.647,0.274,11.79,0.684
		C19.206,37.967,18.933,34.552,18.933,31z"/>
	<rect x="66.114" y="22.596" opacity="0.7" fill-rule="evenodd" clip-rule="evenodd" width="3.886" height="15.544"/>
</g>
</svg>
