<?xml version="1.0" encoding="utf-8"?>
<!-- Generator: Adobe Illustrator 16.0.2, SVG Export Plug-In . SVG Version: 6.00 Build 0)  -->
<!DOCTYPE svg PUBLIC "-//W3C//DTD SVG 1.1//EN" "http://www.w3.org/Graphics/SVG/1.1/DTD/svg11.dtd">
<svg version="1.1" id="图层_1" xmlns="http://www.w3.org/2000/svg" xmlns:xlink="http://www.w3.org/1999/xlink" x="0px" y="0px"
	 width="90px" height="90px" viewBox="0 0 90 90" enable-background="new 0 0 90 90" xml:space="preserve">
<g>
	<path opacity="0.7" fill-rule="evenodd" clip-rule="evenodd" d="M37.699,55.383l-11.086-3.042l5.602,21.995
		c0.273,1.092,1.366,1.64,2.459,1.23l8.197-3.28c1.093-0.409,1.502-1.638,0.957-2.594L37.699,55.383z"/>
	<path opacity="0.7" fill-rule="evenodd" clip-rule="evenodd" d="M33.17,28.434c-0.683,3.143-0.956,6.832-0.956,11.066
		c0,4.235,0.273,7.923,0.956,10.929c19.126,3.962,32.377,13.935,32.377,13.935H71.7V14.5h-6.152
		C65.548,14.5,52.296,24.473,33.17,28.434z"/>
	<path opacity="0.7" fill-rule="evenodd" clip-rule="evenodd" d="M27.433,39.5c0-3.552,0.273-7.104,0.683-10.247
		c-3.142,0.411-11.79,0.683-11.79,0.683L12.5,36.495v6.011l3.826,6.42c0,0,8.647,0.274,11.79,0.684
		C27.706,46.467,27.433,43.052,27.433,39.5z"/>
	<rect x="74.614" y="31.096" opacity="0.7" fill-rule="evenodd" clip-rule="evenodd" width="3.886" height="15.544"/>
</g>
</svg>
