<?xml version="1.0" encoding="utf-8"?>
<!-- Generator: Adobe Illustrator 16.0.2, SVG Export Plug-In . SVG Version: 6.00 Build 0)  -->
<!DOCTYPE svg PUBLIC "-//W3C//DTD SVG 1.1//EN" "http://www.w3.org/Graphics/SVG/1.1/DTD/svg11.dtd">
<svg version="1.1" id="图层_1" xmlns="http://www.w3.org/2000/svg" xmlns:xlink="http://www.w3.org/1999/xlink" x="0px" y="0px"
	 width="90px" height="90px" viewBox="0 0 90 90" enable-background="new 0 0 90 90" xml:space="preserve">
<path opacity="0.7" fill-rule="evenodd" clip-rule="evenodd" d="M29.75,25.875c1.374,0,2.375-1.125,2.375-2.5V16
	c0-1.376-1-2.5-2.375-2.5c-1.376,0-2.501,1.124-2.501,2.5v7.375C27.249,24.75,28.374,25.875,29.75,25.875L29.75,25.875L29.75,25.875
	z M59.25,25.875c1.374,0,2.499-1.125,2.499-2.5V16c0-1.376-1.125-2.5-2.499-2.5c-1.376,0-2.375,1.124-2.375,2.5v7.375
	C56.875,24.75,57.874,25.875,59.25,25.875L59.25,25.875L59.25,25.875z M66.5,69.5H22.796c-1.376,0-2.501-1.624-2.501-3V34.416H69.5
	c0,0,0,31.084,0,32.084S68.5,69.5,66.5,69.5z M69.124,19.5H64.5v3.875c0,2.625-2.5,4.875-5.25,4.875
	c-2.751,0-4.876-2.25-4.876-4.875V19.5h-19.75v5c0,2.625-2.125,3.75-4.874,3.75c-2.75,0-5.25-1.125-5.25-3.75v-5h-4.625
	c-4.126,0-7.375,2.25-7.375,6.375v44.249c0,4.126,3.249,7.375,7.375,7.375h49.25c4,0,7.376-3.249,7.376-7.375V25.875
	C76.5,21.75,73.249,19.5,69.124,19.5L69.124,19.5L69.124,19.5z M69.124,19.5 M33.5,49.5h-8v-8h8V49.5z M48.5,49.5h-8v-8h8V49.5z
	 M63.5,49.5h-8v-8h8V49.5z M33.5,62.5h-8v-8h8V62.5z M48.5,62.5h-8v-8h8V62.5z M63.5,62.5h-8v-8h8V62.5z"/>
</svg>
