<?xml version="1.0" encoding="utf-8"?>
<!-- Generator: Adobe Illustrator 16.0.2, SVG Export Plug-In . SVG Version: 6.00 Build 0)  -->
<!DOCTYPE svg PUBLIC "-//W3C//DTD SVG 1.1//EN" "http://www.w3.org/Graphics/SVG/1.1/DTD/svg11.dtd">
<svg version="1.1" id="图层_1" xmlns="http://www.w3.org/2000/svg" xmlns:xlink="http://www.w3.org/1999/xlink" x="0px" y="0px"
	 width="72px" height="72px" viewBox="0 0 72 72" enable-background="new 0 0 72 72" xml:space="preserve">
<path opacity="0.7" fill-rule="evenodd" clip-rule="evenodd" d="M21.078,17C22.769,17,24,15.909,24,14.576V7.424
	C24,6.09,22.769,5,21.078,5C19.384,5,18,6.09,18,7.424v7.151C18,15.909,19.384,17,21.078,17L21.078,17L21.078,17z M50.924,17
	C52.615,17,54,15.909,54,14.576V7.424C54,6.09,52.615,5,50.924,5C49.23,5,48,6.09,48,7.424v7.151C48,15.909,49.23,17,50.924,17
	L50.924,17L50.924,17z M58,61H14.296c-1.376,0-2.501-1.624-2.501-3V25.916H61c0,0,0,31.084,0,32.084S60,61,58,61z M60.624,11H56
	v3.742c0,2.534-2.5,4.707-5.25,4.707c-2.751,0-4.876-2.173-4.876-4.707V11h-19.75v4.828c0,2.534-2.125,3.621-4.874,3.621
	c-2.75,0-5.25-1.087-5.25-3.621V11h-4.625C7.249,11,4,13.172,4,17.155v42.724C4,63.863,7.249,67,11.375,67h49.25
	c4,0,7.376-3.137,7.376-7.121V17.155C68,13.172,64.749,11,60.624,11L60.624,11L60.624,11z M60.624,11 M25,41h-8v-8h8V41z M40,41h-8
	v-8h8V41z M55,41h-8v-8h8V41z M25,54h-8v-8h8V54z M40,54h-8v-8h8V54z M55,54h-8v-8h8V54z"/>
</svg>
