<?xml version="1.0" encoding="utf-8"?>
<!-- Generator: Adobe Illustrator 16.0.2, SVG Export Plug-In . SVG Version: 6.00 Build 0)  -->
<!DOCTYPE svg PUBLIC "-//W3C//DTD SVG 1.1//EN" "http://www.w3.org/Graphics/SVG/1.1/DTD/svg11.dtd">
<svg version="1.1" id="图层_1" xmlns="http://www.w3.org/2000/svg" xmlns:xlink="http://www.w3.org/1999/xlink" x="0px" y="0px"
	 width="72px" height="72px" viewBox="0 0 72 72" enable-background="new 0 0 72 72" xml:space="preserve">
<path opacity="0.7" fill-rule="evenodd" clip-rule="evenodd" d="M22,41c0,7.673,6.326,14,14.001,14C43.673,55,50,48.673,50,41
	s-6.327-14-13.999-14C28.326,27,22,33.327,22,41L22,41L22,41z M66.625,18H51.313c-1.094-4.307-2.188-9-6.562-9H27.25
	c-4.375,0-5.469,4.693-6.563,9H5.375C2.914,18,1,20.577,1,23v37.692C1,63.115,2.914,65,5.375,65h61.25
	C69.086,65,71,63.115,71,60.692V23C71,20.577,69.086,18,66.625,18L66.625,18L66.625,18z M36.001,60C25.564,60,17,51.437,17,41
	s8.564-19,19.001-19C46.437,22,55,30.563,55,41S46.437,60,36.001,60L36.001,60L36.001,60z M68,31H58v-6h10v5.309V31z M68,30.538"/>
</svg>
