<?xml version="1.0" encoding="utf-8"?>
<!-- Generator: Adobe Illustrator 16.0.2, SVG Export Plug-In . SVG Version: 6.00 Build 0)  -->
<!DOCTYPE svg PUBLIC "-//W3C//DTD SVG 1.1//EN" "http://www.w3.org/Graphics/SVG/1.1/DTD/svg11.dtd">
<svg version="1.1" id="图层_1" xmlns="http://www.w3.org/2000/svg" xmlns:xlink="http://www.w3.org/1999/xlink" x="0px" y="0px"
	 width="90px" height="90px" viewBox="0 0 90 90" enable-background="new 0 0 90 90" xml:space="preserve">
<path opacity="0.7" fill-rule="evenodd" clip-rule="evenodd" d="M30.281,49.438c0,7.792,6.425,14.219,14.22,14.219
	c7.792,0,14.218-6.426,14.218-14.219c0-7.793-6.426-14.22-14.218-14.22C36.707,35.218,30.281,41.645,30.281,49.438L30.281,49.438
	L30.281,49.438z M75.125,25.374H59.813c-1.094-4.374-2.188-8.749-6.562-8.749H35.75c-4.375,0-5.469,4.375-6.563,8.749H13.875
	c-2.461,0-4.375,1.915-4.375,4.376v39.375c0,2.46,1.914,4.375,4.375,4.375h61.25c2.461,0,4.375-1.915,4.375-4.375V29.75
	C79.5,27.289,77.586,25.374,75.125,25.374L75.125,25.374L75.125,25.374z M44.501,68.852c-10.664,0-19.415-8.75-19.415-19.414
	c0-10.665,8.751-19.415,19.415-19.415c10.664,0,19.413,8.75,19.413,19.415C63.914,60.102,55.165,68.852,44.501,68.852L44.501,68.852
	L44.501,68.852z M75.125,38.5h-8.75v-4.376h8.75V38.5L75.125,38.5z M75.125,38.5"/>
</svg>
