<?xml version="1.0" encoding="utf-8"?>
<!-- Generator: Adobe Illustrator 16.0.2, SVG Export Plug-In . SVG Version: 6.00 Build 0)  -->
<!DOCTYPE svg PUBLIC "-//W3C//DTD SVG 1.1//EN" "http://www.w3.org/Graphics/SVG/1.1/DTD/svg11.dtd">
<svg version="1.1" id="图层_1" xmlns="http://www.w3.org/2000/svg" xmlns:xlink="http://www.w3.org/1999/xlink" x="0px" y="0px"
	 width="72px" height="72px" viewBox="0 0 72 72" enable-background="new 0 0 72 72" xml:space="preserve">
<path opacity="0.7" fill-rule="evenodd" clip-rule="evenodd" d="M68.667,11.171c-2.434-0.727-5.011,0.728-5.727,3.2L62.655,15
	H19.853l-0.573-4.556C18.993,8.116,16.989,7,14.699,7H5c-2.577,0-4,1.406-4,4.025C1,13.645,2.423,15,5,15h5.691l4.008,33.857
	c0.286,2.328,2.29,4.075,4.581,4.075h38.937c2.004,0,3.865-1.311,4.438-3.348l9.16-32.594C72.531,14.518,71.1,11.899,68.667,11.171
	L68.667,11.171L68.667,11.171z M35,34v-5h9v5H35L35,34z M44,38.963V44h-9v-5.037H44L44,38.963z M35,25v-5h9v5H35L35,25z M20.424,20
	H30v5h-9.003L20.424,20L20.424,20z M21.569,29H30v5h-7.858L21.569,29L21.569,29z M22.715,38.963H30V44h-6.712L22.715,38.963
	L22.715,38.963z M54.781,44H49v-5.037h7.069L54.781,44L54.781,44z M57.358,34H49v-5h9.646L57.358,34L57.358,34z M59.934,25H49v-5
	h12.367L59.934,25L59.934,25z M44.475,64.572"/>
<path opacity="0.7" fill-rule="evenodd" clip-rule="evenodd" d="M16.861,65c0,3.938,3.062,7,7,7c3.938,0,7-3.062,7-7
	c0-3.937-3.063-7-7-7C19.923,58,16.861,61.064,16.861,65L16.861,65L16.861,65z"/>
<path opacity="0.7" fill-rule="evenodd" clip-rule="evenodd" d="M44.346,65c0,3.937,3.063,7,7,7c3.938,0,7-3.063,7-7
	c0-3.937-3.063-7-7-7C47.408,58,44.346,61.064,44.346,65L44.346,65L44.346,65z"/>
</svg>
