<?xml version="1.0" encoding="utf-8"?>
<!-- Generator: Adobe Illustrator 16.0.2, SVG Export Plug-In . SVG Version: 6.00 Build 0)  -->
<!DOCTYPE svg PUBLIC "-//W3C//DTD SVG 1.1//EN" "http://www.w3.org/Graphics/SVG/1.1/DTD/svg11.dtd">
<svg version="1.1" id="图层_1" xmlns="http://www.w3.org/2000/svg" xmlns:xlink="http://www.w3.org/1999/xlink" x="0px" y="0px"
	 width="90px" height="90px" viewBox="0 0 90 90" enable-background="new 0 0 90 90" xml:space="preserve">
<path opacity="0.7" fill-rule="evenodd" clip-rule="evenodd" d="M77.503,19.623c-2.456-0.734-5.057,0.735-5.779,3.23l-0.288,1.323
	H28.246l-0.579-5.286c-0.29-2.349-2.311-4.111-4.622-4.111H11.488c-2.6,0-4.622,2.055-4.622,4.698c0,2.643,2.022,4.7,4.622,4.7H19
	l4.045,33.476c0.288,2.349,2.311,4.112,4.622,4.112h39.291c2.022,0,3.9-1.323,4.479-3.378l9.244-32.89
	C81.402,23,79.958,20.358,77.503,19.623L77.503,19.623L77.503,19.623z M43.845,42.969V38.27h9.246v4.699H43.845L43.845,42.969z
	 M53.091,47.667v4.699h-9.246v-4.699H53.091L53.091,47.667z M43.845,33.572v-4.699h9.246v4.699H43.845L43.845,33.572z
	 M28.822,28.873h10.401v4.699H29.4L28.822,28.873L28.822,28.873z M29.978,38.27h9.246v4.699h-8.668L29.978,38.27L29.978,38.27z
	 M31.134,47.667h8.09v4.699h-7.512L31.134,47.667L31.134,47.667z M63.491,52.366h-5.778v-4.699h7.078L63.491,52.366L63.491,52.366z
	 M66.092,42.969h-8.379V38.27h9.678L66.092,42.969L66.092,42.969z M68.691,33.572H57.713v-4.699h12.424L68.691,33.572L68.691,33.572
	z M25.356,73.509c0,3.965,3.033,7.047,6.934,7.047c3.9,0,6.934-3.082,6.934-7.047c0-3.963-3.034-7.048-6.934-7.048
	C28.389,66.461,25.356,69.546,25.356,73.509L25.356,73.509L25.356,73.509z M53.091,73.509c0,3.965,3.033,7.047,6.933,7.047
	s6.934-3.082,6.934-7.047c0-3.963-3.034-7.048-6.934-7.048S53.091,69.546,53.091,73.509L53.091,73.509L53.091,73.509z
	 M53.091,73.509"/>
</svg>
