<?xml version="1.0" encoding="utf-8"?>
<!-- Generator: Adobe Illustrator 16.0.2, SVG Export Plug-In . SVG Version: 6.00 Build 0)  -->
<!DOCTYPE svg PUBLIC "-//W3C//DTD SVG 1.1//EN" "http://www.w3.org/Graphics/SVG/1.1/DTD/svg11.dtd">
<svg version="1.1" id="图层_1" xmlns="http://www.w3.org/2000/svg" xmlns:xlink="http://www.w3.org/1999/xlink" x="0px" y="0px"
	 width="72px" height="72px" viewBox="0 0 72 72" enable-background="new 0 0 72 72" xml:space="preserve">
<path opacity="0.7" fill-rule="evenodd" clip-rule="evenodd" d="M20.141,7.735c3.653,1.265,8.289,6.046,9.834,7.593
	c1.686-0.843,4.215-1.406,7.025-1.406c2.669,0,5.198,0.421,6.744,1.266c0.703-1.547,2.81-6.188,7.446-8.72
	C54,4.64,48.38,1.406,41.917,0.281c-0.562,0-2.389,4.641-3.091,4.641C38.545,4.922,39.669,0,39.248,0c-1.124,0-2.389,0-3.512,0.141
	c-2.81,0.281-5.62,1.125-7.166,2.251c-0.843,0.703-1.124,0.843-1.124,1.967v0.422c-0.703-1.406-0.983-2.672-0.281-3.095
	C26.884,0.844,18.455,7.171,20.141,7.735L20.141,7.735L20.141,7.735z M28.43,17.859c2.811-0.703,5.62-1.124,8.57-1.124
	c2.951,0,5.76,0.421,8.57,1.124c-0.562-1.688-4.215-2.953-8.57-2.953S28.992,16.171,28.43,17.859L28.43,17.859L28.43,17.859z
	 M32.083,38.953c0,1.125,1.124,2.109,3.372,2.671v-5.202C33.488,36.844,32.364,37.547,32.083,38.953L32.083,38.953L32.083,38.953z
	 M38.545,45.984v5.484c2.107-0.281,3.231-1.125,3.231-2.672C41.777,47.531,40.653,46.687,38.545,45.984L38.545,45.984L38.545,45.984
	z M37,17.577c-18.826,0-34,16.313-34,32.345S18.174,72,37,72c18.827,0,34-6.047,34-22.078S55.827,17.577,37,17.577L37,17.577
	L37,17.577z M38.545,54.984v1.827c0,0,0,1.548-1.405,1.548c-1.545,0-1.686-1.548-1.686-1.548v-1.827
	c-5.62-0.281-9.554-2.813-9.834-6.61c0-1.266,0.281-2.39,2.107-2.812c1.405-0.141,3.091,0,3.372,1.688
	c0.281,2.39,1.686,3.796,4.355,4.218v-6.047c-0.843-0.282-1.686-0.563-2.529-0.703c-4.496-0.984-6.744-2.953-6.604-6.047
	c0.281-3.515,3.372-5.484,9.132-5.906v-1.548c0,0,0-1.827,1.405-1.827c1.827,0,1.686,1.827,1.686,1.827v1.689
	c4.496,0.421,7.446,2.952,8.008,5.343c0.141,0.562,0.281,1.828-1.686,2.532c-1.545,0.42-3.091-0.142-3.372-1.547
	c-0.281-1.548-1.265-2.109-2.951-2.532v5.626c0.421,0,1.124,0.141,1.967,0.422c0.702,0.141,1.264,0.281,1.545,0.421
	c3.934,1.265,5.76,3.094,5.76,5.485C47.537,52.594,44.446,54.703,38.545,54.984L38.545,54.984L38.545,54.984z M38.545,54.984"/>
</svg>
