<?xml version="1.0" encoding="utf-8"?>
<!-- Generator: Adobe Illustrator 16.0.2, SVG Export Plug-In . SVG Version: 6.00 Build 0)  -->
<!DOCTYPE svg PUBLIC "-//W3C//DTD SVG 1.1//EN" "http://www.w3.org/Graphics/SVG/1.1/DTD/svg11.dtd">
<svg version="1.1" id="图层_1" xmlns="http://www.w3.org/2000/svg" xmlns:xlink="http://www.w3.org/1999/xlink" x="0px" y="0px"
	 width="90px" height="90px" viewBox="0 0 90 90" enable-background="new 0 0 90 90" xml:space="preserve">
<path opacity="0.7" fill-rule="evenodd" clip-rule="evenodd" d="M27.656,16.735c3.656,1.265,8.297,6.046,9.844,7.593
	c1.688-0.843,4.219-1.406,7.031-1.406c2.672,0,5.203,0.421,6.75,1.266c0.703-1.547,2.813-6.188,7.453-8.72
	c2.813-1.828-2.813-5.062-9.281-6.187c-0.563,0-2.391,4.641-3.094,4.641C46.078,13.922,47.203,9,46.781,9
	c-1.125,0-2.391,0-3.516,0.141c-2.813,0.281-5.625,1.125-7.172,2.251c-0.844,0.703-1.125,0.843-1.125,1.967v0.422
	c-0.703-1.406-0.984-2.672-0.281-3.095C34.406,9.844,25.969,16.171,27.656,16.735L27.656,16.735L27.656,16.735z M35.953,26.859
	c2.813-0.703,5.625-1.124,8.578-1.124s5.766,0.421,8.578,1.124c-0.563-1.688-4.219-2.953-8.578-2.953S36.516,25.171,35.953,26.859
	L35.953,26.859L35.953,26.859z M39.609,47.953c0,1.125,1.125,2.109,3.375,2.671v-5.202C41.016,45.844,39.891,46.547,39.609,47.953
	L39.609,47.953L39.609,47.953z M46.078,54.984v5.484c2.109-0.281,3.234-1.125,3.234-2.672
	C49.313,56.531,48.188,55.687,46.078,54.984L46.078,54.984L46.078,54.984z M44.531,26.577c-18.844,0-34.031,16.313-34.031,32.345
	S25.688,81,44.531,81s34.031-6.047,34.031-22.078S63.375,26.577,44.531,26.577L44.531,26.577L44.531,26.577z M46.078,63.984v1.827
	c0,0,0,1.548-1.406,1.548c-1.547,0-1.688-1.548-1.688-1.548v-1.827c-5.625-0.281-9.563-2.813-9.844-6.61
	c0-1.266,0.281-2.39,2.109-2.812c1.406-0.141,3.094,0,3.375,1.688c0.281,2.39,1.688,3.796,4.359,4.218v-6.047
	c-0.844-0.282-1.688-0.563-2.531-0.703c-4.5-0.984-6.75-2.953-6.609-6.047c0.281-3.515,3.375-5.484,9.141-5.906v-1.548
	c0,0,0-1.827,1.406-1.827c1.828,0,1.688,1.827,1.688,1.827v1.689c4.5,0.421,7.453,2.952,8.016,5.343
	c0.141,0.562,0.281,1.828-1.688,2.532c-1.547,0.42-3.094-0.142-3.375-1.547c-0.281-1.548-1.266-2.109-2.953-2.532v5.626
	c0.422,0,1.125,0.141,1.969,0.422c0.703,0.141,1.266,0.281,1.547,0.421c3.938,1.265,5.766,3.094,5.766,5.485
	C55.078,61.594,51.984,63.703,46.078,63.984L46.078,63.984L46.078,63.984z M46.078,63.984"/>
</svg>
