<?xml version="1.0" encoding="utf-8"?>
<!-- Generator: Adobe Illustrator 16.0.2, SVG Export Plug-In . SVG Version: 6.00 Build 0)  -->
<!DOCTYPE svg PUBLIC "-//W3C//DTD SVG 1.1//EN" "http://www.w3.org/Graphics/SVG/1.1/DTD/svg11.dtd">
<svg version="1.1" id="图层_1" xmlns="http://www.w3.org/2000/svg" xmlns:xlink="http://www.w3.org/1999/xlink" x="0px" y="0px"
	 width="72px" height="72px" viewBox="0 0 72 72" enable-background="new 0 0 72 72" xml:space="preserve">
<path opacity="0.7" fill-rule="evenodd" clip-rule="evenodd" d="M55.688,28.782l-2.812,8.807l-2.954-8.807h-4.781l5.484,14.438
	l-2.25,5.919h4.64l7.454-20.356H55.688L55.688,28.782z M43.875,34.845h-4.641V30.08h-4.219v4.765h-4.641v4.332h4.641v4.765h4.219
	v-4.765h4.641V34.845L43.875,34.845z M28.266,28.782h-5.344l-2.391,3.897l-2.391-3.897h-5.344l5.063,7.073l-5.625,8.086h5.344
	l2.954-4.62l3.094,4.62h5.343l-5.766-8.086L28.266,28.782L28.266,28.782z M62.016,55.349H9.985c-1.406,0-2.531-1.155-2.531-2.6
	V19.252c0-1.588,1.125-2.744,2.531-2.744h52.031c1.406,0,2.531,1.155,2.531,2.744v33.497C64.547,54.193,63.422,55.349,62.016,55.349
	L62.016,55.349L62.016,55.349z M68.344,15.786c0-1.731-1.266-3.032-2.954-3.032H6.61c-1.547,0-2.953,1.301-2.953,3.032v40.283
	c0,1.732,1.406,3.177,2.953,3.177H65.39c1.688,0,2.954-1.444,2.954-3.177V15.786L68.344,15.786L68.344,15.786z M68.344,63H3.657
	C1.688,63,0,61.268,0,59.246V12.754C0,10.734,1.688,9,3.657,9h64.688C70.313,9,72,10.734,72,12.754v46.492
	C72,61.268,70.313,63,68.344,63L68.344,63L68.344,63z M68.344,63"/>
</svg>
