<?xml version="1.0" encoding="utf-8"?>
<!-- Generator: Adobe Illustrator 16.0.0, SVG Export Plug-In . SVG Version: 6.00 Build 0)  -->
<!DOCTYPE svg PUBLIC "-//W3C//DTD SVG 1.1//EN" "http://www.w3.org/Graphics/SVG/1.1/DTD/svg11.dtd">
<svg version="1.1" id="图层_1" xmlns="http://www.w3.org/2000/svg" xmlns:xlink="http://www.w3.org/1999/xlink" x="0px" y="0px"
	 width="72px" height="72px" viewBox="0 0 72 72" enable-background="new 0 0 72 72" xml:space="preserve">
<g>
	<path d="M36.474,72c-7.629,0-20.064-2.413-22.817-4.971c-4.022-3.551-3.005-9.797-0.337-14.087l0.21-0.337
		c4.145-6.673,10.002-15.973,13.011-19.699c3.392-4.199,8.156-4.525,9.536-4.525c0.166,0,0.301,0.004,0.396,0.007
		c0.096-0.003,0.231-0.007,0.396-0.007c1.38,0,6.146,0.326,9.538,4.525c3.336,4.126,10.33,15.38,12.965,19.616l0.261,0.423
		c2.664,4.287,3.679,10.533-0.378,14.119C56.538,69.587,44.101,72,36.474,72z M36.078,32.397c-0.917,0-4.087,0.216-6.342,3.008
		c-3.201,3.963-10.369,15.5-12.724,19.292l-0.212,0.34c-1.824,2.936-2.578,7.097-0.377,9.037c1.431,1.28,11.793,3.913,20.051,3.913
		s18.625-2.635,20.019-3.877c2.233-1.972,1.481-6.138-0.342-9.073l-0.261-0.417c-2.348-3.779-9.496-15.279-12.675-19.214
		c-2.258-2.792-5.428-3.008-6.345-3.008l-0.396,0.018L36.078,32.397z M62.104,42.607L62.104,42.607c-0.45,0-0.9-0.049-1.338-0.146
		c-2.275-0.506-4.14-2.307-5.105-4.946c-0.862-2.366-0.979-5.236-0.328-8.088c1.278-5.574,5.171-9.623,9.256-9.623
		c0.45,0,0.898,0.05,1.333,0.144c4.493,1.002,6.88,6.727,5.44,13.037C70.084,38.562,66.191,42.607,62.104,42.607z M64.589,23.818
		c-1.821,0-4.354,2.483-5.274,6.493c-0.477,2.083-0.408,4.215,0.187,5.844c0.286,0.778,0.944,2.12,2.164,2.392
		c1.929,0.413,4.723-2.108,5.714-6.444c0.987-4.323-0.447-7.811-2.354-8.236C64.883,23.835,64.737,23.818,64.589,23.818z
		 M9.922,42.604c-4.075,0-7.976-4.035-9.27-9.591c-1.465-6.309,0.907-12.041,5.395-13.052c0.443-0.1,0.897-0.152,1.354-0.152
		c4.082,0,7.978,4.036,9.27,9.597c0.861,3.698,0.405,7.432-1.226,9.985c-1.04,1.625-2.479,2.683-4.168,3.061
		C10.834,42.552,10.378,42.604,9.922,42.604z M7.401,23.822c-0.149,0-0.298,0.02-0.443,0.05c-1.906,0.43-3.333,3.922-2.329,8.243
		c1.01,4.327,3.84,6.828,5.738,6.425c0.619-0.142,1.168-0.571,1.622-1.285c1.05-1.644,1.32-4.31,0.703-6.953
		C11.761,26.301,9.221,23.822,7.401,23.822z M45.99,25.653c-5.077,0-9.051-5.636-9.051-12.829S40.913,0,45.99,0
		c5.072,0,9.047,5.633,9.047,12.825S51.062,25.653,45.99,25.653z M45.99,4.015c-2.35,0-4.969,3.618-4.969,8.81
		c0,5.194,2.619,8.812,4.969,8.812c2.348,0,4.964-3.618,4.964-8.812C50.954,7.633,48.338,4.015,45.99,4.015z M25.863,25.653
		c-5.074,0-9.049-5.636-9.049-12.829S20.789,0,25.863,0c5.076,0,9.05,5.633,9.05,12.825S30.938,25.653,25.863,25.653z M25.863,4.015
		c-2.348,0-4.967,3.618-4.967,8.81c0,5.194,2.62,8.812,4.967,8.812c2.351,0,4.967-3.618,4.967-8.812
		C30.83,7.633,28.214,4.015,25.863,4.015z"/>
</g>
</svg>
