<?xml version="1.0" encoding="utf-8"?>
<!-- Generator: Adobe Illustrator 16.0.0, SVG Export Plug-In . SVG Version: 6.00 Build 0)  -->
<!DOCTYPE svg PUBLIC "-//W3C//DTD SVG 1.1//EN" "http://www.w3.org/Graphics/SVG/1.1/DTD/svg11.dtd">
<svg version="1.1" id="图层_1" xmlns="http://www.w3.org/2000/svg" xmlns:xlink="http://www.w3.org/1999/xlink" x="0px" y="0px"
	 width="72px" height="72px" viewBox="0 0 72 72" enable-background="new 0 0 72 72" xml:space="preserve">
<g>
	<path d="M4.495,66.718v-4.456c0-1.744,1.343-2.292,1.875-2.532l19.744-9.097c1.415-0.636,2.393-1.943,2.581-3.453
		c0.192-1.51-0.43-3.006-1.647-3.961c-4.671-3.661-6.844-11.709-6.844-15.997V16.251c0-4.586,8.176-10.967,15.743-10.967
		c7.634,0,15.727,6.281,15.727,10.967v10.971c0,4.223-1.794,12.302-6.616,16.009c-1.231,0.947-1.869,2.45-1.685,3.966
		c0.187,1.521,1.163,2.835,2.587,3.476l11.397,5.297l2.68-3.707l-12.199-5.582c6.229-4.785,8.332-14.188,8.332-19.458V16.251
		c0-7.265-10.297-15.357-20.223-15.357c-9.924,0-20.239,8.092-20.239,15.357v10.971c0,4.794,2.239,14.494,8.527,19.42L4.49,55.741
		c0,0-4.49,1.955-4.49,4.389v6.588c0,2.426,2.01,4.389,4.49,4.389H49.43l-3.65-4.389H4.495z"/>
	<path d="M71.138,50.51c-0.978-0.749-2.389-0.578-3.158,0.375l-9.608,14.317l-5.978-5.837c-0.878-0.855-2.298-0.855-3.179,0
		c-0.876,0.859-0.876,2.248,0,3.106l7.948,7.761c0.877,0.858,2.302,0.858,3.177,0c0.107-0.105,0.16-0.237,0.241-0.355
		c0.005-0.004,0.009-0.007,0.015-0.011L71.522,53.59C72.287,52.635,72.116,51.257,71.138,50.51z"/>
</g>
</svg>
