<?xml version="1.0" encoding="utf-8"?>
<!-- Generator: Adobe Illustrator 16.0.0, SVG Export Plug-In . SVG Version: 6.00 Build 0)  -->
<!DOCTYPE svg PUBLIC "-//W3C//DTD SVG 1.1//EN" "http://www.w3.org/Graphics/SVG/1.1/DTD/svg11.dtd">
<svg version="1.1" id="图层_1" xmlns="http://www.w3.org/2000/svg" xmlns:xlink="http://www.w3.org/1999/xlink" x="0px" y="0px"
	 width="72px" height="72px" viewBox="0 0 72 72" enable-background="new 0 0 72 72" xml:space="preserve">
<g>
	<path d="M43.882,41.545H5.471C2.454,41.545,0,39.112,0,36.123V13.289c0-2.988,2.454-5.421,5.471-5.421h38.411
		c3.015,0,5.472,2.433,5.472,5.421v22.834C49.354,39.112,46.896,41.545,43.882,41.545z M5.471,12.21c-0.6,0-1.09,0.484-1.09,1.079
		v22.834c0,0.596,0.49,1.079,1.09,1.079h38.411c0.602,0,1.09-0.483,1.09-1.079V13.289c0-0.595-0.488-1.079-1.09-1.079H5.471z"/>
	<path d="M11.016,57.547H5.471C2.454,57.547,0,55.116,0,52.127v-15.67h4.381v15.67c0,0.596,0.49,1.079,1.09,1.079h5.545V57.547z"/>
	<path d="M11.016,55.378"/>
	<path d="M23.794,55.378"/>
	<path d="M49.181,57.547H23.794v-4.341h25.387V57.547z"/>
	<path d="M48,55.378"/>
	<path d="M58.582,55.378"/>
	<path d="M66.527,57.547h-5.204v-4.341h5.204c0.603,0,1.09-0.483,1.09-1.079V38.132c-0.812-1.775-6.439-9.09-11.811-15.647h-8.644
		v-4.343h9.686c0.657,0,1.281,0.294,1.696,0.798C72,35.277,72,37.011,72,37.846v14.281C72,55.116,69.543,57.547,66.527,57.547z"/>
	<path d="M17.132,64.132c-4.881,0-8.854-3.935-8.854-8.771c0-4.838,3.973-8.773,8.854-8.773s8.853,3.936,8.853,8.773
		C25.985,60.197,22.014,64.132,17.132,64.132z M17.132,50.928c-2.466,0-4.472,1.99-4.472,4.433c0,2.441,2.006,4.433,4.472,4.433
		c2.464,0,4.472-1.991,4.472-4.433C21.604,52.918,19.596,50.928,17.132,50.928z"/>
	<path d="M54.661,64.132c-4.881,0-8.853-3.935-8.853-8.771c0-4.838,3.972-8.773,8.853-8.773c4.882,0,8.855,3.936,8.855,8.773
		C63.517,60.197,59.543,64.132,54.661,64.132z M54.661,50.928c-2.463,0-4.472,1.99-4.472,4.433c0,2.441,2.009,4.433,4.472,4.433
		c2.467,0,4.473-1.991,4.473-4.433C59.134,52.918,57.128,50.928,54.661,50.928z"/>
	<path d="M60.501,40.018c-0.646,0-1.288-0.283-1.719-0.826l-7.531-9.437c-0.75-0.94-0.592-2.306,0.357-3.049
		c0.95-0.744,2.328-0.584,3.077,0.356l7.529,9.437c0.752,0.942,0.594,2.306-0.357,3.048C61.455,39.863,60.976,40.018,60.501,40.018z
		"/>
</g>
</svg>
