<?xml version="1.0" encoding="utf-8"?>
<!-- Generator: Adobe Illustrator 16.0.0, SVG Export Plug-In . SVG Version: 6.00 Build 0)  -->
<!DOCTYPE svg PUBLIC "-//W3C//DTD SVG 1.1//EN" "http://www.w3.org/Graphics/SVG/1.1/DTD/svg11.dtd">
<svg version="1.1" id="图层_1" xmlns="http://www.w3.org/2000/svg" xmlns:xlink="http://www.w3.org/1999/xlink" x="0px" y="0px"
	 width="72px" height="72px" viewBox="0 0 72 72" enable-background="new 0 0 72 72" xml:space="preserve">
<g>
	<path d="M71.852,5.774c-0.192-0.481-0.563-0.862-1.03-1.063c-0.233-0.1-0.48-0.151-0.729-0.151h-7.63
		c-1.052,0-1.905,0.88-1.905,1.964c0,1.087,0.854,1.965,1.905,1.965h3.025l-6.15,6.335c-0.005,0.003-0.005,0.01-0.009,0.014
		c-2.622-1.569-5.592-2.42-8.696-2.42c-4.074,0-7.938,1.442-11.057,4.097c-3.116-2.655-6.979-4.097-11.057-4.097c0,0,0,0-0.005,0
		c-4.692,0-9.101,1.911-12.418,5.382c-6.823,7.142-6.823,18.76-0.002,25.901l2.104,2.209L0.56,64.087
		c-0.747,0.769-0.747,2.013,0,2.779c0.371,0.384,0.86,0.573,1.349,0.573c0.487,0,0.974-0.189,1.347-0.573l8.012-8.253
		c0.332,0.567,0.913,0.969,1.606,0.969h3.027l-4.372,4.505c-0.747,0.769-0.747,2.013,0,2.779c0.371,0.384,0.86,0.573,1.347,0.573
		s0.976-0.189,1.349-0.573l4.37-4.503v3.112c0,1.087,0.854,1.964,1.906,1.964c1.056,0,1.907-0.877,1.907-1.964v-7.041l17.96-18.509
		c0.745-0.766,0.745-2.01,0-2.777c-0.744-0.768-1.951-0.768-2.695,0L19.714,55.651H14.14l7.071-7.287
		c0.533,0.043,1.076-0.118,1.486-0.533c0.422-0.423,0.583-0.995,0.541-1.556l6.162-6.35c0.744-0.766,0.744-2.01,0-2.777
		c-0.747-0.768-1.951-0.768-2.7,0l-5.808,5.984l-2.078-2.186c-5.373-5.622-5.373-14.767,0-20.391
		c2.593-2.713,6.037-4.207,9.699-4.207h0.005c3.662,0,7.106,1.494,9.699,4.207c0.718,0.753,1.999,0.753,2.72,0
		c2.593-2.713,6.034-4.207,9.697-4.207c3.66,0,7.108,1.494,9.701,4.207c5.376,5.624,5.376,14.769-0.002,20.391L39.58,62.675
		l-6.924-7.257c-0.737-0.772-1.942-0.785-2.695-0.023c-0.751,0.762-0.762,2.003-0.023,2.778l8.28,8.682
		c0.358,0.376,0.847,0.585,1.357,0.585s1.002-0.209,1.362-0.585l22.113-23.15c6.832-7.14,6.832-18.761,0.003-25.903
		c-0.203-0.21-0.422-0.398-0.631-0.598l5.762-5.934v3.118c0,1.086,0.854,1.963,1.907,1.963c1.055,0,1.908-0.877,1.908-1.963V6.525
		C72,6.27,71.947,6.016,71.852,5.774z"/>
</g>
</svg>
