<?xml version="1.0" encoding="utf-8"?>
<!-- Generator: Adobe Illustrator 16.0.0, SVG Export Plug-In . SVG Version: 6.00 Build 0)  -->
<!DOCTYPE svg PUBLIC "-//W3C//DTD SVG 1.1//EN" "http://www.w3.org/Graphics/SVG/1.1/DTD/svg11.dtd">
<svg version="1.1" id="图层_1" xmlns="http://www.w3.org/2000/svg" xmlns:xlink="http://www.w3.org/1999/xlink" x="0px" y="0px"
	 width="72px" height="72px" viewBox="0 0 72 72" enable-background="new 0 0 72 72" xml:space="preserve">
<g>
	<path d="M60.752,66.303H11.251C5.048,66.303,0,61.266,0,55.08V23.654c0-6.187,5.048-11.223,11.25-11.223h49.501
		C66.955,12.432,72,17.467,72,23.654V55.08C72,61.266,66.955,66.303,60.752,66.303z M11.251,16.922c-3.722,0-6.75,3.02-6.75,6.732
		V55.08c0,3.711,3.029,6.73,6.75,6.73h49.501c3.722,0,6.748-3.02,6.748-6.73V23.654c0-3.712-3.026-6.732-6.748-6.732H11.251z"/>
	<path d="M47.252,57.324c-8.684,0-15.753-7.049-15.753-15.713c0-8.663,7.069-15.712,15.753-15.712S63,32.948,63,41.611
		C63,50.275,55.936,57.324,47.252,57.324z M47.252,30.388c-6.202,0-11.253,5.036-11.253,11.223c0,6.189,5.051,11.225,11.253,11.225
		S58.5,47.801,58.5,41.611C58.5,35.424,53.454,30.388,47.252,30.388z"/>
	<path d="M26.999,16.281c-1.24,0-2.248-1.004-2.248-2.245v-3.849h-9v3.849c0,1.241-1.007,2.245-2.252,2.245
		c-1.24,0-2.248-1.004-2.248-2.245V7.942c0-1.24,1.007-2.245,2.248-2.245h13.5c1.245,0,2.252,1.004,2.252,2.245v6.094
		C29.251,15.277,28.244,16.281,26.999,16.281z"/>
	<path d="M26.999,30.388h-13.5c-1.24,0-2.248-1.003-2.248-2.245c0-1.24,1.007-2.245,2.248-2.245h13.5
		c1.245,0,2.252,1.004,2.252,2.245C29.251,29.385,28.244,30.388,26.999,30.388z"/>
</g>
</svg>
