<?xml version="1.0" encoding="utf-8"?>
<!-- Generator: Adobe Illustrator 16.0.0, SVG Export Plug-In . SVG Version: 6.00 Build 0)  -->
<!DOCTYPE svg PUBLIC "-//W3C//DTD SVG 1.1//EN" "http://www.w3.org/Graphics/SVG/1.1/DTD/svg11.dtd">
<svg version="1.1" id="图层_1" xmlns="http://www.w3.org/2000/svg" xmlns:xlink="http://www.w3.org/1999/xlink" x="0px" y="0px"
	 width="72px" height="72px" viewBox="0 0 72 72" enable-background="new 0 0 72 72" xml:space="preserve">
<g>
	<path d="M27.001,36h-11.25c-1.245,0-2.252-1.005-2.252-2.248c0-1.242,1.007-2.247,2.252-2.247h11.25
		c1.241,0,2.249,1.005,2.249,2.247C29.25,34.995,28.242,36,27.001,36z"/>
	<path d="M36.002,44.99h-20.25c-1.245,0-2.252-1.004-2.252-2.247s1.007-2.249,2.252-2.249h20.25c1.24,0,2.249,1.006,2.249,2.249
		S37.242,44.99,36.002,44.99z"/>
	<path d="M36.002,53.98h-20.25c-1.245,0-2.252-1.007-2.252-2.247c0-1.243,1.007-2.247,2.252-2.247h20.25
		c1.24,0,2.249,1.004,2.249,2.247C38.251,52.974,37.242,53.98,36.002,53.98z"/>
	<path d="M60.751,71.962H11.249C5.047,71.962,0,66.92,0,60.726V22.515c0-6.198,5.047-11.239,11.249-11.239h27.002
		c1.242,0,2.249,1.005,2.249,2.248c0,1.242-1.007,2.248-2.249,2.248H11.249c-3.722,0-6.748,3.024-6.748,6.743v38.211
		c0,3.716,3.025,6.74,6.748,6.74h49.502c3.722,0,6.751-3.024,6.751-6.74V22.515c0-3.719-3.029-6.743-6.751-6.743
		c-1.243,0-2.249-1.006-2.249-2.248c0-1.243,1.006-2.248,2.249-2.248C66.954,11.276,72,16.316,72,22.515v38.211
		C72,66.92,66.954,71.962,60.751,71.962z"/>
	<path d="M49.764,53.98c-1.243,0-2.249-1.007-2.249-2.247v-4.494c0-1.245,1.006-2.249,2.249-2.249c1.245,0,2.249,1.004,2.249,2.249
		v4.494C52.013,52.974,51.009,53.98,49.764,53.98z"/>
	<path d="M51,49.486h-2.252c-1.65,0-2.996-1.344-2.996-2.994v-0.31l-1.004-2.438l-1.686-2.854c-0.204-0.346-0.313-0.74-0.313-1.144
		V6.78c0-3.718,3.029-6.742,6.751-6.742c3.723,0,6.753,3.024,6.753,6.742v32.967c0,0.296-0.06,0.585-0.171,0.856l-1.234,2.995
		l-0.846,2.51v0.384C54.002,48.143,52.652,49.486,51,49.486z M47.251,39.133l1.453,2.469c0.056,0.092,0.104,0.188,0.143,0.285
		l1.009,2.441l0.778-2.306l1.115-2.719V6.78c0-1.238-1.008-2.247-2.249-2.247c-1.24,0-2.249,1.009-2.249,2.247V39.133z"/>
</g>
</svg>
