<?xml version="1.0" encoding="utf-8"?>
<!-- Generator: Adobe Illustrator 16.0.0, SVG Export Plug-In . SVG Version: 6.00 Build 0)  -->
<!DOCTYPE svg PUBLIC "-//W3C//DTD SVG 1.1//EN" "http://www.w3.org/Graphics/SVG/1.1/DTD/svg11.dtd">
<svg version="1.1" id="图层_1" xmlns="http://www.w3.org/2000/svg" xmlns:xlink="http://www.w3.org/1999/xlink" x="0px" y="0px"
	 width="72px" height="72px" viewBox="0 0 72 72" enable-background="new 0 0 72 72" xml:space="preserve">
<g>
	<path d="M51.021,8.562h8.792v8.79c0,1.238,1.003,2.241,2.241,2.241s2.244-1.003,2.244-2.241V6.318c0-1.237-1.006-2.24-2.244-2.24
		H51.021c-1.238,0-2.242,1.003-2.242,2.24C48.779,7.559,49.783,8.562,51.021,8.562z"/>
	<path d="M71.375,36.097L37.707,0.835c-0.424-0.44-1.009-0.689-1.616-0.689c-0.614,0-1.196,0.249-1.622,0.689L0.625,36.097
		c-0.859,0.891-0.829,2.312,0.065,3.169c0.894,0.856,2.312,0.833,3.17-0.065l3.017-3.145v33.56c0,1.238,1.005,2.239,2.244,2.239
		H24.79c1.235,0,2.236-0.997,2.241-2.235l0.074-22.402h17.871v22.398c0,1.238,1.003,2.239,2.241,2.239h15.666
		c1.238,0,2.241-1.001,2.241-2.239v-33.57l3.015,3.158c0.438,0.458,1.029,0.69,1.615,0.69c0.562-0.004,1.122-0.209,1.555-0.628
		C72.204,38.409,72.231,36.99,71.375,36.097z M60.64,31.994v35.377H49.462V44.978c0-1.24-1.004-2.244-2.244-2.244H24.869
		c-1.236,0-2.239,0.999-2.244,2.235l-0.072,22.402H11.366V31.994c0-0.18-0.063-0.338-0.103-0.504L36.091,5.626l24.656,25.832
		C60.705,31.634,60.64,31.804,60.64,31.994z"/>
</g>
</svg>
