<?xml version="1.0" encoding="utf-8"?>
<!-- Generator: Adobe Illustrator 16.0.2, SVG Export Plug-In . SVG Version: 6.00 Build 0)  -->
<!DOCTYPE svg PUBLIC "-//W3C//DTD SVG 1.1//EN" "http://www.w3.org/Graphics/SVG/1.1/DTD/svg11.dtd">
<svg version="1.1" id="图层_1" xmlns="http://www.w3.org/2000/svg" xmlns:xlink="http://www.w3.org/1999/xlink" x="0px" y="0px"
	 width="72px" height="72px" viewBox="0 0 72 72" enable-background="new 0 0 72 72" xml:space="preserve">
<path opacity="0.7" fill-rule="evenodd" clip-rule="evenodd" d="M47,15.756c0-1.052-0.938-1.972-2-1.972H27c-1.063,0-2,0.92-2,1.972
	V20h22V15.756L47,15.756L47,15.756z M49.281,38.629c0-1.314-1.063-2.629-2.391-2.629H25.11c-1.329,0-2.391,1.314-2.391,2.629v2.497
	L2,34.686v-12.62C2,20.751,3.063,20,4.523,20h13.569L18,11.812C18,9.709,20.062,8,22.188,8h27.094C51.539,8,54,9.709,54,11.812V20
	h13.477C68.938,20,70,20.686,70,22v12.816l-20.719,6.441V38.629L49.281,38.629z M29,40.207h14c1.063,0,2,0.789,2,1.84v4.982
	C45,48.08,44.063,49,43,49H29c-1.063,0-2-0.92-2-1.971v-4.982C27,40.996,27.938,40.207,29,40.207L29,40.207L29,40.207z M67.477,64
	H4.523C3.063,64,2,62.948,2,61.634V39.813l20.719,6.441v4.206c0,1.314,1.062,2.54,2.391,2.54h21.781c1.328,0,2.391-1.226,2.391-2.54
	v-4.075L70,39.943v21.69C70,62.948,68.938,64,67.477,64L67.477,64L67.477,64z M67.477,64"/>
</svg>
