<?xml version="1.0" encoding="utf-8"?>
<!-- Generator: Adobe Illustrator 16.0.2, SVG Export Plug-In . SVG Version: 6.00 Build 0)  -->
<!DOCTYPE svg PUBLIC "-//W3C//DTD SVG 1.1//EN" "http://www.w3.org/Graphics/SVG/1.1/DTD/svg11.dtd">
<svg version="1.1" id="图层_1" xmlns="http://www.w3.org/2000/svg" xmlns:xlink="http://www.w3.org/1999/xlink" x="0px" y="0px"
	 width="72px" height="72px" viewBox="0 0 72 72" enable-background="new 0 0 72 72" xml:space="preserve">
<path opacity="0.7" fill-rule="evenodd" clip-rule="evenodd" d="M55,12.211V35c0,0.75-0.126,1-0.875,1H51v-2.164
	c0-2.375-2.25-4.25-4.5-4.5v-1.5c2.624-1.001,4.5-3.5,4.5-6.501c0-3.874-3.125-6.999-7.001-6.999c-3.874,0-7,3.125-7,6.999
	c0,3.001,1.875,5.5,4.501,6.501v1.5c-2.25,0.25-4.5,2.125-4.5,4.5V36h-3.625c-0.75,0-1.376-0.25-1.376-1V12.211
	C31.999,11.461,32.25,11,33,11h21C54.749,11,55,11.461,55,12.211L55,12.211L55,12.211z M19,54.71c0-0.75,0.25-1.71,1-1.71h34
	c0.749,0,1,0.25,1,1v3c0,0.752-0.251,1-1,1H20c-0.75,0-1-1.041-1-1.041V54.71z M19,45.71c0-0.75,0.25-1.71,1-1.71h34
	c0.749,0,1,0.25,1,1v3c0,0.752-0.251,1-1,1H20c-0.75,0-1-1.041-1-1.041V45.71z M59.623,68C60.875,68,62,67.375,62,66V6.376
	C62,5.001,60.875,4,59.623,4H12c-1.25,0-2,1.001-2,2.376V66c0,1.375,0.75,2,2,2H59.623L59.623,68z M59.623,68"/>
</svg>
