<?xml version="1.0" encoding="utf-8"?>
<!-- Generator: Adobe Illustrator 16.0.0, SVG Export Plug-In . SVG Version: 6.00 Build 0)  -->
<!DOCTYPE svg PUBLIC "-//W3C//DTD SVG 1.1//EN" "http://www.w3.org/Graphics/SVG/1.1/DTD/svg11.dtd">
<svg version="1.1" id="图层_1" xmlns="http://www.w3.org/2000/svg" xmlns:xlink="http://www.w3.org/1999/xlink" x="0px" y="0px"
	 width="72px" height="72px" viewBox="0 0 72 72" enable-background="new 0 0 72 72" xml:space="preserve">
<g>
	<path d="M60.75,71.999H11.249c-1.242,0-2.25-1.006-2.25-2.25c0-1.242,1.008-2.25,2.25-2.25H60.75c3.722,0,6.75-3.028,6.75-6.75
		c0-1.241,1.006-2.25,2.25-2.25c1.241,0,2.25,1.009,2.25,2.25C72,66.954,66.95,71.999,60.75,71.999z"/>
	<path d="M72,60.749h-4.5V6.751c0-1.241-1.011-2.25-2.25-2.25h-40.5c-1.241,0-2.25,1.009-2.25,2.25v53.998H18V6.751
		c0-3.722,3.028-6.75,6.75-6.75h40.5c3.722,0,6.75,3.028,6.75,6.75V60.749z"/>
	<path d="M11.249,71.999C5.046,71.999,0,66.954,0,60.749c0-1.241,1.007-2.25,2.25-2.25c1.243,0,2.25,1.009,2.25,2.25
		c0,3.722,3.028,6.75,6.75,6.75c3.723,0,6.75-3.028,6.75-6.75c0-1.241,1.008-2.25,2.25-2.25s2.25,1.009,2.25,2.25
		C22.5,66.954,17.452,71.999,11.249,71.999z"/>
	<path d="M4.5,60.749H0V29.25c0-3.722,3.027-6.75,6.75-6.75h14.625V27H6.75C5.509,27,4.5,28.01,4.5,29.25V60.749z"/>
	<path d="M60.75,33.75h-31.5c-1.243,0-2.25-1.007-2.25-2.25s1.007-2.25,2.25-2.25h31.5c1.242,0,2.25,1.007,2.25,2.25
		S61.992,33.75,60.75,33.75z"/>
	<path d="M45,24.75H29.25c-1.243,0-2.25-1.008-2.25-2.25c0-1.243,1.007-2.25,2.25-2.25H45c1.241,0,2.25,1.007,2.25,2.25
		C47.25,23.743,46.241,24.75,45,24.75z"/>
	<path d="M60.75,42.749h-31.5c-1.243,0-2.25-1.006-2.25-2.25c0-1.242,1.007-2.248,2.25-2.248h31.5c1.242,0,2.25,1.006,2.25,2.248
		C63,41.743,61.992,42.749,60.75,42.749z"/>
	<path d="M60.75,51.752h-31.5c-1.243,0-2.25-1.009-2.25-2.251c0-1.244,1.007-2.25,2.25-2.25h31.5c1.242,0,2.25,1.006,2.25,2.25
		C63,50.743,61.992,51.752,60.75,51.752z"/>
</g>
</svg>
