<?xml version="1.0" encoding="utf-8"?>
<!-- Generator: Adobe Illustrator 16.0.0, SVG Export Plug-In . SVG Version: 6.00 Build 0)  -->
<!DOCTYPE svg PUBLIC "-//W3C//DTD SVG 1.1//EN" "http://www.w3.org/Graphics/SVG/1.1/DTD/svg11.dtd">
<svg version="1.1" id="图层_1" xmlns="http://www.w3.org/2000/svg" xmlns:xlink="http://www.w3.org/1999/xlink" x="0px" y="0px"
	 width="72px" height="72px" viewBox="0 0 72 72" enable-background="new 0 0 72 72" xml:space="preserve">
<g>
	<path d="M53.156,40.432c10.511-0.728,18.845-9.489,18.845-20.182c0-1.848-0.267-3.722-0.787-5.559
		c-0.222-0.77-0.829-1.363-1.601-1.563c-0.768-0.199-1.592,0.026-2.155,0.588l-3.889,3.889c-2.448,2.45-6.716,2.454-9.168-0.005
		c-2.526-2.524-2.526-6.64,0-9.171l3.884-3.884c0.565-0.563,0.787-1.385,0.588-2.155c-0.202-0.771-0.794-1.383-1.56-1.601
		C55.475,0.265,53.604,0,51.751,0C40.586,0,31.5,9.084,31.5,20.25c0,1.054,0.124,2.136,0.301,3.222l-2.687,2.46L16.24,13.059
		c1.19-2.507,0.774-5.59-1.299-7.663l-4.736-4.736c-0.878-0.878-2.303-0.878-3.181,0L0.659,7.021c-0.876,0.881-0.876,2.304,0,3.184
		l4.738,4.736c1.275,1.275,2.971,1.978,4.773,1.978c1.019,0,1.997-0.247,2.893-0.677l12.729,12.729L3.955,48.958
		C1.405,51.504,0,54.899,0,58.504c0,3.604,1.405,6.995,3.956,9.541C6.507,70.6,9.897,72,13.501,72c3.606,0,6.996-1.404,9.613-4.024
		l15.355-16.78l18.168,18.168c1.7,1.7,3.96,2.637,6.364,2.637c2.405,0,4.665-0.937,6.36-2.637c1.705-1.695,2.64-3.955,2.64-6.362
		c0-2.402-0.935-4.662-2.637-6.362L53.156,40.432z M8.578,11.76L5.434,8.613l3.179-3.181l3.149,3.146
		c0.876,0.876,0.876,2.303,0,3.181C10.907,12.612,9.433,12.612,8.578,11.76z M19.863,64.866c-3.398,3.4-9.32,3.4-12.725,0
		c-1.7-1.7-2.637-3.96-2.637-6.362c0-2.407,0.937-4.667,2.563-6.298l28.679-26.244c0.076-0.065,0.108-0.156,0.171-0.23
		c0.1-0.121,0.197-0.234,0.271-0.373c0.069-0.13,0.111-0.26,0.154-0.396c0.043-0.137,0.083-0.269,0.1-0.414
		c0.017-0.156,0.002-0.304-0.013-0.462c-0.009-0.096,0.013-0.188-0.009-0.286c-0.277-1.208-0.416-2.4-0.416-3.55
		c0-8.752,7.225-15.789,15.962-15.75l-0.746,0.748c-4.278,4.285-4.278,11.255,0,15.535c2.075,2.077,4.834,3.221,7.77,3.221
		c2.937,0,5.692-1.144,7.768-3.221l0.744-0.744c0.002,0.072,0.002,0.142,0.002,0.211c0,8.687-7.064,15.75-15.75,15.75
		c-1.162,0-2.353-0.137-3.541-0.414c-0.098-0.022-0.19,0.002-0.286-0.009c-0.158-0.016-0.312-0.028-0.471-0.014
		c-0.137,0.018-0.263,0.057-0.393,0.096c-0.143,0.043-0.282,0.087-0.421,0.16c-0.13,0.069-0.24,0.165-0.355,0.261
		c-0.078,0.064-0.173,0.1-0.243,0.178L19.863,64.866z M66.183,66.185c-1.7,1.7-4.662,1.7-6.362,0L42.342,48.706l6.362-6.362
		l17.479,17.474c0.85,0.851,1.318,1.982,1.318,3.184C67.501,64.207,67.032,65.334,66.183,66.185z"/>
	<path d="M13.501,54.002c-2.485,0-4.5,2.017-4.5,4.502c0,2.484,2.015,4.497,4.5,4.497c2.487,0,4.5-2.013,4.5-4.497
		C18,56.019,15.988,54.002,13.501,54.002z"/>
</g>
</svg>
