<?xml version="1.0" encoding="utf-8"?>
<!-- Generator: Adobe Illustrator 16.0.0, SVG Export Plug-In . SVG Version: 6.00 Build 0)  -->
<!DOCTYPE svg PUBLIC "-//W3C//DTD SVG 1.1//EN" "http://www.w3.org/Graphics/SVG/1.1/DTD/svg11.dtd">
<svg version="1.1" id="图层_1" xmlns="http://www.w3.org/2000/svg" xmlns:xlink="http://www.w3.org/1999/xlink" x="0px" y="0px"
	 width="72px" height="72px" viewBox="0 0 72 72" enable-background="new 0 0 72 72" xml:space="preserve">
<g>
	<path d="M62.347,12.938c0.879-0.876,0.879-2.295,0-3.171c-0.882-0.874-2.304-0.874-3.185,0L56.01,12.91
		c-6.16-5.379-13.956-8.346-22.222-8.346c-9.027,0-17.51,3.499-23.89,9.857C3.516,20.775,0,29.22,0,38.208
		c0,8.986,3.516,17.432,9.898,23.79c6.38,6.355,14.862,9.853,23.89,9.853c9.024,0,17.511-3.497,23.894-9.853
		c12.632-12.586,13.112-32.719,1.508-45.917L62.347,12.938z M54.5,58.829c-5.533,5.51-12.89,8.539-20.712,8.539
		c-7.823,0-15.178-3.029-20.708-8.539C7.547,53.32,4.499,45.994,4.499,38.208c0-7.79,3.048-15.112,8.581-20.621
		c5.53-5.509,12.885-8.542,20.708-8.542c7.822,0,15.179,3.033,20.712,8.542C65.915,28.956,65.915,47.457,54.5,58.829z"/>
	<path d="M68.827,3.313c-2.044-2.04-4.771-3.164-7.671-3.164c-2.898,0-5.627,1.124-7.672,3.164c-0.879,0.875-0.879,2.293,0,3.169
		c0.878,0.876,2.304,0.876,3.181,0c2.396-2.391,6.582-2.391,8.983,0c2.475,2.463,2.475,6.477,0,8.945
		c-0.881,0.878-0.881,2.296,0,3.172c0.437,0.433,1.014,0.652,1.588,0.652c0.577,0,1.153-0.219,1.591-0.656
		C73.058,14.378,73.058,7.525,68.827,3.313z"/>
	<path d="M51.754,36.001H35.722V20.316c0-1.24-0.725-2.243-1.969-2.243c-1.243,0-2.531,1.003-2.531,2.243v17.928
		c0,1.239,1.008,2.239,2.251,2.239h18.281c1.244,0,2.25-1,2.25-2.239S52.998,36.001,51.754,36.001z"/>
</g>
</svg>
