<?xml version="1.0" encoding="utf-8"?>
<!-- Generator: Adobe Illustrator 16.0.2, SVG Export Plug-In . SVG Version: 6.00 Build 0)  -->
<!DOCTYPE svg PUBLIC "-//W3C//DTD SVG 1.1//EN" "http://www.w3.org/Graphics/SVG/1.1/DTD/svg11.dtd">
<svg version="1.1" id="图层_1" xmlns="http://www.w3.org/2000/svg" xmlns:xlink="http://www.w3.org/1999/xlink" x="0px" y="0px"
	 width="90px" height="90px" viewBox="0 0 90 90" enable-background="new 0 0 90 90" xml:space="preserve">
<path opacity="0.7" fill-rule="evenodd" clip-rule="evenodd" d="M82.834,27.937c0,1.145-0.336,2.286-1.341,3.102l-34.488,33.79
	l-6.529,6.368c-1.005,0.816-2.009,1.304-3.348,1.304c-1.172,0-2.344-0.488-3.181-1.304L10.174,48.015
	c-1.006-0.978-1.34-1.958-1.34-3.264c0-1.144,0.334-2.287,1.34-3.102l6.361-6.367c1.003-0.815,2.009-1.306,3.347-1.306
	c1.173,0,2.345,0.491,3.182,1.306l14.064,13.712l31.474-30.689C69.44,17.488,70.612,17,71.784,17c1.339,0,2.345,0.488,3.349,1.305
	l6.36,6.366C82.498,25.652,82.834,26.63,82.834,27.937L82.834,27.937L82.834,27.937z M82.834,27.937"/>
</svg>
