<?xml version="1.0" encoding="utf-8"?>
<!-- Generator: Adobe Illustrator 16.0.2, SVG Export Plug-In . SVG Version: 6.00 Build 0)  -->
<!DOCTYPE svg PUBLIC "-//W3C//DTD SVG 1.1//EN" "http://www.w3.org/Graphics/SVG/1.1/DTD/svg11.dtd">
<svg version="1.1" id="图层_1" xmlns="http://www.w3.org/2000/svg" xmlns:xlink="http://www.w3.org/1999/xlink" x="0px" y="0px"
	 width="72px" height="72px" viewBox="0 0 72 72" enable-background="new 0 0 72 72" xml:space="preserve">
<path opacity="0.7" fill-rule="evenodd" clip-rule="evenodd" d="M72,20.141c0,1.114-0.327,2.225-1.305,3.018L37.14,56.035
	l-6.352,6.196C29.81,63.025,28.833,63.5,27.53,63.5c-1.141,0-2.28-0.475-3.095-1.269L1.304,39.676C0.326,38.726,0,37.771,0,36.5
	c0-1.113,0.326-2.225,1.304-3.018l6.189-6.195c0.976-0.793,1.955-1.27,3.257-1.27c1.142,0,2.281,0.477,3.095,1.27L27.53,40.629
	l30.623-29.86c0.815-0.794,1.956-1.27,3.096-1.27c1.303,0,2.281,0.475,3.258,1.27l6.188,6.194C71.673,17.918,72,18.87,72,20.141
	L72,20.141L72,20.141z M72,20.141"/>
</svg>
