<?xml version="1.0" encoding="utf-8"?>
<!-- Generator: Adobe Illustrator 16.0.2, SVG Export Plug-In . SVG Version: 6.00 Build 0)  -->
<!DOCTYPE svg PUBLIC "-//W3C//DTD SVG 1.1//EN" "http://www.w3.org/Graphics/SVG/1.1/DTD/svg11.dtd">
<svg version="1.1" id="图层_1" xmlns="http://www.w3.org/2000/svg" xmlns:xlink="http://www.w3.org/1999/xlink" x="0px" y="0px"
	 width="90px" height="90px" viewBox="0 0 90 90" enable-background="new 0 0 90 90" xml:space="preserve">
<path opacity="0.7" fill-rule="evenodd" clip-rule="evenodd" d="M68.322,37.859c0-0.932-0.155-1.553-0.776-2.019l-4.037-4.036
	c-0.466-0.621-1.242-0.933-2.019-0.933c-0.776,0-1.397,0.312-1.862,0.933L41.463,49.813l-10.091-9.936
	c-0.466-0.622-1.086-0.932-1.863-0.932c-0.776,0-1.553,0.31-2.018,0.932l-4.037,3.882c-0.622,0.62-0.776,1.241-0.776,2.017
	c0,0.932,0.155,1.554,0.776,2.019l15.991,16.146c0.622,0.466,1.241,0.776,2.018,0.776c0.776,0,1.553-0.31,2.018-0.776l24.065-24.063
	C68.167,39.256,68.322,38.635,68.322,37.859L68.322,37.859L68.322,37.859z M79.5,45.001c0,6.21-1.397,11.953-4.502,17.077
	c-3.104,5.279-7.142,9.315-12.42,12.42c-5.124,3.104-10.868,4.503-17.078,4.503c-6.211,0-11.955-1.398-17.078-4.503
	c-5.278-3.104-9.314-7.141-12.42-12.42C12.897,56.954,11.5,51.211,11.5,45.001c0-6.211,1.397-11.954,4.502-17.078
	c3.105-5.278,7.142-9.315,12.42-12.42C33.545,12.398,39.289,11,45.5,11c6.21,0,11.954,1.398,17.078,4.503
	c5.278,3.104,9.315,7.142,12.42,12.42C78.103,33.047,79.5,38.79,79.5,45.001L79.5,45.001L79.5,45.001z M79.5,45.001"/>
</svg>
