<?xml version="1.0" encoding="utf-8"?>
<!-- Generator: Adobe Illustrator 16.0.2, SVG Export Plug-In . SVG Version: 6.00 Build 0)  -->
<!DOCTYPE svg PUBLIC "-//W3C//DTD SVG 1.1//EN" "http://www.w3.org/Graphics/SVG/1.1/DTD/svg11.dtd">
<svg version="1.1" id="图层_1" xmlns="http://www.w3.org/2000/svg" xmlns:xlink="http://www.w3.org/1999/xlink" x="0px" y="0px"
	 width="72px" height="72px" viewBox="0 0 72 72" enable-background="new 0 0 72 72" xml:space="preserve">
<path opacity="0.7" fill-rule="evenodd" clip-rule="evenodd" d="M58.822,28.858c0-0.932-0.155-1.553-0.776-2.019l-4.037-4.036
	c-0.466-0.621-1.242-0.933-2.019-0.933c-0.776,0-1.397,0.312-1.862,0.933L31.963,40.813l-10.091-9.936
	c-0.466-0.622-1.086-0.932-1.863-0.932c-0.776,0-1.553,0.31-2.018,0.932l-4.037,3.882c-0.622,0.62-0.776,1.241-0.776,2.017
	c0,0.932,0.155,1.554,0.776,2.019L29.945,54.94c0.622,0.466,1.241,0.776,2.018,0.776c0.776,0,1.553-0.31,2.018-0.776l24.065-24.063
	C58.667,30.255,58.822,29.634,58.822,28.858L58.822,28.858L58.822,28.858z M70,36c0,6.21-1.397,11.953-4.502,17.077
	c-3.104,5.279-7.142,9.315-12.42,12.42C47.954,68.602,42.21,70,36,70c-6.211,0-11.955-1.398-17.078-4.503
	c-5.278-3.104-9.314-7.141-12.42-12.42C3.397,47.953,2,42.21,2,36c0-6.211,1.397-11.954,4.502-17.078
	c3.105-5.278,7.142-9.315,12.42-12.42C24.045,3.397,29.789,1.999,36,1.999c6.21,0,11.954,1.398,17.078,4.503
	c5.278,3.104,9.315,7.142,12.42,12.42C68.603,24.046,70,29.789,70,36L70,36L70,36z M70,36"/>
</svg>
