<?xml version="1.0" encoding="utf-8"?>
<!-- Generator: Adobe Illustrator 16.0.2, SVG Export Plug-In . SVG Version: 6.00 Build 0)  -->
<!DOCTYPE svg PUBLIC "-//W3C//DTD SVG 1.1//EN" "http://www.w3.org/Graphics/SVG/1.1/DTD/svg11.dtd">
<svg version="1.1" id="图层_1" xmlns="http://www.w3.org/2000/svg" xmlns:xlink="http://www.w3.org/1999/xlink" x="0px" y="0px"
	 width="72px" height="72px" viewBox="0 0 72 72" enable-background="new 0 0 72 72" xml:space="preserve">
<path opacity="0.7" fill-rule="evenodd" clip-rule="evenodd" d="M45.98,52.269L31.626,37.777V18.5h8.749v15.722L52.27,45.98
	L45.98,52.269L45.98,52.269z M36.001,1C16.723,1,1,16.722,1,36C1,55.278,16.723,71,36.001,71C55.277,71,71,55.278,71,36
	C71,16.722,55.277,1,36.001,1L36.001,1L36.001,1z M36.001,62.25C21.509,62.25,9.75,50.492,9.75,36S21.509,9.75,36.001,9.75
	C50.492,9.75,62.25,21.507,62.25,36S50.492,62.25,36.001,62.25L36.001,62.25L36.001,62.25z M36.001,62.25"/>
</svg>
