<?xml version="1.0" encoding="utf-8"?>
<!-- Generator: Adobe Illustrator 16.0.2, SVG Export Plug-In . SVG Version: 6.00 Build 0)  -->
<!DOCTYPE svg PUBLIC "-//W3C//DTD SVG 1.1//EN" "http://www.w3.org/Graphics/SVG/1.1/DTD/svg11.dtd">
<svg version="1.1" id="图层_1" xmlns="http://www.w3.org/2000/svg" xmlns:xlink="http://www.w3.org/1999/xlink" x="0px" y="0px"
	 width="90px" height="90px" viewBox="0 0 90 90" enable-background="new 0 0 90 90" xml:space="preserve">
<path opacity="0.7" fill-rule="evenodd" clip-rule="evenodd" d="M54.724,61.506L40.369,47.014V27.737h8.749v15.722l11.895,11.758
	L54.724,61.506L54.724,61.506z M44.744,10.236c-19.278,0-35.001,15.722-35.001,35c0,19.278,15.723,35,35.001,35
	c19.276,0,34.999-15.722,34.999-35C79.743,25.958,64.021,10.236,44.744,10.236L44.744,10.236L44.744,10.236z M44.744,71.487
	c-14.492,0-26.251-11.758-26.251-26.25s11.759-26.25,26.251-26.25c14.491,0,26.249,11.758,26.249,26.25S59.235,71.487,44.744,71.487
	L44.744,71.487L44.744,71.487z M44.744,71.487"/>
</svg>
