<?xml version="1.0" encoding="utf-8"?>
<!-- Generator: Adobe Illustrator 16.0.2, SVG Export Plug-In . SVG Version: 6.00 Build 0)  -->
<!DOCTYPE svg PUBLIC "-//W3C//DTD SVG 1.1//EN" "http://www.w3.org/Graphics/SVG/1.1/DTD/svg11.dtd">
<svg version="1.1" id="图层_1" xmlns="http://www.w3.org/2000/svg" xmlns:xlink="http://www.w3.org/1999/xlink" x="0px" y="0px"
	 width="72px" height="72px" viewBox="0 0 72 72" enable-background="new 0 0 72 72" xml:space="preserve">
<path opacity="0.7" fill-rule="evenodd" clip-rule="evenodd" d="M69,42.188V29.812l-9.41-1.546c-0.387-1.161-0.902-2.321-1.417-3.48
	l5.542-7.734l-8.766-8.766l-7.734,5.542c-1.16-0.516-2.321-1.031-3.481-1.418L42.188,3H29.813l-1.547,9.409
	c-1.159,0.388-2.319,0.902-3.479,1.418l-7.735-5.542l-8.766,8.766l5.543,7.734c-0.516,1.16-1.032,2.319-1.417,3.48L3,29.812v12.376
	l9.539,1.547c0.387,1.16,0.773,2.32,1.289,3.351l-5.543,7.864l8.766,8.765l7.864-5.543c1.031,0.516,2.191,0.902,3.351,1.289
	l1.547,9.539h12.375l1.546-9.539c1.16-0.387,2.321-0.773,3.352-1.289l7.863,5.543l8.766-8.765l-5.542-7.864
	c0.515-1.031,0.902-2.191,1.289-3.351L69,42.188L69,42.188z M36,44.25c-4.512,0-8.25-3.738-8.25-8.25c0-4.513,3.738-8.25,8.25-8.25
	c4.511,0,8.25,3.737,8.25,8.25C44.25,40.512,40.512,44.25,36,44.25L36,44.25L36,44.25z M36,44.25"/>
</svg>
