<?xml version="1.0" encoding="utf-8"?>
<!-- Generator: Adobe Illustrator 16.0.2, SVG Export Plug-In . SVG Version: 6.00 Build 0)  -->
<!DOCTYPE svg PUBLIC "-//W3C//DTD SVG 1.1//EN" "http://www.w3.org/Graphics/SVG/1.1/DTD/svg11.dtd">
<svg version="1.1" id="图层_1" xmlns="http://www.w3.org/2000/svg" xmlns:xlink="http://www.w3.org/1999/xlink" x="0px" y="0px"
	 width="72px" height="72px" viewBox="0 0 72 72" enable-background="new 0 0 72 72" xml:space="preserve">
<path opacity="0.7" fill-rule="evenodd" clip-rule="evenodd" d="M65,54.707c0,1.199-0.512,2.397-1.365,3.253l-6.653,6.671
	C56.128,65.485,54.935,66,53.57,66c-1.195,0-2.388-0.515-3.241-1.369L36,50.259L21.669,64.631C20.817,65.485,19.624,66,18.428,66
	c-1.364,0-2.559-0.515-3.411-1.369L8.365,57.96C7.512,57.104,7,55.905,7,54.707c0-1.368,0.512-2.394,1.365-3.42l14.329-14.37
	L8.365,22.543C7.512,21.688,7,20.489,7,19.292c0-1.369,0.512-2.394,1.365-3.421l6.652-6.501C15.869,8.343,17.064,8,18.428,8
	c1.195,0,2.389,0.343,3.241,1.37L36,23.74L50.329,9.37C51.182,8.343,52.375,8,53.57,8c1.365,0,2.559,0.343,3.412,1.37l6.653,6.501
	C64.488,16.898,65,17.923,65,19.292c0,1.197-0.512,2.396-1.365,3.251L49.306,36.916l14.329,14.37C64.488,52.313,65,53.338,65,54.707
	L65,54.707L65,54.707z M65,54.707"/>
</svg>
