<?xml version="1.0" encoding="utf-8"?>
<!-- Generator: Adobe Illustrator 16.0.2, SVG Export Plug-In . SVG Version: 6.00 Build 0)  -->
<!DOCTYPE svg PUBLIC "-//W3C//DTD SVG 1.1//EN" "http://www.w3.org/Graphics/SVG/1.1/DTD/svg11.dtd">
<svg version="1.1" id="图层_1" xmlns="http://www.w3.org/2000/svg" xmlns:xlink="http://www.w3.org/1999/xlink" x="0px" y="0px"
	 width="90px" height="90px" viewBox="0 0 90 90" enable-background="new 0 0 90 90" xml:space="preserve">
<path opacity="0.7" fill-rule="evenodd" clip-rule="evenodd" d="M73.334,63.707c0,1.199-0.512,2.397-1.365,3.253l-6.653,6.671
	C64.462,74.485,63.269,75,61.904,75c-1.195,0-2.388-0.515-3.241-1.369L44.334,59.259L30.003,73.631
	C29.151,74.485,27.958,75,26.762,75c-1.364,0-2.559-0.515-3.411-1.369l-6.652-6.671c-0.854-0.856-1.365-2.055-1.365-3.253
	c0-1.368,0.512-2.394,1.365-3.42l14.329-14.37L16.699,31.543c-0.854-0.855-1.365-2.054-1.365-3.251c0-1.369,0.512-2.394,1.365-3.421
	l6.652-6.501c0.852-1.027,2.047-1.37,3.411-1.37c1.195,0,2.389,0.343,3.241,1.37l14.331,14.37l14.329-14.37
	c0.853-1.027,2.046-1.37,3.241-1.37c1.365,0,2.559,0.343,3.412,1.37l6.653,6.501c0.853,1.028,1.365,2.052,1.365,3.421
	c0,1.197-0.512,2.396-1.365,3.251L57.64,45.916l14.329,14.37C72.822,61.313,73.334,62.338,73.334,63.707L73.334,63.707
	L73.334,63.707z M73.334,63.707"/>
</svg>
