<?xml version="1.0" encoding="utf-8"?>
<!-- Generator: Adobe Illustrator 16.0.2, SVG Export Plug-In . SVG Version: 6.00 Build 0)  -->
<!DOCTYPE svg PUBLIC "-//W3C//DTD SVG 1.1//EN" "http://www.w3.org/Graphics/SVG/1.1/DTD/svg11.dtd">
<svg version="1.1" id="图层_1" xmlns="http://www.w3.org/2000/svg" xmlns:xlink="http://www.w3.org/1999/xlink" x="0px" y="0px"
	 width="90px" height="90px" viewBox="0 0 90 90" enable-background="new 0 0 90 90" xml:space="preserve">
<path opacity="0.7" fill-rule="evenodd" clip-rule="evenodd" d="M61.421,57.093c0-0.778-0.31-1.554-0.931-2.019L52.573,47
	l7.918-8.073c0.621-0.465,0.931-1.242,0.931-2.018s-0.31-1.398-0.931-2.018l-3.882-3.882c-0.621-0.622-1.241-0.932-2.018-0.932
	c-0.776,0-1.553,0.31-2.018,0.932l-8.074,7.918l-8.073-7.918c-0.465-0.622-1.243-0.932-2.018-0.932c-0.777,0-1.397,0.31-2.018,0.932
	l-3.881,3.882c-0.622,0.62-0.931,1.241-0.931,2.018s0.31,1.553,0.931,2.018L36.426,47l-7.917,8.074
	c-0.622,0.465-0.931,1.241-0.931,2.019c0,0.775,0.31,1.396,0.931,2.018l3.881,3.881c0.621,0.621,1.241,0.931,2.018,0.931
	c0.775,0,1.553-0.31,2.018-0.931l8.073-7.917l8.074,7.917c0.465,0.621,1.242,0.931,2.018,0.931c0.777,0,1.397-0.31,2.018-0.931
	l3.882-3.881C61.112,58.488,61.421,57.868,61.421,57.093L61.421,57.093L61.421,57.093z M78.5,47c0,6.21-1.397,11.954-4.503,17.078
	c-3.105,5.278-7.141,9.316-12.42,12.42C56.454,79.603,50.71,81,44.499,81c-6.209,0-11.953-1.397-17.077-4.502
	c-5.279-3.104-9.315-7.142-12.42-12.42C11.897,58.954,10.5,53.21,10.5,47s1.397-11.954,4.502-17.078
	c3.105-5.277,7.141-9.313,12.42-12.419C32.546,14.398,38.29,13,44.499,13c6.211,0,11.955,1.398,17.078,4.502
	c5.279,3.106,9.315,7.142,12.42,12.419C77.103,35.046,78.5,40.79,78.5,47L78.5,47L78.5,47z M78.5,47"/>
</svg>
