<?xml version="1.0" encoding="utf-8"?>
<!-- Generator: Adobe Illustrator 16.0.2, SVG Export Plug-In . SVG Version: 6.00 Build 0)  -->
<!DOCTYPE svg PUBLIC "-//W3C//DTD SVG 1.1//EN" "http://www.w3.org/Graphics/SVG/1.1/DTD/svg11.dtd">
<svg version="1.1" id="图层_1" xmlns="http://www.w3.org/2000/svg" xmlns:xlink="http://www.w3.org/1999/xlink" x="0px" y="0px"
	 width="90px" height="90px" viewBox="0 0 90 90" enable-background="new 0 0 90 90" xml:space="preserve">
<path opacity="0.7" fill-rule="evenodd" clip-rule="evenodd" d="M70.5,19.5h-52c-3.375,0-6.001,2.625-6.001,6v36
	c0,3.25,2.626,6,6.001,6h52c3.375,0,6-2.75,6-6v-36C76.5,22.125,73.875,19.5,70.5,19.5L70.5,19.5L70.5,19.5z M18,63.501L16.5,62
	L33,45.5l1.5,1.5L18,63.501L18,63.501z M71,63.501L54.5,47l1.5-1.5L72.5,62L71,63.501L71,63.501z M46.5,50.125V51.5h-4v-1.375
	L16.5,26l2.5-2.5l25.5,23.625L70,23.5l2.5,2.5L46.5,50.125L46.5,50.125z M46.5,50.125"/>
</svg>
