<?xml version="1.0" encoding="utf-8"?>
<!-- Generator: Adobe Illustrator 16.0.2, SVG Export Plug-In . SVG Version: 6.00 Build 0)  -->
<!DOCTYPE svg PUBLIC "-//W3C//DTD SVG 1.1//EN" "http://www.w3.org/Graphics/SVG/1.1/DTD/svg11.dtd">
<svg version="1.1" id="图层_1" xmlns="http://www.w3.org/2000/svg" xmlns:xlink="http://www.w3.org/1999/xlink" x="0px" y="0px"
	 width="72px" height="72px" viewBox="0 0 72 72" enable-background="new 0 0 72 72" xml:space="preserve">
<path opacity="0.7" fill-rule="evenodd" clip-rule="evenodd" d="M62,12H10c-3.375,0-6,2.625-6,6v36c0,3.25,2.625,6,6,6h52
	c3.375,0,6-2.75,6-6V18C68,14.625,65.375,12,62,12L62,12L62,12z M9.5,56.001L8,54.5L24.5,38l1.5,1.5L9.5,56.001L9.5,56.001z
	 M62.5,56.001L46,39.5l1.5-1.5L64,54.5L62.5,56.001L62.5,56.001z M38,42.625V44h-4v-1.375L8,18.5l2.5-2.5L36,39.625L61.5,16l2.5,2.5
	L38,42.625L38,42.625z M38,42.625"/>
</svg>
