<?xml version="1.0" encoding="utf-8"?>
<!-- Generator: Adobe Illustrator 16.0.2, SVG Export Plug-In . SVG Version: 6.00 Build 0)  -->
<!DOCTYPE svg PUBLIC "-//W3C//DTD SVG 1.1//EN" "http://www.w3.org/Graphics/SVG/1.1/DTD/svg11.dtd">
<svg version="1.1" id="图层_1" xmlns="http://www.w3.org/2000/svg" xmlns:xlink="http://www.w3.org/1999/xlink" x="0px" y="0px"
	 width="72px" height="72px" viewBox="0 0 72 72" enable-background="new 0 0 72 72" xml:space="preserve">
<path opacity="0.7" fill-rule="evenodd" clip-rule="evenodd" d="M37,14C21.25,14,7.75,23.141,1,36.5C7.75,49.859,21.25,59,37,59
	c15.75,0,29.25-9.141,36-22.5C66.25,23.141,52.75,14,37,14L37,14L37,14z M54.719,25.953c4.218,2.672,7.875,6.328,10.547,10.547
	c-2.672,4.219-6.329,7.875-10.547,10.547C49.375,50.422,43.328,52.25,37,52.25c-6.328,0-12.375-1.828-17.718-5.203
	c-4.22-2.672-7.875-6.328-10.547-10.547c2.672-4.219,6.327-7.875,10.547-10.547c0.28-0.141,0.563-0.421,0.843-0.563
	C19.421,27.36,19,29.469,19,31.578c0,9.984,8.016,18,18,18c9.985,0,18-8.016,18-18c0-2.109-0.422-4.218-1.125-6.188
	C54.156,25.532,54.437,25.813,54.719,25.953L54.719,25.953L54.719,25.953z M37,29.328c0,3.797-2.953,6.75-6.75,6.75
	s-6.75-2.953-6.75-6.75c0-3.796,2.954-6.75,6.75-6.75S37,25.532,37,29.328L37,29.328L37,29.328z M37,29.328"/>
</svg>
