<?xml version="1.0" encoding="utf-8"?>
<!-- Generator: Adobe Illustrator 16.0.2, SVG Export Plug-In . SVG Version: 6.00 Build 0)  -->
<!DOCTYPE svg PUBLIC "-//W3C//DTD SVG 1.1//EN" "http://www.w3.org/Graphics/SVG/1.1/DTD/svg11.dtd">
<svg version="1.1" id="图层_1" xmlns="http://www.w3.org/2000/svg" xmlns:xlink="http://www.w3.org/1999/xlink" x="0px" y="0px"
	 width="90px" height="90px" viewBox="0 0 90 90" enable-background="new 0 0 90 90" xml:space="preserve">
<path opacity="0.7" fill-rule="evenodd" clip-rule="evenodd" d="M45.5,22.5c-15.75,0-29.25,9.141-36,22.5
	c6.75,13.359,20.25,22.5,36,22.5c15.75,0,29.25-9.141,36-22.5C74.75,31.641,61.25,22.5,45.5,22.5L45.5,22.5L45.5,22.5z
	 M63.219,34.453c4.218,2.672,7.875,6.328,10.547,10.547c-2.672,4.219-6.329,7.875-10.547,10.547
	C57.875,58.922,51.828,60.75,45.5,60.75c-6.328,0-12.375-1.828-17.718-5.203c-4.22-2.672-7.875-6.328-10.547-10.547
	c2.672-4.219,6.327-7.875,10.547-10.547c0.28-0.141,0.563-0.421,0.843-0.563c-0.703,1.97-1.125,4.078-1.125,6.188
	c0,9.984,8.016,18,18,18c9.985,0,18-8.016,18-18c0-2.109-0.422-4.218-1.125-6.188C62.656,34.032,62.937,34.313,63.219,34.453
	L63.219,34.453L63.219,34.453z M45.5,37.828c0,3.797-2.953,6.75-6.75,6.75S32,41.625,32,37.828c0-3.796,2.954-6.75,6.75-6.75
	S45.5,34.032,45.5,37.828L45.5,37.828L45.5,37.828z M45.5,37.828"/>
</svg>
