<?xml version="1.0" encoding="utf-8"?>
<!-- Generator: Adobe Illustrator 16.0.2, SVG Export Plug-In . SVG Version: 6.00 Build 0)  -->
<!DOCTYPE svg PUBLIC "-//W3C//DTD SVG 1.1//EN" "http://www.w3.org/Graphics/SVG/1.1/DTD/svg11.dtd">
<svg version="1.1" id="图层_1" xmlns="http://www.w3.org/2000/svg" xmlns:xlink="http://www.w3.org/1999/xlink" x="0px" y="0px"
	 width="72px" height="72px" viewBox="0 0 72 72" enable-background="new 0 0 72 72" xml:space="preserve">
<path opacity="0.7" fill-rule="evenodd" clip-rule="evenodd" d="M22.942,73c-4.724-9.984-2.159-15.75,1.35-21.094
	c3.915-5.905,4.859-11.813,4.859-11.813s2.97,4.218,1.755,10.688c5.4-6.329,6.479-16.172,5.669-20.11
	C48.724,39.532,53.987,58.797,46.968,73c37.255-21.938,9.179-54.844,4.32-58.5c1.618,3.656,2.023,9.985-1.35,12.937
	C44.405,5.5,30.637,1,30.637,1c1.619,11.39-5.805,23.766-13.094,32.906c-0.271-4.5-0.539-7.594-2.834-11.953
	C14.168,30.25,8.23,36.859,6.61,45.156C4.315,56.266,8.23,64.421,22.942,73L22.942,73L22.942,73z M22.942,73"/>
</svg>
