<?xml version="1.0" encoding="utf-8"?>
<!-- Generator: Adobe Illustrator 16.0.2, SVG Export Plug-In . SVG Version: 6.00 Build 0)  -->
<!DOCTYPE svg PUBLIC "-//W3C//DTD SVG 1.1//EN" "http://www.w3.org/Graphics/SVG/1.1/DTD/svg11.dtd">
<svg version="1.1" id="图层_1" xmlns="http://www.w3.org/2000/svg" xmlns:xlink="http://www.w3.org/1999/xlink" x="0px" y="0px"
	 width="90px" height="90px" viewBox="0 0 90 90" enable-background="new 0 0 90 90" xml:space="preserve">
<path opacity="0.7" fill-rule="evenodd" clip-rule="evenodd" d="M63.699,23.522c5.067,0,9.734-2.784,12.801-4.772v39.374
	c-3.067,2.121-7.734,4.905-12.801,4.905c-5.066,0-9.733-1.457-12.8-3.578c-3.066-2.122-7.733-3.581-12.799-3.581
	c-5.068,0-9.734,2.52-12.8,4.641V21.003c3.066-2.12,7.732-4.64,12.8-4.64c5.066,0,9.732,1.459,12.799,3.58
	C53.966,22.063,58.633,23.522,63.699,23.522L63.699,23.522L63.699,23.522z M16.767,12.121c2.4,0,4.267,1.856,4.267,4.242V80H12.5
	V16.363C12.5,13.978,14.367,12.121,16.767,12.121L16.767,12.121L16.767,12.121z M16.767,12.121"/>
</svg>
