<?xml version="1.0" encoding="utf-8"?>
<!-- Generator: Adobe Illustrator 16.0.2, SVG Export Plug-In . SVG Version: 6.00 Build 0)  -->
<!DOCTYPE svg PUBLIC "-//W3C//DTD SVG 1.1//EN" "http://www.w3.org/Graphics/SVG/1.1/DTD/svg11.dtd">
<svg version="1.1" id="图层_1" xmlns="http://www.w3.org/2000/svg" xmlns:xlink="http://www.w3.org/1999/xlink" x="0px" y="0px"
	 width="72px" height="72px" viewBox="0 0 72 72" enable-background="new 0 0 72 72" xml:space="preserve">
<path opacity="0.7" fill-rule="evenodd" clip-rule="evenodd" d="M55.199,14.522c5.067,0,9.734-2.784,12.801-4.772v39.374
	c-3.067,2.121-7.734,4.905-12.801,4.905c-5.066,0-9.733-1.457-12.8-3.578c-3.066-2.122-7.733-3.581-12.799-3.581
	c-5.068,0-9.534,2.52-12.601,4.641V12.003c3.066-2.12,7.533-4.64,12.601-4.64c5.066,0,9.732,1.459,12.799,3.58
	C45.466,13.063,50.133,14.522,55.199,14.522L55.199,14.522L55.199,14.522z M8,3.121c2.4,0,4,1.856,4,4.242V71H4V7.363
	C4,4.978,5.6,3.121,8,3.121L8,3.121L8,3.121z M8,3.121"/>
</svg>
