<?xml version="1.0" encoding="utf-8"?>
<!-- Generator: Adobe Illustrator 16.0.2, SVG Export Plug-In . SVG Version: 6.00 Build 0)  -->
<!DOCTYPE svg PUBLIC "-//W3C//DTD SVG 1.1//EN" "http://www.w3.org/Graphics/SVG/1.1/DTD/svg11.dtd">
<svg version="1.1" id="图层_1" xmlns="http://www.w3.org/2000/svg" xmlns:xlink="http://www.w3.org/1999/xlink" x="0px" y="0px"
	 width="72px" height="72px" viewBox="0 0 72 72" enable-background="new 0 0 72 72" xml:space="preserve">
<path opacity="0.7" fill-rule="evenodd" clip-rule="evenodd" d="M69.264,27.036c0,5.566-2.448,10.616-6.187,14.111l0,0
	L42.452,61.863c-2.063,2.07-4.126,4.142-6.188,4.142c-2.063,0-4.125-2.071-6.188-4.142L9.451,41.147
	c-3.738-3.495-6.188-8.545-6.188-14.111c0-10.487,8.508-19.031,18.949-19.031c5.543,0,10.571,2.459,14.051,6.214
	c3.481-3.754,8.508-6.214,14.05-6.214C60.756,8.006,69.264,16.549,69.264,27.036L69.264,27.036L69.264,27.036z M69.264,27.036"/>
</svg>
