<?xml version="1.0" encoding="utf-8"?>
<!-- Generator: Adobe Illustrator 16.0.2, SVG Export Plug-In . SVG Version: 6.00 Build 0)  -->
<!DOCTYPE svg PUBLIC "-//W3C//DTD SVG 1.1//EN" "http://www.w3.org/Graphics/SVG/1.1/DTD/svg11.dtd">
<svg version="1.1" id="图层_1" xmlns="http://www.w3.org/2000/svg" xmlns:xlink="http://www.w3.org/1999/xlink" x="0px" y="0px"
	 width="90px" height="90px" viewBox="0 0 90 90" enable-background="new 0 0 90 90" xml:space="preserve">
<path opacity="0.7" fill-rule="evenodd" clip-rule="evenodd" d="M78.098,36.036c0,5.566-2.448,10.616-6.187,14.111l0,0
	L51.286,70.863c-2.063,2.07-4.126,4.142-6.188,4.142c-2.063,0-4.125-2.071-6.188-4.142L18.285,50.147
	c-3.738-3.495-6.188-8.545-6.188-14.111c0-10.487,8.508-19.031,18.949-19.031c5.543,0,10.571,2.459,14.051,6.214
	c3.481-3.754,8.508-6.214,14.05-6.214C69.59,17.006,78.098,25.549,78.098,36.036L78.098,36.036L78.098,36.036z M78.098,36.036"/>
</svg>
