<?xml version="1.0" encoding="utf-8"?>
<!-- Generator: Adobe Illustrator 16.0.2, SVG Export Plug-In . SVG Version: 6.00 Build 0)  -->
<!DOCTYPE svg PUBLIC "-//W3C//DTD SVG 1.1//EN" "http://www.w3.org/Graphics/SVG/1.1/DTD/svg11.dtd">
<svg version="1.1" id="图层_1" xmlns="http://www.w3.org/2000/svg" xmlns:xlink="http://www.w3.org/1999/xlink" x="0px" y="0px"
	 width="90px" height="90px" viewBox="0 0 90 90" enable-background="new 0 0 90 90" xml:space="preserve">
<path opacity="0.7" fill-rule="evenodd" clip-rule="evenodd" d="M45.361,24.782c-1.991,0-3.717,1.594-3.717,3.719
	c0,2.126,1.726,3.719,3.717,3.719c2.125,0,3.85-1.593,3.85-3.719C49.211,26.376,47.486,24.782,45.361,24.782L45.361,24.782
	L45.361,24.782z M77.76,76.987c-0.133,2.523-2.788,2.259-2.788,2.259H40.715c-1.727,0-3.32-0.664-4.913-1.86l-0.797,0.266
	c-10.091,3.586-9.826-2.523-9.826-2.523s-6.108,1.461-8.232-0.798c-4.382-6.243,2.922-9.297,2.922-9.297s-5.711-0.398-5.976-4.783
	c-1.593-9.963,11.817-12.753,11.817-12.753s-4.381,6.774-1.992,12.753c1.46,3.453,4.25,5.312,6.241,6.11
	c-0.265-1.595-0.132-3.189,0.133-4.65c1.594-8.502,6.24-10.096,8.896-11.424c2.257-1.196,7.171-3.188,7.171-3.188l0.397-1.993
	c0,0-5.841,1.063-9.161,1.063c-3.188,0.134-4.515-0.132-5.71-2.258c-1.063-2.126-3.983-9.033-5.045-13.814
	c-1.062-4.916,1.46-5.181,1.46-5.181s8.498-3.985,13.145-6.111c4.781-2.125,9.561-1.063,9.561-1.063s2.922-2.523,7.037-5.312
	c3.984-2.79,6.109,0.265,6.109,0.265s1.859,1.196,6.108,18.731c4.382,17.401,0.266,39.85,0.266,39.85h1.594
	C76.565,71.275,77.76,73.932,77.76,76.987L77.76,76.987L77.76,76.987z M77.76,76.987"/>
</svg>
