<?xml version="1.0" encoding="utf-8"?>
<!-- Generator: Adobe Illustrator 16.0.2, SVG Export Plug-In . SVG Version: 6.00 Build 0)  -->
<!DOCTYPE svg PUBLIC "-//W3C//DTD SVG 1.1//EN" "http://www.w3.org/Graphics/SVG/1.1/DTD/svg11.dtd">
<svg version="1.1" id="图层_1" xmlns="http://www.w3.org/2000/svg" xmlns:xlink="http://www.w3.org/1999/xlink" x="0px" y="0px"
	 width="72px" height="72px" viewBox="0 0 72 72" enable-background="new 0 0 72 72" xml:space="preserve">
<path opacity="0.7" fill-rule="evenodd" clip-rule="evenodd" d="M58.5,43.423c-2.53,0-4.499,1.974-4.499,4.512
	c0,2.396,1.969,4.512,4.499,4.512c2.531,0,4.5-2.116,4.5-4.512C63,45.396,61.031,43.423,58.5,43.423L58.5,43.423L58.5,43.423z
	 M54.845,22.415c-3.938-6.908-14.485-6.767-14.485-6.767l-4.358-0.283h0.141h-0.141l-4.219,0.283c0,0-10.547-0.142-14.484,6.767
	C13.501,29.323,13.36,35,13.36,35s11.391,0,22.641,0c11.39,0,22.781,0,22.781,0S58.641,29.323,54.845,22.415L54.845,22.415
	L54.845,22.415z M9.001,47.935c0,2.396,1.969,4.512,4.5,4.512c2.391,0,4.5-2.116,4.5-4.512c0-2.538-2.109-4.512-4.5-4.512
	C10.97,43.423,9.001,45.396,9.001,47.935L9.001,47.935L9.001,47.935z M65.813,38.064c0.562,2.679,2.249,13.817,1.827,21.009V62
	c0,0.986-0.703,2-1.687,2H55.548c-0.845,0-1.688-1.014-1.688-2v-3H18.142v3c0,0.986-0.703,2-1.688,2H6.048
	c-0.844,0-1.688-1.014-1.688-2v-2.785C3.938,51.6,5.767,40.039,6.048,38.064C3.235,37.924,0,37.924,0,35.104
	c0-5.358,5.063-5.499,5.063-5.499l2.672,0.282c0-0.846,0.422-3.666,4.359-10.998c4.922-9.446,18.421-9.306,18.421-9.306l5.626-0.14
	l5.343,0.14c0,0,13.501-0.14,18.423,9.306c5.062,9.306,4.078,10.573,4.078,10.573l0.14,0.424l2.813-0.282
	c0,0,5.063,0.141,5.063,5.499C72,38.064,68.767,37.924,65.813,38.064L65.813,38.064L65.813,38.064z M65.813,38.064"/>
</svg>
