<?xml version="1.0" encoding="utf-8"?>
<!-- Generator: Adobe Illustrator 16.0.2, SVG Export Plug-In . SVG Version: 6.00 Build 0)  -->
<!DOCTYPE svg PUBLIC "-//W3C//DTD SVG 1.1//EN" "http://www.w3.org/Graphics/SVG/1.1/DTD/svg11.dtd">
<svg version="1.1" id="图层_1" xmlns="http://www.w3.org/2000/svg" xmlns:xlink="http://www.w3.org/1999/xlink" x="0px" y="0px"
	 width="90px" height="90px" viewBox="0 0 90 90" enable-background="new 0 0 90 90" xml:space="preserve">
<path opacity="0.7" fill-rule="evenodd" clip-rule="evenodd" d="M68.643,52.423c-2.53,0-4.499,1.974-4.499,4.512
	c0,2.396,1.969,4.512,4.499,4.512c2.531,0,4.5-2.116,4.5-4.512C73.143,54.396,71.174,52.423,68.643,52.423L68.643,52.423
	L68.643,52.423z M64.988,31.415c-3.938-6.908-14.485-6.767-14.485-6.767l-4.358-0.283h0.141h-0.141l-4.219,0.283
	c0,0-10.547-0.142-14.484,6.767c-3.797,6.909-3.938,12.971-3.938,12.971s11.391,0.563,22.641,0.563
	c11.39,0,22.781-0.563,22.781-0.563S68.784,38.323,64.988,31.415L64.988,31.415L64.988,31.415z M19.144,56.935
	c0,2.396,1.969,4.512,4.5,4.512c2.391,0,4.5-2.116,4.5-4.512c0-2.538-2.109-4.512-4.5-4.512
	C21.113,52.423,19.144,54.396,19.144,56.935L19.144,56.935L19.144,56.935z M75.957,47.064c0.562,2.679,2.249,13.817,1.827,21.009
	v2.537c0,0.986-0.703,1.833-1.687,1.833H65.691c-0.845,0-1.688-0.847-1.688-1.833v-2.114H46.144H28.285v2.114
	c0,0.986-0.703,1.833-1.688,1.833l-10.406-0.141c-0.844,0-1.688-0.706-1.688-1.692v-2.396c-0.423-7.615,1.406-19.176,1.688-21.15
	c-2.813-0.141-6.048-0.141-6.048-2.96c0-5.358,5.063-5.499,5.063-5.499l2.672,0.282c0-0.846,0.422-3.666,4.359-10.998
	c4.922-9.446,18.421-9.306,18.421-9.306l5.626-0.14l5.343,0.14c0,0,13.501-0.14,18.423,9.306c5.062,9.306,4.078,10.573,4.078,10.573
	l0.14,0.424l2.813-0.282c0,0,5.063,0.141,5.063,5.499C82.143,47.064,78.91,46.924,75.957,47.064L75.957,47.064L75.957,47.064z
	 M75.957,47.064"/>
</svg>
