<?xml version="1.0" encoding="utf-8"?>
<!-- Generator: Adobe Illustrator 16.0.2, SVG Export Plug-In . SVG Version: 6.00 Build 0)  -->
<!DOCTYPE svg PUBLIC "-//W3C//DTD SVG 1.1//EN" "http://www.w3.org/Graphics/SVG/1.1/DTD/svg11.dtd">
<svg version="1.1" id="图层_1" xmlns="http://www.w3.org/2000/svg" xmlns:xlink="http://www.w3.org/1999/xlink" x="0px" y="0px"
	 width="72px" height="72px" viewBox="0 0 72 72" enable-background="new 0 0 72 72" xml:space="preserve">
<path opacity="0.7" fill-rule="evenodd" clip-rule="evenodd" d="M20.847,48.982l-0.133,0.266
	C20.714,49.248,20.847,49.115,20.847,48.982L20.847,48.982L20.847,48.982z M51.021,48.716l0.265,0.531L51.021,48.716L51.021,48.716z
	 M69.896,48.547c0,0-2.127-6.463-9.571-6.463c-7.444,0-8.906,7.271-8.906,7.271s-0.267-0.538-0.664-1.48l0.266,0.942
	c-0.133-0.404-0.399-0.809-0.665-1.481c-1.595-2.424-4.917-6.73-10.9-7.943v18.934v0.403v2.692c0,4.443-2.525,8.079-7.178,8.483
	c-5.449,0.538-12.228-0.942-12.362-10.771c0,0.135,0.399-3.098,3.324-3.098c2.393,0,3.455,1.347,3.455,3.232
	c0,4.309,2.393,4.174,3.722,3.904c1.86-0.404,2.127-1.884,2.393-4.309v-0.538V39.391c-8.241,1.346-11.431,8.213-11.962,9.694
	l0.93-2.423c-0.93,1.48-1.196,2.692-1.196,2.692s-1.196-7.271-8.64-7.271c-7.576,0-9.835,7.001-9.835,7.001
	S1.042,35.351,5.693,27.272c4.652-8.078,14.622-16.156,25.787-16.156h1.329v-0.135c-2.259-0.135-5.316-0.269,0-0.269V9.366
	C32.81,7.48,34.272,6,36.133,6c1.861,0,3.323,1.48,3.323,3.366v1.346c4.786,0,2.26,0.135,0,0.269v0.135h1.063
	c11.166,0,21.135,8.078,25.787,16.156C70.959,35.351,69.896,48.547,69.896,48.547L69.896,48.547L69.896,48.547z M69.896,48.451"/>
</svg>
