<?xml version="1.0" encoding="utf-8"?>
<!-- Generator: Adobe Illustrator 16.0.2, SVG Export Plug-In . SVG Version: 6.00 Build 0)  -->
<!DOCTYPE svg PUBLIC "-//W3C//DTD SVG 1.1//EN" "http://www.w3.org/Graphics/SVG/1.1/DTD/svg11.dtd">
<svg version="1.1" id="图层_1" xmlns="http://www.w3.org/2000/svg" xmlns:xlink="http://www.w3.org/1999/xlink" x="0px" y="0px"
	 width="72px" height="72px" viewBox="0 0 72 72" enable-background="new 0 0 72 72" xml:space="preserve">
<path opacity="0.7" fill-rule="evenodd" clip-rule="evenodd" d="M46,67v-0.134V67L46,67L46,67z M25.986,66.866h-0.137V67h0.137
	V66.866L25.986,66.866z M13,66.866h12.849V48.064c0-0.812,0.684-1.993,1.503-1.993h17.143c0.821,0,1.505,1.182,1.505,1.993v18.801
	h14c1.368,0,3-1.5,3-2.855V41.523L37.337,25.127c-0.82-0.272-1.778-0.136-2.324-0.136L10,41.389V64.01
	C10,65.366,11.769,66.866,13,66.866L13,66.866L13,66.866z M70.709,32.444c0.547-0.678,0.273-1.491-0.41-2.033L37.748,9.543V9.407
	C37.475,9.135,36.654,9,35.97,9c-0.82,0-1.504,0.135-1.778,0.407c0,0,0,0,0,0.136L24,15.176V11.19c0-1.023-1.235-1.993-1.93-1.993
	c-2.07,0-9.07,0-9.07,0c-0.684,0-2,0.997-2,2.99c0,4.957,0.216,7.248,0.216,12.127l-9.574,6.097
	c-0.684,0.542-0.822,1.355-0.41,2.033l4.24,6.504c0.409,0.543,0.956,0.678,1.504,0.678l28.583-18.837v-0.676l0.548,0.27l0.547-0.27
	v0.676l28.585,18.837c0.547-0.135,0.957-0.273,1.231-0.678L70.709,32.444L70.709,32.444z M70.709,32.444"/>
</svg>
