<?xml version="1.0" encoding="utf-8"?>
<!-- Generator: Adobe Illustrator 16.0.2, SVG Export Plug-In . SVG Version: 6.00 Build 0)  -->
<!DOCTYPE svg PUBLIC "-//W3C//DTD SVG 1.1//EN" "http://www.w3.org/Graphics/SVG/1.1/DTD/svg11.dtd">
<svg version="1.1" id="图层_1" xmlns="http://www.w3.org/2000/svg" xmlns:xlink="http://www.w3.org/1999/xlink" x="0px" y="0px"
	 width="90px" height="90px" viewBox="0 0 90 90" enable-background="new 0 0 90 90" xml:space="preserve">
<path opacity="0.7" fill-rule="evenodd" clip-rule="evenodd" d="M60.834,80v-0.135V80L60.834,80L60.834,80z M40.82,79.865h-0.137V80
	h0.137V79.865L40.82,79.865z M27.834,79.865h12.849V61c0-0.814,0.684-2,1.503-2h17.143c0.821,0,1.505,1.186,1.505,2v18.865h14
	c1.368,0,3-1.505,3-2.865V54.437L52.171,37.984c-0.82-0.273-1.778-0.136-2.324-0.136L24.834,54.301V77
	C24.834,78.36,26.603,79.865,27.834,79.865L27.834,79.865L27.834,79.865z M85.543,45.326c0.547-0.681,0.273-1.496-0.41-2.04
	L52.583,22.347v-0.136c-0.273-0.272-1.095-0.408-1.778-0.408c-0.82,0-1.504,0.135-1.778,0.408c0,0,0,0,0,0.136L38.834,28v-4
	c0-1.026-1.235-2-1.93-2c-2.07,0-9.07,0-9.07,0c-0.684,0-2,1-2,3c0,4.974,0.216,7.272,0.216,12.168l-9.574,6.118
	c-0.684,0.544-0.822,1.359-0.41,2.04l4.24,6.526c0.409,0.545,0.956,0.681,1.504,0.681l28.583-18.901v-0.679l0.548,0.271l0.547-0.271
	v0.679l28.585,18.901c0.547-0.136,0.957-0.273,1.231-0.681L85.543,45.326L85.543,45.326z M85.543,45.326"/>
</svg>
