<?xml version="1.0" encoding="utf-8"?>
<!-- Generator: Adobe Illustrator 16.0.2, SVG Export Plug-In . SVG Version: 6.00 Build 0)  -->
<!DOCTYPE svg PUBLIC "-//W3C//DTD SVG 1.1//EN" "http://www.w3.org/Graphics/SVG/1.1/DTD/svg11.dtd">
<svg version="1.1" id="图层_1" xmlns="http://www.w3.org/2000/svg" xmlns:xlink="http://www.w3.org/1999/xlink" x="0px" y="0px"
	 width="90px" height="90px" viewBox="0 0 90 90" enable-background="new 0 0 90 90" xml:space="preserve">
<path opacity="0.7" fill-rule="evenodd" clip-rule="evenodd" d="M31.477,57.037l-0.133,0.266
	C31.344,57.303,31.477,57.17,31.477,57.037L31.477,57.037L31.477,57.037z M61.65,56.771l0.265,0.531L61.65,56.771L61.65,56.771z
	 M80.525,56.602c0,0-2.127-6.463-9.571-6.463c-7.444,0-8.906,7.271-8.906,7.271s-0.267-0.538-0.664-1.48l0.266,0.942
	c-0.133-0.404-0.399-0.809-0.665-1.481c-1.595-2.424-4.917-6.73-10.9-7.943V66.38v0.403v2.692c0,4.443-2.525,8.079-7.178,8.483
	c-5.449,0.538-12.228-0.942-12.362-10.771c0,0.135,0.399-3.098,3.324-3.098c2.393,0,3.455,1.347,3.455,3.232
	c0,4.309,2.393,4.174,3.722,3.904c1.86-0.404,2.127-1.884,2.393-4.309V66.38V47.446c-8.241,1.346-11.431,8.213-11.962,9.694
	l0.93-2.423c-0.93,1.48-1.196,2.692-1.196,2.692s-1.196-7.271-8.64-7.271c-7.576,0-9.835,7.001-9.835,7.001
	s-1.063-13.734,3.588-21.813c4.652-8.078,14.622-16.156,25.787-16.156h1.329v-0.135c-2.259-0.135-5.316-0.269,0-0.269v-1.346
	c0-1.886,1.463-3.366,3.323-3.366c1.861,0,3.323,1.48,3.323,3.366v1.346c4.786,0,2.26,0.135,0,0.269v0.135h1.063
	c11.166,0,21.135,8.078,25.787,16.156C81.589,43.406,80.525,56.602,80.525,56.602L80.525,56.602L80.525,56.602z M80.525,56.506"/>
</svg>
