<?xml version="1.0" encoding="utf-8"?>
<!-- Generator: Adobe Illustrator 16.0.2, SVG Export Plug-In . SVG Version: 6.00 Build 0)  -->
<!DOCTYPE svg PUBLIC "-//W3C//DTD SVG 1.1//EN" "http://www.w3.org/Graphics/SVG/1.1/DTD/svg11.dtd">
<svg version="1.1" id="图层_1" xmlns="http://www.w3.org/2000/svg" xmlns:xlink="http://www.w3.org/1999/xlink" x="0px" y="0px"
	 width="90px" height="90px" viewBox="0 0 90 90" enable-background="new 0 0 90 90" xml:space="preserve">
<path opacity="0.7" fill-rule="evenodd" clip-rule="evenodd" d="M64.334,21.211V44c0,0.75-0.126,1-0.875,1h-3.125v-2.164
	c0-2.375-2.25-4.25-4.5-4.5v-1.5c2.624-1.001,4.5-3.5,4.5-6.501c0-3.874-3.125-6.999-7.001-6.999c-3.874,0-7,3.125-7,6.999
	c0,3.001,1.875,5.5,4.501,6.501v1.5c-2.25,0.25-4.5,2.125-4.5,4.5V45h-3.625c-0.75,0-1.376-0.25-1.376-1V21.211
	c0-0.75,0.251-1.211,1.001-1.211h21C64.083,20,64.334,20.461,64.334,21.211L64.334,21.211L64.334,21.211z M28.334,63.71
	c0-0.75,0.25-1.71,1-1.71h34c0.749,0,1,0.25,1,1v3c0,0.752-0.251,1-1,1h-34c-0.75,0-1-1.041-1-1.041V63.71z M28.334,54.71
	c0-0.75,0.25-1.71,1-1.71h34c0.749,0,1,0.25,1,1v3c0,0.752-0.251,1-1,1h-34c-0.75,0-1-1.041-1-1.041V54.71z M68.957,77
	c1.252,0,2.377-0.625,2.377-2V15.376c0-1.375-1.125-2.376-2.377-2.376H22.709c-1.25,0-2.375,1.001-2.375,2.376V75
	c0,1.375,1.125,2,2.375,2H68.957L68.957,77z M68.957,77"/>
</svg>
