<?xml version="1.0" encoding="utf-8"?>
<!-- Generator: Adobe Illustrator 16.0.2, SVG Export Plug-In . SVG Version: 6.00 Build 0)  -->
<!DOCTYPE svg PUBLIC "-//W3C//DTD SVG 1.1//EN" "http://www.w3.org/Graphics/SVG/1.1/DTD/svg11.dtd">
<svg version="1.1" id="图层_1" xmlns="http://www.w3.org/2000/svg" xmlns:xlink="http://www.w3.org/1999/xlink" x="0px" y="0px"
	 width="90px" height="90px" viewBox="0 0 90 90" enable-background="new 0 0 90 90" xml:space="preserve">
<path opacity="0.7" fill-rule="evenodd" clip-rule="evenodd" d="M64.006,37.985l-2.812,8.807l-2.954-8.807h-4.781l5.484,14.438
	l-2.25,5.919h4.64l7.454-20.356H64.006L64.006,37.985z M52.194,44.048h-4.641v-4.765h-4.219v4.765h-4.641v4.332h4.641v4.765h4.219
	V48.38h4.641V44.048L52.194,44.048z M36.584,37.985h-5.344l-2.391,3.897l-2.391-3.897h-5.344l5.063,7.073l-5.625,8.086h5.344
	l2.954-4.62l3.094,4.62h5.343l-5.766-8.086L36.584,37.985L36.584,37.985z M70.334,64.552H18.303c-1.406,0-2.531-1.155-2.531-2.6
	V28.455c0-1.588,1.125-2.743,2.531-2.743h52.031c1.406,0,2.531,1.155,2.531,2.743v33.497C72.866,63.396,71.74,64.552,70.334,64.552
	L70.334,64.552L70.334,64.552z M76.663,24.99c0-1.731-1.266-3.032-2.954-3.032H14.928c-1.547,0-2.953,1.301-2.953,3.032v40.283
	c0,1.732,1.406,3.176,2.953,3.176h58.781c1.688,0,2.954-1.444,2.954-3.176V24.99L76.663,24.99L76.663,24.99z M76.663,72.203H11.975
	c-1.969,0-3.657-1.732-3.657-3.754V21.958c0-2.021,1.688-3.754,3.657-3.754h64.688c1.969,0,3.656,1.733,3.656,3.754v46.491
	C80.318,70.471,78.631,72.203,76.663,72.203L76.663,72.203L76.663,72.203z M76.663,72.203"/>
</svg>
