<?xml version="1.0" encoding="utf-8"?>
<!-- Generator: Adobe Illustrator 16.0.2, SVG Export Plug-In . SVG Version: 6.00 Build 0)  -->
<!DOCTYPE svg PUBLIC "-//W3C//DTD SVG 1.1//EN" "http://www.w3.org/Graphics/SVG/1.1/DTD/svg11.dtd">
<svg version="1.1" id="图层_1" xmlns="http://www.w3.org/2000/svg" xmlns:xlink="http://www.w3.org/1999/xlink" x="0px" y="0px"
	 width="90px" height="90px" viewBox="0 0 90 90" enable-background="new 0 0 90 90" xml:space="preserve">
<path opacity="0.7" fill-rule="evenodd" clip-rule="evenodd" d="M55.209,24.192c0-1.052-0.929-1.972-1.992-1.972H35.951
	c-1.063,0-1.992,0.92-1.992,1.972v4.075h21.249V24.192L55.209,24.192L55.209,24.192z M58.131,47.064
	c0-1.314-1.063-2.366-2.391-2.366H33.96c-1.329,0-2.391,1.052-2.391,2.366v2.497l-20.719-6.44v-12.62
	c0-1.314,1.063-2.366,2.523-2.366h13.679v-7.887c0-2.103,1.859-3.812,3.985-3.812h27.094c2.258,0,3.985,1.709,3.985,3.812v7.887
	h14.21c1.461,0,2.523,1.052,2.523,2.366v12.751l-20.719,6.441V47.064L58.131,47.064z M37.412,48.643h14.875
	c1.063,0,1.993,0.789,1.993,1.84v4.996c0,1.051-0.93,1.971-1.993,1.971H37.412c-1.063,0-1.992-0.92-1.992-1.971v-1.973v-0.131
	c0.265-0.395,0.265-0.92,0-1.446v-1.446C35.42,49.432,36.349,48.643,37.412,48.643L37.412,48.643L37.412,48.643z M76.326,72.436
	H13.373c-1.46,0-2.523-1.052-2.523-2.366V48.248l20.719,6.441v4.206c0,1.315,1.062,2.366,2.391,2.366H55.74
	c1.328,0,2.391-1.051,2.391-2.366V54.82l20.719-6.441v21.69C78.85,71.384,77.787,72.436,76.326,72.436L76.326,72.436L76.326,72.436z
	 M76.326,72.436"/>
</svg>
