<?xml version="1.0" encoding="utf-8"?>
<!-- Generator: Adobe Illustrator 16.0.2, SVG Export Plug-In . SVG Version: 6.00 Build 0)  -->
<!DOCTYPE svg PUBLIC "-//W3C//DTD SVG 1.1//EN" "http://www.w3.org/Graphics/SVG/1.1/DTD/svg11.dtd">
<svg version="1.1" id="图层_1" xmlns="http://www.w3.org/2000/svg" xmlns:xlink="http://www.w3.org/1999/xlink" x="0px" y="0px"
	 width="90px" height="90px" viewBox="0 0 90 90" enable-background="new 0 0 90 90" xml:space="preserve">
<g>
	<path opacity="0.7" fill-rule="evenodd" clip-rule="evenodd" d="M50.756,7.5c-14.697,0-26.722,10.406-26.722,23.125
		c0,23.125,26.722,50.875,26.722,50.875s26.723-27.75,26.723-50.875C77.479,17.906,65.453,7.5,50.756,7.5z M50.756,46.042
		c-8.495,0-15.417-6.924-15.417-15.417c0-8.495,6.921-15.417,15.417-15.417c8.496,0,15.417,6.922,15.417,15.417
		C66.173,39.118,59.251,46.042,50.756,46.042z"/>
	<path opacity="0.7" fill-rule="evenodd" clip-rule="evenodd" d="M50.757,20.347c-5.637,0-10.278,4.641-10.278,10.279
		c0,5.637,4.642,10.277,10.278,10.277c5.635,0,10.277-4.64,10.277-10.277C61.034,24.988,56.392,20.347,50.757,20.347z"/>
</g>
</svg>
