<?xml version="1.0" encoding="utf-8"?>
<!-- Generator: Adobe Illustrator 16.0.2, SVG Export Plug-In . SVG Version: 6.00 Build 0)  -->
<!DOCTYPE svg PUBLIC "-//W3C//DTD SVG 1.1//EN" "http://www.w3.org/Graphics/SVG/1.1/DTD/svg11.dtd">
<svg version="1.1" id="图层_1" xmlns="http://www.w3.org/2000/svg" xmlns:xlink="http://www.w3.org/1999/xlink" x="0px" y="0px"
	 width="72px" height="72px" viewBox="0 0 72 72" enable-background="new 0 0 72 72" xml:space="preserve">
<g>
	<path opacity="0.7" fill-rule="evenodd" clip-rule="evenodd" d="M39.277,0C24.58,0,12.555,12.281,12.555,25
		c0,23.125,26.722,47,26.722,47S66,48.125,66,25C66,12.281,53.975,0,39.277,0z M39,39c-8.266,0-15-6.737-15-15
		c0-8.265,6.734-15,15-15s15,6.735,15,15C54,32.263,47.266,39,39,39z"/>
	<path opacity="0.7" fill-rule="evenodd" clip-rule="evenodd" d="M39.001,14C33.517,14,29,18.515,29,24c0,5.485,4.517,10,10.001,10
		C44.484,34,49,29.485,49,24C49,18.515,44.484,14,39.001,14z"/>
</g>
</svg>
