<?xml version="1.0" encoding="utf-8"?>
<!-- Generator: Adobe Illustrator 16.0.2, SVG Export Plug-In . SVG Version: 6.00 Build 0)  -->
<!DOCTYPE svg PUBLIC "-//W3C//DTD SVG 1.1//EN" "http://www.w3.org/Graphics/SVG/1.1/DTD/svg11.dtd">
<svg version="1.1" id="图层_1" xmlns="http://www.w3.org/2000/svg" xmlns:xlink="http://www.w3.org/1999/xlink" x="0px" y="0px"
	 width="90px" height="90px" viewBox="0 0 90 90" enable-background="new 0 0 90 90" xml:space="preserve">
<path opacity="0.7" fill-rule="evenodd" clip-rule="evenodd" d="M77.5,18.76v18.703c0,0.731-0.146,1.315-0.73,1.901
	c-0.585,0.583-1.169,0.729-1.9,0.729H56.167c-1.169,0-1.899-0.438-2.484-1.606c-0.438-1.024-0.292-2.047,0.585-2.923l5.844-5.699
	c-4.091-3.8-9.06-5.699-14.612-5.699c-2.922,0-5.699,0.584-8.329,1.607c-2.63,1.17-4.822,2.631-6.722,4.675
	c-2.045,1.901-3.506,4.092-4.675,6.723c-1.023,2.631-1.607,5.407-1.607,8.329c0,2.922,0.583,5.699,1.607,8.33
	c1.169,2.63,2.63,4.821,4.675,6.721c1.9,2.045,4.091,3.507,6.722,4.676c2.63,1.023,5.407,1.608,8.329,1.608
	c3.36,0,6.43-0.731,9.352-2.192c2.923-1.315,5.552-3.36,7.452-6.138c0.292-0.146,0.584-0.438,1.023-0.438
	c0.437,0,0.73,0.146,1.021,0.438l5.7,5.699c0.292,0.292,0.438,0.438,0.438,0.876c0,0.293-0.146,0.585-0.292,0.877
	c-3.069,3.653-6.722,6.576-11.106,8.621C54.852,76.624,50.323,77.5,45.5,77.5c-4.383,0-8.475-0.729-12.42-2.482
	c-3.946-1.755-7.452-3.945-10.228-6.869c-2.924-2.775-5.115-6.283-6.868-10.228C14.231,53.975,13.5,49.883,13.5,45.5
	c0-4.383,0.731-8.475,2.484-12.42s3.944-7.453,6.868-10.228c2.776-2.924,6.282-5.115,10.228-6.869
	C37.025,14.23,41.117,13.5,45.5,13.5c4.091,0,8.036,0.73,11.836,2.191c3.799,1.606,7.307,3.8,10.229,6.575l5.406-5.406
	c0.876-0.877,1.753-1.023,2.922-0.585C77.061,16.86,77.5,17.591,77.5,18.76L77.5,18.76L77.5,18.76z M77.5,18.76"/>
</svg>
