<?xml version="1.0" encoding="utf-8"?>
<!-- Generator: Adobe Illustrator 16.0.2, SVG Export Plug-In . SVG Version: 6.00 Build 0)  -->
<!DOCTYPE svg PUBLIC "-//W3C//DTD SVG 1.1//EN" "http://www.w3.org/Graphics/SVG/1.1/DTD/svg11.dtd">
<svg version="1.1" id="图层_1" xmlns="http://www.w3.org/2000/svg" xmlns:xlink="http://www.w3.org/1999/xlink" x="0px" y="0px"
	 width="90px" height="90px" viewBox="0 0 90 90" enable-background="new 0 0 90 90" xml:space="preserve">
<path opacity="0.7" fill-rule="evenodd" clip-rule="evenodd" d="M63.5,51v-8c0-0.776-1.146-2-1.922-2H26.5
	c-0.776,0-1.872,1.224-1.872,2v8c0,0.776,1.096,2,1.872,2h35.078C62.354,53,63.5,51.776,63.5,51L63.5,51L63.5,51z M78.5,47
	c0,6.209-1.397,11.954-4.502,17.077c-3.104,5.278-7.141,9.314-12.419,12.42c-5.124,3.104-10.867,4.502-17.077,4.502
	c-6.211,0-11.955-1.397-17.078-4.502c-5.278-3.105-9.314-7.142-12.42-12.42C11.897,58.954,10.5,53.209,10.5,47
	c0-6.211,1.397-11.955,4.503-17.078c3.105-5.279,7.142-9.314,12.42-12.421C32.546,14.396,38.29,13,44.501,13
	c6.21,0,11.953,1.396,17.077,4.501c5.278,3.106,9.315,7.142,12.419,12.421C77.103,35.045,78.5,40.789,78.5,47L78.5,47L78.5,47z
	 M78.5,47"/>
</svg>
