<?xml version="1.0" encoding="utf-8"?>
<!-- Generator: Adobe Illustrator 16.0.2, SVG Export Plug-In . SVG Version: 6.00 Build 0)  -->
<!DOCTYPE svg PUBLIC "-//W3C//DTD SVG 1.1//EN" "http://www.w3.org/Graphics/SVG/1.1/DTD/svg11.dtd">
<svg version="1.1" id="图层_1" xmlns="http://www.w3.org/2000/svg" xmlns:xlink="http://www.w3.org/1999/xlink" x="0px" y="0px"
	 width="72px" height="72px" viewBox="0 0 72 72" enable-background="new 0 0 72 72" xml:space="preserve">
<path opacity="0.7" fill-rule="evenodd" clip-rule="evenodd" d="M55,40v-8c0-0.776-1.12-2-1.879-2H18.83C18.071,30,17,31.224,17,32
	v8c0,0.776,1.071,2,1.83,2h34.291C53.88,42,55,40.776,55,40L55,40L55,40z M70,36.001c0,6.209-1.397,11.954-4.502,17.077
	c-3.104,5.278-7.141,9.314-12.419,12.42C47.954,68.603,42.211,70,36.001,70c-6.211,0-11.955-1.397-17.078-4.502
	c-5.278-3.105-9.314-7.142-12.42-12.42C3.397,47.955,2,42.21,2,36.001c0-6.211,1.397-11.955,4.503-17.078
	c3.105-5.279,7.142-9.314,12.42-12.421c5.123-3.104,10.867-4.501,17.078-4.501c6.21,0,11.953,1.396,17.077,4.501
	c5.278,3.106,9.315,7.142,12.419,12.421C68.603,24.046,70,29.79,70,36.001L70,36.001L70,36.001z M70,36.001"/>
</svg>
