<?xml version="1.0" encoding="utf-8"?>
<!-- Generator: Adobe Illustrator 16.0.2, SVG Export Plug-In . SVG Version: 6.00 Build 0)  -->
<!DOCTYPE svg PUBLIC "-//W3C//DTD SVG 1.1//EN" "http://www.w3.org/Graphics/SVG/1.1/DTD/svg11.dtd">
<svg version="1.1" id="图层_1" xmlns="http://www.w3.org/2000/svg" xmlns:xlink="http://www.w3.org/1999/xlink" x="0px" y="0px"
	 width="90px" height="90px" viewBox="0 0 90 90" enable-background="new 0 0 90 90" xml:space="preserve">
<path opacity="0.7" fill-rule="evenodd" clip-rule="evenodd" d="M61.936,10.026H26.471c-3.738,0-6.9,3.164-6.9,6.901V75.1
	c0,3.738,3.162,6.9,6.9,6.9h35.464c3.737,0,6.899-3.162,6.899-6.9V16.928C68.834,13.19,65.673,10.026,61.936,10.026L61.936,10.026
	L61.936,10.026z M35.108,14.026h19v2h-19V14.026z M44.472,77.399c-2.588,0-4.6-2.011-4.6-4.599c0-2.587,2.012-4.6,4.6-4.6
	s4.6,2.013,4.6,4.6C49.072,75.388,47.06,77.399,44.472,77.399L44.472,77.399L44.472,77.399z M61.471,63.6H26.207V22.026h35.264V63.6
	z M64.234,63.6"/>
</svg>
