<?xml version="1.0" encoding="utf-8"?>
<!-- Generator: Adobe Illustrator 16.0.2, SVG Export Plug-In . SVG Version: 6.00 Build 0)  -->
<!DOCTYPE svg PUBLIC "-//W3C//DTD SVG 1.1//EN" "http://www.w3.org/Graphics/SVG/1.1/DTD/svg11.dtd">
<svg version="1.1" id="图层_1" xmlns="http://www.w3.org/2000/svg" xmlns:xlink="http://www.w3.org/1999/xlink" x="0px" y="0px"
	 width="72px" height="72px" viewBox="0 0 72 72" enable-background="new 0 0 72 72" xml:space="preserve">
<path opacity="0.7" fill-rule="evenodd" clip-rule="evenodd" d="M53.108,0H17.63C13.891,0,11,4.165,11,7.833V65
	c0,3.811,2.891,6.974,6.63,6.974h35.478C56.846,71.974,61,68.811,61,65V7.833C61,4.165,56.846,0,53.108,0L53.108,0L53.108,0z M25,4
	h20v2H25V4z M36,67c-2.813,0-5-2.187-5-4.999s2.188-5,5-5c2.813,0,5,2.188,5,5S38.813,67,36,67L36,67L36,67z M53,53H18V11.978h35V53
	z M55.764,53.496"/>
</svg>
