<?xml version="1.0" encoding="utf-8"?>
<!-- Generator: Adobe Illustrator 16.0.2, SVG Export Plug-In . SVG Version: 6.00 Build 0)  -->
<!DOCTYPE svg PUBLIC "-//W3C//DTD SVG 1.1//EN" "http://www.w3.org/Graphics/SVG/1.1/DTD/svg11.dtd">
<svg version="1.1" id="图层_1" xmlns="http://www.w3.org/2000/svg" xmlns:xlink="http://www.w3.org/1999/xlink" x="0px" y="0px"
	 width="90px" height="90px" viewBox="0 0 90 90" enable-background="new 0 0 90 90" xml:space="preserve">
<path opacity="0.7" fill-rule="evenodd" clip-rule="evenodd" d="M67.846,12.427c5.672,0,10.312,4.641,10.312,10.312
	c0,2.321-0.773,4.512-2.062,6.188l-4.125,4.124L57.533,18.614l4.125-4.125C63.334,13.2,65.524,12.427,67.846,12.427L67.846,12.427
	L67.846,12.427z M16.282,59.864l-4.125,18.562l18.563-4.125l38.156-38.157L54.439,21.708L16.282,59.864L16.282,59.864z
	 M58.307,35.887L29.432,64.763l-3.61-3.609l28.876-28.875L58.307,35.887L58.307,35.887z M58.307,35.887"/>
</svg>
