<?xml version="1.0" encoding="utf-8"?>
<!-- Generator: Adobe Illustrator 16.0.2, SVG Export Plug-In . SVG Version: 6.00 Build 0)  -->
<!DOCTYPE svg PUBLIC "-//W3C//DTD SVG 1.1//EN" "http://www.w3.org/Graphics/SVG/1.1/DTD/svg11.dtd">
<svg version="1.1" id="图层_1" xmlns="http://www.w3.org/2000/svg" xmlns:xlink="http://www.w3.org/1999/xlink" x="0px" y="0px"
	 width="72px" height="72px" viewBox="0 0 72 72" enable-background="new 0 0 72 72" xml:space="preserve">
<path opacity="0.7" fill-rule="evenodd" clip-rule="evenodd" d="M59.346,3.427c5.672,0,10.312,4.641,10.312,10.312
	c0,2.321-0.773,4.512-2.062,6.188l-4.125,4.124L49.033,9.614l4.125-4.125C54.834,4.2,57.024,3.427,59.346,3.427L59.346,3.427
	L59.346,3.427z M7.782,50.864L3.657,69.426l18.563-4.125l38.156-38.157L45.939,12.708L7.782,50.864L7.782,50.864z M49.807,26.887
	L20.932,55.763l-3.61-3.609l28.876-28.875L49.807,26.887L49.807,26.887z M49.807,26.887"/>
</svg>
