<?xml version="1.0" encoding="utf-8"?>
<!-- Generator: Adobe Illustrator 16.0.2, SVG Export Plug-In . SVG Version: 6.00 Build 0)  -->
<!DOCTYPE svg PUBLIC "-//W3C//DTD SVG 1.1//EN" "http://www.w3.org/Graphics/SVG/1.1/DTD/svg11.dtd">
<svg version="1.1" id="图层_1" xmlns="http://www.w3.org/2000/svg" xmlns:xlink="http://www.w3.org/1999/xlink" x="0px" y="0px"
	 width="72px" height="72px" viewBox="0 0 72 72" enable-background="new 0 0 72 72" xml:space="preserve">
<path opacity="0.7" fill-rule="evenodd" clip-rule="evenodd" d="M50.934,42.399c-4.267,4.268-4.267,8.534-8.534,8.534
	c-4.267,0-8.533-4.267-12.801-8.534c-4.266-4.267-8.533-8.533-8.533-12.8s4.266-4.267,8.533-8.533C33.867,16.8,21.067,4,16.8,4
	C12.533,4,4,16.8,4,16.8c0,8.533,8.8,25.867,17.067,34.134C29.334,59.2,46.667,68,55.2,68c0,0,12.8-8.533,12.8-12.8
	C68,50.934,55.2,38.133,50.934,42.399L50.934,42.399L50.934,42.399z M50.934,42.399"/>
</svg>
