<?xml version="1.0" encoding="utf-8"?>
<!-- Generator: Adobe Illustrator 16.0.2, SVG Export Plug-In . SVG Version: 6.00 Build 0)  -->
<!DOCTYPE svg PUBLIC "-//W3C//DTD SVG 1.1//EN" "http://www.w3.org/Graphics/SVG/1.1/DTD/svg11.dtd">
<svg version="1.1" id="图层_1" xmlns="http://www.w3.org/2000/svg" xmlns:xlink="http://www.w3.org/1999/xlink" x="0px" y="0px"
	 width="90px" height="90px" viewBox="0 0 90 90" enable-background="new 0 0 90 90" xml:space="preserve">
<path opacity="0.7" fill-rule="evenodd" clip-rule="evenodd" d="M60.434,51.899c-4.267,4.268-4.267,8.534-8.534,8.534
	c-4.267,0-8.533-4.267-12.801-8.534c-4.266-4.267-8.533-8.533-8.533-12.8s4.266-4.267,8.533-8.533
	C43.367,26.3,30.567,13.5,26.3,13.5c-4.267,0-12.8,12.8-12.8,12.8c0,8.533,8.8,25.867,17.067,34.134
	C38.834,68.7,56.167,77.5,64.7,77.5c0,0,12.8-8.533,12.8-12.8C77.5,60.434,64.7,47.633,60.434,51.899L60.434,51.899L60.434,51.899z
	 M60.434,51.899"/>
</svg>
