<?xml version="1.0" encoding="UTF-8" standalone="no"?>
<svg width="69px" height="69px" viewBox="0 0 69 69" version="1.1" xmlns="http://www.w3.org/2000/svg" xmlns:xlink="http://www.w3.org/1999/xlink" xmlns:sketch="http://www.bohemiancoding.com/sketch/ns">
    <!-- Generator: Sketch 3.2.2 (9983) - http://www.bohemiancoding.com/sketch -->
    <title>Shape</title>
    <desc>Created with Sketch.</desc>
    <defs></defs>
    <path opacity="0.7" fill-rule="evenodd" clip-rule="evenodd" d="M63,34.2644831 C63,35.4747358 62.5195785,36.6849886 61.5523584,37.6521988 C60.7055979,38.4989506 59.4953326,38.9793671 58.2857759,38.9786585 L37.9486429,38.9481896 L37.977695,59.28653 C37.9791121,60.4953656 37.4986907,61.7056184 36.6512216,62.5530788 C35.6847099,63.5195804 34.4730275,64.0014141 33.2641795,63.9999969 L23.8236853,63.9865339 C22.6127114,63.9844082 21.4003204,63.4976144 20.5514341,62.6487369 C19.5820882,61.679401 19.2178748,60.5896066 19.0952895,59.2581869 L19.0662374,38.9226807 L-1.27231281,38.8907947 C-2.48257798,38.8893775 -3.69496904,38.4025839 -4.54314674,37.554415 C-5.51320127,36.5843704 -5.876706,35.4952846 -6,34.1631563 L-5.89300349,24.8432179 C-6.01700607,23.5117981 -5.41329062,22.4220037 -4.44677902,21.4555021 C-3.60001848,20.6087503 -2.51092146,20.0057497 -1.179488,20.129751 L19.1576451,20.1573856 L19.128593,-0.178120576 C19.005299,-1.51024887 19.6075973,-2.59862608 20.4543578,-3.44537787 C21.421578,-4.41258809 22.510675,-5.01558874 23.8428171,-4.89229601 L33.1635602,-5 C34.4957022,-4.87670727 35.5847993,-4.51320629 36.5548539,-3.54316177 C37.4030316,-2.69499281 37.8898302,-1.4826143 37.8912474,-0.272361569 L37.9224252,20.0652703 L58.2581411,20.0943221 C59.5902832,20.2176147 60.6793801,20.5811157 61.6494347,21.5511603 C62.4990295,22.4007464 62.9851197,23.6124163 62.9872455,24.8233777 L63,34.2644831 Z" sketch:type="MSShapeGroup"></path>
</svg>