<?xml version="1.0" encoding="UTF-8" standalone="no"?>
<svg width="68px" height="68px" viewBox="0 0 68 68" version="1.1" xmlns="http://www.w3.org/2000/svg" xmlns:xlink="http://www.w3.org/1999/xlink" xmlns:sketch="http://www.bohemiancoding.com/sketch/ns">
    <!-- Generator: Sketch 3.2.2 (9983) - http://www.bohemiancoding.com/sketch -->
    <title>Shape</title>
    <desc>Created with Sketch.</desc>
    <defs></defs>
    <path opacity="0.7" fill-rule="evenodd" clip-rule="evenodd" d="M38.8281251,53.1017826 C39.3782542,52.5516535 39.7077659,51.7837355 39.5974573,51.0158176 L39.708473,39.708473 L51.0158176,39.5988715 C51.7837355,39.7091802 52.5523606,39.3789613 53.1010755,38.8302464 C53.6497903,38.2815316 53.8704077,37.622508 53.8697006,36.7449885 L53.8697006,31.2550115 C53.8704077,30.3760777 53.6512046,29.7184684 53.1017826,29.1690465 C52.5530677,28.6203316 51.7844427,28.2901127 51.0158176,28.4011285 L39.7077659,28.2908198 L39.5981644,16.9834753 C39.7091802,16.2148502 39.3782542,15.4455181 38.8302464,14.8975103 C38.2808245,14.3480883 37.6232151,14.1288852 36.7442814,14.1295923 L31.2550115,14.1302994 C30.3767849,14.1288852 29.7191755,14.3495026 29.1697536,14.8989245 C28.6203316,15.4483465 28.2908198,16.2162645 28.4011285,16.9841824 L28.2908198,28.2908198 L16.9834753,28.4018356 C16.2148502,28.2908198 15.4476394,28.6210387 14.8975103,29.1711678 C14.3495026,29.7191755 14.1295923,30.377492 14.1288852,31.2564257 L14.1288852,36.7449885 C14.1288852,37.6232151 14.3480883,38.2808245 14.8975103,38.8302464 C15.4455181,39.3782542 16.2148502,39.7091802 16.9827682,39.5988715 L28.2894056,39.7091802 L28.4004214,51.0165247 C28.2901127,51.7844427 28.6203316,52.5530677 29.1690465,53.1017826 C29.7184684,53.6512046 30.3760777,53.8704077 31.2543044,53.8704077 L36.7435743,53.8711148 C37.6232151,53.8697006 38.2801173,53.6497903 38.8281251,53.1017826 L38.8281251,53.1017826 L38.8281251,53.1017826 Z M68,34 C68,40.21 66.603,45.954 63.497,51.078 C60.392,56.356 56.356,60.394 51.077,63.498 C45.954,66.603 40.21,68 33.999,68 C27.79,68 22.046,66.603 16.922,63.498 C11.643,60.394 7.607,56.356 4.502,51.078 C1.397,45.954 0,40.21 0,34 C0,27.79 1.397,22.046 4.502,16.922 C7.607,11.645 11.643,7.609 16.922,4.503 C22.046,1.398 27.79,0 33.999,0 C40.21,0 45.954,1.398 51.077,4.502 C56.356,7.608 60.392,11.644 63.497,16.921 C66.603,22.046 68,27.79 68,34 L68,34 L68,34 Z" id="Shape" sketch:type="MSShapeGroup"></path>
</svg>