<?xml version="1.0" encoding="UTF-8" standalone="no"?>
<svg width="70px" height="70px" viewBox="0 0 70 70" version="1.1" xmlns="http://www.w3.org/2000/svg" xmlns:xlink="http://www.w3.org/1999/xlink" xmlns:sketch="http://www.bohemiancoding.com/sketch/ns">
    <!-- Generator: Sketch 3.2.2 (9983) - http://www.bohemiancoding.com/sketch -->
    <title>Shape</title>
    <desc>Created with Sketch.</desc>
    <defs></defs>
    <g id="delete" sketch:type="MSLayerGroup" transform="translate(6.000000, 6.000000)">
        <path opacity="0.7" fill-rule="evenodd" clip-rule="evenodd" d="M58,46.707 C58,47.906 57.488,49.104 56.635,49.96 L49.982,56.631 C49.128,57.485 47.935,58 46.57,58 C45.375,58 44.182,57.485 43.329,56.631 L29,42.259 L14.669,56.631 C13.817,57.485 12.624,58 11.428,58 C10.064,58 8.869,57.485 8.017,56.631 L1.365,49.96 C0.512,49.104 0,47.905 0,46.707 C0,45.339 0.512,44.313 1.365,43.287 L15.694,28.917 L1.365,14.543 C0.512,13.688 0,12.489 0,11.292 C0,9.923 0.512,8.898 1.365,7.871 L8.017,1.37 C8.869,0.343 10.064,0 11.428,0 C12.623,0 13.817,0.343 14.669,1.37 L29,15.74 L43.329,1.37 C44.182,0.343 45.375,0 46.57,0 C47.935,0 49.129,0.343 49.982,1.37 L56.635,7.871 C57.488,8.898 58,9.923 58,11.292 C58,12.489 57.488,13.688 56.635,14.543 L42.306,28.916 L56.635,43.286 C57.488,44.313 58,45.338 58,46.707 L58,46.707 L58,46.707 Z" id="Shape" sketch:type="MSShapeGroup" transform="translate(29.000000, 29.000000) rotate(-45.000000) translate(-29.000000, -29.000000) "></path>
    </g>
</svg>