<?xml version="1.0" encoding="utf-8"?>
<!-- Generator: Adobe Illustrator 16.0.2, SVG Export Plug-In . SVG Version: 6.00 Build 0)  -->
<!DOCTYPE svg PUBLIC "-//W3C//DTD SVG 1.1//EN" "http://www.w3.org/Graphics/SVG/1.1/DTD/svg11.dtd">
<svg version="1.1" id="图层_1" xmlns="http://www.w3.org/2000/svg" xmlns:xlink="http://www.w3.org/1999/xlink" x="0px" y="0px"
	 width="90px" height="90px" viewBox="0 0 90 90" enable-background="new 0 0 90 90" xml:space="preserve">
<path opacity="0.7" fill-rule="evenodd" clip-rule="evenodd" d="M25.286,25.452c-1.254,0-2.132,1.004-2.132,2.131v39.13
	c0,1.255,0.878,2.133,2.132,2.133h38.628c1.129,0,2.383-0.877,2.383-2.133V36.864c0,0,4.014-5.769,8.403,0v34.238
	c0,3.513-2.634,6.396-6.772,6.396H21.022c-3.638,0-6.522-2.257-6.522-5.894V24.198c0-3.638,2.884-7.399,6.522-7.399h30.852
	c3.637,4.388-0.125,8.653-0.125,8.653H25.286L25.286,25.452z M45.228,51.413h-5.017l1.631-4.014L45.228,51.413L45.228,51.413z
	 M53.755,46.146l-6.396,2.884l-3.637-4.012l1.505-6.898l17.182-17.308l7.525,7.274L53.755,46.146L53.755,46.146z M75.828,21.439
	l-3.637,3.763l-7.148-6.899l3.637-4.139c1.756-1.63,3.01,0.251,3.01,0.251l4.138,4.264C77.334,20.184,75.828,21.439,75.828,21.439
	L75.828,21.439L75.828,21.439z M75.828,21.439"/>
</svg>
