<?xml version="1.0" encoding="utf-8"?>
<!-- Generator: Adobe Illustrator 16.0.2, SVG Export Plug-In . SVG Version: 6.00 Build 0)  -->
<!DOCTYPE svg PUBLIC "-//W3C//DTD SVG 1.1//EN" "http://www.w3.org/Graphics/SVG/1.1/DTD/svg11.dtd">
<svg version="1.1" id="图层_1" xmlns="http://www.w3.org/2000/svg" xmlns:xlink="http://www.w3.org/1999/xlink" x="0px" y="0px"
	 width="72px" height="72px" viewBox="0 0 72 72" enable-background="new 0 0 72 72" xml:space="preserve">
<path opacity="0.7" fill-rule="evenodd" clip-rule="evenodd" d="M15.787,15C14.23,15,14,16.957,14,18.084v39.13
	C14,58.47,14.533,59,15.787,59H56c1.129,0,2-1.745,2-3c0,0,0-18.365,0-25c0-6,9-6,9,0c0,7.635,0,30.604,0,30.604
	C67,65.116,65.139,68,61,68H10c-3.638,0-5-2.257-5-5.894V13c0-3.638,2.885-7,6.523-7c0,0,22.102,0,29.477,0c5,0,5,9,0,9
	C34.75,15,15.787,15,15.787,15z M34.017,40.014H29L30.631,36L34.017,40.014L34.017,40.014z M44.033,36.334l-6.396,2.884L34,35.206
	l1.505-6.898L52.687,11l7.525,7.274L44.033,36.334L44.033,36.334z M66.331,11.687l-3.637,3.763l-7.148-6.899l3.456-3.804
	c1.756-1.63,3.191-0.084,3.191-0.084l4.138,4.264C67.836,10.432,66.331,11.687,66.331,11.687L66.331,11.687L66.331,11.687z
	 M66.329,11.94"/>
</svg>
