<?xml version="1.0" encoding="utf-8"?>
<!-- Generator: Adobe Illustrator 16.0.2, SVG Export Plug-In . SVG Version: 6.00 Build 0)  -->
<!DOCTYPE svg PUBLIC "-//W3C//DTD SVG 1.1//EN" "http://www.w3.org/Graphics/SVG/1.1/DTD/svg11.dtd">
<svg version="1.1" id="图层_1" xmlns="http://www.w3.org/2000/svg" xmlns:xlink="http://www.w3.org/1999/xlink" x="0px" y="0px"
	 width="72px" height="72px" viewBox="0 0 72 72" enable-background="new 0 0 72 72" xml:space="preserve">
<path opacity="0.7" fill-rule="evenodd" clip-rule="evenodd" d="M30,49h8v8h-8V49L30,49z M47.334,19C49.725,19,52,20.859,52,23.25
	V36l-13.166,8H30v-3.75l14-8.5V27H21.833v-8H47.334L47.334,19z M36,2C54.727,2,70,17.273,70,36c0,18.728-15.273,34-34,34
	C17.274,70,2,54.728,2,36C2,17.273,17.274,2,36,2L36,2L36,2z M36,2"/>
</svg>
