<?xml version="1.0" encoding="UTF-8" standalone="no"?>
<svg width="68px" height="68px" viewBox="0 0 68 68" version="1.1" xmlns="http://www.w3.org/2000/svg" xmlns:xlink="http://www.w3.org/1999/xlink" xmlns:sketch="http://www.bohemiancoding.com/sketch/ns">
    <!-- Generator: Sketch 3.2.2 (9983) - http://www.bohemiancoding.com/sketch -->
    <title>Shape</title>
    <desc>Created with Sketch.</desc>
    <defs></defs>
    <path opacity="0.7" fill-rule="evenodd" clip-rule="evenodd" d="M28,47 L36,47 L36,55 L28,55 L28,47 L28,47 Z M45.334,17 C47.725,17 50,18.859 50,21.25 L50,34 L36.834,42 L28,42 L28,38.25 L42,29.75 L42,25 L19.833,25 L19.833,17 L45.334,17 L45.334,17 Z M0,34 C0,52.728 15.274,68 34,68 C52.727,68 68,52.728 68,34 C68,15.273 52.727,0 34,0 C15.274,0 0,15.273 0,34 Z" id="Shape" sketch:type="MSShapeGroup"></path>
</svg>