<?xml version="1.0" encoding="utf-8"?>
<!-- Generator: Adobe Illustrator 16.0.2, SVG Export Plug-In . SVG Version: 6.00 Build 0)  -->
<!DOCTYPE svg PUBLIC "-//W3C//DTD SVG 1.1//EN" "http://www.w3.org/Graphics/SVG/1.1/DTD/svg11.dtd">
<svg version="1.1" id="图层_1" xmlns="http://www.w3.org/2000/svg" xmlns:xlink="http://www.w3.org/1999/xlink" x="0px" y="0px"
	 width="90px" height="90px" viewBox="0 0 90 90" enable-background="new 0 0 90 90" xml:space="preserve">
<g opacity="0.7">
	<path d="M63.069,64.924c-5.358,5.504-12.803,6.66-18.104,6.66c-13.664,0-24.781-11.117-24.781-24.782s11.117-24.782,24.781-24.782
		c4.982,0,9.887,1.516,13.938,4.287l-8.22,8.355L79.5,40.339L73.674,11.5l-8.303,8.444c-5.967-4.507-13.003-6.884-20.406-6.884
		c-18.605,0-33.742,15.137-33.742,33.742S26.36,80.544,44.965,80.544c12.915,0,21.875-4.112,27.393-12.571l0.779-1.196l-9.674-2.258
		L63.069,64.924z"/>
	<path d="M41.387,34.299v11.503H29.625c-1.974,0-3.579,1.605-3.579,3.577c0,1.973,1.605,3.579,3.579,3.579h15.34
		c1.973,0,3.578-1.605,3.578-3.579V34.299c0-1.974-1.605-3.58-3.578-3.58S41.387,32.325,41.387,34.299z"/>
	<path d="M73.869,56.544l-5.135-0.929c-1.958-0.356-3.762,0.909-4.109,2.654c-0.258,0.945-0.108,1.958,0.411,2.781
		c0.516,0.818,1.357,1.386,2.311,1.56l5.025,0.901c0.225,0.041,0.447,0.061,0.665,0.061c1.683,0,3.138-1.17,3.444-2.715
		C77.039,58.814,75.591,57.06,73.869,56.544z"/>
	<path d="M76.362,46.338l-5.049-1.036c-1.982-0.36-3.743,0.903-4.118,2.813c-0.239,0.854-0.102,1.788,0.378,2.572
		c0.518,0.845,1.374,1.431,2.328,1.604l5.032,1.032c0.228,0.045,0.462,0.068,0.697,0.068c1.703,0,3.153-1.179,3.448-2.804
		C79.431,48.65,78.314,46.869,76.362,46.338z"/>
</g>
</svg>
