<?xml version="1.0" encoding="utf-8"?>
<!-- Generator: Adobe Illustrator 16.0.2, SVG Export Plug-In . SVG Version: 6.00 Build 0)  -->
<!DOCTYPE svg PUBLIC "-//W3C//DTD SVG 1.1//EN" "http://www.w3.org/Graphics/SVG/1.1/DTD/svg11.dtd">
<svg version="1.1" id="图层_1" xmlns="http://www.w3.org/2000/svg" xmlns:xlink="http://www.w3.org/1999/xlink" x="0px" y="0px"
	 width="72px" height="72px" viewBox="0 0 72 72" enable-background="new 0 0 72 72" xml:space="preserve">
<path opacity="0.7" fill-rule="evenodd" clip-rule="evenodd" d="M65.261,13.781c-0.563-0.562-1.407-0.984-2.111-0.984
	c-6.329-0.141-14.349-7.031-19.694-9.704C40.22,1.407,38.11,0.282,36.421,0H36h-0.422c-1.689,0.282-3.799,1.407-7.035,3.093
	C23.199,5.766,15.18,12.656,8.85,12.797c-0.703,0-1.548,0.422-2.11,0.984c-0.563,0.704-0.845,1.548-0.705,2.39
	c1.266,27.985,11.255,45.422,28.557,55.407C35.015,71.859,35.578,72,36,72c0.421,0,0.983-0.141,1.407-0.422
	c17.303-9.984,27.291-27.422,28.557-55.407C66.105,15.329,65.823,14.484,65.261,13.781L65.261,13.781L65.261,13.781z M26.012,29.812
	l8.723,8.86l11.816-14.906l6.189,6.75L34.031,47.813L20.526,36.421L26.012,29.812L26.012,29.812z M26.012,29.812"/>
</svg>
