<?xml version="1.0" encoding="utf-8"?>
<!-- Generator: Adobe Illustrator 16.0.2, SVG Export Plug-In . SVG Version: 6.00 Build 0)  -->
<!DOCTYPE svg PUBLIC "-//W3C//DTD SVG 1.1//EN" "http://www.w3.org/Graphics/SVG/1.1/DTD/svg11.dtd">
<svg version="1.1" id="图层_1" xmlns="http://www.w3.org/2000/svg" xmlns:xlink="http://www.w3.org/1999/xlink" x="0px" y="0px"
	 width="72px" height="72px" viewBox="0 0 72 72" enable-background="new 0 0 72 72" xml:space="preserve">
<path opacity="0.7" fill-rule="evenodd" clip-rule="evenodd" d="M66.261,13.781c-0.563-0.563-1.406-0.984-2.11-0.984
	c-6.331-0.141-14.35-7.031-19.695-9.704C41.22,1.406,39.11,0.281,37.423,0H37h-0.422c-1.688,0.281-3.798,1.406-7.174,3.093
	C24.199,5.766,16.18,12.656,9.85,12.797c-0.703,0-1.547,0.422-2.11,0.984c-0.563,0.703-0.845,1.547-0.704,2.392
	c1.266,27.984,11.254,45.421,28.558,55.406C36.016,71.861,36.578,72,37,72s0.984-0.139,1.407-0.421
	c17.304-9.985,27.291-27.422,28.557-55.406C67.105,15.328,66.824,14.484,66.261,13.781z M32.737,15.875h8.525
	c0.14,0,0.422,0.281,0.422,0.421l-0.563,24.89c0,0.142-0.141,0.423-0.282,0.423H33.3c-0.141,0-0.281-0.281-0.281-0.423l-0.703-24.89
	C32.316,16.156,32.597,15.875,32.737,15.875z M40.52,56.071c-0.926,0.962-2.223,1.539-3.52,1.539c-1.297,0-2.594-0.576-3.519-1.539
	c-0.926-0.962-1.483-2.115-1.483-3.461c0-1.346,0.557-2.691,1.483-3.653c0.925-0.961,2.222-1.347,3.519-1.347
	c1.296,0,2.593,0.385,3.52,1.347c0.926,0.962,1.482,2.308,1.482,3.653C42.002,53.956,41.446,55.109,40.52,56.071z"/>
</svg>
