<?xml version="1.0" encoding="utf-8"?>
<!-- Generator: Adobe Illustrator 16.0.2, SVG Export Plug-In . SVG Version: 6.00 Build 0)  -->
<!DOCTYPE svg PUBLIC "-//W3C//DTD SVG 1.1//EN" "http://www.w3.org/Graphics/SVG/1.1/DTD/svg11.dtd">
<svg version="1.1" id="图层_1" xmlns="http://www.w3.org/2000/svg" xmlns:xlink="http://www.w3.org/1999/xlink" x="0px" y="0px"
	 width="90px" height="90px" viewBox="0 0 90 90" enable-background="new 0 0 90 90" xml:space="preserve">
<path opacity="0.7" fill-rule="evenodd" clip-rule="evenodd" d="M74.761,22.281c-0.563-0.563-1.406-0.984-2.109-0.984
	c-6.329-0.141-14.345-7.031-19.688-9.704C49.729,9.906,47.62,8.781,45.933,8.5h-0.422h-0.422c-1.687,0.281-3.797,1.406-7.172,3.093
	c-5.203,2.673-13.219,9.563-19.547,9.704c-0.703,0-1.547,0.422-2.109,0.984c-0.563,0.703-0.844,1.547-0.703,2.392
	c1.266,27.984,11.25,45.421,28.547,55.406c0.421,0.282,0.984,0.421,1.406,0.421c0.422,0,0.984-0.139,1.406-0.421
	c17.297-9.985,27.281-27.422,28.547-55.406C75.605,23.828,75.324,22.984,74.761,22.281z M41.25,24.375h8.522
	c0.14,0,0.422,0.281,0.422,0.421l-0.563,24.89c0,0.142-0.141,0.423-0.282,0.423h-7.537c-0.14,0-0.281-0.281-0.281-0.423
	l-0.703-24.89C40.828,24.656,41.109,24.375,41.25,24.375z M49.029,64.571c-0.926,0.962-2.222,1.539-3.518,1.539
	c-1.297,0-2.593-0.576-3.518-1.539c-0.926-0.962-1.482-2.115-1.482-3.461c0-1.346,0.557-2.691,1.482-3.653
	c0.925-0.961,2.221-1.347,3.518-1.347c1.296,0,2.592,0.385,3.518,1.347c0.926,0.962,1.481,2.308,1.481,3.653
	C50.511,62.456,49.955,63.609,49.029,64.571z"/>
</svg>
