<?xml version="1.0" encoding="utf-8"?>
<!-- Generator: Adobe Illustrator 16.0.2, SVG Export Plug-In . SVG Version: 6.00 Build 0)  -->
<!DOCTYPE svg PUBLIC "-//W3C//DTD SVG 1.1//EN" "http://www.w3.org/Graphics/SVG/1.1/DTD/svg11.dtd">
<svg version="1.1" id="图层_1" xmlns="http://www.w3.org/2000/svg" xmlns:xlink="http://www.w3.org/1999/xlink" x="0px" y="0px"
	 width="90px" height="90px" viewBox="0 0 90 90" enable-background="new 0 0 90 90" xml:space="preserve">
<path opacity="0.7" fill-rule="evenodd" clip-rule="evenodd" d="M77.583,69.117L61.037,55.033c-1.777-1.642-3.555-2.324-5.06-2.188
	c3.966-4.648,6.29-10.529,6.29-17.092C62.267,21.259,50.508,9.5,36.014,9.5S9.761,21.259,9.761,35.754
	c0,14.493,11.759,26.253,26.253,26.253c6.563,0,12.442-2.324,17.092-6.29c-0.136,1.504,0.548,3.282,2.188,5.06l14.084,16.544
	c2.324,2.736,6.29,2.872,8.751,0.547C80.453,75.406,80.316,71.442,77.583,69.117L77.583,69.117L77.583,69.117z M36.014,53.256
	c-9.708,0-17.502-7.794-17.502-17.502s7.794-17.502,17.502-17.502s17.502,7.794,17.502,17.502S45.722,53.256,36.014,53.256
	L36.014,53.256L36.014,53.256z M36.014,53.256"/>
</svg>
