<?xml version="1.0" encoding="utf-8"?>
<!-- Generator: Adobe Illustrator 16.0.2, SVG Export Plug-In . SVG Version: 6.00 Build 0)  -->
<!DOCTYPE svg PUBLIC "-//W3C//DTD SVG 1.1//EN" "http://www.w3.org/Graphics/SVG/1.1/DTD/svg11.dtd">
<svg version="1.1" id="图层_1" xmlns="http://www.w3.org/2000/svg" xmlns:xlink="http://www.w3.org/1999/xlink" x="0px" y="0px"
	 width="72px" height="72px" viewBox="0 0 72 72" enable-background="new 0 0 72 72" xml:space="preserve">
<path opacity="0.7" fill-rule="evenodd" clip-rule="evenodd" d="M69.083,60.617L52.537,46.533c-1.777-1.642-3.555-2.324-5.06-2.188
	c3.966-4.648,6.29-10.529,6.29-17.092C53.767,12.759,42.008,1,27.514,1S1.261,12.759,1.261,27.254
	c0,14.493,11.759,26.253,26.253,26.253c6.563,0,12.442-2.324,17.092-6.29c-0.136,1.504,0.548,3.282,2.188,5.06l14.084,16.544
	c2.324,2.736,6.29,2.872,8.751,0.547C71.953,66.906,71.816,62.942,69.083,60.617L69.083,60.617L69.083,60.617z M27.514,44.756
	c-9.708,0-17.502-7.794-17.502-17.502S17.806,9.752,27.514,9.752s17.502,7.794,17.502,17.502S37.222,44.756,27.514,44.756
	L27.514,44.756L27.514,44.756z M27.514,44.756"/>
</svg>
