<?xml version="1.0" encoding="utf-8"?>
<!-- Generator: Adobe Illustrator 16.0.2, SVG Export Plug-In . SVG Version: 6.00 Build 0)  -->
<!DOCTYPE svg PUBLIC "-//W3C//DTD SVG 1.1//EN" "http://www.w3.org/Graphics/SVG/1.1/DTD/svg11.dtd">
<svg version="1.1" id="图层_1" xmlns="http://www.w3.org/2000/svg" xmlns:xlink="http://www.w3.org/1999/xlink" x="0px" y="0px"
	 width="72px" height="72px" viewBox="0 0 72 72" enable-background="new 0 0 72 72" xml:space="preserve">
<path opacity="0.7" fill-rule="evenodd" clip-rule="evenodd" d="M54.889,49.052c3.278,0,6.088,1.095,8.429,3.443
	c2.341,2.19,3.59,5.165,3.59,8.607c0,3.287-1.249,6.104-3.59,8.452C60.977,71.903,58.167,73,54.889,73
	c-3.278,0-6.088-1.097-8.429-3.445c-2.342-2.348-3.59-5.165-3.59-8.452c0-0.313,0-0.782,0.156-1.251v-0.939L22.265,46.39
	c-2.185,1.722-4.683,2.662-7.336,2.662c-3.278,0-6.088-1.252-8.429-3.6C4.158,43.103,2.908,40.286,2.908,37
	c0-3.288,1.25-6.105,3.591-8.453c2.342-2.348,5.151-3.6,8.429-3.6c2.81,0,5.307,0.783,7.336,2.505L43.026,14.93v-0.938
	c-0.156-0.471-0.156-0.784-0.156-1.097c0-3.287,1.248-6.104,3.59-8.452C48.801,2.095,51.611,1,54.889,1
	c3.278,0,6.088,1.095,8.429,3.442c2.341,2.192,3.59,5.165,3.59,8.452c0,3.444-1.249,6.261-3.59,8.609
	c-2.341,2.348-5.151,3.443-8.429,3.443c-2.81,0-5.151-0.783-7.181-2.504L26.792,34.965c0,0.312,0.156,1.095,0.156,2.035
	c0,0.782-0.156,1.564-0.156,1.877l20.917,12.522C49.582,49.834,52.079,49.052,54.889,49.052"/>
</svg>
