<?xml version="1.0" encoding="utf-8"?>
<!-- Generator: Adobe Illustrator 16.0.2, SVG Export Plug-In . SVG Version: 6.00 Build 0)  -->
<!DOCTYPE svg PUBLIC "-//W3C//DTD SVG 1.1//EN" "http://www.w3.org/Graphics/SVG/1.1/DTD/svg11.dtd">
<svg version="1.1" id="图层_1" xmlns="http://www.w3.org/2000/svg" xmlns:xlink="http://www.w3.org/1999/xlink" x="0px" y="0px"
	 width="90px" height="90px" viewBox="0 0 90 90" enable-background="new 0 0 90 90" xml:space="preserve">
<path opacity="0.7" fill-rule="evenodd" clip-rule="evenodd" d="M63.389,57.552c3.278,0,6.088,1.095,8.429,3.443
	c2.341,2.19,3.59,5.165,3.59,8.607c0,3.287-1.249,6.104-3.59,8.452c-2.341,2.349-5.151,3.445-8.429,3.445
	c-3.278,0-6.088-1.097-8.429-3.445c-2.342-2.348-3.59-5.165-3.59-8.452c0-0.313,0-0.782,0.156-1.251v-0.939L30.765,54.89
	c-2.185,1.722-4.683,2.662-7.336,2.662c-3.278,0-6.088-1.252-8.429-3.6c-2.341-2.349-3.591-5.166-3.591-8.452
	c0-3.288,1.25-6.105,3.591-8.453c2.342-2.348,5.151-3.6,8.429-3.6c2.81,0,5.307,0.783,7.336,2.505L51.526,23.43v-0.938
	c-0.156-0.471-0.156-0.784-0.156-1.097c0-3.287,1.248-6.104,3.59-8.452c2.341-2.348,5.151-3.442,8.429-3.442
	c3.278,0,6.088,1.095,8.429,3.442c2.341,2.192,3.59,5.165,3.59,8.452c0,3.444-1.249,6.261-3.59,8.609
	c-2.341,2.348-5.151,3.443-8.429,3.443c-2.81,0-5.151-0.783-7.181-2.504L35.292,43.465c0,0.312,0.156,1.095,0.156,2.035
	c0,0.782-0.156,1.564-0.156,1.877l20.917,12.522C58.082,58.334,60.579,57.552,63.389,57.552"/>
</svg>
