<?xml version="1.0" encoding="utf-8"?>
<!-- Generator: Adobe Illustrator 16.0.2, SVG Export Plug-In . SVG Version: 6.00 Build 0)  -->
<!DOCTYPE svg PUBLIC "-//W3C//DTD SVG 1.1//EN" "http://www.w3.org/Graphics/SVG/1.1/DTD/svg11.dtd">
<svg version="1.1" id="图层_1" xmlns="http://www.w3.org/2000/svg" xmlns:xlink="http://www.w3.org/1999/xlink" x="0px" y="0px"
	 width="72px" height="72px" viewBox="0 0 72 72" enable-background="new 0 0 72 72" xml:space="preserve">
<path opacity="0.7" d="M40.129,12.58l19.529,19.68c-4.125,4.117-9.725,9.622-15.169,14.974c-5.503,5.41-10.713,10.531-13.757,13.591
	C30.476,60.903,30.005,61,29.43,61H11V43.474c0-0.755,0.241-1.549,0.407-1.877c4.006-4.039,11.728-11.842,18.541-18.729
	C33.977,18.796,37.688,15.044,40.129,12.58 M40.148,3c-1.111,0-2.291,0.509-3.478,1.704c-3.985,4.015-23.938,24.198-31.11,31.427
	C3.961,37.743,3,40.798,3,43.474c0,6.022,0,15.958,0,19.977C3.001,67.023,4.784,69,8.507,69c4.707,0,15.113,0,20.923,0
	c2.505,0,5.178-0.724,6.661-2.22c6.272-6.321,23.431-23.015,31.386-31.03c2.216-2.232,1.864-5.089-0.085-7.054
	C61.63,22.891,49.313,10.478,43.466,4.585C42.494,3.605,41.362,3,40.148,3L40.148,3z"/>
<g opacity="0.7">
	<circle cx="25" cy="47" r="7"/>
</g>
</svg>
