<?xml version="1.0" encoding="utf-8"?>
<!-- Generator: Adobe Illustrator 16.0.2, SVG Export Plug-In . SVG Version: 6.00 Build 0)  -->
<!DOCTYPE svg PUBLIC "-//W3C//DTD SVG 1.1//EN" "http://www.w3.org/Graphics/SVG/1.1/DTD/svg11.dtd">
<svg version="1.1" id="图层_1" xmlns="http://www.w3.org/2000/svg" xmlns:xlink="http://www.w3.org/1999/xlink" x="0px" y="0px"
	 width="90px" height="90px" viewBox="0 0 90 90" enable-background="new 0 0 90 90" xml:space="preserve">
<path opacity="0.7" fill-rule="evenodd" clip-rule="evenodd" d="M31.72,44.891c-4.079,0.142-7.313,1.687-9.985,4.781h-4.921
	c-2.11,0-3.798-0.422-5.204-1.547c-1.407-0.984-2.11-2.39-2.11-4.359c0-8.859,1.547-13.219,4.641-13.219
	c0.141,0,0.704,0.141,1.688,0.703c0.844,0.563,2.109,1.125,3.656,1.687c1.406,0.423,2.953,0.703,4.359,0.703
	c1.688,0,3.375-0.28,5.063-0.843c-0.141,0.984-0.141,1.828-0.141,2.532C28.766,38.702,29.751,41.938,31.72,44.891L31.72,44.891
	L31.72,44.891z M71.938,68.797c0,2.953-0.985,5.344-2.813,7.031c-1.828,1.828-4.219,2.672-7.172,2.672H29.047
	c-2.953,0-5.344-0.844-7.172-2.672c-1.827-1.688-2.813-4.078-2.813-7.031c0-1.407,0.141-2.672,0.141-3.938
	c0.142-1.266,0.281-2.531,0.563-4.078c0.282-1.406,0.563-2.813,0.984-4.078c0.422-1.265,0.984-2.391,1.547-3.657
	c0.703-1.124,1.547-2.108,2.391-2.952s1.969-1.547,3.234-2.109c1.266-0.422,2.672-0.703,4.219-0.703
	c0.141,0,0.703,0.281,1.548,0.844c0.843,0.563,1.687,1.125,2.671,1.828c1.125,0.562,2.391,1.266,4.078,1.688
	c1.688,0.563,3.375,0.844,5.063,0.844s3.375-0.28,5.063-0.844c1.688-0.422,2.953-1.126,4.078-1.688
	c0.985-0.703,1.828-1.266,2.672-1.828s1.406-0.844,1.547-0.844c1.547,0,2.953,0.281,4.219,0.703
	c1.266,0.563,2.392,1.266,3.234,2.109c0.844,0.844,1.688,1.828,2.392,2.952c0.563,1.267,1.124,2.393,1.546,3.657
	c0.422,1.266,0.703,2.672,0.985,4.078c0.28,1.547,0.421,2.813,0.562,4.078C71.797,66.125,71.938,67.39,71.938,68.797L71.938,68.797
	L71.938,68.797z M33.547,20.844c0,2.672-0.984,4.921-2.813,6.891c-1.969,1.828-4.218,2.813-6.891,2.813
	c-2.53,0-4.922-0.984-6.75-2.813c-1.828-1.97-2.813-4.219-2.813-6.891s0.984-4.922,2.813-6.75s4.22-2.812,6.75-2.812
	c2.673,0,4.922,0.983,6.891,2.812C32.563,15.922,33.547,18.172,33.547,20.844L33.547,20.844L33.547,20.844z M59.844,35.329
	c0,3.937-1.406,7.311-4.218,10.124c-2.813,2.813-6.188,4.219-10.126,4.219s-7.312-1.406-10.125-4.219
	c-2.813-2.813-4.219-6.188-4.219-10.124c0-4.079,1.406-7.454,4.219-10.267c2.813-2.813,6.188-4.219,10.125-4.219
	s7.313,1.406,10.126,4.219C58.438,27.875,59.844,31.25,59.844,35.329L59.844,35.329L59.844,35.329z M81.5,43.766
	c0,1.97-0.703,3.375-2.109,4.359c-1.406,1.125-3.094,1.547-5.203,1.547h-4.921c-2.673-3.095-5.907-4.64-9.985-4.781
	c1.969-2.953,2.953-6.188,2.953-9.562c0-0.704,0-1.548-0.141-2.532c1.688,0.563,3.376,0.843,5.063,0.843
	c1.406,0,2.953-0.28,4.359-0.703c1.547-0.562,2.813-1.124,3.657-1.687c0.983-0.563,1.546-0.703,1.687-0.703
	C79.953,30.547,81.5,34.906,81.5,43.766L81.5,43.766L81.5,43.766z M76.719,20.844c0,2.672-0.984,4.921-2.812,6.891
	c-1.829,1.828-4.22,2.813-6.751,2.813c-2.672,0-4.922-0.984-6.89-2.813c-1.829-1.97-2.813-4.219-2.813-6.891s0.984-4.922,2.813-6.75
	c1.968-1.828,4.218-2.812,6.89-2.812c2.531,0,4.922,0.983,6.751,2.812C75.734,15.922,76.719,18.172,76.719,20.844L76.719,20.844
	L76.719,20.844z M76.719,20.844"/>
</svg>
