<?xml version="1.0" encoding="utf-8"?>
<!-- Generator: Adobe Illustrator 16.0.2, SVG Export Plug-In . SVG Version: 6.00 Build 0)  -->
<!DOCTYPE svg PUBLIC "-//W3C//DTD SVG 1.1//EN" "http://www.w3.org/Graphics/SVG/1.1/DTD/svg11.dtd">
<svg version="1.1" id="图层_1" xmlns="http://www.w3.org/2000/svg" xmlns:xlink="http://www.w3.org/1999/xlink" x="0px" y="0px"
	 width="90px" height="90px" viewBox="0 0 90 90" enable-background="new 0 0 90 90" xml:space="preserve">
<path opacity="0.7" fill-rule="evenodd" clip-rule="evenodd" d="M75.671,67.011c0,3.571-1.083,6.365-3.248,8.54
	c-2.166,2.018-4.949,2.949-8.505,2.949H25.254c-3.557,0-6.341-0.931-8.506-2.949c-2.166-2.175-3.248-4.969-3.248-8.54
	c0-1.552,0-3.105,0.155-4.502c0.155-1.552,0.309-3.105,0.619-4.812c0.308-1.708,0.618-3.417,1.082-4.813
	c0.464-1.553,1.237-2.95,2.011-4.347c0.773-1.398,1.701-2.639,2.629-3.57c1.082-1.088,2.32-1.864,3.866-2.484
	c1.392-0.467,3.092-0.777,4.949-0.777c0.155,0,0.773,0.311,1.856,0.932c0.929,0.62,2.011,1.396,3.248,2.172
	c1.238,0.776,2.784,1.397,4.794,2.019s3.866,0.933,5.876,0.933s3.867-0.312,5.877-0.933s3.556-1.242,4.794-2.019
	c1.238-0.776,2.32-1.552,3.249-2.172c1.082-0.622,1.7-0.932,1.855-0.932c1.856,0,3.558,0.311,4.949,0.777
	c1.546,0.62,2.784,1.396,3.867,2.484c0.927,0.931,1.854,2.172,2.628,3.57c0.773,1.397,1.546,2.794,2.01,4.347
	c0.464,1.396,0.773,3.105,1.083,4.813c0.309,1.707,0.463,3.26,0.617,4.812C75.671,63.906,75.671,65.459,75.671,67.011L75.671,67.011
	L75.671,67.011z M61.598,27.422c0,4.813-1.7,8.694-4.95,12.11c-3.402,3.26-7.422,4.968-12.063,4.968
	c-4.639,0-8.661-1.708-12.063-4.968c-3.249-3.416-4.95-7.297-4.95-12.11c0-4.657,1.701-8.694,4.95-11.955
	c3.402-3.415,7.423-4.967,12.063-4.967c4.64,0,8.661,1.552,12.063,4.967C59.897,18.728,61.598,22.765,61.598,27.422L61.598,27.422
	L61.598,27.422z M61.598,27.422"/>
</svg>
