<?xml version="1.0" encoding="utf-8"?>
<!-- Generator: Adobe Illustrator 16.0.2, SVG Export Plug-In . SVG Version: 6.00 Build 0)  -->
<!DOCTYPE svg PUBLIC "-//W3C//DTD SVG 1.1//EN" "http://www.w3.org/Graphics/SVG/1.1/DTD/svg11.dtd">
<svg version="1.1" id="图层_1" xmlns="http://www.w3.org/2000/svg" xmlns:xlink="http://www.w3.org/1999/xlink" x="0px" y="0px"
	 width="72px" height="72px" viewBox="0 0 72 72" enable-background="new 0 0 72 72" xml:space="preserve">
<path opacity="0.7" fill-rule="evenodd" clip-rule="evenodd" d="M22.22,37c-4.079,0.143-7.313,1.706-9.985,4.837H7.313
	c-2.11,0-3.798-0.427-5.204-1.565C0.703,39.275,0,37.854,0,35.861c0-8.962,1.547-13.373,4.641-13.373
	c0.141,0,0.704,0.142,1.688,0.711c0.844,0.569,2.109,1.138,3.656,1.706c1.406,0.428,2.953,0.711,4.359,0.711
	c1.688,0,3.375-0.283,5.063-0.853c-0.141,0.996-0.141,1.85-0.141,2.562C19.266,30.739,20.251,34.012,22.22,37L22.22,37L22.22,37z
	 M62.438,61.184c0,2.988-0.985,5.406-2.813,7.113C57.797,70.146,55.406,71,52.453,71H19.547c-2.953,0-5.344-0.854-7.172-2.703
	c-1.827-1.707-2.813-4.125-2.813-7.113c0-1.423,0.141-2.703,0.141-3.983c0.142-1.281,0.281-2.561,0.563-4.125
	c0.282-1.423,0.563-2.846,0.984-4.126c0.422-1.279,0.984-2.418,1.547-3.7c0.703-1.137,1.547-2.133,2.391-2.986
	s1.969-1.565,3.234-2.134c1.266-0.427,2.672-0.711,4.219-0.711c0.141,0,0.703,0.284,1.548,0.854c0.843,0.569,1.687,1.138,2.671,1.85
	c1.125,0.568,2.391,1.28,4.078,1.707c1.688,0.57,3.375,0.854,5.063,0.854s3.375-0.284,5.063-0.854
	c1.688-0.427,2.953-1.139,4.078-1.707c0.985-0.711,1.828-1.28,2.672-1.85s1.406-0.854,1.547-0.854c1.547,0,2.953,0.284,4.219,0.711
	c1.266,0.569,2.392,1.281,3.234,2.134c0.844,0.854,1.688,1.849,2.392,2.986c0.563,1.282,1.124,2.42,1.546,3.7
	c0.422,1.28,0.703,2.703,0.985,4.126c0.28,1.564,0.421,2.845,0.562,4.125C62.297,58.481,62.438,59.76,62.438,61.184L62.438,61.184
	L62.438,61.184z M24.047,12.673c0,2.703-0.984,4.978-2.813,6.971c-1.969,1.85-4.218,2.845-6.891,2.845
	c-2.53,0-4.922-0.996-6.75-2.845c-1.828-1.993-2.813-4.268-2.813-6.971s0.984-4.979,2.813-6.829S11.813,3,14.344,3
	c2.673,0,4.922,0.995,6.891,2.844C23.063,7.693,24.047,9.97,24.047,12.673L24.047,12.673L24.047,12.673z M50.344,27.327
	c0,3.982-1.406,7.396-4.218,10.242c-2.813,2.846-6.188,4.268-10.126,4.268s-7.312-1.422-10.125-4.268
	c-2.813-2.846-4.219-6.259-4.219-10.242c0-4.126,1.406-7.541,4.219-10.386c2.813-2.845,6.188-4.268,10.125-4.268
	s7.313,1.423,10.126,4.268C48.938,19.786,50.344,23.2,50.344,27.327L50.344,27.327L50.344,27.327z M72,35.861
	c0,1.993-0.703,3.414-2.109,4.41c-1.406,1.138-3.094,1.565-5.203,1.565h-4.921c-2.673-3.131-5.907-4.694-9.985-4.837
	c1.969-2.988,2.953-6.26,2.953-9.673c0-0.712,0-1.566-0.141-2.562c1.688,0.569,3.376,0.853,5.063,0.853
	c1.406,0,2.953-0.283,4.359-0.711c1.547-0.568,2.813-1.137,3.657-1.706c0.983-0.569,1.546-0.711,1.687-0.711
	C70.453,22.489,72,26.899,72,35.861L72,35.861L72,35.861z M67.219,12.673c0,2.703-0.984,4.978-2.812,6.971
	c-1.829,1.85-4.22,2.845-6.751,2.845c-2.672,0-4.922-0.996-6.89-2.845c-1.829-1.993-2.813-4.268-2.813-6.971
	s0.984-4.979,2.813-6.829C52.734,3.995,54.984,3,57.656,3c2.531,0,4.922,0.995,6.751,2.844C66.234,7.693,67.219,9.97,67.219,12.673
	L67.219,12.673L67.219,12.673z M67.219,12.673"/>
</svg>
