<?xml version="1.0" encoding="utf-8"?>
<!-- Generator: Adobe Illustrator 18.0.0, SVG Export Plug-In . SVG Version: 6.00 Build 0)  -->
<!DOCTYPE svg PUBLIC "-//W3C//DTD SVG 1.1//EN" "http://www.w3.org/Graphics/SVG/1.1/DTD/svg11.dtd">
<svg version="1.1" id="图层_1" xmlns="http://www.w3.org/2000/svg" xmlns:xlink="http://www.w3.org/1999/xlink" x="0px" y="0px"
	 viewBox="0 0 72 72" enable-background="new 0 0 72 72" xml:space="preserve">
<path fill="#504F4F" d="M54.8,32.4c-0.2-0.2-0.3-0.3-0.5-0.4L24.8,1.5c-1.9-2-5-2-6.9,0c-1.9,2-1.9,5.2,0,7.2L44.3,36L17.9,63.4
	c-1.9,2-1.9,5.2,0,7.2c1.9,2,5,2,6.9,0L54.3,40c0.2-0.1,0.3-0.3,0.5-0.4c1-1,1.4-2.3,1.4-3.6C56.2,34.7,55.7,33.4,54.8,32.4
	L54.8,32.4z M54.8,32.4"/>
</svg>
