<?xml version="1.0" encoding="utf-8"?>
<!-- Generator: Adobe Illustrator 18.0.0, SVG Export Plug-In . SVG Version: 6.00 Build 0)  -->
<!DOCTYPE svg PUBLIC "-//W3C//DTD SVG 1.1//EN" "http://www.w3.org/Graphics/SVG/1.1/DTD/svg11.dtd">
<svg version="1.1" id="图层_1" xmlns="http://www.w3.org/2000/svg" xmlns:xlink="http://www.w3.org/1999/xlink" x="0px" y="0px"
	 viewBox="0 0 72 72" enable-background="new 0 0 72 72" xml:space="preserve">
<path fill="#504F4F" d="M32.4,54.5c1,1,2.3,1.4,3.6,1.4c1.3,0,2.6-0.5,3.6-1.4c0.2-0.2,0.3-0.3,0.4-0.5l30.5-29.5c2-1.9,2-5,0-6.9
	c-2-1.9-5.2-1.9-7.2,0L36.1,44L8.7,17.6c-2-1.9-5.2-1.9-7.2,0c-2,1.9-2,5,0,6.9L32,53.9C32.2,54.1,32.3,54.3,32.4,54.5L32.4,54.5z
	 M32.4,54.5"/>
</svg>
