<?xml version="1.0" encoding="utf-8"?>
<!-- Generator: Adobe Illustrator 18.0.0, SVG Export Plug-In . SVG Version: 6.00 Build 0)  -->
<!DOCTYPE svg PUBLIC "-//W3C//DTD SVG 1.1//EN" "http://www.w3.org/Graphics/SVG/1.1/DTD/svg11.dtd">
<svg version="1.1" id="图层_1" xmlns="http://www.w3.org/2000/svg" xmlns:xlink="http://www.w3.org/1999/xlink" x="0px" y="0px"
	 viewBox="0 0 72 72" enable-background="new 0 0 72 72" xml:space="preserve">
<g>
	<path fill="#504F4F" d="M31.4,16.7L31.4,16.7c1.1-1.1,2.7-1.8,4.4-1.8l0,0c1.6,0,3.2,0.7,4.4,1.8L70,46.6l0,0
		c2.4,2.4,2.4,6.3,0,8.7l0,0c-2.4,2.4-6.3,2.4-8.7,0L35.8,29.8L10.3,55.3l0,0c-2.4,2.4-6.3,2.4-8.7,0l0,0c-2.4-2.4-2.4-6.3,0-8.7
		L31.4,16.7L31.4,16.7z M31.4,16.7"/>
</g>
</svg>
