<?xml version="1.0" encoding="utf-8"?>
<!-- Generator: Adobe Illustrator 18.0.0, SVG Export Plug-In . SVG Version: 6.00 Build 0)  -->
<!DOCTYPE svg PUBLIC "-//W3C//DTD SVG 1.1//EN" "http://www.w3.org/Graphics/SVG/1.1/DTD/svg11.dtd">
<svg version="1.1" id="图层_1" xmlns="http://www.w3.org/2000/svg" xmlns:xlink="http://www.w3.org/1999/xlink" x="0px" y="0px"
	 viewBox="0 0 72 72" enable-background="new 0 0 72 72" xml:space="preserve">
<path fill="#504F4F" d="M16.5,32.4c-1,1-1.4,2.3-1.4,3.6c0,1.3,0.5,2.6,1.4,3.6c0.2,0.2,0.3,0.3,0.5,0.4l29.5,30.5c1.9,2,5,2,6.9,0
	c1.9-2,1.9-5.2,0-7.2L26.9,36L53.4,8.6c1.9-2,1.9-5.2,0-7.2c-1.9-2-5-2-6.9,0L17,31.9C16.9,32.1,16.7,32.2,16.5,32.4L16.5,32.4z
	 M16.5,32.4"/>
</svg>
