<?xml version="1.0" encoding="utf-8"?>
<!-- Generator: Adobe Illustrator 18.0.0, SVG Export Plug-In . SVG Version: 6.00 Build 0)  -->
<!DOCTYPE svg PUBLIC "-//W3C//DTD SVG 1.1//EN" "http://www.w3.org/Graphics/SVG/1.1/DTD/svg11.dtd">
<svg version="1.1" id="图层_1" xmlns="http://www.w3.org/2000/svg" xmlns:xlink="http://www.w3.org/1999/xlink" x="0px" y="0px"
	 viewBox="0 0 72 72" enable-background="new 0 0 72 72" xml:space="preserve">
<path fill="#504F4F" d="M22.1,52.4c-2.1,0-4.1-0.2-6.2-0.8c-3.2-0.9-6.1-2.5-9-4.9l-4-3.4l4.7-5.7l4,3.4c2,1.7,4.1,2.9,6.3,3.5
	c5.5,1.5,11.4-0.3,18.2-2.5c7.6-2.4,16.2-5.1,25.1-2.6c0.6,0.2,1.3,0.4,1.9,0.6l0-29.4c-1.7-1.2-3.3-2.1-5.1-2.6
	c-5.5-1.5-11.4,0.3-18.2,2.5c-7.6,2.4-16.1,5.2-25.1,2.6C12,12.3,7,10.6,2.9,7.1l4.7-5.7c3,2.6,6.9,3.9,9,4.5
	c6.9,1.9,13.7-0.2,21-2.5c7.3-2.3,14.8-4.7,22.4-2.6c3.3,0.9,6.3,2.6,9.2,5.1c0.8,0.7,1.3,1.7,1.3,2.8l0,37.1c0,1.3-0.7,2.6-1.9,3.2
	c-1.2,0.6-2.6,0.6-3.7-0.1c-1.8-1.1-3.6-2-5.5-2.5c-6.9-1.9-13.7,0.2-21,2.5C33,50.6,27.6,52.4,22.1,52.4L22.1,52.4z M8.9,67.8
	c0,2.3-1.6,4.2-3.6,4.2l0,0c-2,0-3.6-1.9-3.6-4.2V4.3c0-2.3,1.6-4.2,3.6-4.2l0,0c2,0,3.6,1.9,3.6,4.2V67.8L8.9,67.8z M8.9,67.8"/>
</svg>
