<?xml version="1.0" encoding="utf-8"?>
<!-- Generator: Adobe Illustrator 18.0.0, SVG Export Plug-In . SVG Version: 6.00 Build 0)  -->
<!DOCTYPE svg PUBLIC "-//W3C//DTD SVG 1.1//EN" "http://www.w3.org/Graphics/SVG/1.1/DTD/svg11.dtd">
<svg version="1.1" id="图层_1" xmlns="http://www.w3.org/2000/svg" xmlns:xlink="http://www.w3.org/1999/xlink" x="0px" y="0px"
	 viewBox="0 0 72 72" enable-background="new 0 0 72 72" xml:space="preserve">
<g>
	<path fill="#504F4F" d="M41.6,26.3c4.3,0,7.7-3.5,7.7-7.7c0-4.3-3.5-7.7-7.7-7.7c-4.3,0-7.7,3.5-7.7,7.7
		C33.8,22.8,37.3,26.3,41.6,26.3L41.6,26.3z M41.6,16c1.4,0,2.6,1.2,2.6,2.6c0,1.4-1.1,2.6-2.6,2.6c-1.4,0-2.6-1.2-2.6-2.6
		C39,17.2,40.1,16,41.6,16L41.6,16z M72,12.7c0-1.4-1.1-2.6-2.6-2.6h-5.1c-1.4,0-2.6,1.2-2.6,2.6c0,1.4,1.2,2.6,2.6,2.6h2.6v19.3
		L54.7,30l1.3-1.9c0.1-0.1,0.1-0.2,0.1-0.3h0.1c1.9-2.8,2.9-6.2,2.9-9.8c0-9.9-8.1-18-18-18c-9.9,0-18,8.1-18,18
		c0,3.1,0.8,6,2.2,8.6l-9.7-4.7v-6.5h2.6c1.4,0,2.6-1.2,2.6-2.6c0-1.4-1.2-2.6-2.6-2.6h-2.6V7.7c0-4.3-3.5-7.7-7.7-7.7
		C3.6,0,0.2,3.5,0.2,7.7v56.6c0,4.3,3.5,7.7,7.7,7.7c4.3,0,7.7-3.5,7.7-7.7v-2.6h53.8c1.4,0,2.6-1.1,2.6-2.6V12.9
		C72,12.8,72,12.8,72,12.7C72,12.8,72,12.8,72,12.7L72,12.7z M66.8,40.1v16.4H29.6l8.6-11.9l0.9,1.2c0.2,0.3,0.6,0.6,0.9,0.8
		c0,0,0.1,0.1,0.1,0.1c1.2,0.8,2.8,0.4,3.6-0.8l8-11.7L66.8,40.1L66.8,40.1z M41.1,5.1C48.2,5.1,54,10.9,54,18
		c0,2.4-0.7,4.7-1.9,6.6h0l-0.3,0.6c0,0,0,0,0,0L41.4,40.4L30.9,25.9l-0.7-1.3h0c-1.2-1.9-1.9-4.2-1.9-6.6
		C28.3,10.9,34,5.1,41.1,5.1L41.1,5.1z M7.9,5.1c1.4,0,2.6,1.2,2.6,2.6V57c-0.8-0.3-1.7-0.5-2.6-0.5c-0.9,0-1.8,0.2-2.6,0.5V7.7
		C5.3,6.3,6.5,5.1,7.9,5.1L7.9,5.1z M7.9,66.9c-1.4,0-2.6-1.1-2.6-2.6c0-1.4,1.2-2.6,2.6-2.6c1.4,0,2.6,1.1,2.6,2.6
		C10.5,65.7,9.3,66.9,7.9,66.9L7.9,66.9z M15.6,27.6l15.6,7.5l3.8,5.2L23.3,56.6h-7.7V27.6L15.6,27.6z M15.6,27.6"/>
</g>
</svg>
