<?xml version="1.0" encoding="utf-8"?>
<!-- Generator: Adobe Illustrator 18.0.0, SVG Export Plug-In . SVG Version: 6.00 Build 0)  -->
<!DOCTYPE svg PUBLIC "-//W3C//DTD SVG 1.1//EN" "http://www.w3.org/Graphics/SVG/1.1/DTD/svg11.dtd">
<svg version="1.1" id="图层_1" xmlns="http://www.w3.org/2000/svg" xmlns:xlink="http://www.w3.org/1999/xlink" x="0px" y="0px"
	 viewBox="0 0 72 72" enable-background="new 0 0 72 72" xml:space="preserve">
<g>
	<path fill="#504F4F" d="M36.1,67.5c-0.8,0-1.6-0.2-2.3-0.5c0,0-0.1-0.1-0.2-0.1c-6.4-3-12.7-7.1-17.8-11.4
		c-4.6-3.9-8.2-8-10.8-12.3c-3.3-5.4-5-11-5-16.8C0.1,14.3,9.9,4.5,22,4.5c5.2,0,10.1,1.8,14.1,5.1C40,6.3,45,4.5,50.1,4.5
		c12.1,0,21.9,9.8,21.9,21.9c0,5.8-1.7,11.4-5,16.8c-2.6,4.3-6.2,8.4-10.8,12.3c-5.1,4.3-11.4,8.4-17.8,11.4c-0.1,0-0.2,0.1-0.2,0.1
		C37.6,67.3,36.8,67.5,36.1,67.5L36.1,67.5z M22,10.4"/>
</g>
</svg>
