<?xml version="1.0" encoding="utf-8"?>
<!-- Generator: Adobe Illustrator 18.0.0, SVG Export Plug-In . SVG Version: 6.00 Build 0)  -->
<!DOCTYPE svg PUBLIC "-//W3C//DTD SVG 1.1//EN" "http://www.w3.org/Graphics/SVG/1.1/DTD/svg11.dtd">
<svg version="1.1" id="图层_1" xmlns="http://www.w3.org/2000/svg" xmlns:xlink="http://www.w3.org/1999/xlink" x="0px" y="0px"
	 viewBox="0 0 72 72" enable-background="new 0 0 72 72" xml:space="preserve">
<path fill="#504F4F" d="M35.8,15.8c-5.6,0-9.8,2.8-11.2,7.5c-0.2,0.7-0.3,1.4-0.3,1.7c0,2,1.5,3.5,3.7,3.5c1.6,0,2.9-0.9,3.6-2.7
	c0.7-2,2-2.9,4-2.9c2.4,0,3.5,1.7,3.5,3.4c0,1.5-0.3,2.5-2.1,4.7l-3,3.6c-1.8,2.1-2.4,3.7-2.4,6.4v0.4c0,2.3,1.6,3.8,3.8,3.8
	c2.2,0,3.8-1.6,3.8-3.8v-0.3c0-1,0.2-1.5,1.2-2.8l3.3-3.9c2.3-2.7,3.2-5.1,3.2-8.1C47,20.1,42.4,15.8,35.8,15.8L35.8,15.8z
	 M35.4,46.9c-2.5,0-4.6,2.1-4.6,4.6c0,2.5,2.1,4.6,4.6,4.6c2.5,0,4.6-2.1,4.6-4.6C40,49,37.9,46.9,35.4,46.9L35.4,46.9z M43.2-0.5
	H28.8C12.9-0.5,0,12.4,0,28.3v14.3c0,15.9,12.9,28.8,28.8,28.8h14.4C59.1,71.4,72,58.5,72,42.6V28.3C72,12.4,59.1-0.5,43.2-0.5
	L43.2-0.5z M65.9,42.6c0,12.5-10.2,22.7-22.7,22.7H28.8c-12.5,0-22.7-10.2-22.7-22.7V28.3c0-12.5,10.2-22.7,22.7-22.7h14.4
	c12.5,0,22.7,10.2,22.7,22.7V42.6L65.9,42.6z M65.9,42.6"/>
</svg>
