<?xml version="1.0" encoding="utf-8"?>
<!-- Generator: Adobe Illustrator 18.0.0, SVG Export Plug-In . SVG Version: 6.00 Build 0)  -->
<!DOCTYPE svg PUBLIC "-//W3C//DTD SVG 1.1//EN" "http://www.w3.org/Graphics/SVG/1.1/DTD/svg11.dtd">
<svg version="1.1" id="图层_1" xmlns="http://www.w3.org/2000/svg" xmlns:xlink="http://www.w3.org/1999/xlink" x="0px" y="0px"
	 viewBox="0 0 72 72" enable-background="new 0 0 72 72" xml:space="preserve">
<g>
	<path fill="#504F4F" d="M51.7,5.4c-6.2,0-12,2.8-15.7,7.5c-3.8-4.7-9.5-7.5-15.7-7.5C9.1,5.4,0,14.5,0,25.6C0,32.3,3.3,37,5.9,40.7
		c7.6,10.9,26.7,24.5,27.5,25.1c0.8,0.6,1.7,0.8,2.6,0.8c0.9,0,1.8-0.3,2.6-0.8c0.8-0.6,19.9-14.1,27.5-25.1
		C68.7,37,72,32.3,72,25.6C72,14.5,62.9,5.4,51.7,5.4z M62.4,38.2c-7.2,10.4-26.4,24-26.4,24s-19.2-13.6-26.4-24
		c-2.7-3.8-5.1-7.5-5.1-12.5c0-8.7,7-15.7,15.7-15.7c6.4,0,11.9,3.9,14.4,9.4v0h0c0.2,0.6,0.7,1,1.3,1c0.6,0,1.2-0.4,1.3-1h0
		c2.5-5.5,8-9.3,14.4-9.3c8.7,0,15.7,7.1,15.7,15.7C67.5,30.7,65.1,34.3,62.4,38.2z"/>
	<path fill="#504F4F" d="M41.3,22.7c0.2,0.1,0.5,0.2,0.7,0.2c0.5,0,1.1-0.3,1.3-0.8c0.1-0.1,0.1-0.2,0.2-0.3
		c1.5-3.4,4.9-5.6,8.5-5.6c2.5,0,4.9,1,6.7,2.8c0.6,0.6,1.5,0.6,2.1,0c0.6-0.6,0.6-1.5,0-2.1c-2.3-2.4-5.5-3.7-8.8-3.7
		c-4.9,0-9.3,2.9-11.3,7.3c0,0.1-0.1,0.1-0.1,0.2C40.2,21.4,40.5,22.3,41.3,22.7z"/>
	<path fill="#504F4F" d="M62.9,24c-0.8,0-1.5,0.7-1.5,1.5c0,3-1.5,5.4-4,8.9c-4.8,6.9-16,15.7-21.4,19.9c-5.5-4.1-16.6-13-21.4-19.9
		c-2.5-3.5-4-5.9-4-8.9c0-5.2,4.2-9.4,9.4-9.4c3.7,0,7,2.2,8.5,5.6c0.1,0.1,0.1,0.2,0.2,0.4c0.4,0.7,1.3,1,2,0.6
		c0.7-0.4,1-1.3,0.6-2c0-0.1-0.1-0.1-0.1-0.2c-2-4.5-6.4-7.4-11.3-7.4c-6.8,0-12.4,5.5-12.4,12.4c0,3.9,1.9,6.9,4.5,10.6
		c5.1,7.3,16.6,16.5,23,21.2c0.3,0.2,0.6,0.3,0.9,0.3c0.3,0,0.6-0.1,0.9-0.3c6.4-4.8,17.9-13.9,23-21.2c2.6-3.8,4.5-6.7,4.5-10.6
		C64.4,24.7,63.7,24,62.9,24z"/>
</g>
</svg>
