<?xml version="1.0" encoding="utf-8"?>
<!-- Generator: Adobe Illustrator 18.0.0, SVG Export Plug-In . SVG Version: 6.00 Build 0)  -->
<!DOCTYPE svg PUBLIC "-//W3C//DTD SVG 1.1//EN" "http://www.w3.org/Graphics/SVG/1.1/DTD/svg11.dtd">
<svg version="1.1" id="图层_1" xmlns="http://www.w3.org/2000/svg" xmlns:xlink="http://www.w3.org/1999/xlink" x="0px" y="0px"
	 viewBox="0 0 72 72" enable-background="new 0 0 72 72" xml:space="preserve">
<g>
	<path fill="#504F4F" d="M35.1,51.3L22.9,63.5c-3.8,3.8-10.5,3.8-14.4,0c-4-4-4-10.4,0-14.4l15.2-15.2c4-4,10.4-4,14.4,0
		c1.1,1.1,2.8,1.1,3.9,0c1.1-1.1,1.1-2.8,0-3.9c-6.1-6.1-16.1-6.1-22.2,0L4.6,45.2c-6.1,6.1-6.1,16.1,0,22.2c3,3,6.9,4.6,11.1,4.6
		c4.2,0,8.1-1.6,11.1-4.6L39,55.2c1.1-1.1,1.1-2.8,0-3.9C37.9,50.2,36.1,50.2,35.1,51.3L35.1,51.3z M67.4,4.6c-3-3-6.9-4.6-11.1-4.6
		c-4.2,0-8.1,1.6-11.1,4.6L33,16.8c-1.1,1.1-1.1,2.8,0,3.9c1.1,1.1,2.8,1.1,3.9,0L49.1,8.5c3.8-3.8,10.5-3.8,14.4,0
		c1.9,1.9,3,4.5,3,7.2c0,2.7-1.1,5.3-3,7.2L48.3,38.1c-4,4-10.4,4-14.4,0c-1.1-1.1-2.8-1.1-3.9,0c-1.1,1.1-1.1,2.8,0,3.9
		c3.1,3.1,7.1,4.6,11.1,4.6c4,0,8-1.5,11.1-4.6l15.2-15.2c3-3,4.6-6.9,4.6-11.1C72,11.5,70.4,7.6,67.4,4.6L67.4,4.6z M67.4,4.6"/>
</g>
</svg>
