<?xml version="1.0" encoding="utf-8"?>
<!-- Generator: Adobe Illustrator 18.0.0, SVG Export Plug-In . SVG Version: 6.00 Build 0)  -->
<!DOCTYPE svg PUBLIC "-//W3C//DTD SVG 1.1//EN" "http://www.w3.org/Graphics/SVG/1.1/DTD/svg11.dtd">
<svg version="1.1" id="图层_1" xmlns="http://www.w3.org/2000/svg" xmlns:xlink="http://www.w3.org/1999/xlink" x="0px" y="0px"
	 viewBox="0 0 72 72" enable-background="new 0 0 72 72" xml:space="preserve">
<g>
	<path fill="#504F4F" d="M68.7,55.4c-0.1-0.1-0.1-0.1-0.2-0.2L51.6,40.3c-1-0.9-2.5-0.8-3.4,0.2c-0.9,1-0.8,2.5,0.2,3.4l16.9,14.9
		c1.8,1.8,1.8,4.8,0,6.6c-0.9,0.9-2.1,1.4-3.3,1.4c-1.2,0-2.4-0.5-3.3-1.4l-15.4-17c-0.9-1-2.4-1.1-3.4-0.2c-1,0.9-1.1,2.4-0.2,3.4
		l15.4,17c0.1,0.1,0.1,0.1,0.2,0.2c1.8,1.8,4.2,2.8,6.8,2.8c2.6,0,4.9-1,6.8-2.8C72.4,65.2,72.4,59.1,68.7,55.4L68.7,55.4z
		 M68.3,15.1c1.4-1.4,2.2-3.2,2.2-5.2c0-2-0.8-3.8-2.2-5.2c-1.4-1.4-3.2-2.2-5.2-2.2c-1.1,0-2.2,0.3-3.2,0.7
		c-4.3,1.5-14.5,5.2-21.7,9.3c-0.2,0.1-0.4,0.2-0.6,0.3c-0.1-0.1-0.2-0.1-0.2-0.2L24,1.2C23,0.4,21.8,0,20.7,0
		c-1.3,0-2.6,0.5-3.6,1.5l-2.4,2.4c-0.7,0.7-1.2,1.6-1.4,2.5c-0.9,0.2-1.8,0.7-2.5,1.4L9.5,9l-1.4,1.4C7.5,11.1,7,12,6.8,12.9
		c-0.2,0-0.4,0.1-0.6,0.2l0,0v0c-0.7,0.2-1.3,0.6-1.9,1.2L2,16.6c-1.9,1.9-2,4.9-0.3,6.9c0,0,15,17.4,15,17.4
		c0.1,0.2,1.1,1.2,2.6,2.4L3.2,59.4c-2.9,2.9-2.9,7.5,0,10.4l0,0l0,0C4.6,71.2,6.4,72,8.4,72c2,0,3.8-0.8,5.2-2.2L68.3,15.1
		L68.3,15.1z M20.7,5l12.5,10.7c-1.5,1.1-2.7,2.2-3.6,3.1L18.9,8l-0.6-0.6L20.7,5L20.7,5z M20.4,37.5L5.5,20.2l2.4-2.4l13,12.7l0,0
		c0.4,0.4,1,0.7,1.6,0.7c1.2,0,2.2-1,2.2-2.2c0-0.5-0.2-1-0.5-1.4l0,0l0,0c-0.1-0.1-0.1-0.2-0.2-0.2L11.7,14l0,0l1.4-1.4l1.4-1.4
		l12.4,11.6c-0.1,0.4-0.3,0.8-0.4,1.3c-0.1,0.6-0.2,1.1-0.2,1.2l0,0.3v0.3v10.1c0,0.2,0,0.4,0,0.5l-3.3,3.3
		C21.5,38.6,20.4,37.5,20.4,37.5L20.4,37.5z M6.3,62.6L30,38.9c0,0,0.7-0.9,0.7-3V25.8c0,0,0.2-1.4,0.6-1.9c1-1.4,3.7-4.4,9-7.4
		c7.3-4.1,18.1-7.9,21.3-9.1C62.1,7.1,62.6,7,63.1,7c0.7,0,1.5,0.3,2,0.8c1.1,1.1,1.1,3,0,4.1L10.4,66.7c-0.6,0.6-1.3,0.8-2,0.8
		c-0.7,0-1.5-0.3-2-0.8C5.2,65.6,5.2,63.7,6.3,62.6L6.3,62.6z M6.3,62.6"/>
</g>
</svg>
