<?xml version="1.0" encoding="utf-8"?>
<!-- Generator: Adobe Illustrator 18.0.0, SVG Export Plug-In . SVG Version: 6.00 Build 0)  -->
<!DOCTYPE svg PUBLIC "-//W3C//DTD SVG 1.1//EN" "http://www.w3.org/Graphics/SVG/1.1/DTD/svg11.dtd">
<svg version="1.1" id="图层_1" xmlns="http://www.w3.org/2000/svg" xmlns:xlink="http://www.w3.org/1999/xlink" x="0px" y="0px"
	 viewBox="0 0 72 72" enable-background="new 0 0 72 72" xml:space="preserve">
<g>
	<path fill="#504F4F" d="M66.6,9.5H5.4c-3,0-5.4,2.4-5.4,5.4v41.8c0,3,2.4,5.4,5.4,5.4h61.2c1.4,0,2.8-0.6,3.8-1.6
		c1-1,1.6-2.4,1.6-3.8V14.9C72,11.9,69.6,9.5,66.6,9.5L66.6,9.5z M5.4,14.7h61.2c0.1,0,0.2,0.1,0.2,0.2v2.9L36.3,37.7L5.2,17.2v-2.3
		C5.2,14.8,5.3,14.7,5.4,14.7L5.4,14.7z M66.6,56.8H5.4c-0.1,0-0.2-0.1-0.2-0.2V23.4L34.9,43c0.4,0.3,0.9,0.4,1.4,0.4
		c0.5,0,1-0.1,1.4-0.4L66.8,24l0,32.6C66.8,56.8,66.7,56.8,66.6,56.8L66.6,56.8z M66.6,56.8"/>
</g>
</svg>
