<?xml version="1.0" encoding="utf-8"?>
<!-- Generator: Adobe Illustrator 18.0.0, SVG Export Plug-In . SVG Version: 6.00 Build 0)  -->
<!DOCTYPE svg PUBLIC "-//W3C//DTD SVG 1.1//EN" "http://www.w3.org/Graphics/SVG/1.1/DTD/svg11.dtd">
<svg version="1.1" id="图层_1" xmlns="http://www.w3.org/2000/svg" xmlns:xlink="http://www.w3.org/1999/xlink" x="0px" y="0px"
	 viewBox="0 0 72 72" enable-background="new 0 0 72 72" xml:space="preserve">
<path fill="#504F4F" d="M18.1,3.7C8,3.7-0.2,12.3-0.2,22.9v25.2c0,10.5,8.2,19.2,18.3,19.2h28.6c10.1,0,18.3-8.6,18.3-19.2V22.9
	l6.7-19.2H18.1L18.1,3.7z M18.9,40.2c-2.5,0-4.5-2.1-4.5-4.7c0-2.6,2-4.7,4.5-4.7c2.5,0,4.5,2.1,4.5,4.7
	C23.4,38.1,21.4,40.2,18.9,40.2L18.9,40.2z M32.4,40.2c-2.5,0-4.5-2.1-4.5-4.7c0-2.6,2-4.7,4.5-4.7c2.5,0,4.5,2.1,4.5,4.7
	C36.9,38.1,34.9,40.2,32.4,40.2L32.4,40.2z M45.9,40.2c-2.5,0-4.5-2.1-4.5-4.7c0-2.6,2-4.7,4.5-4.7c2.5,0,4.5,2.1,4.5,4.7
	C50.4,38.1,48.4,40.2,45.9,40.2L45.9,40.2z M45.9,40.2"/>
</svg>
