<?xml version="1.0" encoding="utf-8"?>
<!-- Generator: Adobe Illustrator 18.0.0, SVG Export Plug-In . SVG Version: 6.00 Build 0)  -->
<!DOCTYPE svg PUBLIC "-//W3C//DTD SVG 1.1//EN" "http://www.w3.org/Graphics/SVG/1.1/DTD/svg11.dtd">
<svg version="1.1" id="图层_1" xmlns="http://www.w3.org/2000/svg" xmlns:xlink="http://www.w3.org/1999/xlink" x="0px" y="0px"
	 viewBox="0 0 72 72" enable-background="new 0 0 72 72" xml:space="preserve">
<g>
	<path fill="#504F4F" d="M62.3,32.9c-0.3-1.3-0.7-2.7-1.1-4c0.3-10.8-3.6-17.3-7-21c-4.7-5-11.3-7.7-18.6-7.7
		c-6.5,0-12.8,2.6-17.3,7.2c-3.5,3.6-7.7,10-7.8,20.7c-0.5,1.5-1,3-1.4,4.5c-3.7,5.4-7.6,15.5-2.3,24.2c0.2,0.4,0.5,0.7,0.8,1
		c0.7,0.8,1.6,1.4,2.5,1.9C10,60.2,10,60.6,10,60.8c0,6.7,6.9,11.4,16.8,11.4c3.3,0,6.4-0.7,9-1.9c2.6,1.2,5.7,1.9,9,1.9
		c9.9,0,16.8-4.7,16.8-11.4c0-0.3,0-0.7-0.1-1.1c0.9-0.4,1.8-1.1,2.5-1.8c0.3-0.3,0.5-0.7,0.8-1C70,48.3,66.1,38.4,62.3,32.9
		L62.3,32.9z M58.6,53.1c0,0-0.1,0.1-0.4,0.1c-0.5,0-1.6-0.6-3.4-4.3c-1.2,3.3-3.1,6-5.5,8.1c3,0.7,5.1,2.1,5.1,3.7
		c0,2.3-4.3,4.2-9.6,4.2c-4,0-7-1.3-8.3-3c-0.2,0-0.4,0-0.7,0c-0.3,0-0.5,0-0.8,0c-1.3,1.6-4.3,3-8.3,3c-5.3,0-9.6-1.9-9.6-4.2
		c0-1.6,2.1-3,5.1-3.7c-2.4-2.1-4.4-4.8-5.7-8.1l0,0c-1.8,3.7-2.9,4.3-3.4,4.3c-0.2,0-0.4-0.1-0.4-0.1c-4.7-7.6,2.8-17.2,2.8-17.2
		l0.1,0.2c0.4-2.2,1.1-4.5,1.9-6.6c0,0,0-0.1,0-0.1c-0.2-15.6,9.5-21.9,18-21.9c9.8,0,19.3,6.7,18.3,22.3c0,0.1,0,0.2,0,0.2
		c0.7,1.9,1.3,3.9,1.7,5.9l0,0C55.6,35.9,63.2,45.5,58.6,53.1L58.6,53.1z M58.6,53.1"/>
</g>
</svg>
