<?xml version="1.0" encoding="utf-8"?>
<!-- Generator: Adobe Illustrator 18.0.0, SVG Export Plug-In . SVG Version: 6.00 Build 0)  -->
<!DOCTYPE svg PUBLIC "-//W3C//DTD SVG 1.1//EN" "http://www.w3.org/Graphics/SVG/1.1/DTD/svg11.dtd">
<svg version="1.1" id="图层_1" xmlns="http://www.w3.org/2000/svg" xmlns:xlink="http://www.w3.org/1999/xlink" x="0px" y="0px"
	 viewBox="0 0 72 72" enable-background="new 0 0 72 72" xml:space="preserve">
<g>
	<g>
		<path fill="#504F4F" d="M13,16.3c2.7-3.5,7.6-4.3,11.7-4.8c7.9-0.9,15.9-0.9,23.7,0.2c3.1,0.4,6.3,1.1,8.9,2.9
			c1.5,1,2.2,2.7,2.8,4.3c1.2,3.1,2.4,6.2,3.6,9.2c2.2,0.1,4.6-0.2,6.4,1.2c1.1,0.8,1.5,2.2,1.8,3.5v1.2c-0.5,2.2-2.8,2.7-4.7,2.9
			c0.6,3.8,0.2,7.6,0.3,11.4c-0.1,3.2,0.2,6.4-0.1,9.5c-0.2,1.8-1.8,2.8-3.3,3.4h-7.1c-1.1-0.3-2.3-0.8-3-1.8
			c-0.8-1.1-0.7-2.6-0.9-4c-11.4,0-22.9,0-34.3,0c0.2,2.6-1.1,5.3-3.9,5.8H7.9c-1.6-0.5-3.2-1.6-3.4-3.4c-0.3-3.7,0-7.5-0.1-11.2
			c0.1-3.2-0.2-6.5,0.3-9.7c-1.9-0.2-4.1-0.7-4.7-2.8v-1.4c0.3-1.3,0.7-2.6,1.8-3.4c1.8-1.4,4.2-1.1,6.3-1.2
			C9.8,24.2,10.9,20,13,16.3z M27.6,14c-4.2,0.5-8.9,0.6-12.1,3.6c-1.8,3.2-2.8,6.9-4.3,10.3c-0.5,1.5-1.6,3.4-0.3,4.8
			c1.4,1.1,3.2,1,4.9,1.1c13.5,0,27,0,40.5,0c1.6-0.1,3.5,0,4.9-1.1c1.1-0.9,0.5-2.4,0.1-3.5c-1.4-3.5-2.7-7-4.1-10.5
			c-0.9-2.5-3.8-3.3-6.1-3.9C43.3,13.5,35.4,13.4,27.6,14z M4.2,31.2c-1.1,0.3-1.2,1.6-1.6,2.4c1.1,0.1,2.2,0.3,3.2,0.4
			c0.4-1,0.8-2.1,1.2-3.1C6.1,31,5.1,30.9,4.2,31.2z M64.9,30.9c0.4,1,0.7,2.1,1.1,3.1c1.1-0.1,2.2-0.2,3.3-0.3
			c-0.3-0.7-0.4-1.5-0.9-2.1C67.5,30.8,66.1,31,64.9,30.9z M8.6,34.8c-2.2,4-1.3,8.6-1.5,13c0,1.3-0.1,2.6,0.1,3.8
			c0.1,1.1,1.4,1.1,2.3,1.1c17.7,0,35.3,0,53,0c0.8,0,2.1,0.1,2.3-1.1c0.2-3.7,0-7.5,0.1-11.2c0.1-2-0.8-3.7-1.5-5.5
			c-2,1.5-4.6,1.9-7.1,1.9c-13.7,0-27.4,0-41.1,0C12.8,36.7,10.5,36.2,8.6,34.8z M7.1,55.3c0.1,0.9,0,1.9,0.5,2.7
			c1.1,0.6,2.4,0.4,3.6,0.4c1.4-0.1,2.9,0.2,4.2-0.4c0.6-0.7,0.4-1.7,0.6-2.6C13,55.4,10.1,55.5,7.1,55.3z M56,55.4
			c0.1,1,0,2.8,1.5,2.9c2,0.2,4,0.2,6.1,0c1.5-0.1,1.2-1.9,1.4-3C61.9,55.5,59,55.4,56,55.4z"/>
	</g>
	<g>
		<path fill="#504F4F" d="M34,15.5c2.4-0.8,5.3,0,6.7,2.2c1.9,2.6,1,6.7-1.8,8.2c-2.9,1.8-7.2,0.3-8.3-3C29.5,20,31.1,16.4,34,15.5z
			 M35.1,18.1c-1.7,0.6-2.7,2.9-1.5,4.4c1.1,1.8,4.1,1.6,5-0.3C39.9,20.1,37.4,17.3,35.1,18.1z"/>
	</g>
	<g>
		<path fill="#504F4F" d="M19.9,19.9c3.8-1.7,8.5,1.2,8.8,5.3c0.6,4-3.4,7.9-7.4,7.1c-3.7-0.4-6.3-4.4-5.3-8
			C16.5,22.3,18,20.6,19.9,19.9z M21,22.6c-2.5,0.8-3.1,4.6-0.9,6.2c2,1.9,5.7,0.3,5.9-2.4C26.3,23.8,23.3,21.4,21,22.6z"/>
	</g>
	<g>
		<path fill="#504F4F" d="M47.4,19.8c3.9-1.7,8.8,1.6,8.7,5.9c0.3,3.8-3.5,7.1-7.2,6.6c-3.6-0.3-6.4-4.2-5.6-7.7
			C43.7,22.5,45.4,20.6,47.4,19.8z M48.5,22.5c-2.5,0.8-3.3,4.4-1.3,6.1c1.9,1.9,5.4,0.8,6-1.8C54,24.2,51,21.4,48.5,22.5z"/>
	</g>
	<g>
		<path fill="#504F4F" d="M11.4,38.5c2.3-0.6,4.8-0.3,7.2-0.3c2.6,0,5.1,1.9,5.7,4.4c0.8,3.1-1.5,6.6-4.7,7
			c-3.4,0.5-6.5-1.5-9.2-3.4C7.8,44.3,8.2,39.5,11.4,38.5z M12.5,41.1c-1.5,0.4-1.2,2.5,0,3.1c2.2,1.3,4.8,3.6,7.5,2.3
			c2.2-1.1,1.9-4.5-0.4-5.3C17.3,40.8,14.9,40.8,12.5,41.1z"/>
	</g>
	<g>
		<path fill="#504F4F" d="M51.4,38.5c2.8-0.6,5.8-0.5,8.7-0.2c3.6,0.7,4.3,5.9,1.4,7.9c-2.6,1.7-5.4,3.7-8.7,3.5
			c-2.4-0.1-4.6-1.9-5.2-4.2C46.9,42.6,48.6,39.3,51.4,38.5z M52,41.3c-1.9,0.9-2.2,3.7-0.4,4.9c2.1,1.5,4.7,0,6.6-1.2
			c1.2-0.7,3.1-1.8,2.2-3.5c-1-0.8-2.3-0.6-3.5-0.7C55.2,41,53.5,40.7,52,41.3z"/>
	</g>
</g>
</svg>
