<?xml version="1.0" encoding="utf-8"?>
<!-- Generator: Adobe Illustrator 18.0.0, SVG Export Plug-In . SVG Version: 6.00 Build 0)  -->
<!DOCTYPE svg PUBLIC "-//W3C//DTD SVG 1.1//EN" "http://www.w3.org/Graphics/SVG/1.1/DTD/svg11.dtd">
<svg version="1.1" id="图层_1" xmlns="http://www.w3.org/2000/svg" xmlns:xlink="http://www.w3.org/1999/xlink" x="0px" y="0px"
	 viewBox="0 0 72 72" enable-background="new 0 0 72 72" xml:space="preserve">
<path fill-rule="evenodd" clip-rule="evenodd" fill="#504F4F" d="M63,69.5H9c-5,0-9-4-9-8.9V20.4c0-4.9,4-8.9,9-8.9h13.5V7
	c0-2.5,2-4.5,4.5-4.5h18c2.5,0,4.5,2,4.5,4.5v4.5H63c5,0,9,4,9,8.9v40.2C72,65.5,68,69.5,63,69.5z M45,9.2C45,8,44,7,42.7,7H29.3
	C28,7,27,8,27,9.2v2.2c1.3,0,1,0,2.3,0h13.5c1.2,0,0.9,0,2.3,0V9.2z M67.5,20.4c0-2.5-2-4.5-4.5-4.5H9c-2.5,0-4.5,2-4.5,4.5v11.2h63
	V20.4z M31.5,38.2c0,2.5,2,4.5,4.5,4.5c2.5,0,4.5-2,4.5-4.5c0-0.8-0.2-1.6-0.6-2.2h-7.8C31.7,36.7,31.5,37.4,31.5,38.2z M67.5,36
	H44.7c0.2,0.7,0.3,1.5,0.3,2.2c0,4.9-4,8.9-9,8.9c-5,0-9-4-9-8.9c0-0.8,0.1-1.5,0.3-2.2H4.5v24.6C4.5,63,6.5,65,9,65h54
	c2.5,0,4.5-2,4.5-4.5V36z"/>
</svg>
