<?xml version="1.0" encoding="utf-8"?>
<!-- Generator: Adobe Illustrator 18.0.0, SVG Export Plug-In . SVG Version: 6.00 Build 0)  -->
<!DOCTYPE svg PUBLIC "-//W3C//DTD SVG 1.1//EN" "http://www.w3.org/Graphics/SVG/1.1/DTD/svg11.dtd">
<svg version="1.1" id="图层_1" xmlns="http://www.w3.org/2000/svg" xmlns:xlink="http://www.w3.org/1999/xlink" x="0px" y="0px"
	 viewBox="0 0 72 72" enable-background="new 0 0 72 72" xml:space="preserve">
<path fill="#504F4F" d="M27.4,69.8c-0.7,0-1.4-0.3-1.9-0.9C18.9,61.4,8.2,61.3,8,61.3h0c-1.4,0-2.5-1.1-2.6-2.6
	c0-1.4,1.1-2.6,2.5-2.6c0.5,0,13.2,0,21.4,9.3c0.9,1.1,0.8,2.7-0.2,3.6C28.7,69.5,28,69.8,27.4,69.8L27.4,69.8L27.4,69.8z
	 M44.5,69.8c-0.6,0-1.2-0.2-1.7-0.7c-1-1-1.1-2.6-0.1-3.6c8.5-9.3,20.9-9.3,21.4-9.3c1.4,0,2.5,1.2,2.5,2.6c0,1.4-1.2,2.5-2.5,2.5h0
	l0,0c-0.2,0-10.7,0.1-17.6,7.6C45.9,69.5,45.2,69.8,44.5,69.8L44.5,69.8L44.5,69.8z M40,56.7H32c-0.3,0-0.5,0-0.7-0.1
	c-8.6-1.1-15.9-6.2-20.7-14.3c-5.5-9.4-6.7-21.6-3.1-30.4c0.4-0.9,1.3-1.6,2.3-1.6l0.8,0c4.9,0,9.4,0.9,13.5,2.8
	c3-5.5,6.4-9.7,10.1-12.4c0.2-0.2,0.4-0.3,0.7-0.4l0,0c0.8-0.3,1.7-0.3,2.4,0.2c0.1,0.1,0.2,0.2,0.3,0.3c3.8,2.8,7.1,6.9,10.1,12.5
	c4.2-1.9,8.8-2.9,13.8-2.9l0.8,0c1,0,1.9,0.6,2.3,1.6c3.6,8.7,2.4,20.9-3.1,30.4c-4.7,8.1-12,13.2-20.7,14.3
	C40.5,56.6,40.3,56.7,40,56.7L40,56.7L40,56.7z M32.4,51.5h7.2c0.1,0,0.1,0,0.2,0c9.2-1,14.5-7,17.3-11.8c4.3-7.4,5.6-17.1,3.4-24.2
	c-4.6,0.2-8.9,1.3-12.6,3.4c-0.6,0.3-1.3,0.4-2,0.2c-0.7-0.2-1.2-0.7-1.5-1.3c-2.6-5.3-5.4-9.3-8.4-11.9c-3.1,2.7-5.9,6.6-8.4,11.8
	c-0.3,0.6-0.9,1.1-1.5,1.3c-0.7,0.2-1.4,0.1-2-0.2c-3.7-2-7.8-3.1-12.3-3.3c-2.2,7.1-0.9,16.8,3.4,24.2c2.8,4.8,8.1,10.8,17.3,11.8
	C32.3,51.5,32.4,51.5,32.4,51.5L32.4,51.5L32.4,51.5z M36,72c-1.4,0-2.5-1.2-2.5-2.6V54.1c0-1.4,1.1-2.6,2.5-2.6
	c1.4,0,2.5,1.2,2.5,2.6v15.3C38.5,70.8,37.4,72,36,72L36,72L36,72z M36,72"/>
</svg>
