<?xml version="1.0" encoding="utf-8"?>
<!-- Generator: Adobe Illustrator 18.0.0, SVG Export Plug-In . SVG Version: 6.00 Build 0)  -->
<!DOCTYPE svg PUBLIC "-//W3C//DTD SVG 1.1//EN" "http://www.w3.org/Graphics/SVG/1.1/DTD/svg11.dtd">
<svg version="1.1" id="图层_1" xmlns="http://www.w3.org/2000/svg" xmlns:xlink="http://www.w3.org/1999/xlink" x="0px" y="0px"
	 viewBox="0 0 72 72" enable-background="new 0 0 72 72" xml:space="preserve">
<g>
	<path fill="#504F4F" d="M69.1,52.9l-0.2,0.2c-0.1-0.4-0.4-0.8-0.7-1.2L53.6,37.4c-1.2-1.2-3.1-1.2-4.2,0c-1.2,1.2-1.2,3.1,0,4.2
		l14.6,14.5c0.4,0.4,0.8,0.6,1.2,0.7l-0.2,0.2c0.7,0.9,1.1,2.1,1.1,3.4c0,3.1-2.5,5.6-5.6,5.6c-1.5,0-2.8-0.6-3.8-1.5
		c-0.1-0.2-0.3-0.5-0.5-0.7l-6.7-6.7c0,0,0,0,0,0l-5.1-5.1c0,0,0,0,0,0L40,47.8c-3.4,2-7.3,3.2-11.6,3.2C15.9,51,5.8,40.9,5.8,28.4
		c0-2,0.3-3.9,0.7-5.7l11.8,11.8c0.1,0.1,0.2,0.2,0.3,0.2c0.1,0.2,0.2,0.3,0.4,0.4c1.2,1.2,3.1,1.2,4.2,0l11.9-12
		c1.2-1.2,1.2-3.1,0-4.2c-0.1-0.1-0.2-0.1-0.2-0.2c-0.1-0.1-0.2-0.3-0.3-0.4L22.9,6.5c1.8-0.4,3.6-0.7,5.6-0.7
		C40.9,5.8,51,15.9,51,28.4c0,0.2,0,0.5,0,0.7c0,0.2-0.1,0.4-0.1,0.6l0,0.3c0,0.3-0.1,0.6-0.1,1h0.2c0.4,1.2,1.5,2.1,2.8,2.1
		c1.3,0,2.4-0.8,2.8-2l0.1,0.1c0-0.2,0-0.3,0-0.5c0-0.2,0.1-0.4,0.1-0.6l0-0.2c0-0.4,0-0.9,0-1.3C57,12.8,44.2,0,28.5,0
		c-4.1,0-7.9,0.8-11.4,2.4c-0.6,0.1-1.2,0.3-1.6,0.8c-0.3,0.2-0.7,0.4-1,0.5L14.8,4c-0.5,1.1-0.3,2.5,0.6,3.4L28.8,21l-7.7,7.8
		L7.6,15.2c-1-1-2.5-1.1-3.6-0.5l-0.3-0.3c-0.2,0.4-0.4,0.7-0.6,1.1c-0.3,0.3-0.4,0.7-0.5,1.1C0.9,20.2,0,24.2,0,28.5
		C0,44.2,12.8,57,28.5,57c3.6,0,7-0.7,10.2-1.9l12.9,12.8c2.1,2.5,5.3,4.1,8.8,4.1C66.8,72,72,66.8,72,60.5
		C72,57.6,70.9,54.9,69.1,52.9L69.1,52.9z M69.1,52.9"/>
</g>
</svg>
