<?xml version="1.0" encoding="utf-8"?>
<!-- Generator: Adobe Illustrator 18.0.0, SVG Export Plug-In . SVG Version: 6.00 Build 0)  -->
<!DOCTYPE svg PUBLIC "-//W3C//DTD SVG 1.1//EN" "http://www.w3.org/Graphics/SVG/1.1/DTD/svg11.dtd">
<svg version="1.1" id="图层_1" xmlns="http://www.w3.org/2000/svg" xmlns:xlink="http://www.w3.org/1999/xlink" x="0px" y="0px"
	 viewBox="0 0 72 72" enable-background="new 0 0 72 72" xml:space="preserve">
<path fill="#504F4F" d="M17.7,67.6H8.8c-4.9,0-8.8-4-8.8-9v-9c0-5,4-9,8.8-9h8.8c4.9,0,8.8,4,8.8,9v9C26.5,63.6,22.5,67.6,17.7,67.6
	L17.7,67.6z M22.1,49.5c0-2.5-2-4.5-4.4-4.5H8.8c-2.4,0-4.4,2-4.4,4.5v9c0,2.5,2,4.5,4.4,4.5h8.8c2.4,0,4.4-2,4.4-4.5V49.5
	L22.1,49.5z M17.7,31.5H8.8c-4.9,0-8.8-4-8.8-9v-9c0-5,4-9,8.8-9h8.8c4.9,0,8.8,4,8.8,9v9C26.5,27.4,22.5,31.5,17.7,31.5L17.7,31.5z
	 M22.1,13.4c0-2.5-2-4.5-4.4-4.5H8.8c-2.4,0-4.4,2-4.4,4.5v9c0,2.5,2,4.5,4.4,4.5h8.8c2.4,0,4.4-2,4.4-4.5V13.4L22.1,13.4z
	 M22.1,13.4"/>
<path fill="#504F4F" d="M69,38.8H39c-1.7,0-3-1.4-3-3.2c0-1.7,1.3-3.2,3-3.2h30c1.7,0,3,1.4,3,3.2C72,37.4,70.7,38.8,69,38.8
	L69,38.8L69,38.8z M69,13.5H39c-1.7,0-3-1.4-3-3.2c0-1.7,1.3-3.2,3-3.2h30c1.7,0,3,1.4,3,3.2C72,12.1,70.7,13.5,69,13.5L69,13.5
	L69,13.5z M39,57.7h30c1.7,0,3,1.4,3,3.2c0,1.7-1.3,3.2-3,3.2H39c-1.7,0-3-1.4-3-3.2C35.9,59.1,37.3,57.7,39,57.7L39,57.7L39,57.7z
	 M39,57.7"/>
</svg>
