<?xml version="1.0" encoding="utf-8"?>
<!-- Generator: Adobe Illustrator 18.0.0, SVG Export Plug-In . SVG Version: 6.00 Build 0)  -->
<!DOCTYPE svg PUBLIC "-//W3C//DTD SVG 1.1//EN" "http://www.w3.org/Graphics/SVG/1.1/DTD/svg11.dtd">
<svg version="1.1" id="图层_1" xmlns="http://www.w3.org/2000/svg" xmlns:xlink="http://www.w3.org/1999/xlink" x="0px" y="0px"
	 viewBox="0 0 72 72" enable-background="new 0 0 72 72" xml:space="preserve">
<g>
	<path fill="#504F4F" d="M71.8,27.5c-0.5-1.6-1.9-2.8-3.6-3.1l-19.4-2.8L40,4c-0.8-1.5-2.3-2.5-4-2.5c-1.7,0-3.3,1-4,2.5l-8.7,17.6
		L3.8,24.5c-1.7,0.2-3.1,1.4-3.6,3.1c-0.5,1.6-0.1,3.4,1.1,4.6l14.1,13.7l-3.3,19.4c-0.3,1.7,0.4,3.4,1.8,4.4
		c0.8,0.6,1.7,0.9,2.6,0.9c0.7,0,1.4-0.2,2.1-0.5L36,60.8l17.4,9.1c0.7,0.3,1.4,0.5,2.1,0.5c0.9,0,1.9-0.3,2.6-0.9
		c1.4-1,2.1-2.7,1.8-4.4l-3.3-19.4l14.1-13.7C71.9,31,72.3,29.2,71.8,27.5z M51.8,44.3L55.5,66L36,55.7L16.5,66l3.7-21.7L4.5,28.9
		l21.8-3.2L36,6l9.7,19.7l21.8,3.2L51.8,44.3z"/>
	<path fill="#504F4F" d="M44.1,28L36,11.6L27.9,28L9.8,30.7l13.1,12.8l-1.2,7.2c0,0.1-0.1,0.3-0.1,0.4c0,0.8,0.7,1.5,1.5,1.5
		c0.7,0,1.4-0.5,1.5-1.3l0,0l1.5-8.9l-9.9-9.6l13.7-2L36,18.4l6.1,12.4l4.9,0.7c0,0,0.1,0,0.1,0l0.1,0v0c0,0,0.1,0,0.1,0
		c0.8,0,1.5-0.7,1.5-1.5c0-0.8-0.6-1.4-1.3-1.5L44.1,28z"/>
	<path fill="#504F4F" d="M54.7,32.6l1.1,0.2l-9.9,9.6L48.2,56L36,49.6l-14.8,7.8c-0.5,0.2-0.9,0.8-0.9,1.4c0,0.8,0.7,1.5,1.5,1.5
		c0.3,0,0.5-0.1,0.7-0.2l0,0L36,53l16.2,8.5l-3.1-18l13.1-12.8l-7-1c-0.1,0-0.2,0-0.3,0c-0.8,0-1.5,0.7-1.5,1.5
		C53.4,31.9,54,32.5,54.7,32.6z"/>
</g>
</svg>
