<?xml version="1.0" encoding="utf-8"?>
<!-- Generator: Adobe Illustrator 18.0.0, SVG Export Plug-In . SVG Version: 6.00 Build 0)  -->
<!DOCTYPE svg PUBLIC "-//W3C//DTD SVG 1.1//EN" "http://www.w3.org/Graphics/SVG/1.1/DTD/svg11.dtd">
<svg version="1.1" id="图层_1" xmlns="http://www.w3.org/2000/svg" xmlns:xlink="http://www.w3.org/1999/xlink" x="0px" y="0px"
	 viewBox="0 0 72 72" enable-background="new 0 0 72 72" xml:space="preserve">
<g>
	<path fill="#504F4F" d="M65.6,59.3H35.8l-12,12c-0.5,0.5-1.3,0.7-1.9,0.5c-0.2,0.1-0.4,0.1-0.7,0.1c-1.2,0-2.1-0.9-2.1-2.1V59.3
		H6.4c-3.5,0-6.4-2.8-6.4-6.4V6.4C0,2.8,2.8,0,6.4,0h59.3C69.2,0,72,2.8,72,6.4v46.6C72,56.5,69.2,59.3,65.6,59.3L65.6,59.3z
		 M67.8,8.5c0-2.3-1.9-4.2-4.2-4.2H8.5c-2.3,0-4.2,1.9-4.2,4.2v42.4c0,2.3,1.9,4.2,4.2,4.2h12.7c1.2,0,2.1,0.9,2.1,2.1v8.7
		l10.6-10.8c0.1-0.1-0.2,0.1,0,0l0,0h29.6c2.3,0,4.2-1.9,4.2-4.2V8.5L67.8,8.5z M55.1,38.1H16.9c-1.2,0-2.1-0.9-2.1-2.1
		c0-1.2,0.9-2.1,2.1-2.1h38.1c1.2,0,2.1,0.9,2.1,2.1C57.2,37.2,56.2,38.1,55.1,38.1L55.1,38.1z M55.1,23.3H16.9
		c-1.2,0-2.1-0.9-2.1-2.1c0-1.2,0.9-2.1,2.1-2.1h38.1c1.2,0,2.1,0.9,2.1,2.1C57.2,22.3,56.2,23.3,55.1,23.3L55.1,23.3z M55.1,23.3"
		/>
</g>
</svg>
