<?xml version="1.0" encoding="utf-8"?>
<!-- Generator: Adobe Illustrator 18.0.0, SVG Export Plug-In . SVG Version: 6.00 Build 0)  -->
<!DOCTYPE svg PUBLIC "-//W3C//DTD SVG 1.1//EN" "http://www.w3.org/Graphics/SVG/1.1/DTD/svg11.dtd">
<svg version="1.1" id="图层_1" xmlns="http://www.w3.org/2000/svg" xmlns:xlink="http://www.w3.org/1999/xlink" x="0px" y="0px"
	 viewBox="0 0 72 72" enable-background="new 0 0 72 72" xml:space="preserve">
<g>
	<path fill="#5C5D5D" d="M24.9,47.6c0,0.4,0.2,0.8,0.6,1.1c0.4,0.2,0.8,0.2,1.2,0.1l23.2-11.6c0.4-0.2,0.7-0.6,0.7-1.1
		c0-0.5-0.3-0.9-0.7-1.1L26.7,23.3c-0.4-0.2-0.8-0.2-1.2,0.1c-0.4,0.2-0.6,0.6-0.6,1.1V47.6L24.9,47.6L24.9,47.6z M62.7,0H45.9H9.3
		C9.1,0,9,0,8.8,0C3.9,0.3,0,4.3,0,9.2c0,0,0,0,0,0.1l0,0v39.1v14.3C0,67.8,4.2,72,9.3,72h16.8h36.6l0,0c5.1,0,9.3-4.1,9.3-9.2
		c0,0,0,0,0-0.1l0,0V23.6V9.3C72,4.2,67.8,0,62.7,0L62.7,0z M65,23.6v36.8l0,0c0,0.1,0,0.1,0,0.2c0,0.7-0.3,1.5-0.8,2.2
		c0,0,0,0,0,0.1c0,0,0,0,0,0.1c-0.9,1.2-2.2,2-3.5,2.1c-0.1,0-0.1,0-0.2,0H26.1v0H11.6C9.3,65,7,62.7,7,60.4v-12l0,0V11.6l0,0
		c0-0.1,0-0.1,0-0.2c0-0.7,0.3-1.5,0.8-2.2c0,0,0,0,0-0.1c0,0,0,0,0-0.1c0.9-1.2,2.2-2,3.5-2.1c0.1,0,0.1,0,0.2,0h34.3l0,0h14.5
		c2.3,0,4.6,2.4,4.6,4.6V23.6L65,23.6L65,23.6z M65,23.6"/>
</g>
</svg>
