<?xml version="1.0" encoding="utf-8"?>
<!-- Generator: Adobe Illustrator 18.0.0, SVG Export Plug-In . SVG Version: 6.00 Build 0)  -->
<!DOCTYPE svg PUBLIC "-//W3C//DTD SVG 1.1//EN" "http://www.w3.org/Graphics/SVG/1.1/DTD/svg11.dtd">
<svg version="1.1" id="图层_1" xmlns="http://www.w3.org/2000/svg" xmlns:xlink="http://www.w3.org/1999/xlink" x="0px" y="0px"
	 viewBox="0 0 72 72" enable-background="new 0 0 72 72" xml:space="preserve">
<g>
	<path fill="#504F4F" d="M52.7,3.8C63,2.1,73,12.1,71.9,22.4c0,1.5-2.1,2.2-3.1,1.3c-1.2-0.6-1-2.2-1.2-3.3
		C67.2,14.2,61.9,8.7,55.8,8c-1-0.2-2.1-0.1-3-0.5C51.3,6.8,51.2,4.4,52.7,3.8z"/>
	<path fill="#504F4F" d="M51.3,17c0.6-0.9,1.2-2.2,2.5-2.3c3.9,0,7.6,3.7,7,7.6c-0.1,1.1-1.3,1.6-2.2,1.8c-2.5-0.3-1.7-3.5-3.5-4.7
		C53.4,19.3,52,18.5,51.3,17z"/>
	<g>
		<path fill="#504F4F" d="M22.6,17.7c3.4-1.5,7.7-2.2,10.9,0.3c2.1,1.9,2.4,4.9,2.2,7.5c4-1.4,8.7-2.5,12.6-0.3
			c3.2,1.8,3.9,6.1,2.6,9.3c3.5,1.4,6.8,4,8,7.7c1.2,3.9-0.1,8.1-2.3,11.4c-4.9,6.9-13.1,10.7-21.3,12c-7.4,0.6-15.1,0.6-22-2.5
			C7.9,60.8,2.7,57,0.8,51.3c-2.1-6,0.3-12.4,3.6-17.5C8.9,27,15,21.1,22.6,17.7z M25.4,21.3c-3.3,1.1-6.1,3.1-8.8,5.3
			C12.3,30.4,8.3,34.8,5.9,40c-1.7,3.8-2.3,8.4,0.1,12c3.4,5.3,9.6,8,15.6,9c7.4,1.2,15.3,0.6,22.2-2.6c4.4-2.2,8.7-5.5,10.5-10.2
			c0.9-2.4,0.7-5.3-1.2-7.1c-1.7-1.9-4.4-2.2-6.4-3.7c-2.1-2.5,2.1-6.2-0.8-8.5c-3.6-1.3-7.5,0.1-10.9,1.4c-1.3,0.6-3.2,0.6-4-0.8
			c-1.3-2.5,1.3-5.3-0.2-7.7C29.6,20,27.1,20.8,25.4,21.3z"/>
	</g>
</g>
</svg>
