<?xml version="1.0" encoding="utf-8"?>
<!-- Generator: Adobe Illustrator 18.0.0, SVG Export Plug-In . SVG Version: 6.00 Build 0)  -->
<!DOCTYPE svg PUBLIC "-//W3C//DTD SVG 1.1//EN" "http://www.w3.org/Graphics/SVG/1.1/DTD/svg11.dtd">
<svg version="1.1" id="图层_1" xmlns="http://www.w3.org/2000/svg" xmlns:xlink="http://www.w3.org/1999/xlink" x="0px" y="0px"
	 viewBox="0 0 72 72" enable-background="new 0 0 72 72" xml:space="preserve">
<g>
	<path fill="#504F4F" d="M41.2,29.2c-1.9,0-3.7,0.6-5.2,1.6c-1.5-1.1-3.3-1.6-5.2-1.6c-4.9,0-8.9,4-8.9,8.9c0,2.1,0.7,4.1,2.1,5.8
		c0.1,0.1,0.1,0.1,0.2,0.2l10.4,9.6c0.4,0.4,0.9,0.6,1.5,0.6c0.5,0,1.1-0.2,1.5-0.6l10.2-9.6c0.1-0.1,0.1-0.1,0.2-0.2
		c1.3-1.6,2.1-3.7,2.1-5.8C50.1,33.2,46.1,29.2,41.2,29.2L41.2,29.2z M44.7,41l-8.7,8.1L27.3,41c-0.6-0.8-1-1.9-1-2.9
		c0-2.5,2.1-4.6,4.6-4.6c1.4,0,2.6,0.6,3.5,1.6c0.4,0.5,1,0.8,1.6,0.8h0c0.6,0,1.2-0.3,1.6-0.8c0.9-1,2.1-1.6,3.5-1.6
		c2.5,0,4.6,2.1,4.6,4.6C45.8,39.1,45.4,40.2,44.7,41L44.7,41z M66.4,16h-3.9c0.2-0.3,0.4-0.5,0.6-0.8c1.8-2.7,1.9-5.6,0.2-8.1
		c-1.1-1.6-3-2.7-5.2-3.1c-4.6-0.8-10.6,1.1-16.8,5.5c-1,0.7-1.2,2-0.5,3c0.7,1,2,1.2,3,0.5c7.3-5.1,11.9-5,13.5-4.7
		c1.1,0.2,2,0.7,2.4,1.3c0.8,1.2,1,2.9-3.4,6.4H39.3c-1.2-0.8-2.4-1.8-3.6-3c-0.1-0.1-0.1-0.1-0.2-0.2c-0.1-0.1-0.4-0.4-0.7-0.7
		c-2.4-2.3-8.9-8.5-18-8.5c-4.8,0-8.4,2.4-9.2,6.1c-0.4,2,0,4.2,1.3,6.3H5.6C2.5,16,0,18.5,0,21.5v12c0,1.2,1,2.2,2.2,2.2h0.5v23.7
		c0,5,4,9,9,9h48.8c5,0,9-4,9-9V35.7h0.5c1.2,0,2.2-1,2.2-2.2v-12C72,18.5,69.5,16,66.4,16L66.4,16z M11.7,10.6
		c0.3-1.6,2.3-2.6,5-2.6c7.4,0,12.8,5.1,15.1,7.3c0.3,0.3,0.5,0.5,0.7,0.7h-18C12.2,14,11.4,12,11.7,10.6L11.7,10.6z M67.7,31.4
		h-0.5c-1.2,0-2.2,1-2.2,2.2v25.9c0,2.6-2.1,4.7-4.7,4.7H11.6C9,64.1,7,62,7,59.4V33.5c0-1.2-1-2.2-2.2-2.2H4.3v-9.8
		c0-0.7,0.6-1.3,1.3-1.3h7.3c1.7,1.3,3.8,2.5,6.3,3.6c0.3,0.1,0.6,0.2,0.9,0.2c0.8,0,1.6-0.5,2-1.3c0.4-0.9,0.1-2-0.6-2.6H38
		c3.8,2.4,7.3,3.3,10.3,3.3c4.1,0,7.4-1.7,9.6-3.3h8.6c0.7,0,1.3,0.6,1.3,1.3V31.4L67.7,31.4L67.7,31.4z M67.7,31.4"/>
</g>
</svg>
