<?xml version="1.0" encoding="utf-8"?>
<!-- Generator: Adobe Illustrator 18.0.0, SVG Export Plug-In . SVG Version: 6.00 Build 0)  -->
<!DOCTYPE svg PUBLIC "-//W3C//DTD SVG 1.1//EN" "http://www.w3.org/Graphics/SVG/1.1/DTD/svg11.dtd">
<svg version="1.1" id="图层_1" xmlns="http://www.w3.org/2000/svg" xmlns:xlink="http://www.w3.org/1999/xlink" x="0px" y="0px"
	 viewBox="0 0 72 72" enable-background="new 0 0 72 72" xml:space="preserve">
<g>
	<g>
		<path fill="#504F4F" d="M21,8.1c0-0.2,0-0.5,0-0.6c3.6-0.3,7.2-0.3,10.8,0c0,0.2,0,0.5,0,0.6c5.8,0.5,11.1,3.7,15.3,7.6
			c2.4,2.8,4.5,6.1,5.3,9.8c8.5,0.8,17.2,6.4,19.1,15.1c0.2,0,0.5-0.1,0.6-0.1c0.3,2.4,0.3,4.9,0,7.4l-0.6-0.1
			c-0.3,2.2-1.5,4.1-2.6,5.9c-1.4,1.7-2.6,3.7-4.7,4.7c-0.2,2.1,1.1,4,1.3,6.1c-0.2,0.4-0.6,1.1-0.8,1.5c-0.7,0-1.5,0.3-2.1-0.2
			c-1.7-1.3-3.5-2.2-5.5-3c-1.8-0.3-3.4,0.6-5.2,0.7c-9,0.9-18.8-3.6-22.8-12c-2.7,0-5.5,0.2-8.2-0.4c-1.2-0.2-2.4-0.6-3.6-0.1
			c-2.4,1.1-4.7,2.5-7.1,3.5c-0.9,0.4-1.7-0.3-2.5-0.7c0.2-2.6,1.5-4.8,2-7.3c-4.1-3-7.3-7.3-8.6-12.2c-1.1-1-0.6-2.7-0.8-4
			c0.2-1.6-0.4-3.5,0.7-4.8c1.4-5.2,4.6-10,9.2-12.9C13.5,10.3,17.1,8.5,21,8.1z M15.8,13.3C10.2,15.8,5.5,20.8,4.3,27
			c-0.1,2-0.3,4.1,0.3,6c1.1,5,5,8.7,9,11.5c0.6,1.7-0.5,3.5-1.3,5.1c1.8-1.3,3.8-2.2,5.9-2.9c3.1,0.8,6.4,1.3,9.6,1.2
			c-0.5-3.9-0.1-7.9,1.8-11.3c3.8-6.8,11.4-10.9,19.1-11.1c-2.4-7.2-9.3-12.3-16.6-13.7C26.7,10.4,20.9,11.1,15.8,13.3z M34.6,35.6
			c-3.7,3.9-4.4,10.1-1.9,14.9c4.3,8.1,15.1,11.3,23.4,8.3c0.5,0,0.9-0.1,1.4-0.1c1.1,0.7,2.4,1.3,3.5,2.1c-0.6-1.2-1.6-2.8-0.3-3.9
			c2.6-2.6,5.9-5,7.1-8.6c1.7-4.4,0.1-9.5-3-12.9C57.2,26.8,42,26.7,34.6,35.6z"/>
	</g>
	<path fill="#504F4F" d="M16,19.3c1.6-0.7,4-1,5.3,0.5c1.8,1.8,0.9,5.5-1.6,6.1c-2.3,0.6-5.7-0.9-5.4-3.7C14.2,21,14.9,19.9,16,19.3
		z"/>
	<path fill="#504F4F" d="M31.5,24c-1.3-2.2,0.5-5.2,3-5.2c1.8-0.4,3.4,0.4,4.5,1.8c0,1.2,0,2.3,0,3.5C37.3,26.8,33.1,26.6,31.5,24z"
		/>
	<path fill="#504F4F" d="M40.2,37.5c1-0.7,1.9-1.8,3.3-1.7c1.9,0.2,4.1,2,3.2,4.1c-0.7,2.1-3.2,2.2-5.1,1.8c-0.5-0.5-0.9-1-1.4-1.5
		C40.3,39.4,40.3,38.4,40.2,37.5z"/>
	<path fill="#504F4F" d="M54.1,37c1.7-1.9,5-1,5.9,1.1c0.5,1-0.2,2-0.6,3c-1.4,0.8-3,1-4.6,0.7C53.6,40.6,52.7,38.4,54.1,37z"/>
</g>
</svg>
