<?xml version="1.0" encoding="utf-8"?>
<!-- Generator: Adobe Illustrator 18.0.0, SVG Export Plug-In . SVG Version: 6.00 Build 0)  -->
<!DOCTYPE svg PUBLIC "-//W3C//DTD SVG 1.1//EN" "http://www.w3.org/Graphics/SVG/1.1/DTD/svg11.dtd">
<svg version="1.1" id="图层_1" xmlns="http://www.w3.org/2000/svg" xmlns:xlink="http://www.w3.org/1999/xlink" x="0px" y="0px"
	 viewBox="0 0 72 72" enable-background="new 0 0 72 72" xml:space="preserve">
<g>
	<path fill="#504F4F" d="M67.5,12.7l-8.2-8.2C55.8,1,49.7,1.4,46.2,4.9L34.1,17c-3.5,3.5-3.5,9.2,0,12.7l0.5,0.5l3.2-3.2l-0.5-0.5
		c-1.8-1.8-1.8-4.6,0-6.3L49.8,7.7c1.8-1.8,4.6-1.8,6.3,0l8.2,8.2c1.8,1.8,1.8,4.6,0,6.4L51.8,34.7c-1.8,1.8-4.6,1.8-6.4,0L45,34.3
		l-3.2,3.2l0.5,0.5c3.5,3.5,9.2,3.5,12.7,0l12.1-12.1C70.6,22.3,71,16.2,67.5,12.7L67.5,12.7z M12.7,67.5l-8.2-8.2
		C1,55.8,1.4,49.7,4.9,46.2L17,34.1c3.5-3.5,9.2-3.5,12.7,0l0.5,0.5L27,37.7l-0.5-0.5c-1.8-1.8-4.6-1.8-6.3,0L7.7,49.8
		c-1.8,1.8-1.8,4.6,0,6.3l8.2,8.2c1.8,1.8,4.6,1.8,6.4,0l12.6-12.6c1.8-1.8,1.8-4.6,0-6.4L34.3,45l3.2-3.2l0.5,0.5
		c3.5,3.5,3.5,9.2,0,12.7L25.8,67.1C22.3,70.6,16.2,71,12.7,67.5L12.7,67.5z M54.4,51.3L67.2,64L64,67.2L51.3,54.4L54.4,51.3
		L54.4,51.3z M42.4,59h4.5v13h-4.5V59L42.4,59z M59,42.4h13v4.5H59V42.4L59,42.4z M17.6,20.7L4.8,8L8,4.8l12.7,12.7L17.6,20.7
		L17.6,20.7z M0,25.1h13v4.5H0V25.1L0,25.1z M25.1,0h4.5v13h-4.5V0L25.1,0z M25.1,0"/>
</g>
</svg>
