<?xml version="1.0" encoding="utf-8"?>
<!-- Generator: Adobe Illustrator 18.0.0, SVG Export Plug-In . SVG Version: 6.00 Build 0)  -->
<!DOCTYPE svg PUBLIC "-//W3C//DTD SVG 1.1//EN" "http://www.w3.org/Graphics/SVG/1.1/DTD/svg11.dtd">
<svg version="1.1" id="图层_1" xmlns="http://www.w3.org/2000/svg" xmlns:xlink="http://www.w3.org/1999/xlink" x="0px" y="0px"
	 viewBox="0 0 72 72" enable-background="new 0 0 72 72" xml:space="preserve">
<g>
	<path fill="#504F4F" d="M65.3,0H15.8C12,0,9,3,9,6.8v4.5H6.8C3,11.3,0,14.3,0,18v45c0,5,4,9,9,9h54c5,0,9-4,9-9V6.8
		C72,3,69,0,65.3,0L65.3,0z M67.5,63c0,2.5-2,4.5-4.5,4.5H9c-2.5,0-4.5-2-4.5-4.5V18c0-1.2,1-2.3,2.3-2.3H9v45C9,62,10,63,11.3,63
		c1.2,0,2.3-1,2.3-2.3v-54c0-1.2,1-2.3,2.3-2.3h49.5c1.2,0,2.3,1,2.3,2.3L67.5,63L67.5,63z M43.9,29.3c-0.6,0-1.1-0.5-1.1-1.1
		c0-0.6,0.5-1.1,1.1-1.1h18c0.6,0,1.1,0.5,1.1,1.1c0,0.6-0.5,1.1-1.1,1.1H43.9L43.9,29.3z M43.9,22.5c-0.6,0-1.1-0.5-1.1-1.1
		c0-0.6,0.5-1.1,1.1-1.1h18c0.6,0,1.1,0.5,1.1,1.1c0,0.6-0.5,1.1-1.1,1.1H43.9L43.9,22.5z M43.9,15.8c-0.6,0-1.1-0.5-1.1-1.1
		c0-0.6,0.5-1.1,1.1-1.1h18c0.6,0,1.1,0.5,1.1,1.1c0,0.6-0.5,1.1-1.1,1.1H43.9L43.9,15.8z M37.1,60.8c0.6,0,1.1,0.5,1.1,1.1
		c0,0.6-0.5,1.1-1.1,1.1h-18c-0.6,0-1.1-0.5-1.1-1.1c0-0.6,0.5-1.1,1.1-1.1H37.1L37.1,60.8z M37.1,54c0.6,0,1.1,0.5,1.1,1.1
		c0,0.6-0.5,1.1-1.1,1.1h-18c-0.6,0-1.1-0.5-1.1-1.1c0-0.6,0.5-1.1,1.1-1.1H37.1L37.1,54z M37.1,47.3c0.6,0,1.1,0.5,1.1,1.1
		c0,0.6-0.5,1.1-1.1,1.1h-18c-0.6,0-1.1-0.5-1.1-1.1c0-0.6,0.5-1.1,1.1-1.1H37.1L37.1,47.3z M61.9,60.8c0.6,0,1.1,0.5,1.1,1.1
		c0,0.6-0.5,1.1-1.1,1.1h-18c-0.6,0-1.1-0.5-1.1-1.1c0-0.6,0.5-1.1,1.1-1.1H61.9L61.9,60.8z M61.9,54c0.6,0,1.1,0.5,1.1,1.1
		c0,0.6-0.5,1.1-1.1,1.1h-18c-0.6,0-1.1-0.5-1.1-1.1c0-0.6,0.5-1.1,1.1-1.1H61.9L61.9,54z M61.9,47.3c0.6,0,1.1,0.5,1.1,1.1
		c0,0.6-0.5,1.1-1.1,1.1h-18c-0.6,0-1.1-0.5-1.1-1.1c0-0.6,0.5-1.1,1.1-1.1H61.9L61.9,47.3z M61.9,33.8c0.6,0,1.1,0.5,1.1,1.1
		c0,0.6-0.5,1.1-1.1,1.1H19.1c-0.6,0-1.1-0.5-1.1-1.1c0-0.6,0.5-1.1,1.1-1.1H61.9L61.9,33.8z M61.9,40.5c0.6,0,1.1,0.5,1.1,1.1
		c0,0.6-0.5,1.1-1.1,1.1H19.1c-0.6,0-1.1-0.5-1.1-1.1c0-0.6,0.5-1.1,1.1-1.1H61.9L61.9,40.5z M20.3,29.3H36c1.2,0,2.3-1,2.3-2.3
		V11.3c0-1.2-1-2.3-2.3-2.3H20.3C19,9,18,10,18,11.3V27C18,28.2,19,29.3,20.3,29.3L20.3,29.3z M22.5,13.5h11.3v11.3H22.5V13.5
		L22.5,13.5z M22.5,13.5"/>
</g>
</svg>
