<?xml version="1.0" encoding="utf-8"?>
<!-- Generator: Adobe Illustrator 18.0.0, SVG Export Plug-In . SVG Version: 6.00 Build 0)  -->
<!DOCTYPE svg PUBLIC "-//W3C//DTD SVG 1.1//EN" "http://www.w3.org/Graphics/SVG/1.1/DTD/svg11.dtd">
<svg version="1.1" id="图层_1" xmlns="http://www.w3.org/2000/svg" xmlns:xlink="http://www.w3.org/1999/xlink" x="0px" y="0px"
	 viewBox="0 0 72 72" enable-background="new 0 0 72 72" xml:space="preserve">
<g>
	<path fill="#504F4F" d="M17.8,65.5c-0.5,1.1-1.1,2.1-1.9,2.9c-0.8,0.8-1.8,1.5-2.9,1.9c-1.1,0.5-2.3,0.7-3.6,0.7
		c-1.3,0-2.5-0.2-3.6-0.7c-1.1-0.5-2.1-1.1-2.9-1.9c-0.9-0.8-1.5-1.8-2-2.9C0.2,64.4,0,63.2,0,61.9c0-1.3,0.2-2.5,0.7-3.6
		c0.5-1.1,1.1-2.1,2-2.9c0.9-0.8,1.8-1.5,2.9-1.9c1.1-0.5,2.3-0.7,3.6-0.7c1.3,0,2.5,0.2,3.6,0.7c1.1,0.5,2.1,1.1,2.9,1.9
		c0.8,0.8,1.5,1.8,1.9,2.9c0.5,1.1,0.7,2.3,0.7,3.6C18.4,63.2,18.2,64.4,17.8,65.5L17.8,65.5L17.8,65.5z M44.3,70.8
		c-1.1,0-2.4,0-3.3,0c-1,0-1.9,0-2.9,0h-3.6c0-4.4-0.8-9.4-2.4-13.2c-1.6-3.8-3.8-7.8-6.6-10.6c-2.8-2.8-6-5.2-9.8-6.8
		c-3.8-1.6-7.7-2.5-11.9-2.5c0-1.5,0.1-11.7,0.1-13.3c6.1,0,11.5,1.1,16.8,3.4c5.4,2.3,10,5.4,14,9.4c4,4,7.2,8.7,9.5,14.1
		c2.3,5.4,3.7,13.2,3.7,19.3C46.4,70.8,45.3,70.8,44.3,70.8L44.3,70.8L44.3,70.8z M68,68.6c-0.6,0-1.1,0-1.5-0.1
		c-0.4-0.1-1-0.1-1.8-0.2c-0.8,0-2.4,0-4.8,0c0-7.7-1.5-15-4.4-21.8c-2.9-6.8-6.9-12.8-12-17.9c-5.1-5.1-11-9.1-17.8-12
		c-6.8-2.9-14.1-4.4-21.9-4.4c0-3.1,0-7.5,0-12.3c9.4,0,18.2,1.9,26.5,5.5c8.3,3.6,15.6,8.5,21.8,14.7c6.2,6.2,11.1,13.4,14.7,21.7
		C70.2,50.1,72,59,72,68.4C69.9,68.5,68.6,68.6,68,68.6L68,68.6L68,68.6z M68,68.6"/>
</g>
</svg>
