<?xml version="1.0" encoding="utf-8"?>
<!-- Generator: Adobe Illustrator 18.0.0, SVG Export Plug-In . SVG Version: 6.00 Build 0)  -->
<!DOCTYPE svg PUBLIC "-//W3C//DTD SVG 1.1//EN" "http://www.w3.org/Graphics/SVG/1.1/DTD/svg11.dtd">
<svg version="1.1" id="图层_1" xmlns="http://www.w3.org/2000/svg" xmlns:xlink="http://www.w3.org/1999/xlink" x="0px" y="0px"
	 viewBox="0 0 72 72" enable-background="new 0 0 72 72" xml:space="preserve">
<path fill="#504F4F" d="M45,71.9c-3.8,0-6.7-2.1-6.9-9.8C37.6,46.6,25.4,34,9.9,34c-3.8,0-9.7,1.2-9.7-5.1c0-3.8,3.1-5.8,6.9-5.8
	c23.2,0,42,18.8,42,42c0,3.8-3.1,6.9-6.9,6.9H45z M68,71.9c-8.1,0-6.9-6-6.9-9.8c0-28.2-23-51.2-51.2-51.2C6.1,11-1,10.3,0.1,4.1
	c0.7-3.7,3.1-4,6.9-4c35.8,0,65,29.1,65,64.9c0,3.8-3.1,6.9-6.9,6.9H68z M0.1,63.3c0,4.8,3.9,8.6,8.6,8.6c4.8,0,8.6-3.9,8.6-8.6
	c0-4.8-3.9-8.6-8.6-8.6C4,54.7,0.1,58.5,0.1,63.3L0.1,63.3z M0.1,63.3"/>
</svg>
