<?xml version="1.0" encoding="utf-8"?>
<!-- Generator: Adobe Illustrator 18.0.0, SVG Export Plug-In . SVG Version: 6.00 Build 0)  -->
<!DOCTYPE svg PUBLIC "-//W3C//DTD SVG 1.1//EN" "http://www.w3.org/Graphics/SVG/1.1/DTD/svg11.dtd">
<svg version="1.1" id="图层_1" xmlns="http://www.w3.org/2000/svg" xmlns:xlink="http://www.w3.org/1999/xlink" x="0px" y="0px"
	 viewBox="0 0 72 72" enable-background="new 0 0 72 72" xml:space="preserve">
<path fill="#504F4F" d="M65,15.9H51v-0.4c0-3.9-3.2-7-7-7H28.2c-3.9,0-7,3.2-7,7v0.4h-14c-3.9,0-7,3.2-7,7v33.5c0,3.9,3.2,7,7,7H65
	c3.9,0,7-3.2,7-7V22.9C72.1,19.1,68.9,15.9,65,15.9z M25.6,15.5c0-1.4,1.1-2.5,2.5-2.5H44c1.4,0,2.5,1.1,2.5,2.5v0.4H25.6V15.5z
	 M7.1,20.4H65c1.4,0,2.5,1.1,2.5,2.5v4.7c-0.1,0.2-0.1,0.3-0.1,0.5c0,1.2-0.4,2.7-3.4,3.8l-17.4,4.4c-0.2-2.3-2.4-4.1-4.9-4.1H30.4
	c-2.6,0-4.7,1.8-4.9,4.1L8,32c-2.6-0.9-3.3-2.2-3.4-3.3v-5.8C4.6,21.5,5.7,20.4,7.1,20.4z M43.7,36.9v2.9c0,0.8-0.9,1.6-1.9,1.6
	H30.4c-1.1,0-1.9-0.7-1.9-1.6v-2.9c0-0.8,0.9-1.6,1.9-1.6h11.4C42.8,35.3,43.7,36,43.7,36.9z M65,59H7.1c-1.4,0-2.5-1.1-2.5-2.5
	v-0.6c0.9,0.5,2,0.8,3.1,0.8H50c0.8,0,1.5-0.7,1.5-1.5c0-0.8-0.7-1.5-1.5-1.5H7.7c-1.5,0-2.8-1.1-3.1-2.5V33.7
	c0.7,0.5,1.5,0.9,2.5,1.2c0,0,0.1,0,0.1,0l18.3,4.6v0.3c0,2.5,2.2,4.6,4.9,4.6h11.4c2.7,0,4.9-2,4.9-4.6v-0.3l18.1-4.6
	c0,0,0.1,0,0.1,0c1-0.3,1.9-0.8,2.6-1.3v17.7c-0.3,1.4-1.6,2.5-3.1,2.5h-7.3c-0.8,0-1.5,0.7-1.5,1.5c0,0.8,0.7,1.5,1.5,1.5h7.3
	c1.1,0,2.2-0.3,3.1-0.8v0.6C67.6,57.9,66.4,59,65,59z"/>
</svg>
