<?xml version="1.0" encoding="utf-8"?>
<!-- Generator: Adobe Illustrator 18.0.0, SVG Export Plug-In . SVG Version: 6.00 Build 0)  -->
<!DOCTYPE svg PUBLIC "-//W3C//DTD SVG 1.1//EN" "http://www.w3.org/Graphics/SVG/1.1/DTD/svg11.dtd">
<svg version="1.1" id="图层_1" xmlns="http://www.w3.org/2000/svg" xmlns:xlink="http://www.w3.org/1999/xlink" x="0px" y="0px"
	 viewBox="0 0 72 72" enable-background="new 0 0 72 72" xml:space="preserve">
<g>
	<g>
		<path fill="#504F4F" d="M29,4c1.4-2.6,4.5-3.8,7.4-3.5c2.8-0.3,5.7,1.2,7,3.8c2.5,4.4,1.2,9.6,1.6,14.4c1.3,0.2,3.3,0.1,3.9,1.6
			c0.9,1.7-0.7,3.8-2.5,3.7c-6.9,0-13.8,0.1-20.7,0c-1.9,0-3.5-2.3-2.3-4c0.7-1.4,2.5-1.1,3.8-1.4C27.5,13.8,26.2,8.4,29,4z
			 M32.8,7.9c-0.8,3.6-0.2,7.4-0.4,11c2.4-0.1,4.8-0.1,7.3,0c-0.2-3.7,0.5-7.5-0.4-11.1C38.6,4.7,33.4,4.8,32.8,7.9z"/>
	</g>
	<path fill="#504F4F" d="M34.5,9c2.8-2,5.9,2.5,3,4.3C34.9,15.5,31.7,10.8,34.5,9z"/>
	<path fill="#504F4F" d="M0.3,20.7c-0.3-4.6,4.4-8.1,8.7-8.1c5.3,0,10.6,0,15.9,0c1.5-0.3,1.2,1.4,1.3,2.3c-0.1,0.9,0.3,2.2-0.7,2.8
		c-5.8,0.5-11.6-0.1-17.4,0.3c-1.9,0.2-3,2.3-2.8,4.1c0,13.2,0,26.5,0,39.7c-0.2,2.1,1.3,4.3,3.5,4.3c17.8,0.1,35.7,0,53.5,0.1
		c2.2,0.2,4.6-1.3,4.4-3.7c0-13.5,0-26.9,0-40.4c0.3-1.9-1.1-4-3-4.2c-5.7-0.3-11.5,0.3-17.3-0.3c-1.2-1.4-0.4-3.5-0.2-5.1
		c5.8,0.1,11.6-0.1,17.5,0.1c4.7,0.2,8.9,4.7,8.6,9.5c0,13.2,0,26.4,0,39.7c0.3,4.7-3.7,9.7-8.6,9.4c-18.5,0-37,0-55.5,0
		c-4.2,0.2-8.2-3.7-7.9-7.9C0.3,49.1,0.3,34.9,0.3,20.7z"/>
	<g>
		<path fill="#504F4F" d="M19.7,27.9c5-2.5,11.2,0.7,13.3,5.6c2.1,4,2,9,0.1,13.1c2.4,2,4.4,5.4,3.3,8.6c-0.7,2.4-3.2,3.9-5.7,3.9
			c-4.6,0-9.1,0-13.7,0c-2.8,0.2-5.6-1.7-6.3-4.4c-0.6-3.1,1.5-5.9,3.4-8.1C10.8,40.2,12.8,31,19.7,27.9z M21.6,32.8
			c-5.3,3-5,12.8,1,14.8c4.9,0.8,7.5-5.4,6.5-9.5C28.7,34.6,25.2,31.1,21.6,32.8z M15.4,53.5c5.3,0.7,10.8,0.4,16.1,0.2
			c-0.5-1-1.1-1.9-1.6-2.8c-2.2,1.2-4.7,2.3-7.3,1.9c-1.6-0.4-2.8-1.5-4.3-2.2C16.8,50.6,16.3,52.5,15.4,53.5z"/>
	</g>
	<path fill="#504F4F" d="M41.7,31.3c5.1-0.2,10.3-0.1,15.4-0.1c2.7,0.2,3.5,4.5,0.6,5.1c-5.4,0.2-10.7,0.2-16.1,0
		C38.9,35.9,39.1,31.8,41.7,31.3z"/>
	<path fill="#504F4F" d="M41,41.9c0.9-0.7,2.2-0.4,3.3-0.5c4.3,0.1,8.7-0.1,13,0.1c3,0.4,3,4.9-0.1,5.2c-5,0.2-10.1,0.2-15.1,0
		C39.7,46.7,38.7,43.1,41,41.9z"/>
	<path fill="#504F4F" d="M40.3,52.7c2.3-1.7,5.5-0.7,8.2-0.9c3.1-0.4,3.7,4.7,0.7,5.1c-2.4,0.2-4.7,0.2-7.1,0.1
		C40.1,57,38.7,54.2,40.3,52.7z"/>
</g>
</svg>
