<?xml version="1.0" encoding="utf-8"?>
<!-- Generator: Adobe Illustrator 18.0.0, SVG Export Plug-In . SVG Version: 6.00 Build 0)  -->
<!DOCTYPE svg PUBLIC "-//W3C//DTD SVG 1.1//EN" "http://www.w3.org/Graphics/SVG/1.1/DTD/svg11.dtd">
<svg version="1.1" id="图层_1" xmlns="http://www.w3.org/2000/svg" xmlns:xlink="http://www.w3.org/1999/xlink" x="0px" y="0px"
	 viewBox="0 0 72 72" enable-background="new 0 0 72 72" xml:space="preserve">
<g>
	<path fill="#504F4F" d="M71.1,29.2l-30.4-24c-2.6-2.1-6.7-2.1-9.3,0l-30.4,24c-1,0.8-1.2,2.3-0.4,3.4c0.8,1,2.3,1.2,3.3,0.4
		l0.9-0.8v29.1c0,4.1,4.3,7.2,8.2,7.2h48c3.8,0,6.2-2.9,6.2-7.2v-29l0.9,0.7c0.4,0.3,1,0.5,1.5,0.5c0.7,0,1.4-0.3,1.9-0.9
		C72.3,31.5,72.1,30,71.1,29.2L71.1,29.2z M33.6,63.6V50.3c0-0.7,1.2-1,2.4-1s2.4,0.3,2.4,1v13.3H33.6L33.6,63.6z M62.4,61.2
		c0,1.6-0.4,2.4-1.4,2.4H43.3c0,0,0-0.1,0-0.1V50.3c0-2.8-2.3-5.8-7.2-5.8c-4.9,0-7.2,3-7.2,5.8v13.2c0,0,0.1,0.1,0.1,0.1H13
		c-1.5,0-3.4-1.3-3.4-2.4V28.4L34.3,8.9c0.9-0.7,2.5-0.7,3.4,0l24.8,19.6V61.2L62.4,61.2z M62.4,61.2"/>
</g>
</svg>
