<?xml version="1.0" encoding="utf-8"?>
<!-- Generator: Adobe Illustrator 16.0.2, SVG Export Plug-In . SVG Version: 6.00 Build 0)  -->
<!DOCTYPE svg PUBLIC "-//W3C//DTD SVG 1.1//EN" "http://www.w3.org/Graphics/SVG/1.1/DTD/svg11.dtd">
<svg version="1.1" id="图层_1" xmlns="http://www.w3.org/2000/svg" xmlns:xlink="http://www.w3.org/1999/xlink" x="0px" y="0px"
	 width="90px" height="90px" viewBox="0 0 90 90" enable-background="new 0 0 90 90" xml:space="preserve">
<path opacity="0.7" fill-rule="evenodd" clip-rule="evenodd" d="M72.726,18.056c1.859,0,3.453,0.664,4.781,1.992
	s1.993,2.923,1.993,4.781v40.906c0,1.727-2.863,5.209-4.722,5.209H16.222c-2.833,0-4.722-2.833-4.722-5.209V24.829
	c0-1.858,0.665-3.453,1.993-4.781c1.461-1.328,3.055-1.992,4.782-1.992H72.726 M41.722,53.944H20.944v-3.778h20.778L41.722,53.944z
	 M41.722,44.5H20.944v-3.778h20.778L41.722,44.5z M41.722,35.056H20.944v-3.777h20.778L41.722,35.056z M71.433,56.423l0.334,6.021
	H50.363c0-4.013,0.167-6.021,0.501-6.021c4.682-1.169,7.191-3.01,7.191-5.517c0-1.003-0.838-2.509-2.342-4.85
	s-2.34-4.849-2.34-7.525c0-6.354,2.508-9.364,7.692-9.364c5.183,0,7.692,3.011,7.692,9.364c0,2.677-0.837,5.185-2.343,7.525
	c-1.671,2.341-2.341,3.847-2.341,4.85c0,1.169,0.502,2.173,1.674,3.01c1.17,1.004,2.508,1.505,3.677,1.839L71.433,56.423"/>
</svg>
