<?xml version="1.0" encoding="UTF-8" standalone="no"?>
<svg width="68px" height="54px" viewBox="0 0 68 54" version="1.1" xmlns="http://www.w3.org/2000/svg" xmlns:xlink="http://www.w3.org/1999/xlink" xmlns:sketch="http://www.bohemiancoding.com/sketch/ns">
    <!-- Generator: Sketch 3.2.2 (9983) - http://www.bohemiancoding.com/sketch -->
    <title>Shape</title>
    <desc>Created with Sketch.</desc>
    <defs></defs>
    <path opacity="0.7" fill-rule="evenodd" clip-rule="evenodd" d="M6.774,0 C5.047,0 3.454,1.22 1.993,2.548 C0.665,3.876 0,5.471 0,7.329 L0,48.235 C0,50.611 1.889,54 4.722,54 L63.278,54 C65.137,54 68,49.962 68,48.235 L68,7.329 C68,5.471 67.335,3.876 66.007,2.548 C64.679,1.22 63.085,0 61.226,0 L6.774,0 L6.774,0 Z M30,39 L9.833,39 L9.833,35 L30,35 L30,39 L30,39 Z M30,28 L9.833,28 L9.833,24 L30,24 L30,28 L30,28 Z M30,17 L10,17 L10,13 L30,13 L30,17 L30,17 Z M61,36.849 L61,43 L37,43 C37,38.9 36.625,36.849 37,36.849 C42.25,35.654 45.625,33.773 45.625,31.212 C45.625,30.187 44.686,28.649 42.999,26.257 C41.312,23.865 40.374,21.303 40.374,18.568 C40.375,12.076 43.188,9 49,9 C54.812,9 57.625,12.076 57.625,18.567 C57.625,21.302 56.686,23.864 54.998,26.256 C53.124,28.648 52.374,30.186 52.374,31.211 C52.374,32.405 52.937,33.431 54.25,34.286 C55.563,35.312 57.062,35.824 58.374,36.164 L60.625,36.848 L61,36.849 L61,36.849 Z" id="Shape" sketch:type="MSShapeGroup"></path>
</svg>