<?xml version="1.0" encoding="utf-8"?>
<!-- Generator: Adobe Illustrator 16.0.2, SVG Export Plug-In . SVG Version: 6.00 Build 0)  -->
<!DOCTYPE svg PUBLIC "-//W3C//DTD SVG 1.1//EN" "http://www.w3.org/Graphics/SVG/1.1/DTD/svg11.dtd">
<svg version="1.1" id="图层_1" xmlns="http://www.w3.org/2000/svg" xmlns:xlink="http://www.w3.org/1999/xlink" x="0px" y="0px"
	 width="72px" height="72px" viewBox="0 0 72 72" enable-background="new 0 0 72 72" xml:space="preserve">
<path opacity="0.7" fill-rule="evenodd" clip-rule="evenodd" d="M63.226,9c1.859,0,3.453,1.22,4.781,2.548S70,14.471,70,16.329
	v40.906C70,58.962,67.137,63,65.278,63H6.722C3.889,63,2,59.611,2,57.235V16.329c0-1.858,0.665-3.453,1.993-4.781
	C5.454,10.22,7.047,9,8.774,9H63.226 M32,46H11.833v-4H32V46z M32,36H11.833v-4H32V36z M32,26H12v-4h20V26z M64,47.849V54H40
	c0-4.1-0.375-6.151,0-6.151c5.25-1.195,8.625-3.076,8.625-5.637c0-1.025-0.939-2.563-2.626-4.955
	c-1.687-2.392-2.625-4.954-2.625-7.689C43.375,23.076,46.188,20,52,20c5.812,0,8.625,3.076,8.625,9.567
	c0,2.735-0.939,5.297-2.627,7.689c-1.874,2.392-2.624,3.93-2.624,4.955c0,1.194,0.563,2.22,1.876,3.075
	c1.313,1.026,2.812,1.538,4.124,1.878l2.251,0.684"/>
</svg>
