<?xml version="1.0" encoding="utf-8"?>
<!-- Generator: Adobe Illustrator 16.0.2, SVG Export Plug-In . SVG Version: 6.00 Build 0)  -->
<!DOCTYPE svg PUBLIC "-//W3C//DTD SVG 1.1//EN" "http://www.w3.org/Graphics/SVG/1.1/DTD/svg11.dtd">
<svg version="1.1" id="图层_1" xmlns="http://www.w3.org/2000/svg" xmlns:xlink="http://www.w3.org/1999/xlink" x="0px" y="0px"
	 width="72px" height="72px" viewBox="0 0 72 72" enable-background="new 0 0 72 72" xml:space="preserve">
<path opacity="0.7" fill-rule="evenodd" clip-rule="evenodd" d="M27.191,53.731c0.563-0.983,0.702-1.828,0.422-2.812
	c-0.282-0.985-0.845-1.548-1.828-1.97c-0.844-0.421-1.829-0.421-2.954,0c-0.984,0.282-1.827,0.845-2.389,1.828
	c-0.563,0.845-0.703,1.828-0.563,2.672c0.28,0.984,0.843,1.688,1.828,2.109c0.843,0.422,1.827,0.422,2.952,0
	C25.785,55.278,26.629,54.575,27.191,53.731L27.191,53.731L27.191,53.731z M30.987,48.811c0.141-0.281,0.281-0.703,0.141-0.985
	c-0.141-0.421-0.422-0.702-0.703-0.843c-0.422-0.141-0.843,0-1.125,0.141c-0.421,0.141-0.703,0.281-0.983,0.702
	c-0.423,0.845-0.282,1.407,0.563,1.828c0.421,0.142,0.843,0.142,1.124,0C30.425,49.514,30.706,49.232,30.987,48.811L30.987,48.811
	L30.987,48.811z M37.877,53.169c-1.124,2.672-3.233,4.78-6.327,6.047c-2.953,1.265-6.047,1.406-8.999,0.421
	c-2.812-0.843-4.78-2.53-5.905-5.062c-1.125-2.53-0.984-4.922,0.281-7.593c1.266-2.391,3.233-4.358,6.047-5.484
	c2.812-1.265,5.623-1.547,8.437-0.843c3.093,0.843,5.201,2.391,6.467,4.78C39.143,47.967,39.143,50.497,37.877,53.169L37.877,53.169
	L37.877,53.169z M50.532,46.7c-0.281-2.53-1.547-4.779-3.656-6.749c-2.109-2.108-4.921-3.515-8.295-4.499
	c-3.516-0.844-7.171-1.125-11.109-0.844c-5.905,0.703-10.967,2.531-14.763,5.765c-3.938,3.094-5.766,6.75-5.344,10.547
	c0.141,2.671,1.406,4.921,3.516,6.889c2.108,1.969,4.921,3.375,8.437,4.359c3.374,0.984,7.03,1.266,10.967,0.844
	c6.046-0.563,10.968-2.531,14.905-5.624C49.126,54.153,50.813,50.638,50.532,46.7L50.532,46.7L50.532,46.7z M62.905,46.842
	c0,1.828-0.563,3.796-1.546,5.624c-0.984,1.969-2.391,3.797-4.359,5.483c-1.969,1.828-4.218,3.375-6.749,4.781
	c-2.672,1.406-5.624,2.531-9.14,3.375c-3.516,0.702-7.03,1.125-10.827,1.125c-3.796,0-7.453-0.423-11.107-1.266
	c-3.516-0.984-6.75-2.109-9.562-3.797c-2.953-1.546-5.203-3.516-6.891-6.047c-1.827-2.39-2.671-5.061-2.671-8.014
	c0-3.094,0.984-6.328,2.813-9.843c1.827-3.515,4.499-6.891,7.874-10.405c4.499-4.5,9.14-7.593,13.779-9.421
	c4.64-1.827,7.874-1.688,9.843,0.281c1.828,1.688,2.108,4.5,0.843,8.437c-0.14,0.281-0.14,0.563,0,0.703
	c0,0.281,0.142,0.281,0.423,0.281c0.14,0.141,0.28,0.141,0.563,0c0.14,0,0.28,0,0.563-0.14h0.141
	c3.796-1.688,7.03-2.392,9.982-2.392c2.813,0,4.922,0.844,6.047,2.392c1.266,1.687,1.266,4.076,0,7.171
	c0,0.421-0.141,0.703-0.141,0.842c0,0.142,0,0.282,0.141,0.423c0.28,0.142,0.421,0.28,0.563,0.422c0.141,0,0.281,0.141,0.703,0.141
	c1.405,0.563,2.812,1.125,4.077,1.969c1.266,0.702,2.249,1.828,3.234,3.233C62.343,43.606,62.905,45.154,62.905,46.842
	L62.905,46.842L62.905,46.842z M59.813,21.813c1.125,1.265,1.968,2.672,2.25,4.359c0.28,1.687,0.28,3.233-0.282,4.78
	c-0.14,0.563-0.562,0.984-1.124,1.266c-0.563,0.28-1.266,0.422-1.828,0.141c-0.563-0.141-1.125-0.563-1.406-1.125
	c-0.281-0.563-0.281-1.125-0.141-1.828c0.563-1.688,0.281-3.094-0.984-4.358c-1.125-1.406-2.53-1.828-4.219-1.406
	c-0.702,0.14-1.265,0-1.827-0.422c-0.563-0.281-0.984-0.845-0.984-1.406c-0.141-0.703,0-1.266,0.281-1.828s0.844-0.844,1.547-0.983
	c1.546-0.423,3.094-0.282,4.78,0.14C57.422,19.704,58.688,20.548,59.813,21.813L59.813,21.813L59.813,21.813z M67.124,15.204
	c2.39,2.673,3.797,5.625,4.5,8.999c0.703,3.375,0.562,6.609-0.563,9.702c-0.141,0.703-0.703,1.267-1.266,1.547
	c-0.703,0.423-1.406,0.423-2.109,0.281c-0.703-0.281-1.265-0.703-1.688-1.406c-0.281-0.703-0.422-1.405-0.141-2.108
	c0.703-2.25,0.844-4.5,0.422-6.891c-0.563-2.39-1.547-4.499-3.234-6.326c-1.687-1.829-3.655-3.234-5.905-3.938
	c-2.39-0.703-4.64-0.703-7.03-0.282c-0.703,0.141-1.406,0-2.109-0.421c-0.563-0.422-0.983-0.984-1.125-1.688
	c-0.141-0.703,0-1.405,0.422-2.108c0.423-0.562,0.985-0.984,1.688-1.125c3.234-0.703,6.608-0.563,9.843,0.422
	S64.874,12.673,67.124,15.204L67.124,15.204L67.124,15.204z M67.124,15.204"/>
</svg>
